<svg width="24" height="24" viewBox="0 0 24 24" fill="none" xmlns="http://www.w3.org/2000/svg">
<g style="mix-blend-mode:plus-darker">
<path fill-rule="evenodd" clip-rule="evenodd" d="M1.96258 1.52059C1.69983 1.52574 1.48728 1.73603 1.47932 1.99871L1.2639 9.10745C1.25491 9.4043 1.50841 9.6417 1.80403 9.61327L2.4631 9.5499L1.96096 10.859C1.84884 11.1513 2.15493 11.4286 2.43478 11.2883L6.71669 9.1409L13.623 8.47683C13.8759 8.45251 14.069 8.24002 14.069 7.98594V1.78613C14.069 1.50998 13.8422 1.28765 13.5662 1.29307L1.96258 1.52059ZM22.7249 22.2016C22.837 22.4939 22.5309 22.7712 22.2511 22.6308L18.9421 20.9714L11.7316 20.5387C11.5101 20.5255 11.3247 20.3659 11.2787 20.1488L9.7544 12.9629C9.69016 12.66 9.91761 12.3736 10.2272 12.3675L21.7781 12.141C22.0236 12.1362 22.2352 12.3127 22.2746 12.5551L23.5869 20.6479C23.6375 20.9597 23.3859 21.238 23.0706 21.2191L22.331 21.1747L22.7249 22.2016ZM20.0438 8.49353C20.2315 8.58767 20.4435 8.41903 20.394 8.21494L20.2077 7.44764H20.2334C20.5058 7.44764 20.7266 7.22685 20.7266 6.95449V4.48871C20.7266 4.21635 20.5058 3.99556 20.2334 3.99556H16.7813C16.509 3.99556 16.2882 4.21635 16.2882 4.48871V6.95449C16.2882 7.22685 16.509 7.44764 16.7813 7.44764H17.9583L17.9591 7.44806L20.0438 8.49353ZM3.90234 18.8498C3.71461 18.9439 3.50264 18.7753 3.55218 18.5712L3.73845 17.8039H3.71273C3.44037 17.8039 3.21957 17.5831 3.21957 17.3107V14.845C3.21957 14.5726 3.44037 14.3518 3.71273 14.3518H7.16481C7.43717 14.3518 7.65797 14.5726 7.65797 14.845V17.3107C7.65797 17.5831 7.43717 17.8039 7.16481 17.8039H5.98787C5.98759 17.804 5.98731 17.8042 5.98704 17.8043L3.90234 18.8498Z" fill="white"/>
</g>
<g style="mix-blend-mode:hard-light">
<path d="M2.43327 11.2919C2.15342 11.4323 1.84733 11.155 1.95945 10.8627L2.80406 8.66074C2.8549 8.52818 2.9822 8.44067 3.12418 8.44067L6.67028 8.44067C7.03185 8.44067 7.14719 8.92792 6.82398 9.09001L2.43327 11.2919Z" fill="#000E35"/>
</g>
<g style="mix-blend-mode:multiply">
<path d="M1.47846 2.00066C1.48642 1.73798 1.69897 1.52769 1.96172 1.52254L13.5653 1.29502C13.8414 1.2896 14.0681 1.51193 14.0681 1.78808V7.98789C14.0681 8.24197 13.8751 8.45446 13.6222 8.47878L1.80317 9.61522C1.50755 9.64365 1.25405 9.40625 1.26305 9.1094L1.47846 2.00066Z" fill="#0F76D6"/>
</g>
<g style="mix-blend-mode:soft-light">
<rect x="4.01953" y="2.67969" width="7.02863" height="0.85715" rx="0.428575" fill="white"/>
</g>
<g style="mix-blend-mode:soft-light">
<rect x="3.33398" y="4.5625" width="8.5715" height="0.85715" rx="0.428575" fill="white"/>
</g>
<g style="mix-blend-mode:soft-light">
<rect x="4.87695" y="6.45312" width="5.48576" height="0.85715" rx="0.428575" fill="white"/>
</g>
<g style="mix-blend-mode:hard-light">
<path d="M22.2523 22.6357C22.5321 22.776 22.8382 22.4987 22.7261 22.2064L21.8815 20.0045C21.8306 19.8719 21.7034 19.7844 21.5614 19.7844L18.0153 19.7844C17.6537 19.7844 17.5384 20.2717 17.8616 20.4338L22.2523 22.6357Z" fill="#112D5C"/>
</g>
<g style="mix-blend-mode:multiply">
<rect width="7.02863" height="0.85715" rx="0.428575" transform="matrix(-1 0 0 1 20.666 14.0312)" fill="#94C0E8"/>
</g>
<g style="mix-blend-mode:multiply">
<rect width="8.5715" height="0.85715" rx="0.428575" transform="matrix(-1 0 0 1 21.3516 15.9141)" fill="#94C0E8"/>
</g>
<g style="mix-blend-mode:multiply">
<rect width="5.48576" height="0.85715" rx="0.428575" transform="matrix(-1 0 0 1 19.8086 17.8008)" fill="#94C0E8"/>
</g>
<g style="mix-blend-mode:multiply">
<path d="M9.75467 12.967C9.69043 12.6641 9.91789 12.3777 10.2274 12.3716L21.7784 12.1451C22.0239 12.1403 22.2355 12.3168 22.2748 12.5592L23.5872 20.652C23.6377 20.9638 23.3862 21.2421 23.0708 21.2232L11.7318 20.5428C11.5103 20.5296 11.325 20.37 11.279 20.1529L9.75467 12.967Z" fill="#36BBF8"/>
</g>
<g style="mix-blend-mode:hard-light">
<path d="M20.0435 8.49412C20.2312 8.58827 20.4432 8.41962 20.3936 8.21554L20.1398 7.17007C20.113 7.05951 20.014 6.98166 19.9002 6.98166L18.0693 6.98166C17.8093 6.98166 17.7263 7.33209 17.9588 7.44866L20.0435 8.49412Z" fill="#1A2441"/>
</g>
<g style="mix-blend-mode:plus-darker">
<rect x="16.2871" y="3.99609" width="4.43839" height="3.45208" rx="0.493155" fill="#36BBF8"/>
</g>
<g style="mix-blend-mode:plus-darker">
<path d="M3.90184 18.8496C3.71412 18.9437 3.50215 18.7751 3.55169 18.571L3.80548 17.5255C3.83232 17.415 3.93133 17.3371 4.0451 17.3371L5.87601 17.3371C6.13604 17.3371 6.21898 17.6876 5.98654 17.8041L3.90184 18.8496Z" fill="#112D5C"/>
</g>
<g style="mix-blend-mode:plus-darker">
<rect width="4.43839" height="3.45208" rx="0.493155" transform="matrix(-1 0 0 1 7.65625 14.3477)" fill="#94C0E8"/>
</g>
<g opacity="0.6">
<mask id="mask0_7322_252817" style="mask-type:alpha" maskUnits="userSpaceOnUse" x="1" y="1" width="23" height="22">
<g style="mix-blend-mode:plus-darker">
<path fill-rule="evenodd" clip-rule="evenodd" d="M1.96258 1.52059C1.69983 1.52574 1.48728 1.73603 1.47932 1.99871L1.2639 9.10745C1.25491 9.4043 1.50841 9.6417 1.80403 9.61327L2.4631 9.5499L1.96096 10.859C1.84884 11.1513 2.15493 11.4286 2.43478 11.2883L6.71669 9.1409L13.623 8.47683C13.8759 8.45251 14.069 8.24002 14.069 7.98594V1.78613C14.069 1.50998 13.8422 1.28765 13.5662 1.29307L1.96258 1.52059ZM22.7249 22.2016C22.837 22.4939 22.5309 22.7712 22.2511 22.6308L18.9421 20.9714L11.7316 20.5387C11.5101 20.5255 11.3247 20.3659 11.2787 20.1488L9.7544 12.9629C9.69016 12.66 9.91761 12.3736 10.2272 12.3675L21.7781 12.141C22.0236 12.1362 22.2352 12.3127 22.2746 12.5551L23.5869 20.6479C23.6375 20.9597 23.3859 21.238 23.0706 21.2191L22.331 21.1747L22.7249 22.2016ZM20.0438 8.49353C20.2315 8.58767 20.4435 8.41903 20.394 8.21494L20.2077 7.44764H20.2334C20.5058 7.44764 20.7266 7.22685 20.7266 6.95449V4.48871C20.7266 4.21635 20.5058 3.99556 20.2334 3.99556H16.7813C16.509 3.99556 16.2882 4.21635 16.2882 4.48871V6.95449C16.2882 7.22685 16.509 7.44764 16.7813 7.44764H17.9583L17.9591 7.44806L20.0438 8.49353ZM3.90234 18.8498C3.71461 18.9439 3.50264 18.7753 3.55218 18.5712L3.73845 17.8039H3.71273C3.44037 17.8039 3.21957 17.5831 3.21957 17.3107V14.845C3.21957 14.5726 3.44037 14.3518 3.71273 14.3518H7.16481C7.43717 14.3518 7.65797 14.5726 7.65797 14.845V17.3107C7.65797 17.5831 7.43717 17.8039 7.16481 17.8039H5.98787C5.98759 17.804 5.98731 17.8042 5.98704 17.8043L3.90234 18.8498Z" fill="white"/>
</g>
</mask>
<g mask="url(#mask0_7322_252817)">
<path fill-rule="evenodd" clip-rule="evenodd" d="M19.1647 1.24554C19.1979 1.14457 18.5701 1.14457 18.7385 1.30285C18.9606 1.32604 19.0193 1.26328 19.1647 1.24554Z" fill="white"/>
<path fill-rule="evenodd" clip-rule="evenodd" d="M3.42599 1.24922C3.36985 1.27924 3.50256 1.32153 3.53318 1.30653C3.58933 1.27651 3.45662 1.23421 3.42599 1.24922Z" fill="white"/>
<path fill-rule="evenodd" clip-rule="evenodd" d="M16.3984 1.36428C16.4546 1.33426 16.3218 1.29196 16.2938 1.30834C16.2376 1.33835 16.3703 1.38065 16.3984 1.36428Z" fill="white"/>
<path fill-rule="evenodd" clip-rule="evenodd" d="M9.91404 1.36428C9.97019 1.33426 9.83748 1.29196 9.80685 1.30834C9.75071 1.33835 9.88342 1.38065 9.91404 1.36428Z" fill="white"/>
<path fill-rule="evenodd" clip-rule="evenodd" d="M10.5527 1.47449C10.6088 1.44448 10.4761 1.40218 10.4481 1.41719C10.3919 1.44721 10.5246 1.4895 10.5527 1.47449Z" fill="white"/>
<path fill-rule="evenodd" clip-rule="evenodd" d="M9.91404 1.52918C9.97019 1.49917 9.83748 1.45687 9.80685 1.47188C9.75071 1.50189 9.88342 1.54419 9.91404 1.52918Z" fill="white"/>
<path fill-rule="evenodd" clip-rule="evenodd" d="M16.9316 1.58778C16.9878 1.55776 16.855 1.51546 16.827 1.53047C16.7708 1.56049 16.9035 1.60278 16.9316 1.58778Z" fill="white"/>
<path fill-rule="evenodd" clip-rule="evenodd" d="M8.21092 1.58778C8.26707 1.55776 8.13435 1.51546 8.10373 1.53047C8.04758 1.56049 8.18029 1.60278 8.21092 1.58778Z" fill="white"/>
<path fill-rule="evenodd" clip-rule="evenodd" d="M3.74412 1.58778C3.80027 1.55776 3.66756 1.51546 3.63693 1.53047C3.58334 1.56049 3.7135 1.60278 3.74412 1.58778Z" fill="white"/>
<path fill-rule="evenodd" clip-rule="evenodd" d="M4.70114 1.64553C4.75729 1.61551 4.62458 1.57321 4.5965 1.58959C4.54036 1.6196 4.67307 1.6619 4.70114 1.64553Z" fill="white"/>
<path fill-rule="evenodd" clip-rule="evenodd" d="M3.10739 1.70106C3.16354 1.67104 3.03083 1.62874 3.00275 1.64375C2.94661 1.67377 3.07932 1.71607 3.10739 1.70106Z" fill="white"/>
<path fill-rule="evenodd" clip-rule="evenodd" d="M2.89451 1.70106C2.95066 1.67104 2.81795 1.62874 2.78732 1.64375C2.73118 1.67377 2.86389 1.71607 2.89451 1.70106Z" fill="white"/>
<path fill-rule="evenodd" clip-rule="evenodd" d="M11.9355 1.75574C11.9917 1.72573 11.859 1.68343 11.8283 1.69844C11.7722 1.72846 11.9049 1.77075 11.9355 1.75574Z" fill="white"/>
<path fill-rule="evenodd" clip-rule="evenodd" d="M8.74412 1.75574C8.80027 1.72573 8.66756 1.68343 8.63693 1.69844C8.58078 1.72846 8.7135 1.77075 8.74412 1.75574Z" fill="white"/>
<path fill-rule="evenodd" clip-rule="evenodd" d="M6.40428 1.80959C6.46042 1.77957 6.32771 1.73728 6.29709 1.75365C6.24349 1.78367 6.37365 1.82596 6.40428 1.80959Z" fill="white"/>
<path fill-rule="evenodd" clip-rule="evenodd" d="M1.72459 1.86903C1.78074 1.83901 1.64803 1.79671 1.6174 1.81172C1.56125 1.84174 1.69396 1.88403 1.72459 1.86903Z" fill="white"/>
<path fill-rule="evenodd" clip-rule="evenodd" d="M8.1035 1.98231C8.15964 1.95229 8.02693 1.90999 7.99631 1.925C7.94016 1.95502 8.07287 1.99732 8.1035 1.98231Z" fill="white"/>
<path fill-rule="evenodd" clip-rule="evenodd" d="M1.93748 2.03699C1.99363 2.00698 1.86092 1.96468 1.83029 1.97969C1.77414 2.00971 1.90686 2.052 1.93748 2.03699Z" fill="white"/>
<path fill-rule="evenodd" clip-rule="evenodd" d="M2.57614 2.09865C2.63229 2.06864 2.49958 2.02634 2.4715 2.04271C2.41536 2.07273 2.54807 2.11503 2.57614 2.09865Z" fill="white"/>
<path fill-rule="evenodd" clip-rule="evenodd" d="M16.6133 2.15028C16.6694 2.12026 16.5367 2.07796 16.5061 2.09297C16.4499 2.12299 16.5826 2.16528 16.6133 2.15028Z" fill="white"/>
<path fill-rule="evenodd" clip-rule="evenodd" d="M19.5898 2.32588C19.5694 2.26175 19.4826 2.29449 19.4852 2.32588C19.5056 2.39 19.5923 2.35726 19.5898 2.32588Z" fill="white"/>
<path fill-rule="evenodd" clip-rule="evenodd" d="M18.5273 2.33387C18.5835 2.30385 18.4507 2.26156 18.4227 2.27656C18.3665 2.30658 18.4992 2.34888 18.5273 2.33387Z" fill="white"/>
<path fill-rule="evenodd" clip-rule="evenodd" d="M4.70114 2.33387C4.75729 2.30385 4.62458 2.26156 4.5965 2.27656C4.54036 2.30658 4.67307 2.34888 4.70114 2.33387Z" fill="white"/>
<path fill-rule="evenodd" clip-rule="evenodd" d="M12.039 2.38074C12.0952 2.35073 11.9625 2.30843 11.9319 2.32344C11.8757 2.35346 12.0084 2.39575 12.039 2.38074Z" fill="white"/>
<path fill-rule="evenodd" clip-rule="evenodd" d="M6.82809 2.38074C6.88424 2.35073 6.75153 2.30843 6.72345 2.32344C6.66731 2.35346 6.80002 2.39575 6.82809 2.38074Z" fill="white"/>
<path fill-rule="evenodd" clip-rule="evenodd" d="M6.61522 2.44324C6.67136 2.41323 6.53865 2.37093 6.50803 2.38594C6.45188 2.41596 6.58459 2.45825 6.61522 2.44324Z" fill="white"/>
<path fill-rule="evenodd" clip-rule="evenodd" d="M8.6367 2.501C8.69285 2.47098 8.56014 2.42868 8.52951 2.44506C8.47336 2.47507 8.60607 2.51737 8.6367 2.501Z" fill="white"/>
<path fill-rule="evenodd" clip-rule="evenodd" d="M8.21092 2.501C8.26707 2.47098 8.13435 2.42868 8.10373 2.44506C8.04758 2.47507 8.18029 2.51737 8.21092 2.501Z" fill="white"/>
<path fill-rule="evenodd" clip-rule="evenodd" d="M9.6992 2.56043C9.75535 2.53042 9.62264 2.48812 9.59201 2.50313C9.53586 2.53314 9.66857 2.57544 9.6992 2.56043Z" fill="white"/>
<path fill-rule="evenodd" clip-rule="evenodd" d="M13.4219 2.61512C13.478 2.5851 13.3453 2.54281 13.3147 2.55781C13.2585 2.58783 13.3912 2.63013 13.4219 2.61512Z" fill="white"/>
<path fill-rule="evenodd" clip-rule="evenodd" d="M11.1894 2.61512C11.2456 2.5851 11.1129 2.54281 11.0822 2.55781C11.0286 2.58783 11.1588 2.63013 11.1894 2.61512Z" fill="white"/>
<path fill-rule="evenodd" clip-rule="evenodd" d="M4.38281 2.66963C4.3624 2.6055 4.27562 2.63824 4.27562 2.66963C4.29604 2.73375 4.38281 2.70101 4.38281 2.66963Z" fill="white"/>
<path fill-rule="evenodd" clip-rule="evenodd" d="M17.1445 2.72449C17.2007 2.69448 17.0679 2.65218 17.0373 2.66719C16.9812 2.69721 17.1139 2.7395 17.1445 2.72449Z" fill="white"/>
<path fill-rule="evenodd" clip-rule="evenodd" d="M15.4414 2.72489C15.421 2.6594 15.3342 2.69351 15.3342 2.72489C15.3546 2.78902 15.4414 2.75627 15.4414 2.72489Z" fill="white"/>
<path fill-rule="evenodd" clip-rule="evenodd" d="M15.0176 2.72449C15.0737 2.69448 14.941 2.65218 14.9104 2.66719C14.8542 2.69721 14.9869 2.7395 15.0176 2.72449Z" fill="white"/>
<path fill-rule="evenodd" clip-rule="evenodd" d="M7.89255 2.72449C7.94869 2.69448 7.81598 2.65218 7.78791 2.66719C7.73176 2.69721 7.86447 2.7395 7.89255 2.72449Z" fill="white"/>
<path fill-rule="evenodd" clip-rule="evenodd" d="M19.9101 2.78225C19.9663 2.75223 19.8336 2.70993 19.8029 2.72631C19.7468 2.75632 19.8795 2.79862 19.9101 2.78225Z" fill="white"/>
<path fill-rule="evenodd" clip-rule="evenodd" d="M4.70114 2.78225C4.75729 2.75223 4.62458 2.70993 4.5965 2.72631C4.54036 2.75632 4.67307 2.79862 4.70114 2.78225Z" fill="white"/>
<path fill-rule="evenodd" clip-rule="evenodd" d="M11.5078 2.84168C11.5639 2.81167 11.4312 2.76937 11.4006 2.78438C11.3445 2.81439 11.4772 2.85669 11.5078 2.84168Z" fill="white"/>
<path fill-rule="evenodd" clip-rule="evenodd" d="M14.9101 2.89637C14.9663 2.86635 14.8336 2.82406 14.8029 2.83906C14.7494 2.86908 14.8795 2.91138 14.9101 2.89637Z" fill="white"/>
<path fill-rule="evenodd" clip-rule="evenodd" d="M12.5723 2.95869C12.5518 2.89456 12.4651 2.92731 12.4651 2.95869C12.4855 3.02282 12.5723 2.99007 12.5723 2.95869Z" fill="white"/>
<path fill-rule="evenodd" clip-rule="evenodd" d="M11.2949 2.95022C11.351 2.9202 11.2183 2.8779 11.1877 2.89427C11.1316 2.92429 11.2643 2.96659 11.2949 2.95022Z" fill="white"/>
<path fill-rule="evenodd" clip-rule="evenodd" d="M8.21094 2.95869C8.19052 2.89456 8.10375 2.92731 8.10375 2.95869C8.12417 3.02282 8.21094 2.99007 8.21094 2.95869Z" fill="white"/>
<path fill-rule="evenodd" clip-rule="evenodd" d="M3.85154 2.95022C3.90769 2.9202 3.77498 2.8779 3.74435 2.89427C3.68821 2.92429 3.82092 2.96659 3.85154 2.95022Z" fill="white"/>
<path fill-rule="evenodd" clip-rule="evenodd" d="M6.93553 3.00574C6.99167 2.97573 6.85896 2.93343 6.82834 2.94844C6.77474 2.97846 6.9049 3.02075 6.93553 3.00574Z" fill="white"/>
<path fill-rule="evenodd" clip-rule="evenodd" d="M8.84959 3.12293C8.90574 3.09292 8.77303 3.05062 8.7424 3.06563C8.68625 3.09564 8.81896 3.13794 8.84959 3.12293Z" fill="white"/>
<path fill-rule="evenodd" clip-rule="evenodd" d="M12.5722 3.17762C12.6284 3.1476 12.4957 3.10531 12.4651 3.12031C12.4089 3.15033 12.5416 3.19263 12.5722 3.17762Z" fill="white"/>
<path fill-rule="evenodd" clip-rule="evenodd" d="M12.8887 3.23231C12.9448 3.20229 12.8121 3.15999 12.7815 3.175C12.7253 3.20502 12.858 3.24732 12.8887 3.23231Z" fill="white"/>
<path fill-rule="evenodd" clip-rule="evenodd" d="M11.2949 3.23994C11.2745 3.17581 11.1877 3.20856 11.1877 3.23994C11.2081 3.30407 11.2949 3.27132 11.2949 3.23994Z" fill="white"/>
<path fill-rule="evenodd" clip-rule="evenodd" d="M2.57614 3.23231C2.63229 3.20229 2.49958 3.15999 2.4715 3.175C2.41536 3.20502 2.54807 3.24732 2.57614 3.23231Z" fill="white"/>
<path fill-rule="evenodd" clip-rule="evenodd" d="M21.6094 3.404C21.589 3.33987 21.5022 3.37262 21.5022 3.404C21.5226 3.46949 21.6094 3.43538 21.6094 3.404Z" fill="white"/>
<path fill-rule="evenodd" clip-rule="evenodd" d="M22.6738 3.46668C22.73 3.43667 22.5972 3.39437 22.5666 3.40938C22.5105 3.43939 22.6432 3.48169 22.6738 3.46668Z" fill="white"/>
<path fill-rule="evenodd" clip-rule="evenodd" d="M21.6094 3.57645C21.589 3.51096 21.5022 3.54507 21.5022 3.57645C21.5226 3.64058 21.6094 3.60784 21.6094 3.57645Z" fill="white"/>
<path fill-rule="evenodd" clip-rule="evenodd" d="M18.6308 3.57606C18.687 3.54604 18.5543 3.50374 18.5236 3.51875C18.4701 3.54877 18.6002 3.59107 18.6308 3.57606Z" fill="white"/>
<path fill-rule="evenodd" clip-rule="evenodd" d="M11.4023 3.63381C11.4585 3.60379 11.3258 3.56149 11.2951 3.57787C11.239 3.60789 11.3717 3.65018 11.4023 3.63381Z" fill="white"/>
<path fill-rule="evenodd" clip-rule="evenodd" d="M8 3.63056C7.97958 3.56644 7.89281 3.59918 7.89281 3.63056C7.91323 3.69469 8 3.66195 8 3.63056Z" fill="white"/>
<path fill-rule="evenodd" clip-rule="evenodd" d="M23.6308 3.68934C23.687 3.65932 23.5543 3.61702 23.5237 3.63203C23.4675 3.66205 23.6002 3.70435 23.6308 3.68934Z" fill="white"/>
<path fill-rule="evenodd" clip-rule="evenodd" d="M17.1445 3.68934C17.2007 3.65932 17.0679 3.61702 17.0373 3.63203C16.9812 3.66205 17.1139 3.70435 17.1445 3.68934Z" fill="white"/>
<path fill-rule="evenodd" clip-rule="evenodd" d="M10.4433 3.68934C10.4995 3.65932 10.3668 3.61702 10.3362 3.63203C10.28 3.66205 10.4127 3.70435 10.4433 3.68934Z" fill="white"/>
<path fill-rule="evenodd" clip-rule="evenodd" d="M4.70114 3.68934C4.75729 3.65932 4.62458 3.61702 4.5965 3.63203C4.54036 3.66205 4.67307 3.70435 4.70114 3.68934Z" fill="white"/>
<path fill-rule="evenodd" clip-rule="evenodd" d="M21.6094 3.74793C21.6655 3.71792 21.5328 3.67562 21.5022 3.69063C21.446 3.72064 21.5787 3.76294 21.6094 3.74793Z" fill="white"/>
<path fill-rule="evenodd" clip-rule="evenodd" d="M1.51166 3.74385C1.49125 3.67972 1.40447 3.71246 1.40703 3.74385C1.42744 3.80797 1.51422 3.77523 1.51166 3.74385Z" fill="white"/>
<path fill-rule="evenodd" clip-rule="evenodd" d="M9.38279 3.80959C9.43894 3.77957 9.30623 3.73728 9.2756 3.75365C9.21945 3.78367 9.35217 3.82596 9.38279 3.80959Z" fill="white"/>
<path fill-rule="evenodd" clip-rule="evenodd" d="M6.40428 3.80959C6.46042 3.77957 6.32771 3.73728 6.29709 3.75365C6.24349 3.78367 6.37365 3.82596 6.40428 3.80959Z" fill="white"/>
<path fill-rule="evenodd" clip-rule="evenodd" d="M2.46873 3.80959C2.52488 3.77957 2.39217 3.73728 2.36154 3.75365C2.30539 3.78367 2.43811 3.82596 2.46873 3.80959Z" fill="white"/>
<path fill-rule="evenodd" clip-rule="evenodd" d="M23.2051 3.86512C23.2612 3.8351 23.1285 3.79281 23.0979 3.80781C23.0417 3.83783 23.1744 3.88013 23.2051 3.86512Z" fill="white"/>
<path fill-rule="evenodd" clip-rule="evenodd" d="M15.3379 3.91897C15.394 3.88895 15.2613 3.84665 15.2332 3.86302C15.1771 3.89304 15.3098 3.93534 15.3379 3.91897Z" fill="white"/>
<path fill-rule="evenodd" clip-rule="evenodd" d="M11.8281 3.9784C11.8843 3.94838 11.7515 3.90609 11.7209 3.9211C11.6648 3.95111 11.7975 3.99341 11.8281 3.9784Z" fill="white"/>
<path fill-rule="evenodd" clip-rule="evenodd" d="M11.4004 3.97431C11.38 3.91019 11.2932 3.94293 11.2932 3.97431C11.3136 4.03981 11.4004 4.0057 11.4004 3.97431Z" fill="white"/>
<path fill-rule="evenodd" clip-rule="evenodd" d="M2.36522 3.9784C2.42136 3.94838 2.28865 3.90609 2.25802 3.9211C2.20188 3.95111 2.33459 3.99341 2.36522 3.9784Z" fill="white"/>
<path fill-rule="evenodd" clip-rule="evenodd" d="M3.21287 4.03699C3.26902 4.00698 3.13631 3.96468 3.10568 3.97969C3.05209 4.00971 3.18225 4.052 3.21287 4.03699Z" fill="white"/>
<path fill-rule="evenodd" clip-rule="evenodd" d="M17.8887 4.0876C17.8683 4.02347 17.7815 4.05621 17.7815 4.0876C17.8019 4.15172 17.8887 4.11898 17.8887 4.0876Z" fill="white"/>
<path fill-rule="evenodd" clip-rule="evenodd" d="M22.4609 4.31824C22.5171 4.28823 22.3844 4.24593 22.3537 4.26094C22.2976 4.29096 22.4303 4.33325 22.4609 4.31824Z" fill="white"/>
<path fill-rule="evenodd" clip-rule="evenodd" d="M15.9746 4.31824C16.0307 4.28823 15.898 4.24593 15.8674 4.26094C15.8138 4.29096 15.944 4.33325 15.9746 4.31824Z" fill="white"/>
<path fill-rule="evenodd" clip-rule="evenodd" d="M13.7421 4.31806C13.7217 4.25394 13.6349 4.28668 13.6375 4.31806C13.6579 4.38219 13.7447 4.34945 13.7421 4.31806Z" fill="white"/>
<path fill-rule="evenodd" clip-rule="evenodd" d="M4.91406 4.31806C4.89365 4.25394 4.80687 4.28668 4.80687 4.31806C4.82729 4.38219 4.91406 4.34945 4.91406 4.31806Z" fill="white"/>
<path fill-rule="evenodd" clip-rule="evenodd" d="M18.9531 4.37209C19.0093 4.34207 18.8765 4.29978 18.8459 4.31615C18.7898 4.34617 18.9225 4.38846 18.9531 4.37209Z" fill="white"/>
<path fill-rule="evenodd" clip-rule="evenodd" d="M12.5722 4.42762C12.6284 4.3976 12.4957 4.35531 12.4651 4.37031C12.4089 4.40033 12.5416 4.44263 12.5722 4.42762Z" fill="white"/>
<path fill-rule="evenodd" clip-rule="evenodd" d="M12.7851 4.48147C12.8413 4.45145 12.7086 4.40915 12.6779 4.42552C12.6244 4.45554 12.7545 4.49784 12.7851 4.48147Z" fill="white"/>
<path fill-rule="evenodd" clip-rule="evenodd" d="M6.29684 4.5409C6.35299 4.51088 6.22028 4.46859 6.19221 4.4836C6.13606 4.51361 6.26877 4.55591 6.29684 4.5409Z" fill="white"/>
<path fill-rule="evenodd" clip-rule="evenodd" d="M7.57225 4.59949C7.62839 4.56948 7.49568 4.52718 7.46506 4.54219C7.40891 4.57221 7.54162 4.6145 7.57225 4.59949Z" fill="white"/>
<path fill-rule="evenodd" clip-rule="evenodd" d="M22.8867 4.65791C22.8663 4.59378 22.7795 4.62653 22.7795 4.65791C22.7999 4.72204 22.8867 4.68929 22.8867 4.65791Z" fill="white"/>
<path fill-rule="evenodd" clip-rule="evenodd" d="M2.78709 4.65334C2.84324 4.62332 2.71053 4.58103 2.6799 4.5974C2.62375 4.62742 2.75646 4.66971 2.78709 4.65334Z" fill="white"/>
<path fill-rule="evenodd" clip-rule="evenodd" d="M1.93748 4.65334C1.99363 4.62332 1.86092 4.58103 1.83029 4.5974C1.77414 4.62742 1.90686 4.66971 1.93748 4.65334Z" fill="white"/>
<path fill-rule="evenodd" clip-rule="evenodd" d="M22.248 4.71668C22.3042 4.68667 22.1715 4.64437 22.1434 4.65938C22.0872 4.68939 22.2199 4.73169 22.248 4.71668Z" fill="white"/>
<path fill-rule="evenodd" clip-rule="evenodd" d="M17.25 4.82996C17.3061 4.79995 17.1734 4.75765 17.1428 4.77266C17.0866 4.80268 17.2194 4.84497 17.25 4.82996Z" fill="white"/>
<path fill-rule="evenodd" clip-rule="evenodd" d="M12.5722 4.82996C12.6284 4.79995 12.4957 4.75765 12.4651 4.77266C12.4089 4.80268 12.5416 4.84497 12.5722 4.82996Z" fill="white"/>
<path fill-rule="evenodd" clip-rule="evenodd" d="M4.17184 4.82996C4.22799 4.79995 4.09528 4.75765 4.06721 4.77266C4.01106 4.80268 4.14377 4.84497 4.17184 4.82996Z" fill="white"/>
<path fill-rule="evenodd" clip-rule="evenodd" d="M19.4844 4.88465C19.5405 4.85463 19.4078 4.81234 19.3772 4.82735C19.321 4.85736 19.4537 4.89966 19.4844 4.88465Z" fill="white"/>
<path fill-rule="evenodd" clip-rule="evenodd" d="M15.8672 4.94324C15.9233 4.91323 15.7906 4.87093 15.7625 4.88594C15.7064 4.91596 15.8391 4.95825 15.8672 4.94324Z" fill="white"/>
<path fill-rule="evenodd" clip-rule="evenodd" d="M7.99998 4.94324C8.05613 4.91323 7.92342 4.87093 7.89279 4.88594C7.8392 4.91596 7.96936 4.95825 7.99998 4.94324Z" fill="white"/>
<path fill-rule="evenodd" clip-rule="evenodd" d="M7.25389 4.94324C7.31003 4.91323 7.17732 4.87093 7.1467 4.88594C7.09055 4.91596 7.22326 4.95825 7.25389 4.94324Z" fill="white"/>
<path fill-rule="evenodd" clip-rule="evenodd" d="M5.76559 4.94324C5.82174 4.91323 5.68903 4.87093 5.66096 4.88594C5.60481 4.91596 5.73752 4.95825 5.76559 4.94324Z" fill="white"/>
<path fill-rule="evenodd" clip-rule="evenodd" d="M5.44727 4.99833C5.42685 4.93284 5.34008 4.96695 5.34008 4.99833C5.36049 5.06246 5.44727 5.02971 5.44727 4.99833Z" fill="white"/>
<path fill-rule="evenodd" clip-rule="evenodd" d="M22.248 5.05244C22.2276 4.98831 22.1408 5.02106 22.1434 5.05244C22.1638 5.11657 22.2505 5.08382 22.248 5.05244Z" fill="white"/>
<path fill-rule="evenodd" clip-rule="evenodd" d="M10.0177 4.99259C9.95897 5.11811 10.2218 5.07309 10.2295 5.16314C10.4949 5.13995 10.2346 4.9421 10.0177 4.99259Z" fill="white"/>
<path fill-rule="evenodd" clip-rule="evenodd" d="M7.57227 5.05244C7.55185 4.98831 7.46508 5.02106 7.46508 5.05244C7.48549 5.11657 7.57227 5.08382 7.57227 5.05244Z" fill="white"/>
<path fill-rule="evenodd" clip-rule="evenodd" d="M20.1211 5.11512C20.1772 5.0851 20.0445 5.04281 20.0164 5.05781C19.9603 5.08783 20.093 5.13013 20.1211 5.11512Z" fill="white"/>
<path fill-rule="evenodd" clip-rule="evenodd" d="M16.8242 5.11512C16.8803 5.0851 16.7476 5.04281 16.717 5.05781C16.6609 5.08783 16.7936 5.13013 16.8242 5.11512Z" fill="white"/>
<path fill-rule="evenodd" clip-rule="evenodd" d="M16.6133 5.11512C16.6694 5.0851 16.5367 5.04281 16.5061 5.05781C16.4499 5.08783 16.5826 5.13013 16.6133 5.11512Z" fill="white"/>
<path fill-rule="evenodd" clip-rule="evenodd" d="M16.3984 5.11512C16.4546 5.0851 16.3218 5.04281 16.2938 5.05781C16.2376 5.08783 16.3703 5.13013 16.3984 5.11512Z" fill="white"/>
<path fill-rule="evenodd" clip-rule="evenodd" d="M8.21094 5.10713C8.19052 5.043 8.10375 5.07574 8.10375 5.10713C8.12417 5.17262 8.21094 5.13851 8.21094 5.10713Z" fill="white"/>
<path fill-rule="evenodd" clip-rule="evenodd" d="M2.46873 5.11512C2.52488 5.0851 2.39217 5.04281 2.36154 5.05781C2.30539 5.08783 2.43811 5.13013 2.46873 5.11512Z" fill="white"/>
<path fill-rule="evenodd" clip-rule="evenodd" d="M16.0801 5.1659C16.1362 5.13588 16.0035 5.09359 15.9729 5.1086C15.9167 5.13861 16.0494 5.18091 16.0801 5.1659Z" fill="white"/>
<path fill-rule="evenodd" clip-rule="evenodd" d="M9.38279 5.1659C9.43894 5.13588 9.30623 5.09359 9.2756 5.1086C9.21945 5.13861 9.35217 5.18091 9.38279 5.1659Z" fill="white"/>
<path fill-rule="evenodd" clip-rule="evenodd" d="M2.68162 5.1659C2.73777 5.13588 2.60506 5.09359 2.57443 5.1086C2.52084 5.13861 2.651 5.18091 2.68162 5.1659Z" fill="white"/>
<path fill-rule="evenodd" clip-rule="evenodd" d="M2.25779 5.1659C2.31394 5.13588 2.18123 5.09359 2.1506 5.1086C2.09446 5.13861 2.22717 5.18091 2.25779 5.1659Z" fill="white"/>
<path fill-rule="evenodd" clip-rule="evenodd" d="M22.248 5.23146C22.3042 5.20145 22.1715 5.15915 22.1434 5.17552C22.0872 5.20554 22.2199 5.24784 22.248 5.23146Z" fill="white"/>
<path fill-rule="evenodd" clip-rule="evenodd" d="M11.6132 5.23146C11.6694 5.20145 11.5367 5.15915 11.5086 5.17552C11.4525 5.20554 11.5852 5.24784 11.6132 5.23146Z" fill="white"/>
<path fill-rule="evenodd" clip-rule="evenodd" d="M7.25389 5.23146C7.31003 5.20145 7.17732 5.15915 7.1467 5.17552C7.09055 5.20554 7.22326 5.24784 7.25389 5.23146Z" fill="white"/>
<path fill-rule="evenodd" clip-rule="evenodd" d="M12.1465 5.28699C12.2026 5.25698 12.0699 5.21468 12.0418 5.22969C11.9857 5.25971 12.1184 5.302 12.1465 5.28699Z" fill="white"/>
<path fill-rule="evenodd" clip-rule="evenodd" d="M3.10739 5.28699C3.16354 5.25698 3.03083 5.21468 3.00275 5.22969C2.94661 5.25971 3.07932 5.302 3.10739 5.28699Z" fill="white"/>
<path fill-rule="evenodd" clip-rule="evenodd" d="M14.5918 5.3415C14.5714 5.27737 14.4846 5.31012 14.4846 5.3415C14.505 5.40563 14.5918 5.37288 14.5918 5.3415Z" fill="white"/>
<path fill-rule="evenodd" clip-rule="evenodd" d="M1.72266 5.3415C1.70224 5.27737 1.61547 5.31012 1.61547 5.3415C1.63588 5.40563 1.72266 5.37288 1.72266 5.3415Z" fill="white"/>
<path fill-rule="evenodd" clip-rule="evenodd" d="M20.7597 5.39637C20.8159 5.36635 20.6832 5.32406 20.6526 5.33906C20.599 5.36908 20.7291 5.41138 20.7597 5.39637Z" fill="white"/>
<path fill-rule="evenodd" clip-rule="evenodd" d="M12.2519 5.39637C12.3081 5.36635 12.1754 5.32406 12.1447 5.33906C12.0911 5.36908 12.2213 5.41138 12.2519 5.39637Z" fill="white"/>
<path fill-rule="evenodd" clip-rule="evenodd" d="M8.74412 5.39637C8.80027 5.36635 8.66756 5.32406 8.63693 5.33906C8.58078 5.36908 8.7135 5.41138 8.74412 5.39637Z" fill="white"/>
<path fill-rule="evenodd" clip-rule="evenodd" d="M22.248 5.45496C22.3042 5.42495 22.1715 5.38265 22.1434 5.39766C22.0872 5.42768 22.2199 5.46997 22.248 5.45496Z" fill="white"/>
<path fill-rule="evenodd" clip-rule="evenodd" d="M16.2929 5.45496C16.3491 5.42495 16.2164 5.38265 16.1858 5.39766C16.1296 5.42768 16.2623 5.46997 16.2929 5.45496Z" fill="white"/>
<path fill-rule="evenodd" clip-rule="evenodd" d="M20.6523 5.51272C20.7085 5.4827 20.5757 5.4404 20.5477 5.45677C20.4915 5.48679 20.6242 5.52909 20.6523 5.51272Z" fill="white"/>
<path fill-rule="evenodd" clip-rule="evenodd" d="M18.4199 5.56824C18.476 5.53823 18.3433 5.49593 18.3127 5.51094C18.2566 5.54096 18.3893 5.58325 18.4199 5.56824Z" fill="white"/>
<path fill-rule="evenodd" clip-rule="evenodd" d="M22.9922 5.63056C22.9718 5.56644 22.885 5.59918 22.885 5.63056C22.9054 5.69469 22.9922 5.66195 22.9922 5.63056Z" fill="white"/>
<path fill-rule="evenodd" clip-rule="evenodd" d="M12.0391 5.68525C12.0186 5.62112 11.9319 5.65387 11.9319 5.68525C11.9523 5.75074 12.0391 5.71663 12.0391 5.68525Z" fill="white"/>
<path fill-rule="evenodd" clip-rule="evenodd" d="M7.3613 5.67762C7.41744 5.6476 7.28473 5.60531 7.25666 5.62031C7.20051 5.65033 7.33322 5.69263 7.3613 5.67762Z" fill="white"/>
<path fill-rule="evenodd" clip-rule="evenodd" d="M18.7383 5.73621C18.7944 5.7062 18.6617 5.6639 18.6311 5.67891C18.5749 5.70893 18.7076 5.75122 18.7383 5.73621Z" fill="white"/>
<path fill-rule="evenodd" clip-rule="evenodd" d="M12.2519 5.73621C12.3081 5.7062 12.1754 5.6639 12.1447 5.67891C12.0911 5.70893 12.2213 5.75122 12.2519 5.73621Z" fill="white"/>
<path fill-rule="evenodd" clip-rule="evenodd" d="M14.5918 5.79481C14.6479 5.76479 14.5152 5.72249 14.4846 5.7375C14.4284 5.76752 14.5612 5.80982 14.5918 5.79481Z" fill="white"/>
<path fill-rule="evenodd" clip-rule="evenodd" d="M11.4023 5.79481C11.4585 5.76479 11.3258 5.72249 11.2951 5.7375C11.239 5.76752 11.3717 5.80982 11.4023 5.79481Z" fill="white"/>
<path fill-rule="evenodd" clip-rule="evenodd" d="M11.1894 5.79481C11.2456 5.76479 11.1129 5.72249 11.0822 5.7375C11.0286 5.76752 11.1588 5.80982 11.1894 5.79481Z" fill="white"/>
<path fill-rule="evenodd" clip-rule="evenodd" d="M2.25779 5.79481C2.31394 5.76479 2.18123 5.72249 2.1506 5.7375C2.09446 5.76752 2.22717 5.80982 2.25779 5.79481Z" fill="white"/>
<path fill-rule="evenodd" clip-rule="evenodd" d="M19.6953 5.84949C19.7514 5.81948 19.6187 5.77718 19.5881 5.79219C19.5345 5.82221 19.6647 5.8645 19.6953 5.84949Z" fill="white"/>
<path fill-rule="evenodd" clip-rule="evenodd" d="M10.5527 5.84949C10.6088 5.81948 10.4761 5.77718 10.4481 5.79219C10.3919 5.82221 10.5246 5.8645 10.5527 5.84949Z" fill="white"/>
<path fill-rule="evenodd" clip-rule="evenodd" d="M3.5332 5.85292C3.50768 5.78197 3.32138 5.79561 3.32138 5.85292C3.41581 5.88839 3.51023 5.92114 3.5332 5.85292Z" fill="white"/>
<path fill-rule="evenodd" clip-rule="evenodd" d="M23.8431 5.96451C24.1008 6.15553 23.4858 5.8267 23.8431 5.96451V5.96451Z" fill="white"/>
<path fill-rule="evenodd" clip-rule="evenodd" d="M10.7637 5.96356C10.7611 5.90898 10.6335 5.91989 10.5518 5.90625C10.5544 5.96219 10.682 5.94991 10.7637 5.96356Z" fill="white"/>
<path fill-rule="evenodd" clip-rule="evenodd" d="M20.4414 6.02528C20.4975 5.99526 20.3648 5.95296 20.3342 5.96797C20.278 5.99799 20.4108 6.04028 20.4414 6.02528Z" fill="white"/>
<path fill-rule="evenodd" clip-rule="evenodd" d="M3.63864 6.02528C3.69479 5.99526 3.56207 5.95296 3.534 5.96797C3.47785 5.99799 3.61057 6.04028 3.63864 6.02528Z" fill="white"/>
<path fill-rule="evenodd" clip-rule="evenodd" d="M18.7383 6.07912C18.7944 6.0491 18.6617 6.00681 18.6311 6.02318C18.5749 6.0532 18.7076 6.09549 18.7383 6.07912Z" fill="white"/>
<path fill-rule="evenodd" clip-rule="evenodd" d="M17.7812 6.07912C17.8374 6.0491 17.7047 6.00681 17.674 6.02318C17.6179 6.0532 17.7506 6.09549 17.7812 6.07912Z" fill="white"/>
<path fill-rule="evenodd" clip-rule="evenodd" d="M13.4219 6.07912C13.478 6.0491 13.3453 6.00681 13.3147 6.02318C13.2585 6.0532 13.3912 6.09549 13.4219 6.07912Z" fill="white"/>
<path fill-rule="evenodd" clip-rule="evenodd" d="M4.70307 6.07588C4.68265 6.01175 4.59588 6.04449 4.59843 6.07588C4.61885 6.14 4.70562 6.10726 4.70307 6.07588Z" fill="white"/>
<path fill-rule="evenodd" clip-rule="evenodd" d="M4.38279 6.07912C4.43894 6.0491 4.30623 6.00681 4.2756 6.02318C4.21946 6.0532 4.35217 6.09549 4.38279 6.07912Z" fill="white"/>
<path fill-rule="evenodd" clip-rule="evenodd" d="M4.17184 6.07912C4.22799 6.0491 4.09528 6.00681 4.06721 6.02318C4.01106 6.0532 4.14377 6.09549 4.17184 6.07912Z" fill="white"/>
<path fill-rule="evenodd" clip-rule="evenodd" d="M1.51169 6.13856C1.56783 6.10854 1.43512 6.06624 1.40705 6.08125C1.3509 6.11127 1.48361 6.15357 1.51169 6.13856Z" fill="white"/>
<path fill-rule="evenodd" clip-rule="evenodd" d="M19.0586 6.24793C19.1147 6.21792 18.982 6.17562 18.9539 6.19063C18.8978 6.22064 19.0305 6.26294 19.0586 6.24793Z" fill="white"/>
<path fill-rule="evenodd" clip-rule="evenodd" d="M19.5879 6.30653C19.644 6.27651 19.5113 6.23421 19.4832 6.24922C19.4271 6.27924 19.5598 6.32153 19.5879 6.30653Z" fill="white"/>
<path fill-rule="evenodd" clip-rule="evenodd" d="M14.1679 6.30653C14.2241 6.27651 14.0914 6.23421 14.0608 6.24922C14.0046 6.27924 14.1373 6.32153 14.1679 6.30653Z" fill="white"/>
<path fill-rule="evenodd" clip-rule="evenodd" d="M19.2695 6.36818C19.3257 6.33817 19.1929 6.29587 19.1623 6.31224C19.1062 6.34226 19.2389 6.38456 19.2695 6.36818Z" fill="white"/>
<path fill-rule="evenodd" clip-rule="evenodd" d="M6.40428 6.36818C6.46042 6.33817 6.32771 6.29587 6.29709 6.31224C6.24349 6.34226 6.37365 6.38456 6.40428 6.36818Z" fill="white"/>
<path fill-rule="evenodd" clip-rule="evenodd" d="M4.91404 6.36818C4.97019 6.33817 4.83748 6.29587 4.80685 6.31224C4.75071 6.34226 4.88342 6.38456 4.91404 6.36818Z" fill="white"/>
<path fill-rule="evenodd" clip-rule="evenodd" d="M4.59764 6.36818C4.65378 6.33817 4.52107 6.29587 4.49045 6.31224C4.4343 6.34226 4.56701 6.38456 4.59764 6.36818Z" fill="white"/>
<path fill-rule="evenodd" clip-rule="evenodd" d="M3.74414 6.35612C3.6982 6.27289 3.64971 6.36158 3.53231 6.35612C3.55783 6.42707 3.74414 6.41343 3.74414 6.35612Z" fill="white"/>
<path fill-rule="evenodd" clip-rule="evenodd" d="M18.209 6.4163C18.1886 6.35081 18.1018 6.38492 18.1018 6.4163C18.1222 6.48043 18.209 6.44768 18.209 6.4163Z" fill="white"/>
<path fill-rule="evenodd" clip-rule="evenodd" d="M10.8711 6.48147C10.9272 6.45145 10.7945 6.40915 10.7639 6.42552C10.7077 6.45554 10.8404 6.49784 10.8711 6.48147Z" fill="white"/>
<path fill-rule="evenodd" clip-rule="evenodd" d="M8.4238 6.48147C8.47994 6.45145 8.34723 6.40915 8.31916 6.42552C8.26301 6.45554 8.39572 6.49784 8.4238 6.48147Z" fill="white"/>
<path fill-rule="evenodd" clip-rule="evenodd" d="M21.6094 6.53699C21.6655 6.50698 21.5328 6.46468 21.5022 6.47969C21.446 6.50971 21.5787 6.552 21.6094 6.53699Z" fill="white"/>
<path fill-rule="evenodd" clip-rule="evenodd" d="M14.5929 6.47656C14.917 6.66758 14.1999 6.64848 14.5929 6.47656V6.47656Z" fill="white"/>
<path fill-rule="evenodd" clip-rule="evenodd" d="M13.1035 6.53699C13.1596 6.50698 13.0269 6.46468 12.9963 6.47969C12.9402 6.50971 13.0729 6.552 13.1035 6.53699Z" fill="white"/>
<path fill-rule="evenodd" clip-rule="evenodd" d="M20.5488 6.59168C20.605 6.56167 20.4722 6.51937 20.4416 6.53438C20.3855 6.56439 20.5182 6.60669 20.5488 6.59168Z" fill="white"/>
<path fill-rule="evenodd" clip-rule="evenodd" d="M13.4219 6.59168C13.478 6.56167 13.3453 6.51937 13.3147 6.53438C13.2585 6.56439 13.3912 6.60669 13.4219 6.59168Z" fill="white"/>
<path fill-rule="evenodd" clip-rule="evenodd" d="M6.93553 6.59168C6.99167 6.56167 6.85896 6.51937 6.82834 6.53438C6.77474 6.56439 6.9049 6.60669 6.93553 6.59168Z" fill="white"/>
<path fill-rule="evenodd" clip-rule="evenodd" d="M19.4844 6.65028C19.5405 6.62026 19.4078 6.57796 19.3772 6.59297C19.321 6.62299 19.4537 6.66528 19.4844 6.65028Z" fill="white"/>
<path fill-rule="evenodd" clip-rule="evenodd" d="M16.8242 6.70887C16.8803 6.67885 16.7476 6.63656 16.717 6.65156C16.6609 6.68158 16.7936 6.72388 16.8242 6.70887Z" fill="white"/>
<path fill-rule="evenodd" clip-rule="evenodd" d="M20.8652 6.76271C20.9214 6.7327 20.7887 6.6904 20.758 6.70677C20.7019 6.73679 20.8346 6.77909 20.8652 6.76271Z" fill="white"/>
<path fill-rule="evenodd" clip-rule="evenodd" d="M1.40818 6.76271C1.46433 6.7327 1.33162 6.6904 1.30099 6.70677C1.24485 6.73679 1.37756 6.77909 1.40818 6.76271Z" fill="white"/>
<path fill-rule="evenodd" clip-rule="evenodd" d="M13.8457 6.87293C13.9018 6.84292 13.7691 6.80062 13.7385 6.81563C13.6849 6.84564 13.8151 6.88794 13.8457 6.87293Z" fill="white"/>
<path fill-rule="evenodd" clip-rule="evenodd" d="M7.67967 6.87293C7.73582 6.84292 7.6031 6.80062 7.57248 6.81563C7.51633 6.84564 7.64904 6.88794 7.67967 6.87293Z" fill="white"/>
<path fill-rule="evenodd" clip-rule="evenodd" d="M1.72459 6.87293C1.78074 6.84292 1.64803 6.80062 1.6174 6.81563C1.56125 6.84564 1.69396 6.88794 1.72459 6.87293Z" fill="white"/>
<path fill-rule="evenodd" clip-rule="evenodd" d="M12.3594 6.93068C12.4155 6.90067 12.2828 6.85837 12.2522 6.87474C12.196 6.90476 12.3287 6.94706 12.3594 6.93068Z" fill="white"/>
<path fill-rule="evenodd" clip-rule="evenodd" d="M10.125 6.93104C10.0995 6.86009 9.91317 6.87374 9.91317 6.93104C10.0076 6.96652 10.102 6.99927 10.125 6.93104Z" fill="white"/>
<path fill-rule="evenodd" clip-rule="evenodd" d="M5.23239 6.93068C5.28854 6.90067 5.15582 6.85837 5.12775 6.87474C5.0716 6.90476 5.20432 6.94706 5.23239 6.93068Z" fill="white"/>
<path fill-rule="evenodd" clip-rule="evenodd" d="M11.6132 6.99012C11.6694 6.9601 11.5367 6.91781 11.5086 6.93281C11.4525 6.96283 11.5852 7.00513 11.6132 6.99012Z" fill="white"/>
<path fill-rule="evenodd" clip-rule="evenodd" d="M9.6992 6.99012C9.75535 6.9601 9.62264 6.91781 9.59201 6.93281C9.53586 6.96283 9.66857 7.00513 9.6992 6.99012Z" fill="white"/>
<path fill-rule="evenodd" clip-rule="evenodd" d="M3.21287 6.99012C3.26902 6.9601 3.13631 6.91781 3.10568 6.93281C3.05209 6.96283 3.18225 7.00513 3.21287 6.99012Z" fill="white"/>
<path fill-rule="evenodd" clip-rule="evenodd" d="M18.6308 7.0995C18.687 7.06948 18.5543 7.02718 18.5236 7.04219C18.4701 7.07221 18.6002 7.11451 18.6308 7.0995Z" fill="white"/>
<path fill-rule="evenodd" clip-rule="evenodd" d="M23.2051 7.21193C23.2612 7.18192 23.1285 7.13962 23.0979 7.15599C23.0417 7.18601 23.1744 7.22831 23.2051 7.21193Z" fill="white"/>
<path fill-rule="evenodd" clip-rule="evenodd" d="M20.2265 7.21193C20.2827 7.18192 20.15 7.13962 20.1194 7.15599C20.0658 7.18601 20.1959 7.22831 20.2265 7.21193Z" fill="white"/>
<path fill-rule="evenodd" clip-rule="evenodd" d="M13.5312 7.32522C13.5874 7.2952 13.4547 7.2529 13.424 7.26927C13.3679 7.29929 13.5006 7.34159 13.5312 7.32522Z" fill="white"/>
<path fill-rule="evenodd" clip-rule="evenodd" d="M4.17184 7.32522C4.22799 7.2952 4.09528 7.2529 4.06721 7.26927C4.01106 7.29929 4.14377 7.34159 4.17184 7.32522Z" fill="white"/>
<path fill-rule="evenodd" clip-rule="evenodd" d="M17.3574 7.38856C17.4135 7.35854 17.2808 7.31624 17.2502 7.33125C17.1941 7.36127 17.3268 7.40356 17.3574 7.38856Z" fill="white"/>
<path fill-rule="evenodd" clip-rule="evenodd" d="M14.4844 7.38856C14.5405 7.35854 14.4078 7.31624 14.3772 7.33125C14.321 7.36127 14.4537 7.40356 14.4844 7.38856Z" fill="white"/>
<path fill-rule="evenodd" clip-rule="evenodd" d="M7.3613 7.43543C7.41744 7.40542 7.28473 7.36312 7.25666 7.37813C7.20051 7.40814 7.33322 7.45044 7.3613 7.43543Z" fill="white"/>
<path fill-rule="evenodd" clip-rule="evenodd" d="M12.8887 7.50184C12.9448 7.47182 12.8121 7.42952 12.7815 7.44453C12.7253 7.47455 12.858 7.51685 12.8887 7.50184Z" fill="white"/>
<path fill-rule="evenodd" clip-rule="evenodd" d="M18.7383 7.66981C18.7944 7.63979 18.6617 7.59749 18.6311 7.6125C18.5749 7.64252 18.7076 7.68482 18.7383 7.66981Z" fill="white"/>
<path fill-rule="evenodd" clip-rule="evenodd" d="M7.67967 7.66981C7.73582 7.63979 7.6031 7.59749 7.57248 7.6125C7.51633 7.64252 7.64904 7.68482 7.67967 7.66981Z" fill="white"/>
<path fill-rule="evenodd" clip-rule="evenodd" d="M10.4453 7.73213C10.4249 7.668 10.3381 7.70074 10.3381 7.73213C10.3585 7.79625 10.4453 7.76351 10.4453 7.73213Z" fill="white"/>
<path fill-rule="evenodd" clip-rule="evenodd" d="M1.72266 7.73213C1.70224 7.668 1.61547 7.70074 1.61547 7.73213C1.63588 7.79625 1.72266 7.76351 1.72266 7.73213Z" fill="white"/>
<path fill-rule="evenodd" clip-rule="evenodd" d="M2.57614 7.78615C2.63229 7.75614 2.49958 7.71384 2.4715 7.73021C2.41536 7.76023 2.54807 7.80253 2.57614 7.78615Z" fill="white"/>
<path fill-rule="evenodd" clip-rule="evenodd" d="M10.5527 7.90334C10.6088 7.87332 10.4761 7.83103 10.4481 7.8474C10.3919 7.87742 10.5246 7.91971 10.5527 7.90334Z" fill="white"/>
<path fill-rule="evenodd" clip-rule="evenodd" d="M8.6367 8.01356C8.69285 7.98354 8.56014 7.94124 8.52951 7.95625C8.47336 7.98627 8.60607 8.02857 8.6367 8.01356Z" fill="white"/>
<path fill-rule="evenodd" clip-rule="evenodd" d="M23.6302 8.12857C23.8879 8.31959 23.2729 7.99076 23.6302 8.12857V8.12857Z" fill="white"/>
<path fill-rule="evenodd" clip-rule="evenodd" d="M18.6308 8.12684C18.687 8.09682 18.5543 8.05452 18.5236 8.06953C18.4701 8.09955 18.6002 8.14185 18.6308 8.12684Z" fill="white"/>
<path fill-rule="evenodd" clip-rule="evenodd" d="M14.2734 8.12684C14.3296 8.09682 14.1968 8.05452 14.1688 8.06953C14.1126 8.09955 14.2453 8.14185 14.2734 8.12684Z" fill="white"/>
<path fill-rule="evenodd" clip-rule="evenodd" d="M12.8887 8.24012C12.9448 8.2101 12.8121 8.16781 12.7815 8.18281C12.7253 8.21283 12.858 8.25513 12.8887 8.24012Z" fill="white"/>
<path fill-rule="evenodd" clip-rule="evenodd" d="M10.5527 8.29481C10.6088 8.26479 10.4761 8.22249 10.4481 8.2375C10.3919 8.26752 10.5246 8.30982 10.5527 8.29481Z" fill="white"/>
<path fill-rule="evenodd" clip-rule="evenodd" d="M4.70307 8.29463C4.68265 8.2305 4.59588 8.26324 4.59843 8.29463C4.61885 8.35875 4.70562 8.32601 4.70307 8.29463Z" fill="white"/>
<path fill-rule="evenodd" clip-rule="evenodd" d="M3.74382 8.29558C3.68767 8.20826 3.63408 8.29149 3.63663 8.35289C3.69277 8.44021 3.74892 8.35698 3.74382 8.29558Z" fill="white"/>
<path fill-rule="evenodd" clip-rule="evenodd" d="M9.48825 8.40809C9.5444 8.37807 9.41169 8.33577 9.38361 8.35078C9.32747 8.3808 9.46018 8.4231 9.48825 8.40809Z" fill="white"/>
<path fill-rule="evenodd" clip-rule="evenodd" d="M18.4199 8.46584C18.476 8.43582 18.3433 8.39353 18.3127 8.4099C18.2566 8.43992 18.3893 8.48221 18.4199 8.46584Z" fill="white"/>
<path fill-rule="evenodd" clip-rule="evenodd" d="M7.89255 8.46584C7.94869 8.43582 7.81598 8.39353 7.78791 8.4099C7.73176 8.43992 7.86447 8.48221 7.89255 8.46584Z" fill="white"/>
<path fill-rule="evenodd" clip-rule="evenodd" d="M5.55467 8.46584C5.61082 8.43582 5.4781 8.39353 5.44748 8.4099C5.39133 8.43992 5.52404 8.48221 5.55467 8.46584Z" fill="white"/>
<path fill-rule="evenodd" clip-rule="evenodd" d="M10.4453 8.52137C10.5014 8.49135 10.3687 8.44906 10.3381 8.46406C10.282 8.49408 10.4147 8.53638 10.4453 8.52137Z" fill="white"/>
<path fill-rule="evenodd" clip-rule="evenodd" d="M5.76559 8.52137C5.82174 8.49135 5.68903 8.44906 5.66096 8.46406C5.60481 8.49408 5.73752 8.53638 5.76559 8.52137Z" fill="white"/>
<path fill-rule="evenodd" clip-rule="evenodd" d="M3.63862 8.5251C3.6182 8.46097 3.53143 8.49371 3.53398 8.5251C3.5544 8.59059 3.64117 8.55648 3.63862 8.5251Z" fill="white"/>
<path fill-rule="evenodd" clip-rule="evenodd" d="M8.1035 8.57606C8.15964 8.54604 8.02693 8.50374 7.99631 8.51875C7.94016 8.54877 8.07287 8.59106 8.1035 8.57606Z" fill="white"/>
<path fill-rule="evenodd" clip-rule="evenodd" d="M20.7597 8.63772C20.8159 8.6077 20.6832 8.5654 20.6526 8.58177C20.599 8.61179 20.7291 8.65409 20.7597 8.63772Z" fill="white"/>
<path fill-rule="evenodd" clip-rule="evenodd" d="M11.9355 8.63838C11.9151 8.57425 11.8284 8.60699 11.8284 8.63838C11.8488 8.7025 11.9355 8.66976 11.9355 8.63838Z" fill="white"/>
<path fill-rule="evenodd" clip-rule="evenodd" d="M5.65818 8.63772C5.71433 8.6077 5.58162 8.5654 5.55099 8.58177C5.49485 8.61179 5.62756 8.65409 5.65818 8.63772Z" fill="white"/>
<path fill-rule="evenodd" clip-rule="evenodd" d="M19.2695 8.751C19.3257 8.72098 19.1929 8.67868 19.1623 8.69506C19.1062 8.72507 19.2389 8.76737 19.2695 8.751Z" fill="white"/>
<path fill-rule="evenodd" clip-rule="evenodd" d="M16.9316 8.80635C16.9112 8.74222 16.8244 8.77496 16.8269 8.80635C16.8474 8.87184 16.9341 8.83773 16.9316 8.80635Z" fill="white"/>
<path fill-rule="evenodd" clip-rule="evenodd" d="M9.38279 9.09949C9.43894 9.06948 9.30623 9.02718 9.2756 9.04219C9.21945 9.07221 9.35217 9.1145 9.38279 9.09949Z" fill="white"/>
<path fill-rule="evenodd" clip-rule="evenodd" d="M16.0801 9.15418C16.1362 9.12417 16.0035 9.08187 15.9729 9.09688C15.9167 9.12689 16.0494 9.16919 16.0801 9.15418Z" fill="white"/>
<path fill-rule="evenodd" clip-rule="evenodd" d="M11.082 9.15418C11.1381 9.12417 11.0054 9.08187 10.9774 9.09688C10.9212 9.12689 11.0539 9.16919 11.082 9.15418Z" fill="white"/>
<path fill-rule="evenodd" clip-rule="evenodd" d="M20.7597 9.20887C20.8159 9.17885 20.6832 9.13656 20.6526 9.15156C20.599 9.18158 20.7291 9.22388 20.7597 9.20887Z" fill="white"/>
<path fill-rule="evenodd" clip-rule="evenodd" d="M17.7812 9.37867C17.7353 9.2968 17.6868 9.38549 17.5694 9.37867C17.5949 9.44962 17.7812 9.43597 17.7812 9.37867Z" fill="white"/>
<path fill-rule="evenodd" clip-rule="evenodd" d="M17.25 9.38075C17.3061 9.35073 17.1734 9.30843 17.1428 9.32344C17.0866 9.35346 17.2194 9.39576 17.25 9.38075Z" fill="white"/>
<path fill-rule="evenodd" clip-rule="evenodd" d="M16.6133 9.48928C16.6694 9.45926 16.5367 9.41696 16.5061 9.43334C16.4499 9.46335 16.5826 9.50565 16.6133 9.48928Z" fill="white"/>
<path fill-rule="evenodd" clip-rule="evenodd" d="M10.9785 9.48928C11.0346 9.45926 10.9019 9.41696 10.8713 9.43334C10.8152 9.46335 10.9479 9.50565 10.9785 9.48928Z" fill="white"/>
<path fill-rule="evenodd" clip-rule="evenodd" d="M11.1894 9.54481C11.2456 9.51479 11.1129 9.47249 11.0822 9.4875C11.0286 9.51752 11.1588 9.55982 11.1894 9.54481Z" fill="white"/>
<path fill-rule="evenodd" clip-rule="evenodd" d="M2.78711 9.5452C2.76669 9.47971 2.67992 9.51382 2.67992 9.5452C2.70034 9.60933 2.78711 9.57659 2.78711 9.5452Z" fill="white"/>
<path fill-rule="evenodd" clip-rule="evenodd" d="M10.4433 9.60256C10.4995 9.57254 10.3668 9.53024 10.3362 9.54662C10.28 9.57664 10.4127 9.61893 10.4433 9.60256Z" fill="white"/>
<path fill-rule="evenodd" clip-rule="evenodd" d="M15.8672 9.662C15.9233 9.63198 15.7906 9.58968 15.7625 9.60469C15.7064 9.63471 15.8391 9.67701 15.8672 9.662Z" fill="white"/>
<path fill-rule="evenodd" clip-rule="evenodd" d="M12.1465 9.71668C12.2026 9.68667 12.0699 9.64437 12.0418 9.65938C11.9857 9.68939 12.1184 9.73169 12.1465 9.71668Z" fill="white"/>
<path fill-rule="evenodd" clip-rule="evenodd" d="M23.0996 9.77053C23.1557 9.74051 23.023 9.69821 22.9924 9.71459C22.9363 9.7446 23.069 9.7869 23.0996 9.77053Z" fill="white"/>
<path fill-rule="evenodd" clip-rule="evenodd" d="M3.21287 9.82606C3.26902 9.79604 3.13631 9.75374 3.10568 9.76875C3.05209 9.79877 3.18225 9.84107 3.21287 9.82606Z" fill="white"/>
<path fill-rule="evenodd" clip-rule="evenodd" d="M5.87107 9.89162C5.92722 9.86161 5.79451 9.81931 5.76388 9.83568C5.71029 9.8657 5.84045 9.908 5.87107 9.89162Z" fill="white"/>
<path fill-rule="evenodd" clip-rule="evenodd" d="M15.5488 10.0057C15.605 9.97573 15.4722 9.93343 15.4416 9.94844C15.3855 9.97846 15.5182 10.0208 15.5488 10.0057Z" fill="white"/>
<path fill-rule="evenodd" clip-rule="evenodd" d="M2.36523 10.0017C2.34482 9.93753 2.25804 9.97028 2.25804 10.0017C2.27846 10.0658 2.36523 10.033 2.36523 10.0017Z" fill="white"/>
<path fill-rule="evenodd" clip-rule="evenodd" d="M7.78709 10.1151C7.84324 10.0851 7.71052 10.0428 7.6799 10.0578C7.62375 10.0878 7.75646 10.1301 7.78709 10.1151Z" fill="white"/>
<path fill-rule="evenodd" clip-rule="evenodd" d="M21.6094 10.1729C21.6655 10.1429 21.5328 10.1006 21.5022 10.1169C21.446 10.1469 21.5787 10.1892 21.6094 10.1729Z" fill="white"/>
<path fill-rule="evenodd" clip-rule="evenodd" d="M19.2695 10.1654C19.244 10.0945 19.0577 10.1081 19.0577 10.1654C19.1521 10.2009 19.2491 10.2336 19.2695 10.1654Z" fill="white"/>
<path fill-rule="evenodd" clip-rule="evenodd" d="M14.2734 10.1696C14.253 10.1055 14.1662 10.1382 14.1687 10.1696C14.1892 10.2338 14.2759 10.201 14.2734 10.1696Z" fill="white"/>
<path fill-rule="evenodd" clip-rule="evenodd" d="M3.31834 10.1729C3.37449 10.1429 3.24178 10.1006 3.21115 10.1169C3.155 10.1469 3.28771 10.1892 3.31834 10.1729Z" fill="white"/>
<path fill-rule="evenodd" clip-rule="evenodd" d="M20.2265 10.2948C20.2827 10.2648 20.15 10.2225 20.1194 10.2375C20.0658 10.2675 20.1959 10.3098 20.2265 10.2948Z" fill="white"/>
<path fill-rule="evenodd" clip-rule="evenodd" d="M6.40428 10.4541C6.46042 10.4241 6.32771 10.3818 6.29709 10.3982C6.24349 10.4282 6.37365 10.4705 6.40428 10.4541Z" fill="white"/>
<path fill-rule="evenodd" clip-rule="evenodd" d="M10.2324 10.5175C10.2885 10.4874 10.1558 10.4451 10.1252 10.4602C10.0691 10.4902 10.2018 10.5325 10.2324 10.5175Z" fill="white"/>
<path fill-rule="evenodd" clip-rule="evenodd" d="M21.291 10.572C21.2706 10.5078 21.1838 10.5406 21.1838 10.572C21.2042 10.6361 21.291 10.6034 21.291 10.572Z" fill="white"/>
<path fill-rule="evenodd" clip-rule="evenodd" d="M9.27537 10.6299C9.33152 10.5999 9.19881 10.5576 9.16818 10.574C9.11203 10.604 9.24475 10.6463 9.27537 10.6299Z" fill="white"/>
<path fill-rule="evenodd" clip-rule="evenodd" d="M6.82809 10.6299C6.88424 10.5999 6.75153 10.5576 6.72345 10.574C6.66731 10.604 6.80002 10.6463 6.82809 10.6299Z" fill="white"/>
<path fill-rule="evenodd" clip-rule="evenodd" d="M1.83008 10.7356C1.82753 10.6797 1.69992 10.692 1.61825 10.6797C1.6208 10.7343 1.74841 10.7233 1.83008 10.7356Z" fill="white"/>
<path fill-rule="evenodd" clip-rule="evenodd" d="M7.78709 10.8573C7.84324 10.8273 7.71052 10.785 7.6799 10.8C7.62375 10.83 7.75646 10.8723 7.78709 10.8573Z" fill="white"/>
<path fill-rule="evenodd" clip-rule="evenodd" d="M20.7598 10.9154C20.7342 10.8445 20.5479 10.8581 20.5479 10.9154C20.6424 10.9509 20.7368 10.9836 20.7598 10.9154Z" fill="white"/>
<path fill-rule="evenodd" clip-rule="evenodd" d="M10.8711 10.912C10.9272 10.882 10.7945 10.8397 10.7639 10.8547C10.7077 10.8847 10.8404 10.927 10.8711 10.912Z" fill="white"/>
<path fill-rule="evenodd" clip-rule="evenodd" d="M21.291 11.0205C21.3471 10.9905 21.2144 10.9482 21.1838 10.9646C21.1302 10.9946 21.2604 11.0369 21.291 11.0205Z" fill="white"/>
<path fill-rule="evenodd" clip-rule="evenodd" d="M14.8027 11.08C14.8588 11.0499 14.7261 11.0076 14.6981 11.0227C14.6419 11.0527 14.7746 11.095 14.8027 11.08Z" fill="white"/>
<path fill-rule="evenodd" clip-rule="evenodd" d="M6.93553 11.08C6.99167 11.0499 6.85896 11.0076 6.82834 11.0227C6.77474 11.0527 6.9049 11.095 6.93553 11.08Z" fill="white"/>
<path fill-rule="evenodd" clip-rule="evenodd" d="M5.33984 11.0837C5.31943 11.0196 5.23265 11.0523 5.23265 11.0837C5.25307 11.1492 5.33984 11.1151 5.33984 11.0837Z" fill="white"/>
<path fill-rule="evenodd" clip-rule="evenodd" d="M11.082 11.1386C11.1381 11.1085 11.0054 11.0662 10.9774 11.0813C10.9212 11.1113 11.0539 11.1536 11.082 11.1386Z" fill="white"/>
<path fill-rule="evenodd" clip-rule="evenodd" d="M8.6367 11.1386C8.69285 11.1085 8.56014 11.0662 8.52951 11.0813C8.47336 11.1113 8.60607 11.1536 8.6367 11.1386Z" fill="white"/>
<path fill-rule="evenodd" clip-rule="evenodd" d="M21.291 11.1924C21.3471 11.1624 21.2144 11.1201 21.1838 11.1365C21.1302 11.1665 21.2604 11.2088 21.291 11.1924Z" fill="white"/>
<path fill-rule="evenodd" clip-rule="evenodd" d="M7.3613 11.1924C7.41744 11.1624 7.28473 11.1201 7.25666 11.1365C7.20051 11.1665 7.33322 11.2088 7.3613 11.1924Z" fill="white"/>
<path fill-rule="evenodd" clip-rule="evenodd" d="M4.59764 11.2479C4.65378 11.2179 4.52107 11.1756 4.49045 11.1906C4.4343 11.2206 4.56701 11.2629 4.59764 11.2479Z" fill="white"/>
<path fill-rule="evenodd" clip-rule="evenodd" d="M20.6523 11.369C20.7085 11.339 20.5757 11.2967 20.5477 11.3117C20.4915 11.3417 20.6242 11.384 20.6523 11.369Z" fill="white"/>
<path fill-rule="evenodd" clip-rule="evenodd" d="M20.1211 11.369C20.1772 11.339 20.0445 11.2967 20.0164 11.3117C19.9603 11.3417 20.093 11.384 20.1211 11.369Z" fill="white"/>
<path fill-rule="evenodd" clip-rule="evenodd" d="M11.4023 11.369C11.4585 11.339 11.3258 11.2967 11.2951 11.3117C11.239 11.3417 11.3717 11.384 11.4023 11.369Z" fill="white"/>
<path fill-rule="evenodd" clip-rule="evenodd" d="M3.95897 11.4237C4.01511 11.3937 3.8824 11.3514 3.85177 11.3664C3.79563 11.3964 3.92834 11.4387 3.95897 11.4237Z" fill="white"/>
<path fill-rule="evenodd" clip-rule="evenodd" d="M20.334 11.4782C20.3136 11.4141 20.2268 11.4468 20.2268 11.4782C20.2472 11.5423 20.334 11.5096 20.334 11.4782Z" fill="white"/>
<path fill-rule="evenodd" clip-rule="evenodd" d="M12.6777 11.4815C12.7338 11.4514 12.6011 11.4092 12.5731 11.4255C12.5169 11.4555 12.6496 11.4978 12.6777 11.4815Z" fill="white"/>
<path fill-rule="evenodd" clip-rule="evenodd" d="M2.78709 11.4815C2.84324 11.4514 2.71053 11.4092 2.6799 11.4255C2.62375 11.4555 2.75646 11.4978 2.78709 11.4815Z" fill="white"/>
<path fill-rule="evenodd" clip-rule="evenodd" d="M22.6738 11.537C22.73 11.507 22.5972 11.4647 22.5666 11.4797C22.5105 11.5097 22.6432 11.552 22.6738 11.537Z" fill="white"/>
<path fill-rule="evenodd" clip-rule="evenodd" d="M14.3789 11.537C14.435 11.507 14.3023 11.4647 14.2717 11.4797C14.2181 11.5097 14.3483 11.552 14.3789 11.537Z" fill="white"/>
<path fill-rule="evenodd" clip-rule="evenodd" d="M13.5312 11.537C13.5874 11.507 13.4547 11.4647 13.424 11.4797C13.3679 11.5097 13.5006 11.552 13.5312 11.537Z" fill="white"/>
<path fill-rule="evenodd" clip-rule="evenodd" d="M7.57225 11.6542C7.62839 11.6242 7.49568 11.5819 7.46506 11.5969C7.40891 11.6269 7.54162 11.6692 7.57225 11.6542Z" fill="white"/>
<path fill-rule="evenodd" clip-rule="evenodd" d="M8.21094 11.7097C8.20839 11.6537 8.08078 11.6646 7.99911 11.6523C8.00166 11.7083 8.12927 11.6974 8.21094 11.7097Z" fill="white"/>
<path fill-rule="evenodd" clip-rule="evenodd" d="M23.3125 11.7714C23.3686 11.7414 23.2359 11.6991 23.2078 11.7141C23.1517 11.7441 23.2844 11.7864 23.3125 11.7714Z" fill="white"/>
<path fill-rule="evenodd" clip-rule="evenodd" d="M15.125 11.7714C15.1811 11.7414 15.0484 11.6991 15.0178 11.7141C14.9616 11.7441 15.0944 11.7864 15.125 11.7714Z" fill="white"/>
<path fill-rule="evenodd" clip-rule="evenodd" d="M19.5879 11.8261C19.644 11.796 19.5113 11.7537 19.4832 11.7688C19.4271 11.7988 19.5598 11.8411 19.5879 11.8261Z" fill="white"/>
<path fill-rule="evenodd" clip-rule="evenodd" d="M1.51169 11.8261C1.56783 11.796 1.43512 11.7537 1.40705 11.7688C1.3509 11.7988 1.48361 11.8411 1.51169 11.8261Z" fill="white"/>
<path fill-rule="evenodd" clip-rule="evenodd" d="M19.9101 11.8799C19.9663 11.8499 19.8336 11.8076 19.8029 11.824C19.7468 11.854 19.8795 11.8963 19.9101 11.8799Z" fill="white"/>
<path fill-rule="evenodd" clip-rule="evenodd" d="M2.57614 11.8799C2.63229 11.8499 2.49958 11.8076 2.4715 11.824C2.41536 11.854 2.54807 11.8963 2.57614 11.8799Z" fill="white"/>
<path fill-rule="evenodd" clip-rule="evenodd" d="M11.4004 12.1116C11.38 12.0461 11.2932 12.0802 11.2932 12.1116C11.3136 12.1757 11.4004 12.143 11.4004 12.1116Z" fill="white"/>
<path fill-rule="evenodd" clip-rule="evenodd" d="M19.6953 12.1612C19.7514 12.1311 19.6187 12.0888 19.5881 12.1052C19.5345 12.1352 19.6647 12.1775 19.6953 12.1612Z" fill="white"/>
<path fill-rule="evenodd" clip-rule="evenodd" d="M5.23239 12.1612C5.28854 12.1311 5.15582 12.0888 5.12775 12.1052C5.0716 12.1352 5.20432 12.1775 5.23239 12.1612Z" fill="white"/>
<path fill-rule="evenodd" clip-rule="evenodd" d="M4.70114 12.1612C4.75729 12.1311 4.62458 12.0888 4.5965 12.1052C4.54036 12.1352 4.67307 12.1775 4.70114 12.1612Z" fill="white"/>
<path fill-rule="evenodd" clip-rule="evenodd" d="M8.4238 12.2167C8.47994 12.1867 8.34723 12.1444 8.31916 12.1594C8.26301 12.1894 8.39572 12.2317 8.4238 12.2167Z" fill="white"/>
<path fill-rule="evenodd" clip-rule="evenodd" d="M21.291 12.333C21.3471 12.303 21.2144 12.2607 21.1838 12.2771C21.1302 12.3071 21.2604 12.3494 21.291 12.333Z" fill="white"/>
<path fill-rule="evenodd" clip-rule="evenodd" d="M19.8027 12.4375H19.5909V12.5507H19.8027V12.4375Z" fill="white"/>
<path fill-rule="evenodd" clip-rule="evenodd" d="M17.4629 12.4979C17.519 12.4679 17.3863 12.4256 17.3582 12.4406C17.3021 12.4706 17.4348 12.5129 17.4629 12.4979Z" fill="white"/>
<path fill-rule="evenodd" clip-rule="evenodd" d="M13.8457 12.5603C13.8253 12.4961 13.7385 12.5289 13.7385 12.5603C13.7589 12.6244 13.8457 12.5916 13.8457 12.5603Z" fill="white"/>
<path fill-rule="evenodd" clip-rule="evenodd" d="M1.61912 12.5565C1.67527 12.5265 1.54256 12.4842 1.51193 12.4992C1.45834 12.5292 1.5885 12.5715 1.61912 12.5565Z" fill="white"/>
<path fill-rule="evenodd" clip-rule="evenodd" d="M22.6738 12.6151C22.73 12.5851 22.5972 12.5428 22.5666 12.5578C22.5105 12.5878 22.6432 12.6301 22.6738 12.6151Z" fill="white"/>
<path fill-rule="evenodd" clip-rule="evenodd" d="M3.95897 12.6151C4.01511 12.5851 3.8824 12.5428 3.85177 12.5578C3.79563 12.5878 3.92834 12.6301 3.95897 12.6151Z" fill="white"/>
<path fill-rule="evenodd" clip-rule="evenodd" d="M20.9726 12.6776C21.0288 12.6476 20.8961 12.6053 20.8654 12.6203C20.8093 12.6503 20.942 12.6926 20.9726 12.6776Z" fill="white"/>
<path fill-rule="evenodd" clip-rule="evenodd" d="M12.2519 12.6776C12.3081 12.6476 12.1754 12.6053 12.1447 12.6203C12.0911 12.6503 12.2213 12.6926 12.2519 12.6776Z" fill="white"/>
<path fill-rule="evenodd" clip-rule="evenodd" d="M9.91404 12.7237C9.97019 12.6936 9.83748 12.6513 9.80685 12.6677C9.75071 12.6977 9.88342 12.74 9.91404 12.7237Z" fill="white"/>
<path fill-rule="evenodd" clip-rule="evenodd" d="M11.6132 12.787C11.6694 12.757 11.5367 12.7147 11.5086 12.7297C11.4525 12.7597 11.5852 12.802 11.6132 12.787Z" fill="white"/>
<path fill-rule="evenodd" clip-rule="evenodd" d="M18.8457 12.9072C18.9018 12.8772 18.7691 12.8349 18.7385 12.8513C18.6823 12.8813 18.8151 12.9236 18.8457 12.9072Z" fill="white"/>
<path fill-rule="evenodd" clip-rule="evenodd" d="M13.7421 12.904C13.7217 12.8399 13.6349 12.8726 13.6375 12.904C13.6579 12.9681 13.7447 12.9354 13.7421 12.904Z" fill="white"/>
<path fill-rule="evenodd" clip-rule="evenodd" d="M18.6308 13.0682C18.687 13.0382 18.5543 12.9959 18.5236 13.0109C18.4701 13.041 18.6002 13.0833 18.6308 13.0682Z" fill="white"/>
<path fill-rule="evenodd" clip-rule="evenodd" d="M11.9355 13.0682C11.9917 13.0382 11.859 12.9959 11.8283 13.0109C11.7722 13.041 11.9049 13.0833 11.9355 13.0682Z" fill="white"/>
<path fill-rule="evenodd" clip-rule="evenodd" d="M8.1035 13.1307C8.15964 13.1007 8.02693 13.0584 7.99631 13.0734C7.94016 13.1035 8.07287 13.1458 8.1035 13.1307Z" fill="white"/>
<path fill-rule="evenodd" clip-rule="evenodd" d="M17.1445 13.4706C17.2007 13.4406 17.0679 13.3983 17.0373 13.4133C16.9812 13.4433 17.1139 13.4856 17.1445 13.4706Z" fill="white"/>
<path fill-rule="evenodd" clip-rule="evenodd" d="M22.0371 13.5876C22.0167 13.5235 21.9299 13.5562 21.9299 13.5876C21.9503 13.6517 22.0371 13.619 22.0371 13.5876Z" fill="white"/>
<path fill-rule="evenodd" clip-rule="evenodd" d="M18.6308 13.751C18.687 13.721 18.5543 13.6787 18.5236 13.6951C18.4701 13.7251 18.6002 13.7674 18.6308 13.751Z" fill="white"/>
<path fill-rule="evenodd" clip-rule="evenodd" d="M13.4219 13.751C13.478 13.721 13.3453 13.6787 13.3147 13.6951C13.2585 13.7251 13.3912 13.7674 13.4219 13.751Z" fill="white"/>
<path fill-rule="evenodd" clip-rule="evenodd" d="M9.6992 13.751C9.75535 13.721 9.62264 13.6787 9.59201 13.6951C9.53586 13.7251 9.66857 13.7674 9.6992 13.751Z" fill="white"/>
<path fill-rule="evenodd" clip-rule="evenodd" d="M12.2519 13.8104C12.3081 13.7804 12.1754 13.7381 12.1447 13.7531C12.0911 13.7831 12.2213 13.8254 12.2519 13.8104Z" fill="white"/>
<path fill-rule="evenodd" clip-rule="evenodd" d="M13.7422 13.9198C13.7983 13.8898 13.6656 13.8475 13.6375 13.8625C13.5814 13.8925 13.7141 13.9348 13.7422 13.9198Z" fill="white"/>
<path fill-rule="evenodd" clip-rule="evenodd" d="M21.8222 13.9745C21.8784 13.9445 21.7457 13.9022 21.7151 13.9172C21.6615 13.9472 21.7916 13.9895 21.8222 13.9745Z" fill="white"/>
<path fill-rule="evenodd" clip-rule="evenodd" d="M20.6523 13.9745C20.7085 13.9445 20.5757 13.9022 20.5477 13.9172C20.4915 13.9472 20.6242 13.9895 20.6523 13.9745Z" fill="white"/>
<path fill-rule="evenodd" clip-rule="evenodd" d="M19.0586 13.9745C19.1147 13.9445 18.982 13.9022 18.9539 13.9172C18.8978 13.9472 19.0305 13.9895 19.0586 13.9745Z" fill="white"/>
<path fill-rule="evenodd" clip-rule="evenodd" d="M16.9316 14.0401C16.9878 14.01 16.855 13.9677 16.827 13.9841C16.7708 14.0141 16.9035 14.0564 16.9316 14.0401Z" fill="white"/>
<path fill-rule="evenodd" clip-rule="evenodd" d="M8.74414 14.2087C8.72372 14.1446 8.63695 14.1773 8.63695 14.2087C8.65737 14.2742 8.74414 14.2401 8.74414 14.2087Z" fill="white"/>
<path fill-rule="evenodd" clip-rule="evenodd" d="M13.9542 14.3242C13.6888 14.3474 13.9491 14.5453 14.166 14.4948C14.1277 14.4197 13.9797 14.4047 13.9542 14.3242Z" fill="white"/>
<path fill-rule="evenodd" clip-rule="evenodd" d="M16.6133 14.4424C16.6694 14.4124 16.5367 14.3701 16.5061 14.3865C16.4499 14.4165 16.5826 14.4588 16.6133 14.4424Z" fill="white"/>
<path fill-rule="evenodd" clip-rule="evenodd" d="M6.72266 14.4392C6.70224 14.375 6.61547 14.4078 6.61547 14.4392C6.63588 14.5033 6.72266 14.4705 6.72266 14.4392Z" fill="white"/>
<path fill-rule="evenodd" clip-rule="evenodd" d="M12.4668 14.4979C12.5229 14.4679 12.3902 14.4256 12.3596 14.4406C12.3034 14.4706 12.4362 14.5129 12.4668 14.4979Z" fill="white"/>
<path fill-rule="evenodd" clip-rule="evenodd" d="M13.1035 14.7204C13.0831 14.6563 12.9963 14.689 12.9963 14.7204C13.0167 14.7845 13.1035 14.7518 13.1035 14.7204Z" fill="white"/>
<path fill-rule="evenodd" clip-rule="evenodd" d="M20.2265 14.7792C20.2827 14.7492 20.15 14.7069 20.1194 14.7219C20.0658 14.7519 20.1959 14.7942 20.2265 14.7792Z" fill="white"/>
<path fill-rule="evenodd" clip-rule="evenodd" d="M6.19139 14.8339C6.24753 14.8039 6.11482 14.7616 6.0842 14.7766C6.02805 14.8066 6.16076 14.8489 6.19139 14.8339Z" fill="white"/>
<path fill-rule="evenodd" clip-rule="evenodd" d="M15.8672 14.8877C15.9233 14.8577 15.7906 14.8154 15.7625 14.8318C15.7064 14.8618 15.8391 14.9041 15.8672 14.8877Z" fill="white"/>
<path fill-rule="evenodd" clip-rule="evenodd" d="M8.84959 14.8877C8.90574 14.8577 8.77303 14.8154 8.7424 14.8318C8.68625 14.8618 8.81896 14.9041 8.84959 14.8877Z" fill="white"/>
<path fill-rule="evenodd" clip-rule="evenodd" d="M2.78709 14.8877C2.84324 14.8577 2.71053 14.8154 2.6799 14.8318C2.62375 14.8618 2.75646 14.9041 2.78709 14.8877Z" fill="white"/>
<path fill-rule="evenodd" clip-rule="evenodd" d="M8.21092 14.9472C8.26707 14.9171 8.13435 14.8748 8.10373 14.8898C8.04758 14.9199 8.18029 14.9622 8.21092 14.9472Z" fill="white"/>
<path fill-rule="evenodd" clip-rule="evenodd" d="M19.4844 15.0049C19.5405 14.9749 19.4078 14.9326 19.3772 14.949C19.321 14.979 19.4537 15.0213 19.4844 15.0049Z" fill="white"/>
<path fill-rule="evenodd" clip-rule="evenodd" d="M22.1426 15.0604C22.1987 15.0304 22.066 14.9881 22.0354 15.0031C21.9792 15.0331 22.1119 15.0754 22.1426 15.0604Z" fill="white"/>
<path fill-rule="evenodd" clip-rule="evenodd" d="M8.6367 15.0604C8.69285 15.0304 8.56014 14.9881 8.52951 15.0031C8.47336 15.0331 8.60607 15.0754 8.6367 15.0604Z" fill="white"/>
<path fill-rule="evenodd" clip-rule="evenodd" d="M4.06445 15.0639C4.03893 14.9929 3.85262 15.0066 3.85262 15.0639C3.94705 15.0993 4.04148 15.1321 4.06445 15.0639Z" fill="white"/>
<path fill-rule="evenodd" clip-rule="evenodd" d="M20.0156 15.2284C20.0718 15.1984 19.939 15.1561 19.9084 15.1711C19.8523 15.2011 19.985 15.2434 20.0156 15.2284Z" fill="white"/>
<path fill-rule="evenodd" clip-rule="evenodd" d="M15.2285 15.2284C15.2846 15.1984 15.1519 15.1561 15.1213 15.1711C15.0652 15.2011 15.1979 15.2434 15.2285 15.2284Z" fill="white"/>
<path fill-rule="evenodd" clip-rule="evenodd" d="M21.6091 15.3461C21.5529 15.2588 21.4968 15.3434 21.5019 15.4034C21.558 15.4907 21.6142 15.4061 21.6091 15.3461Z" fill="white"/>
<path fill-rule="evenodd" clip-rule="evenodd" d="M16.7207 15.458C16.7768 15.428 16.6441 15.3857 16.6135 15.4021C16.5573 15.4321 16.6901 15.4744 16.7207 15.458Z" fill="white"/>
<path fill-rule="evenodd" clip-rule="evenodd" d="M20.334 15.5175C20.3901 15.4874 20.2574 15.4451 20.2268 15.4602C20.1706 15.4902 20.3033 15.5325 20.334 15.5175Z" fill="white"/>
<path fill-rule="evenodd" clip-rule="evenodd" d="M9.27537 15.5175C9.33152 15.4874 9.19881 15.4451 9.16818 15.4602C9.11203 15.4902 9.24475 15.5325 9.27537 15.5175Z" fill="white"/>
<path fill-rule="evenodd" clip-rule="evenodd" d="M8.84959 15.5175C8.90574 15.4874 8.77303 15.4451 8.7424 15.4602C8.68625 15.4902 8.81896 15.5325 8.84959 15.5175Z" fill="white"/>
<path fill-rule="evenodd" clip-rule="evenodd" d="M19.9101 15.6307C19.9663 15.6007 19.8336 15.5584 19.8029 15.5734C19.7468 15.6035 19.8795 15.6458 19.9101 15.6307Z" fill="white"/>
<path fill-rule="evenodd" clip-rule="evenodd" d="M10.0175 15.7471C10.0737 15.7171 9.94098 15.6748 9.91291 15.6911C9.85676 15.7212 9.98947 15.7635 10.0175 15.7471Z" fill="white"/>
<path fill-rule="evenodd" clip-rule="evenodd" d="M19.2695 15.8604C19.3257 15.8304 19.1929 15.7881 19.1623 15.8044C19.1062 15.8344 19.2389 15.8767 19.2695 15.8604Z" fill="white"/>
<path fill-rule="evenodd" clip-rule="evenodd" d="M4.17184 15.8604C4.22799 15.8304 4.09528 15.7881 4.06721 15.8044C4.01106 15.8344 4.14377 15.8767 4.17184 15.8604Z" fill="white"/>
<path fill-rule="evenodd" clip-rule="evenodd" d="M17.25 15.9745C17.3061 15.9445 17.1734 15.9022 17.1428 15.9172C17.0866 15.9472 17.2194 15.9895 17.25 15.9745Z" fill="white"/>
<path fill-rule="evenodd" clip-rule="evenodd" d="M21.291 16.0839C21.3471 16.0539 21.2144 16.0116 21.1838 16.0266C21.1302 16.0566 21.2604 16.0989 21.291 16.0839Z" fill="white"/>
<path fill-rule="evenodd" clip-rule="evenodd" d="M11.082 16.1416C11.1381 16.1116 11.0054 16.0693 10.9774 16.0857C10.9212 16.1157 11.0539 16.158 11.082 16.1416Z" fill="white"/>
<path fill-rule="evenodd" clip-rule="evenodd" d="M5.23239 16.1416C5.28854 16.1116 5.15582 16.0693 5.12775 16.0857C5.0716 16.1157 5.20432 16.158 5.23239 16.1416Z" fill="white"/>
<path fill-rule="evenodd" clip-rule="evenodd" d="M17.4628 16.197C17.4424 16.1328 17.3556 16.1656 17.3582 16.197C17.3786 16.2625 17.4654 16.2284 17.4628 16.197Z" fill="white"/>
<path fill-rule="evenodd" clip-rule="evenodd" d="M18.6308 16.2557C18.687 16.2257 18.5543 16.1834 18.5236 16.1984C18.4701 16.2285 18.6002 16.2708 18.6308 16.2557Z" fill="white"/>
<path fill-rule="evenodd" clip-rule="evenodd" d="M17.25 16.2557C17.3061 16.2257 17.1734 16.1834 17.1428 16.1984C17.0866 16.2285 17.2194 16.2708 17.25 16.2557Z" fill="white"/>
<path fill-rule="evenodd" clip-rule="evenodd" d="M12.8887 16.2557C12.9448 16.2257 12.8121 16.1834 12.7815 16.1984C12.7253 16.2285 12.858 16.2708 12.8887 16.2557Z" fill="white"/>
<path fill-rule="evenodd" clip-rule="evenodd" d="M21.0801 16.2578H20.7611C20.7304 16.3492 20.8606 16.3561 20.8682 16.4284H21.0801V16.2578Z" fill="white"/>
<path fill-rule="evenodd" clip-rule="evenodd" d="M4.49022 16.3096C4.54636 16.2796 4.41365 16.2373 4.38303 16.2536C4.32688 16.2837 4.45959 16.326 4.49022 16.3096Z" fill="white"/>
<path fill-rule="evenodd" clip-rule="evenodd" d="M22.6738 16.3651C22.73 16.3351 22.5972 16.2928 22.5666 16.3078C22.5105 16.3378 22.6432 16.3801 22.6738 16.3651Z" fill="white"/>
<path fill-rule="evenodd" clip-rule="evenodd" d="M16.5058 16.3651C16.562 16.3351 16.4293 16.2928 16.3987 16.3078C16.3451 16.3378 16.4752 16.3801 16.5058 16.3651Z" fill="white"/>
<path fill-rule="evenodd" clip-rule="evenodd" d="M20.0156 16.4229C20.0718 16.3929 19.939 16.3506 19.9084 16.3669C19.8523 16.3969 19.985 16.4392 20.0156 16.4229Z" fill="white"/>
<path fill-rule="evenodd" clip-rule="evenodd" d="M3.53318 16.4229C3.58933 16.3929 3.45662 16.3506 3.42599 16.3669C3.36985 16.3969 3.50256 16.4392 3.53318 16.4229Z" fill="white"/>
<path fill-rule="evenodd" clip-rule="evenodd" d="M21.6094 16.537C21.6655 16.507 21.5328 16.4647 21.5022 16.4797C21.446 16.5097 21.5787 16.552 21.6094 16.537Z" fill="white"/>
<path fill-rule="evenodd" clip-rule="evenodd" d="M5.23239 16.537C5.28854 16.507 5.15582 16.4647 5.12775 16.4797C5.0716 16.5097 5.20432 16.552 5.23239 16.537Z" fill="white"/>
<path fill-rule="evenodd" clip-rule="evenodd" d="M14.1679 16.6542C14.2241 16.6242 14.0914 16.5819 14.0608 16.5969C14.0046 16.6269 14.1373 16.6692 14.1679 16.6542Z" fill="white"/>
<path fill-rule="evenodd" clip-rule="evenodd" d="M1.72459 16.6542C1.78074 16.6242 1.64803 16.5819 1.6174 16.5969C1.56125 16.6269 1.69396 16.6692 1.72459 16.6542Z" fill="white"/>
<path fill-rule="evenodd" clip-rule="evenodd" d="M12.5722 16.7041C12.6284 16.6741 12.4957 16.6318 12.4651 16.6482C12.4089 16.6782 12.5416 16.7205 12.5722 16.7041Z" fill="white"/>
<path fill-rule="evenodd" clip-rule="evenodd" d="M7.36201 16.6562C7.00471 16.674 6.93835 16.8459 6.83116 16.9974C6.92559 17.0219 7.02257 17.0478 7.04299 17.1106C7.13997 16.9592 7.6453 16.835 7.36201 16.6562Z" fill="white"/>
<path fill-rule="evenodd" clip-rule="evenodd" d="M19.2695 16.8261C19.3257 16.796 19.1929 16.7537 19.1623 16.7688C19.1062 16.7988 19.2389 16.8411 19.2695 16.8261Z" fill="white"/>
<path fill-rule="evenodd" clip-rule="evenodd" d="M6.19139 16.8261C6.24753 16.796 6.11482 16.7537 6.0842 16.7688C6.02805 16.7988 6.16076 16.8411 6.19139 16.8261Z" fill="white"/>
<path fill-rule="evenodd" clip-rule="evenodd" d="M15.125 16.8807C15.1811 16.8507 15.0484 16.8084 15.0178 16.8234C14.9616 16.8535 15.0944 16.8958 15.125 16.8807Z" fill="white"/>
<path fill-rule="evenodd" clip-rule="evenodd" d="M13.8457 16.8807C13.9018 16.8507 13.7691 16.8084 13.7385 16.8234C13.6849 16.8535 13.8151 16.8958 13.8457 16.8807Z" fill="white"/>
<path fill-rule="evenodd" clip-rule="evenodd" d="M14.9101 16.9354C14.9663 16.9054 14.8336 16.8631 14.8029 16.8781C14.7494 16.9081 14.8795 16.9504 14.9101 16.9354Z" fill="white"/>
<path fill-rule="evenodd" clip-rule="evenodd" d="M21.6094 16.9971C21.6655 16.9671 21.5328 16.9248 21.5022 16.9411C21.446 16.9712 21.5787 17.0135 21.6094 16.9971Z" fill="white"/>
<path fill-rule="evenodd" clip-rule="evenodd" d="M7.57227 17.0547H7.36044V17.1679H7.57227V17.0547Z" fill="white"/>
<path fill-rule="evenodd" clip-rule="evenodd" d="M20.5488 17.169C20.605 17.1389 20.4722 17.0967 20.4416 17.113C20.3855 17.143 20.5182 17.1853 20.5488 17.169Z" fill="white"/>
<path fill-rule="evenodd" clip-rule="evenodd" d="M23.3125 17.2245C23.3686 17.1945 23.2359 17.1522 23.2078 17.1672C23.1517 17.1972 23.2844 17.2395 23.3125 17.2245Z" fill="white"/>
<path fill-rule="evenodd" clip-rule="evenodd" d="M12.9961 17.2245C13.0522 17.1945 12.9195 17.1522 12.8889 17.1672C12.8327 17.1972 12.9654 17.2395 12.9961 17.2245Z" fill="white"/>
<path fill-rule="evenodd" clip-rule="evenodd" d="M19.5879 17.2783C19.644 17.2483 19.5113 17.206 19.4832 17.2224C19.4271 17.2524 19.5598 17.2947 19.5879 17.2783Z" fill="white"/>
<path fill-rule="evenodd" clip-rule="evenodd" d="M13.5312 17.3964C13.5874 17.3664 13.4547 17.3241 13.424 17.3391C13.3679 17.3691 13.5006 17.4114 13.5312 17.3964Z" fill="white"/>
<path fill-rule="evenodd" clip-rule="evenodd" d="M12.8887 17.4502C12.9448 17.4202 12.8121 17.3779 12.7815 17.3943C12.7253 17.4243 12.858 17.4666 12.8887 17.4502Z" fill="white"/>
<path fill-rule="evenodd" clip-rule="evenodd" d="M10.8711 17.4538C10.8252 17.3705 10.7767 17.4592 10.6593 17.4538C10.6848 17.5247 10.8711 17.5111 10.8711 17.4538Z" fill="white"/>
<path fill-rule="evenodd" clip-rule="evenodd" d="M14.5918 17.5057C14.6479 17.4757 14.5152 17.4334 14.4846 17.4484C14.4284 17.4785 14.5612 17.5208 14.5918 17.5057Z" fill="white"/>
<path fill-rule="evenodd" clip-rule="evenodd" d="M13.3144 17.5057C13.3706 17.4757 13.2379 17.4334 13.2072 17.4484C13.1536 17.4785 13.2838 17.5208 13.3144 17.5057Z" fill="white"/>
<path fill-rule="evenodd" clip-rule="evenodd" d="M7.36133 17.5559C7.36133 17.5 7.23117 17.5123 7.1495 17.5C7.1495 17.5546 7.27966 17.5437 7.36133 17.5559Z" fill="white"/>
<path fill-rule="evenodd" clip-rule="evenodd" d="M13.9531 17.619C14.0093 17.589 13.8765 17.5467 13.8459 17.5617C13.7898 17.5917 13.9225 17.634 13.9531 17.619Z" fill="white"/>
<path fill-rule="evenodd" clip-rule="evenodd" d="M13.1035 17.6776C13.1596 17.6476 13.0269 17.6053 12.9963 17.6203C12.9402 17.6503 13.0729 17.6926 13.1035 17.6776Z" fill="white"/>
<path fill-rule="evenodd" clip-rule="evenodd" d="M14.4844 17.7323C14.5405 17.7023 14.4078 17.66 14.3772 17.675C14.321 17.705 14.4537 17.7473 14.4844 17.7323Z" fill="white"/>
<path fill-rule="evenodd" clip-rule="evenodd" d="M22.7793 17.787C22.8354 17.757 22.7027 17.7147 22.6746 17.7297C22.6185 17.7597 22.7512 17.802 22.7793 17.787Z" fill="white"/>
<path fill-rule="evenodd" clip-rule="evenodd" d="M2.15037 17.8408C2.20652 17.8108 2.07381 17.7685 2.04318 17.7849C1.98959 17.8149 2.11975 17.8572 2.15037 17.8408Z" fill="white"/>
<path fill-rule="evenodd" clip-rule="evenodd" d="M7.78711 17.904C7.76669 17.8399 7.67992 17.8726 7.67992 17.904C7.70033 17.9695 7.78711 17.9354 7.78711 17.904Z" fill="white"/>
<path fill-rule="evenodd" clip-rule="evenodd" d="M5.33982 17.9003C5.39597 17.8703 5.26326 17.828 5.23263 17.843C5.17904 17.873 5.3092 17.9153 5.33982 17.9003Z" fill="white"/>
<path fill-rule="evenodd" clip-rule="evenodd" d="M4.27537 18.0682C4.33152 18.0382 4.19881 17.9959 4.16818 18.0109C4.11459 18.041 4.24475 18.0833 4.27537 18.0682Z" fill="white"/>
<path fill-rule="evenodd" clip-rule="evenodd" d="M19.5879 18.244C19.644 18.214 19.5113 18.1717 19.4832 18.1867C19.4271 18.2167 19.5598 18.259 19.5879 18.244Z" fill="white"/>
<path fill-rule="evenodd" clip-rule="evenodd" d="M22.248 18.3096C22.3042 18.2796 22.1715 18.2373 22.1434 18.2536C22.0872 18.2837 22.2199 18.326 22.248 18.3096Z" fill="white"/>
<path fill-rule="evenodd" clip-rule="evenodd" d="M20.4414 18.3096C20.4975 18.2796 20.3648 18.2373 20.3342 18.2536C20.278 18.2837 20.4108 18.326 20.4414 18.3096Z" fill="white"/>
<path fill-rule="evenodd" clip-rule="evenodd" d="M19.9101 18.3651C19.9663 18.3351 19.8336 18.2928 19.8029 18.3078C19.7468 18.3378 19.8795 18.3801 19.9101 18.3651Z" fill="white"/>
<path fill-rule="evenodd" clip-rule="evenodd" d="M21.5059 18.4714C21.5033 18.4168 21.3757 18.4277 21.294 18.4141C21.2966 18.47 21.4242 18.4577 21.5059 18.4714Z" fill="white"/>
<path fill-rule="evenodd" clip-rule="evenodd" d="M12.1465 18.4745C12.2026 18.4445 12.0699 18.4022 12.0418 18.4172C11.9857 18.4472 12.1184 18.4895 12.1465 18.4745Z" fill="white"/>
<path fill-rule="evenodd" clip-rule="evenodd" d="M20.1211 18.5331C20.1772 18.5031 20.0445 18.4608 20.0164 18.4758C19.9603 18.5058 20.093 18.5481 20.1211 18.5331Z" fill="white"/>
<path fill-rule="evenodd" clip-rule="evenodd" d="M19.5893 18.5291C19.6071 18.4063 19.2115 18.5032 19.0584 18.4718C18.8747 18.57 19.2141 18.6956 18.7394 18.6997C18.9155 18.8129 18.7292 18.772 18.7394 18.9275C18.8262 18.8879 19.0303 18.8388 19.0584 18.9275C19.4438 18.9029 19.0839 18.5195 19.5893 18.6997C19.5152 18.6533 19.4234 18.5441 19.5893 18.5291Z" fill="white"/>
<path fill-rule="evenodd" clip-rule="evenodd" d="M11.4023 18.7002C11.4585 18.6702 11.3258 18.6279 11.2951 18.6443C11.239 18.6743 11.3717 18.7166 11.4023 18.7002Z" fill="white"/>
<path fill-rule="evenodd" clip-rule="evenodd" d="M11.9355 18.7557C11.9917 18.7257 11.859 18.6834 11.8283 18.6984C11.7722 18.7285 11.9049 18.7708 11.9355 18.7557Z" fill="white"/>
<path fill-rule="evenodd" clip-rule="evenodd" d="M22.1445 18.8728C22.1241 18.8086 22.0373 18.8414 22.0373 18.8728C22.0578 18.9369 22.1445 18.9041 22.1445 18.8728Z" fill="white"/>
<path fill-rule="evenodd" clip-rule="evenodd" d="M4.70114 18.9276C4.75729 18.8976 4.62458 18.8553 4.5965 18.8703C4.54036 18.9003 4.67307 18.9426 4.70114 18.9276Z" fill="white"/>
<path fill-rule="evenodd" clip-rule="evenodd" d="M4.38279 18.9815C4.43894 18.9514 4.30623 18.9092 4.2756 18.9255C4.21946 18.9555 4.35217 18.9978 4.38279 18.9815Z" fill="white"/>
<path fill-rule="evenodd" clip-rule="evenodd" d="M14.5918 19.037C14.6479 19.007 14.5152 18.9647 14.4846 18.9797C14.4284 19.0097 14.5612 19.052 14.5918 19.037Z" fill="white"/>
<path fill-rule="evenodd" clip-rule="evenodd" d="M8.957 19.037C9.01315 19.007 8.88044 18.9647 8.85236 18.9797C8.79622 19.0097 8.92893 19.052 8.957 19.037Z" fill="white"/>
<path fill-rule="evenodd" clip-rule="evenodd" d="M22.248 19.0956C22.3042 19.0656 22.1715 19.0233 22.1434 19.0383C22.0872 19.0683 22.2199 19.1106 22.248 19.0956Z" fill="white"/>
<path fill-rule="evenodd" clip-rule="evenodd" d="M10.0175 19.2089C10.0737 19.1789 9.94098 19.1366 9.91291 19.1516C9.85676 19.1816 9.98947 19.2239 10.0175 19.2089Z" fill="white"/>
<path fill-rule="evenodd" clip-rule="evenodd" d="M18.4199 19.2627C18.476 19.2327 18.3433 19.1904 18.3127 19.2068C18.2566 19.2368 18.3893 19.2791 18.4199 19.2627Z" fill="white"/>
<path fill-rule="evenodd" clip-rule="evenodd" d="M17.5703 19.2627C17.6264 19.2327 17.4937 19.1904 17.4631 19.2068C17.4095 19.2368 17.5397 19.2791 17.5703 19.2627Z" fill="white"/>
<path fill-rule="evenodd" clip-rule="evenodd" d="M13.1035 19.2669C13.101 19.2109 12.9734 19.2232 12.8917 19.2109C12.8942 19.2655 13.0218 19.2546 13.1035 19.2669Z" fill="white"/>
<path fill-rule="evenodd" clip-rule="evenodd" d="M9.38322 19.4402C9.41129 19.5739 9.85026 19.4729 9.91406 19.4402C9.8375 19.2437 9.59249 19.402 9.38322 19.4402Z" fill="white"/>
<path fill-rule="evenodd" clip-rule="evenodd" d="M18.7383 19.4393C18.7944 19.4093 18.6617 19.367 18.6311 19.382C18.5749 19.4121 18.7076 19.4543 18.7383 19.4393Z" fill="white"/>
<path fill-rule="evenodd" clip-rule="evenodd" d="M15.2285 19.4393C15.2846 19.4093 15.1519 19.367 15.1213 19.382C15.0652 19.4121 15.1979 19.4543 15.2285 19.4393Z" fill="white"/>
<path fill-rule="evenodd" clip-rule="evenodd" d="M10.125 19.4393C10.1811 19.4093 10.0484 19.367 10.0178 19.382C9.9642 19.4121 10.0944 19.4543 10.125 19.4393Z" fill="white"/>
<path fill-rule="evenodd" clip-rule="evenodd" d="M9.16795 19.4393C9.2241 19.4093 9.09139 19.367 9.06076 19.382C9.00461 19.4121 9.13732 19.4543 9.16795 19.4393Z" fill="white"/>
<path fill-rule="evenodd" clip-rule="evenodd" d="M6.08592 19.4393C6.14207 19.4093 6.00935 19.367 5.97873 19.382C5.92258 19.4121 6.05529 19.4543 6.08592 19.4393Z" fill="white"/>
<path fill-rule="evenodd" clip-rule="evenodd" d="M8.6367 19.4979C8.69285 19.4679 8.56014 19.4256 8.52951 19.4406C8.47336 19.4706 8.60607 19.5129 8.6367 19.4979Z" fill="white"/>
<path fill-rule="evenodd" clip-rule="evenodd" d="M22.7793 19.5H22.5675V19.6132H22.7793V19.5Z" fill="white"/>
<path fill-rule="evenodd" clip-rule="evenodd" d="M18.8457 19.5596C18.9018 19.5296 18.7691 19.4873 18.7385 19.5036C18.6823 19.5337 18.8151 19.576 18.8457 19.5596Z" fill="white"/>
<path fill-rule="evenodd" clip-rule="evenodd" d="M5.12889 19.5596C5.18503 19.5296 5.05232 19.4873 5.0217 19.5036C4.96555 19.5337 5.09826 19.576 5.12889 19.5596Z" fill="white"/>
<path fill-rule="evenodd" clip-rule="evenodd" d="M16.8242 19.6071C16.8038 19.543 16.717 19.5757 16.717 19.6071C16.7374 19.6726 16.8242 19.6385 16.8242 19.6071Z" fill="white"/>
<path fill-rule="evenodd" clip-rule="evenodd" d="M19.5879 19.6698C19.644 19.6398 19.5113 19.5975 19.4832 19.6125C19.4271 19.6425 19.5598 19.6848 19.5879 19.6698Z" fill="white"/>
<path fill-rule="evenodd" clip-rule="evenodd" d="M22.779 19.725C22.7228 19.6377 22.6692 19.7223 22.6743 19.7823C22.7305 19.8696 22.7841 19.785 22.779 19.725Z" fill="white"/>
<path fill-rule="evenodd" clip-rule="evenodd" d="M18.8457 19.7197C18.9018 19.6897 18.7691 19.6474 18.7385 19.6638C18.6823 19.6938 18.8151 19.7361 18.8457 19.7197Z" fill="white"/>
<path fill-rule="evenodd" clip-rule="evenodd" d="M2.04291 19.7243C2.0225 19.6602 1.93572 19.6929 1.93827 19.7243C1.95869 19.7884 2.04547 19.7557 2.04291 19.7243Z" fill="white"/>
<path fill-rule="evenodd" clip-rule="evenodd" d="M19.2695 19.8964C19.3257 19.8664 19.1929 19.8241 19.1623 19.8391C19.1062 19.8691 19.2389 19.9114 19.2695 19.8964Z" fill="white"/>
<path fill-rule="evenodd" clip-rule="evenodd" d="M3.42576 19.9511C3.48191 19.921 3.3492 19.8787 3.31857 19.8938C3.26243 19.9238 3.39514 19.9661 3.42576 19.9511Z" fill="white"/>
<path fill-rule="evenodd" clip-rule="evenodd" d="M22.248 20.1221C22.3042 20.0921 22.1715 20.0498 22.1434 20.0661C22.0872 20.0962 22.2199 20.1385 22.248 20.1221Z" fill="white"/>
<path fill-rule="evenodd" clip-rule="evenodd" d="M19.8027 20.1221C19.8589 20.0921 19.7262 20.0498 19.6955 20.0661C19.6394 20.0962 19.7721 20.1385 19.8027 20.1221Z" fill="white"/>
<path fill-rule="evenodd" clip-rule="evenodd" d="M15.8672 20.1221C15.9233 20.0921 15.7906 20.0498 15.7625 20.0661C15.7064 20.0962 15.8391 20.1385 15.8672 20.1221Z" fill="white"/>
<path fill-rule="evenodd" clip-rule="evenodd" d="M8.31834 20.1221C8.37449 20.0921 8.24178 20.0498 8.21115 20.0661C8.155 20.0962 8.28771 20.1385 8.31834 20.1221Z" fill="white"/>
<path fill-rule="evenodd" clip-rule="evenodd" d="M21.6094 20.2323C21.6655 20.2023 21.5328 20.16 21.5022 20.175C21.446 20.205 21.5787 20.2473 21.6094 20.2323Z" fill="white"/>
<path fill-rule="evenodd" clip-rule="evenodd" d="M20.2265 20.2323C20.2827 20.2023 20.15 20.16 20.1194 20.175C20.0658 20.205 20.1959 20.2473 20.2265 20.2323Z" fill="white"/>
<path fill-rule="evenodd" clip-rule="evenodd" d="M2.25781 20.2292C2.25526 20.1732 2.12765 20.1842 2.04599 20.1719C2.04854 20.2278 2.17614 20.2169 2.25781 20.2292Z" fill="white"/>
<path fill-rule="evenodd" clip-rule="evenodd" d="M14.4844 20.2909C14.5405 20.2609 14.4078 20.2186 14.3772 20.2336C14.321 20.2636 14.4537 20.3059 14.4844 20.2909Z" fill="white"/>
<path fill-rule="evenodd" clip-rule="evenodd" d="M14.6992 20.3495C14.7553 20.3195 14.6226 20.2772 14.592 20.2922C14.5359 20.3222 14.6686 20.3645 14.6992 20.3495Z" fill="white"/>
<path fill-rule="evenodd" clip-rule="evenodd" d="M12.7851 20.3495C12.8413 20.3195 12.7086 20.2772 12.6779 20.2922C12.6244 20.3222 12.7545 20.3645 12.7851 20.3495Z" fill="white"/>
<path fill-rule="evenodd" clip-rule="evenodd" d="M12.4668 20.4033C12.5229 20.3733 12.3902 20.331 12.3596 20.3474C12.3034 20.3774 12.4362 20.4197 12.4668 20.4033Z" fill="white"/>
<path fill-rule="evenodd" clip-rule="evenodd" d="M21.3984 20.4589C21.4546 20.4289 21.3219 20.3866 21.2912 20.4016C21.2351 20.4316 21.3678 20.4739 21.3984 20.4589Z" fill="white"/>
<path fill-rule="evenodd" clip-rule="evenodd" d="M21.6094 20.5136C21.6655 20.4835 21.5328 20.4412 21.5022 20.4563C21.446 20.4863 21.5787 20.5286 21.6094 20.5136Z" fill="white"/>
<path fill-rule="evenodd" clip-rule="evenodd" d="M14.3789 20.6924C14.435 20.6624 14.3023 20.6201 14.2717 20.6365C14.2181 20.6665 14.3483 20.7088 14.3789 20.6924Z" fill="white"/>
<path fill-rule="evenodd" clip-rule="evenodd" d="M6.72264 20.7401C6.77878 20.7101 6.64607 20.6678 6.61545 20.6828C6.5593 20.7128 6.69201 20.7551 6.72264 20.7401Z" fill="white"/>
<path fill-rule="evenodd" clip-rule="evenodd" d="M16.3984 20.8026C16.4546 20.7726 16.3218 20.7303 16.2938 20.7453C16.2376 20.7753 16.3703 20.8176 16.3984 20.8026Z" fill="white"/>
<path fill-rule="evenodd" clip-rule="evenodd" d="M16.7207 21.0292C16.7768 20.9992 16.6441 20.9569 16.6135 20.9719C16.5573 21.0019 16.6901 21.0442 16.7207 21.0292Z" fill="white"/>
<path fill-rule="evenodd" clip-rule="evenodd" d="M16.9316 21.0917C16.9878 21.0617 16.855 21.0194 16.827 21.0344C16.7708 21.0644 16.9035 21.1067 16.9316 21.0917Z" fill="white"/>
<path fill-rule="evenodd" clip-rule="evenodd" d="M15.4414 21.0917C15.4975 21.0617 15.3648 21.0194 15.3342 21.0344C15.2806 21.0644 15.4108 21.1067 15.4414 21.0917Z" fill="white"/>
<path fill-rule="evenodd" clip-rule="evenodd" d="M22.6738 21.0872C22.4416 21.0763 22.3344 21.1336 22.3548 21.2578H22.6738V21.0872Z" fill="white"/>
<path fill-rule="evenodd" clip-rule="evenodd" d="M10.8711 21.1464C10.9272 21.1164 10.7945 21.0741 10.7639 21.0891C10.7077 21.1191 10.8404 21.1614 10.8711 21.1464Z" fill="white"/>
<path fill-rule="evenodd" clip-rule="evenodd" d="M2.25779 21.1464C2.31394 21.1164 2.18123 21.0741 2.1506 21.0891C2.09446 21.1191 2.22717 21.1614 2.25779 21.1464Z" fill="white"/>
<path fill-rule="evenodd" clip-rule="evenodd" d="M18.0996 21.2018C18.0996 21.1459 17.9695 21.1568 17.8878 21.1445C17.8878 21.2005 18.0179 21.1896 18.0996 21.2018Z" fill="white"/>
<path fill-rule="evenodd" clip-rule="evenodd" d="M8.84959 21.205C8.90574 21.1749 8.77303 21.1326 8.7424 21.1477C8.68625 21.1777 8.81896 21.22 8.84959 21.205Z" fill="white"/>
<path fill-rule="evenodd" clip-rule="evenodd" d="M8.4238 21.205C8.47994 21.1749 8.34723 21.1326 8.31916 21.1477C8.26301 21.1777 8.39572 21.22 8.4238 21.205Z" fill="white"/>
<path fill-rule="evenodd" clip-rule="evenodd" d="M6.08592 21.205C6.14207 21.1749 6.00935 21.1326 5.97873 21.1477C5.92258 21.1777 6.05529 21.22 6.08592 21.205Z" fill="white"/>
<path fill-rule="evenodd" clip-rule="evenodd" d="M22.248 21.2627C22.3042 21.2327 22.1715 21.1904 22.1434 21.2068C22.0872 21.2368 22.2199 21.2791 22.248 21.2627Z" fill="white"/>
<path fill-rule="evenodd" clip-rule="evenodd" d="M2.15037 21.3182C2.20652 21.2882 2.07381 21.2459 2.04318 21.2609C1.98959 21.291 2.11975 21.3333 2.15037 21.3182Z" fill="white"/>
<path fill-rule="evenodd" clip-rule="evenodd" d="M17.5703 21.3729C17.6264 21.3429 17.4937 21.3006 17.4631 21.3156C17.4095 21.3456 17.5397 21.3879 17.5703 21.3729Z" fill="white"/>
<path fill-rule="evenodd" clip-rule="evenodd" d="M17.4629 21.4862C17.519 21.4562 17.3863 21.4139 17.3582 21.4289C17.3021 21.4589 17.4348 21.5012 17.4629 21.4862Z" fill="white"/>
<path fill-rule="evenodd" clip-rule="evenodd" d="M5.76559 21.4862C5.82174 21.4562 5.68903 21.4139 5.66096 21.4289C5.60481 21.4589 5.73752 21.5012 5.76559 21.4862Z" fill="white"/>
<path fill-rule="evenodd" clip-rule="evenodd" d="M2.67969 21.4296C2.49849 21.4091 2.47807 21.4746 2.46786 21.5428C2.55718 21.5319 2.56739 21.5647 2.5725 21.6001C2.69755 21.5906 2.66182 21.4964 2.67969 21.4296Z" fill="white"/>
<path fill-rule="evenodd" clip-rule="evenodd" d="M7.04295 21.544C7.0991 21.5139 6.96639 21.4717 6.93576 21.488C6.87961 21.518 7.01232 21.5603 7.04295 21.544Z" fill="white"/>
<path fill-rule="evenodd" clip-rule="evenodd" d="M21.1836 21.5938H20.9718V21.707H21.1836V21.5938Z" fill="white"/>
<path fill-rule="evenodd" clip-rule="evenodd" d="M15.2285 21.8888C15.2158 21.6882 14.8763 22.0102 14.9095 21.8315C14.6237 21.972 15.0933 22.0361 15.2285 21.8888Z" fill="white"/>
<path fill-rule="evenodd" clip-rule="evenodd" d="M12.1464 21.8845C12.126 21.8203 12.0392 21.8531 12.0418 21.8845C12.0622 21.95 12.149 21.9159 12.1464 21.8845Z" fill="white"/>
<path fill-rule="evenodd" clip-rule="evenodd" d="M7.25389 21.9432C7.31003 21.9132 7.17732 21.8709 7.1467 21.8859C7.09055 21.916 7.22326 21.9583 7.25389 21.9432Z" fill="white"/>
<path fill-rule="evenodd" clip-rule="evenodd" d="M11.9355 21.9901C11.9917 21.9601 11.859 21.9178 11.8283 21.9328C11.7722 21.9628 11.9049 22.0051 11.9355 21.9901Z" fill="white"/>
<path fill-rule="evenodd" clip-rule="evenodd" d="M23.0996 22.053C23.0792 21.9875 22.9924 22.0216 22.9924 22.053C23.0128 22.1171 23.0996 22.0844 23.0996 22.053Z" fill="white"/>
<path fill-rule="evenodd" clip-rule="evenodd" d="M21.1836 22.0565C21.2397 22.0265 21.107 21.9842 21.0789 21.9992C21.0228 22.0292 21.1555 22.0715 21.1836 22.0565Z" fill="white"/>
<path fill-rule="evenodd" clip-rule="evenodd" d="M8.31834 22.0565C8.37449 22.0265 8.24178 21.9842 8.21115 21.9992C8.155 22.0292 8.28771 22.0715 8.31834 22.0565Z" fill="white"/>
<path fill-rule="evenodd" clip-rule="evenodd" d="M10.7637 22.1104C10.8198 22.0804 10.6871 22.0381 10.6565 22.0544C10.6003 22.0844 10.733 22.1267 10.7637 22.1104Z" fill="white"/>
<path fill-rule="evenodd" clip-rule="evenodd" d="M7.89255 22.1104C7.94869 22.0804 7.81598 22.0381 7.78791 22.0544C7.73176 22.0844 7.86447 22.1267 7.89255 22.1104Z" fill="white"/>
<path fill-rule="evenodd" clip-rule="evenodd" d="M17.4629 22.1698C17.519 22.1398 17.3863 22.0975 17.3582 22.1125C17.3021 22.1425 17.4348 22.1848 17.4629 22.1698Z" fill="white"/>
<path fill-rule="evenodd" clip-rule="evenodd" d="M10.0176 22.1654C9.99206 22.0945 9.80575 22.1081 9.80575 22.1654C9.90018 22.2009 9.99461 22.2336 10.0176 22.1654Z" fill="white"/>
<path fill-rule="evenodd" clip-rule="evenodd" d="M13.7422 22.6807C13.7983 22.6507 13.6656 22.6084 13.6375 22.6247C13.5814 22.6548 13.7141 22.6971 13.7422 22.6807Z" fill="white"/>
<path fill-rule="evenodd" clip-rule="evenodd" d="M12.1465 22.6807C12.2026 22.6507 12.0699 22.6084 12.0418 22.6247C11.9857 22.6548 12.1184 22.6971 12.1465 22.6807Z" fill="white"/>
<path fill-rule="evenodd" clip-rule="evenodd" d="M1.30076 22.6807C1.35691 22.6507 1.2242 22.6084 1.19357 22.6247C1.13743 22.6548 1.27014 22.6971 1.30076 22.6807Z" fill="white"/>
<path fill-rule="evenodd" clip-rule="evenodd" d="M18.5268 2.78634C18.8178 2.61306 18.2027 2.94188 18.5268 2.78634V2.78634Z" fill="white"/>
<path fill-rule="evenodd" clip-rule="evenodd" d="M7.0412 2.83393V3.06179C7.18667 3.04405 7.13052 2.91989 7.14839 2.83393C7.25047 2.83529 7.23006 2.90351 7.25558 2.94718C7.38574 2.92262 7.47251 2.87486 7.46741 2.77662C7.55673 2.76571 7.56694 2.79845 7.57459 2.83393C7.84257 2.69339 7.21985 2.75479 7.04375 2.83393H7.0412Z" fill="white"/>
<path fill-rule="evenodd" clip-rule="evenodd" d="M2.04243 3.52747C2.33338 3.70076 1.71831 3.37193 2.04243 3.52747V3.52747Z" fill="white"/>
<path fill-rule="evenodd" clip-rule="evenodd" d="M5.12891 3.57798C5.02427 3.38969 4.91963 3.64074 4.80989 3.63392C4.86859 3.79901 4.97578 3.5466 5.12891 3.57798Z" fill="white"/>
<path fill-rule="evenodd" clip-rule="evenodd" d="M9.16867 4.88968C9.16867 4.88968 9.16101 4.8351 9.16867 4.83237C8.71949 5.00429 9.64082 4.92516 9.3805 4.83237C9.36263 4.82692 9.21716 4.88832 9.16867 4.88968Z" fill="white"/>
<path fill-rule="evenodd" clip-rule="evenodd" d="M10.5522 5.10665C10.8431 4.93337 10.2281 5.2622 10.5522 5.10665V5.10665Z" fill="white"/>
<path fill-rule="evenodd" clip-rule="evenodd" d="M9.80629 5.2296C9.67613 5.18867 9.5715 5.16957 9.6991 5.2296C9.82416 5.28827 9.95177 5.27463 9.80629 5.2296Z" fill="white"/>
<path fill-rule="evenodd" clip-rule="evenodd" d="M7.89272 5.39378V5.56433C7.98715 5.52886 8.08413 5.49611 8.10455 5.56433C8.29341 5.5807 8.1122 5.34329 7.89272 5.39378Z" fill="white"/>
<path fill-rule="evenodd" clip-rule="evenodd" d="M19.1653 5.57343C19.2469 5.48611 19.0989 5.53114 19.0581 5.57343C18.9866 5.64984 19.1295 5.70033 19.1653 5.62938C19.1729 5.613 19.1525 5.58708 19.1653 5.57343Z" fill="white"/>
<path fill-rule="evenodd" clip-rule="evenodd" d="M10.7631 5.797C11.0541 5.97029 10.439 5.64146 10.7631 5.797V5.797Z" fill="white"/>
<path fill-rule="evenodd" clip-rule="evenodd" d="M23.312 5.91029C23.6029 6.08357 22.9878 5.75474 23.312 5.91029V5.91029Z" fill="white"/>
<path fill-rule="evenodd" clip-rule="evenodd" d="M14.3801 6.19426C14.1428 5.97595 14.4261 6.34707 14.4873 6.30751C14.5766 6.24884 14.3929 6.20517 14.3801 6.19426Z" fill="white"/>
<path fill-rule="evenodd" clip-rule="evenodd" d="M14.9095 6.64909C14.9554 6.5645 15.0448 6.67229 15.2285 6.64909C15.1213 6.49764 14.9376 6.38712 14.8023 6.25068C14.616 6.23294 14.6134 6.56995 14.9095 6.47854C14.787 6.56177 14.787 6.6218 14.9095 6.7064C15.0294 6.69548 14.9682 6.64909 14.9095 6.64909Z" fill="white"/>
<path fill-rule="evenodd" clip-rule="evenodd" d="M12.5731 6.87398C12.5884 6.87398 12.5323 6.7812 12.4659 6.81668C12.4659 6.81668 12.7135 7.17825 12.8921 6.98723C12.9457 6.92856 12.7186 6.95449 12.7849 6.98723C12.7237 6.95722 12.6726 6.87671 12.5731 6.87398Z" fill="white"/>
<path fill-rule="evenodd" clip-rule="evenodd" d="M6.72407 7.09779C7.01502 7.27107 6.39995 6.94224 6.72407 7.09779V7.09779Z" fill="white"/>
<path fill-rule="evenodd" clip-rule="evenodd" d="M4.06392 7.16029C4.35486 7.33357 3.73979 7.00474 4.06392 7.16029V7.16029Z" fill="white"/>
<path fill-rule="evenodd" clip-rule="evenodd" d="M12.678 7.39402C12.872 7.21255 12.2135 7.6901 12.678 7.39402V7.39402Z" fill="white"/>
<path fill-rule="evenodd" clip-rule="evenodd" d="M17.8881 7.78529C18.1791 7.95857 17.564 7.62974 17.8881 7.78529V7.78529Z" fill="white"/>
<path fill-rule="evenodd" clip-rule="evenodd" d="M9.80688 8.69872C9.56953 8.47905 9.85281 8.85154 9.91407 8.81197C10.0008 8.7533 9.81964 8.70964 9.80688 8.69872Z" fill="white"/>
<path fill-rule="evenodd" clip-rule="evenodd" d="M17.358 9.04073C16.9803 8.95204 17.2942 9.23448 17.039 9.21129C17.0722 9.33135 17.4091 9.15125 17.358 9.04073Z" fill="white"/>
<path fill-rule="evenodd" clip-rule="evenodd" d="M2.78853 10.965C3.07947 11.1383 2.4644 10.8094 2.78853 10.965V10.965Z" fill="white"/>
<path fill-rule="evenodd" clip-rule="evenodd" d="M2.14985 10.965C2.4408 11.1383 1.82573 10.8094 2.14985 10.965V10.965Z" fill="white"/>
<path fill-rule="evenodd" clip-rule="evenodd" d="M15.3375 12.5611C15.4676 12.4178 15.1818 12.5774 15.1256 12.6743C15.0899 12.7371 15.2252 12.6825 15.3375 12.5611Z" fill="white"/>
<path fill-rule="evenodd" clip-rule="evenodd" d="M19.0588 13.4719C19.388 13.3982 18.7526 13.3969 18.847 13.5292C18.9389 13.637 18.9108 13.4678 19.0588 13.4719Z" fill="white"/>
<path fill-rule="evenodd" clip-rule="evenodd" d="M16.9312 15.1758C16.5713 15.39 17.2119 15.5537 17.3574 15.6874C17.5488 15.5633 16.7934 15.4609 16.9312 15.1758Z" fill="white"/>
<path fill-rule="evenodd" clip-rule="evenodd" d="M8.63814 15.6848C8.92908 15.5115 8.31401 15.8403 8.63814 15.6848V15.6848Z" fill="white"/>
<path fill-rule="evenodd" clip-rule="evenodd" d="M15.3366 16.0883C15.1018 15.9928 15.7092 16.312 16.0818 16.2588C16.1712 16.2479 16.1814 16.2806 16.189 16.3148C16.2835 16.1387 15.699 16.192 15.3392 16.0883H15.3366Z" fill="white"/>
<path fill-rule="evenodd" clip-rule="evenodd" d="M16.7192 16.4858C16.7116 16.4763 16.6835 16.3248 16.612 16.3726C16.5252 16.4285 16.8698 16.6482 16.7192 16.4858Z" fill="white"/>
<path fill-rule="evenodd" clip-rule="evenodd" d="M23.312 17.3322C23.6029 17.5054 22.9878 17.1766 23.312 17.3322V17.3322Z" fill="white"/>
<path fill-rule="evenodd" clip-rule="evenodd" d="M10.6557 17.6809C10.9467 17.5076 10.3316 17.8364 10.6557 17.6809V17.6809Z" fill="white"/>
<path fill-rule="evenodd" clip-rule="evenodd" d="M12.252 18.3092C12.3286 18.4101 12.446 18.3174 12.571 18.3092C12.6093 18.4061 12.4868 18.417 12.3592 18.4224C12.377 18.4893 12.5531 18.4702 12.6782 18.4797C12.6093 18.537 12.4332 18.5384 12.4664 18.6503C12.6833 18.6325 12.6756 18.4961 12.8926 18.4797C12.765 18.3706 12.5276 18.17 12.2545 18.3092H12.252Z" fill="white"/>
<path fill-rule="evenodd" clip-rule="evenodd" d="M21.0795 18.3567C21.3705 18.1834 20.7554 18.5122 21.0795 18.3567V18.3567Z" fill="white"/>
<path fill-rule="evenodd" clip-rule="evenodd" d="M5.23189 19.9493C5.52283 20.1226 4.90776 19.7938 5.23189 19.9493V19.9493Z" fill="white"/>
<path fill-rule="evenodd" clip-rule="evenodd" d="M17.0366 20.2384C17.3275 20.4117 16.7125 20.0829 17.0366 20.2384V20.2384Z" fill="white"/>
<path fill-rule="evenodd" clip-rule="evenodd" d="M4.27564 20.4663C4.26798 20.4567 4.23991 20.3053 4.16845 20.353C4.08423 20.409 4.42622 20.6287 4.27564 20.4663Z" fill="white"/>
<path fill-rule="evenodd" clip-rule="evenodd" d="M10.5522 21.5392C10.8431 21.7125 10.2281 21.3836 10.5522 21.5392V21.5392Z" fill="white"/>
<path fill-rule="evenodd" clip-rule="evenodd" d="M14.5906 21.9376C15.1418 22.186 14.2511 21.834 14.5906 21.9376V21.9376Z" fill="white"/>
</g>
</g>
</svg>
