<svg width="48" height="48" viewBox="0 0 48 48" fill="none" xmlns="http://www.w3.org/2000/svg">
<g style="mix-blend-mode:plus-darker">
<path fill-rule="evenodd" clip-rule="evenodd" d="M3.92321 3.04117C3.39771 3.05148 2.97261 3.47206 2.95669 3.99742L2.52586 18.2149C2.50786 18.8086 3.01487 19.2834 3.60611 19.2265L4.92425 19.0998L3.91998 21.718C3.69573 22.3026 4.30791 22.8572 4.86761 22.5765L13.4314 18.2818L27.2441 16.9537C27.7499 16.905 28.136 16.48 28.136 15.9719V3.57225C28.136 3.01996 27.6825 2.5753 27.1304 2.58613L3.92321 3.04117ZM45.4479 44.4031C45.6721 44.9877 45.0599 45.5423 44.5002 45.2616L37.8822 41.9427L23.4612 41.0775C23.0182 41.0509 22.6475 40.7317 22.5554 40.2976L19.5068 25.9258C19.3784 25.32 19.8333 24.7471 20.4524 24.735L43.5542 24.282C44.0452 24.2724 44.4685 24.6255 44.5471 25.1102L47.1718 41.2957C47.273 41.9194 46.7698 42.476 46.1392 42.4382L44.6601 42.3494L45.4479 44.4031ZM40.0857 16.9871C40.4611 17.1753 40.8851 16.8381 40.786 16.4299L40.4134 14.8953H40.4649C41.0096 14.8953 41.4512 14.4537 41.4512 13.909V8.97743C41.4512 8.4327 41.0096 7.99112 40.4649 7.99112H33.5607C33.016 7.99112 32.5744 8.4327 32.5744 8.97743V13.909C32.5744 14.4537 33.016 14.8953 33.5607 14.8953H35.9146L35.9163 14.8961L40.0857 16.9871ZM7.80272 37.6996C7.42727 37.8878 7.00333 37.5506 7.10241 37.1424L7.47495 35.6078H7.4235C6.87878 35.6078 6.43719 35.1662 6.43719 34.6215V29.6899C6.43719 29.1452 6.87878 28.7036 7.4235 28.7036H14.3277C14.8724 28.7036 15.314 29.1452 15.314 29.6899V34.6215C15.314 35.1662 14.8724 35.6078 14.3277 35.6078H11.9738C11.9732 35.6081 11.9727 35.6083 11.9721 35.6086L7.80272 37.6996Z" fill="white"/>
</g>
<g style="mix-blend-mode:hard-light">
<path d="M4.86654 22.5878C4.30683 22.8685 3.69466 22.3138 3.9189 21.7292L5.60811 17.3254C5.70981 17.0603 5.96439 16.8852 6.24835 16.8852L13.3406 16.8852C14.0637 16.8852 14.2944 17.8597 13.648 18.1839L4.86654 22.5878Z" fill="#000E35"/>
</g>
<g style="mix-blend-mode:multiply">
<path d="M2.95692 4.00523C2.97284 3.47987 3.39794 3.05928 3.92344 3.04898L27.1306 2.59394C27.6828 2.58311 28.1362 3.02777 28.1362 3.58006V15.9797C28.1362 16.4878 27.7502 16.9128 27.2443 16.9615L3.60635 19.2344C3.0151 19.2912 2.5081 18.8164 2.52609 18.2227L2.95692 4.00523Z" fill="#0F76D6"/>
</g>
<g style="mix-blend-mode:soft-light">
<rect x="8.03711" y="5.37109" width="14.0573" height="1.7143" rx="0.85715" fill="white"/>
</g>
<g style="mix-blend-mode:soft-light">
<rect x="6.66602" y="9.14062" width="17.143" height="1.7143" rx="0.85715" fill="white"/>
</g>
<g style="mix-blend-mode:soft-light">
<rect x="9.75195" y="12.9219" width="10.9715" height="1.7143" rx="0.85715" fill="white"/>
</g>
<g style="mix-blend-mode:hard-light">
<path d="M44.5007 45.2675C45.0604 45.5481 45.6725 44.9935 45.4483 44.4089L43.7591 40.0051C43.6574 39.7399 43.4028 39.5649 43.1188 39.5649L36.0266 39.5649C35.3035 39.5649 35.0728 40.5394 35.7192 40.8636L44.5007 45.2675Z" fill="#112D5C"/>
</g>
<g style="mix-blend-mode:multiply">
<rect width="14.0573" height="1.7143" rx="0.85715" transform="matrix(-1 0 0 1 41.3301 28.0508)" fill="#94C0E8"/>
</g>
<g style="mix-blend-mode:multiply">
<rect width="17.143" height="1.7143" rx="0.85715" transform="matrix(-1 0 0 1 42.7012 31.8203)" fill="#94C0E8"/>
</g>
<g style="mix-blend-mode:multiply">
<rect width="10.9715" height="1.7143" rx="0.85715" transform="matrix(-1 0 0 1 39.6152 35.5898)" fill="#94C0E8"/>
</g>
<g style="mix-blend-mode:multiply">
<path d="M19.5074 25.9301C19.3789 25.3244 19.8338 24.7514 20.4529 24.7393L43.5548 24.2863C44.0458 24.2767 44.4691 24.6298 44.5477 25.1146L47.1724 41.3001C47.2735 41.9237 46.7704 42.4803 46.1397 42.4425L23.4617 41.0818C23.0187 41.0552 22.6481 40.736 22.556 40.3019L19.5074 25.9301Z" fill="#36BBF8"/>
</g>
<g style="mix-blend-mode:hard-light">
<path d="M40.0869 16.9843C40.4624 17.1726 40.8863 16.8353 40.7872 16.4272L40.2797 14.3362C40.226 14.1151 40.028 13.9594 39.8004 13.9594L36.1386 13.9594C35.6185 13.9594 35.4527 14.6603 35.9175 14.8934L40.0869 16.9843Z" fill="#1A2441"/>
</g>
<g style="mix-blend-mode:plus-darker">
<rect x="32.5762" y="7.98828" width="8.87679" height="6.90417" rx="0.98631" fill="#36BBF8"/>
</g>
<g style="mix-blend-mode:plus-darker">
<path d="M7.80564 37.707C7.43018 37.8953 7.00625 37.558 7.10533 37.1498L7.61292 35.0589C7.6666 34.8378 7.86461 34.6821 8.09215 34.6821L11.754 34.6821C12.274 34.6821 12.4399 35.3829 11.975 35.6161L7.80564 37.707Z" fill="#112D5C"/>
</g>
<g style="mix-blend-mode:plus-darker">
<rect width="8.87679" height="6.90417" rx="0.98631" transform="matrix(-1 0 0 1 15.3164 28.6992)" fill="#94C0E8"/>
</g>
<g opacity="0.6">
<mask id="mask0_7320_140890" style="mask-type:alpha" maskUnits="userSpaceOnUse" x="2" y="2" width="46" height="44">
<g style="mix-blend-mode:plus-darker">
<path fill-rule="evenodd" clip-rule="evenodd" d="M3.92321 3.04117C3.39771 3.05148 2.97261 3.47206 2.95669 3.99742L2.52586 18.2149C2.50786 18.8086 3.01487 19.2834 3.60611 19.2265L4.92425 19.0998L3.91998 21.718C3.69573 22.3026 4.30791 22.8572 4.86761 22.5765L13.4314 18.2818L27.2441 16.9537C27.7499 16.905 28.136 16.48 28.136 15.9719V3.57225C28.136 3.01996 27.6825 2.5753 27.1304 2.58613L3.92321 3.04117ZM45.4479 44.4031C45.6721 44.9877 45.0599 45.5423 44.5002 45.2616L37.8822 41.9427L23.4612 41.0775C23.0182 41.0509 22.6475 40.7317 22.5554 40.2976L19.5068 25.9258C19.3784 25.32 19.8333 24.7471 20.4524 24.735L43.5542 24.282C44.0452 24.2724 44.4685 24.6255 44.5471 25.1102L47.1718 41.2957C47.273 41.9194 46.7698 42.476 46.1392 42.4382L44.6601 42.3494L45.4479 44.4031ZM40.0857 16.9871C40.4611 17.1753 40.8851 16.8381 40.786 16.4299L40.4134 14.8953H40.4649C41.0096 14.8953 41.4512 14.4537 41.4512 13.909V8.97743C41.4512 8.4327 41.0096 7.99112 40.4649 7.99112H33.5607C33.016 7.99112 32.5744 8.4327 32.5744 8.97743V13.909C32.5744 14.4537 33.016 14.8953 33.5607 14.8953H35.9146L35.9163 14.8961L40.0857 16.9871ZM7.80272 37.6996C7.42727 37.8878 7.00333 37.5506 7.10241 37.1424L7.47495 35.6078H7.4235C6.87878 35.6078 6.43719 35.1662 6.43719 34.6215V29.6899C6.43719 29.1452 6.87878 28.7036 7.4235 28.7036H14.3277C14.8724 28.7036 15.314 29.1452 15.314 29.6899V34.6215C15.314 35.1662 14.8724 35.6078 14.3277 35.6078H11.9738C11.9732 35.6081 11.9727 35.6083 11.9721 35.6086L7.80272 37.6996Z" fill="white"/>
</g>
</mask>
<g mask="url(#mask0_7320_140890)">
<path fill-rule="evenodd" clip-rule="evenodd" d="M38.3256 2.48718C38.3919 2.28524 37.1363 2.28524 37.4732 2.60179C37.9172 2.64818 38.0346 2.52265 38.3256 2.48718Z" fill="white"/>
<path fill-rule="evenodd" clip-rule="evenodd" d="M6.84808 2.49453C6.73579 2.55457 7.00121 2.63916 7.06246 2.60915C7.17476 2.54911 6.90933 2.46452 6.84808 2.49453Z" fill="white"/>
<path fill-rule="evenodd" clip-rule="evenodd" d="M32.7929 2.72074C32.9052 2.66071 32.6398 2.57611 32.5836 2.60886C32.4713 2.6689 32.7368 2.75349 32.7929 2.72074Z" fill="white"/>
<path fill-rule="evenodd" clip-rule="evenodd" d="M19.8222 2.72074C19.9345 2.66071 19.6691 2.57611 19.6078 2.60886C19.4956 2.6689 19.761 2.75349 19.8222 2.72074Z" fill="white"/>
<path fill-rule="evenodd" clip-rule="evenodd" d="M21.0995 2.94508C21.2118 2.88505 20.9464 2.80045 20.8903 2.83047C20.778 2.89051 21.0434 2.9751 21.0995 2.94508Z" fill="white"/>
<path fill-rule="evenodd" clip-rule="evenodd" d="M19.8222 3.05836C19.9345 2.99833 19.6691 2.91374 19.6078 2.94375C19.4956 3.00379 19.761 3.08838 19.8222 3.05836Z" fill="white"/>
<path fill-rule="evenodd" clip-rule="evenodd" d="M33.8593 3.17165C33.9716 3.11161 33.7062 3.02702 33.65 3.05703C33.5377 3.11707 33.8032 3.20166 33.8593 3.17165Z" fill="white"/>
<path fill-rule="evenodd" clip-rule="evenodd" d="M16.4179 3.17165C16.5302 3.11161 16.2648 3.02702 16.2036 3.05703C16.0913 3.11707 16.3567 3.20166 16.4179 3.17165Z" fill="white"/>
<path fill-rule="evenodd" clip-rule="evenodd" d="M7.48629 3.17165C7.59858 3.11161 7.33316 3.02702 7.27191 3.05703C7.16472 3.11707 7.42504 3.20166 7.48629 3.17165Z" fill="white"/>
<path fill-rule="evenodd" clip-rule="evenodd" d="M9.40033 3.28324C9.51262 3.22321 9.2472 3.13861 9.19105 3.17136C9.07876 3.2314 9.34418 3.31599 9.40033 3.28324Z" fill="white"/>
<path fill-rule="evenodd" clip-rule="evenodd" d="M6.20892 3.39821C6.32121 3.33817 6.05579 3.25358 5.99965 3.2836C5.88735 3.34363 6.15277 3.42823 6.20892 3.39821Z" fill="white"/>
<path fill-rule="evenodd" clip-rule="evenodd" d="M5.78512 3.39821C5.89741 3.33817 5.63199 3.25358 5.57074 3.2836C5.45844 3.34363 5.72387 3.42823 5.78512 3.39821Z" fill="white"/>
<path fill-rule="evenodd" clip-rule="evenodd" d="M23.8652 3.50758C23.9775 3.44755 23.7121 3.36295 23.6508 3.39297C23.5385 3.45301 23.8039 3.5376 23.8652 3.50758Z" fill="white"/>
<path fill-rule="evenodd" clip-rule="evenodd" d="M17.4863 3.50758C17.5986 3.44755 17.3332 3.36295 17.2719 3.39297C17.1596 3.45301 17.425 3.5376 17.4863 3.50758Z" fill="white"/>
<path fill-rule="evenodd" clip-rule="evenodd" d="M12.8046 3.61918C12.9169 3.55914 12.6515 3.47455 12.5903 3.5073C12.4831 3.56733 12.7434 3.65192 12.8046 3.61918Z" fill="white"/>
<path fill-rule="evenodd" clip-rule="evenodd" d="M3.44332 3.73415C3.55562 3.67411 3.29019 3.58952 3.22894 3.61953C3.11665 3.67957 3.38207 3.76416 3.44332 3.73415Z" fill="white"/>
<path fill-rule="evenodd" clip-rule="evenodd" d="M16.205 3.96071C16.3173 3.90067 16.0519 3.81608 15.9907 3.8461C15.8784 3.90613 16.1438 3.99073 16.205 3.96071Z" fill="white"/>
<path fill-rule="evenodd" clip-rule="evenodd" d="M3.87301 4.07008C3.9853 4.01005 3.71988 3.92545 3.65863 3.95547C3.54633 4.01551 3.81176 4.1001 3.87301 4.07008Z" fill="white"/>
<path fill-rule="evenodd" clip-rule="evenodd" d="M5.14837 4.19731C5.26067 4.13727 4.99525 4.05268 4.9391 4.08542C4.82681 4.14546 5.09223 4.23005 5.14837 4.19731Z" fill="white"/>
<path fill-rule="evenodd" clip-rule="evenodd" d="M33.2207 4.29665C33.333 4.23661 33.0675 4.15202 33.0063 4.18203C32.894 4.24207 33.1594 4.32666 33.2207 4.29665Z" fill="white"/>
<path fill-rule="evenodd" clip-rule="evenodd" d="M39.1737 4.64394C39.1329 4.51568 38.9593 4.58118 38.9644 4.64394C39.0053 4.7722 39.1788 4.7067 39.1737 4.64394Z" fill="white"/>
<path fill-rule="evenodd" clip-rule="evenodd" d="M37.0507 4.66383C37.163 4.6038 36.8976 4.5192 36.8414 4.54922C36.7291 4.60926 36.9946 4.69385 37.0507 4.66383Z" fill="white"/>
<path fill-rule="evenodd" clip-rule="evenodd" d="M9.40033 4.66383C9.51262 4.6038 9.2472 4.5192 9.19105 4.54922C9.07876 4.60926 9.34418 4.69385 9.40033 4.66383Z" fill="white"/>
<path fill-rule="evenodd" clip-rule="evenodd" d="M24.0742 4.76149C24.1865 4.70146 23.9211 4.61686 23.8598 4.64688C23.7475 4.70691 24.0129 4.79151 24.0742 4.76149Z" fill="white"/>
<path fill-rule="evenodd" clip-rule="evenodd" d="M13.6523 4.76149C13.7646 4.70146 13.4991 4.61686 13.443 4.64688C13.3307 4.70691 13.5961 4.79151 13.6523 4.76149Z" fill="white"/>
<path fill-rule="evenodd" clip-rule="evenodd" d="M13.2285 4.88649C13.3408 4.82646 13.0753 4.74186 13.0141 4.77188C12.9018 4.83191 13.1672 4.91651 13.2285 4.88649Z" fill="white"/>
<path fill-rule="evenodd" clip-rule="evenodd" d="M17.2714 4.99808C17.3837 4.93805 17.1183 4.85346 17.0571 4.8862C16.9448 4.94624 17.2102 5.03083 17.2714 4.99808Z" fill="white"/>
<path fill-rule="evenodd" clip-rule="evenodd" d="M16.4179 4.99808C16.5302 4.93805 16.2648 4.85346 16.2036 4.8862C16.0913 4.94624 16.3567 5.03083 16.4179 4.99808Z" fill="white"/>
<path fill-rule="evenodd" clip-rule="evenodd" d="M19.3945 5.11305C19.5068 5.05302 19.2414 4.96842 19.1801 4.99844C19.0678 5.05848 19.3332 5.14307 19.3945 5.11305Z" fill="white"/>
<path fill-rule="evenodd" clip-rule="evenodd" d="M26.8418 5.22633C26.9541 5.1663 26.6886 5.0817 26.6274 5.11172C26.5151 5.17176 26.7805 5.25635 26.8418 5.22633Z" fill="white"/>
<path fill-rule="evenodd" clip-rule="evenodd" d="M22.375 5.22633C22.4873 5.1663 22.2218 5.0817 22.1606 5.11172C22.0534 5.17176 22.3137 5.25635 22.375 5.22633Z" fill="white"/>
<path fill-rule="evenodd" clip-rule="evenodd" d="M8.76172 5.33144C8.72088 5.20318 8.54734 5.26868 8.54734 5.33144C8.58817 5.4597 8.76172 5.3942 8.76172 5.33144Z" fill="white"/>
<path fill-rule="evenodd" clip-rule="evenodd" d="M34.2832 5.44899C34.3955 5.38896 34.13 5.30436 34.0688 5.33438C33.9565 5.39441 34.2219 5.47901 34.2832 5.44899Z" fill="white"/>
<path fill-rule="evenodd" clip-rule="evenodd" d="M30.8789 5.44588C30.8381 5.31489 30.6645 5.38311 30.6645 5.44588C30.7054 5.57413 30.8789 5.50864 30.8789 5.44588Z" fill="white"/>
<path fill-rule="evenodd" clip-rule="evenodd" d="M30.0312 5.44899C30.1435 5.38896 29.8781 5.30436 29.8168 5.33438C29.7045 5.39441 29.97 5.47901 30.0312 5.44899Z" fill="white"/>
<path fill-rule="evenodd" clip-rule="evenodd" d="M15.7812 5.44899C15.8935 5.38896 15.6281 5.30436 15.5719 5.33438C15.4596 5.39441 15.725 5.47901 15.7812 5.44899Z" fill="white"/>
<path fill-rule="evenodd" clip-rule="evenodd" d="M39.8164 5.56059C39.9287 5.50055 39.6632 5.41596 39.602 5.4487C39.4897 5.50874 39.7551 5.59333 39.8164 5.56059Z" fill="white"/>
<path fill-rule="evenodd" clip-rule="evenodd" d="M9.40033 5.56059C9.51262 5.50055 9.2472 5.41596 9.19105 5.4487C9.07876 5.50874 9.34418 5.59333 9.40033 5.56059Z" fill="white"/>
<path fill-rule="evenodd" clip-rule="evenodd" d="M23.0136 5.67555C23.1259 5.61552 22.8605 5.53092 22.7993 5.56094C22.687 5.62098 22.9524 5.70557 23.0136 5.67555Z" fill="white"/>
<path fill-rule="evenodd" clip-rule="evenodd" d="M29.8183 5.78883C29.9306 5.7288 29.6652 5.6442 29.6039 5.67422C29.4968 5.73426 29.7571 5.81885 29.8183 5.78883Z" fill="white"/>
<path fill-rule="evenodd" clip-rule="evenodd" d="M25.1426 5.90957C25.1017 5.78131 24.9282 5.8468 24.9282 5.90957C24.969 6.03782 25.1426 5.97233 25.1426 5.90957Z" fill="white"/>
<path fill-rule="evenodd" clip-rule="evenodd" d="M22.5859 5.89653C22.6982 5.83649 22.4328 5.7519 22.3715 5.78464C22.2592 5.84468 22.5246 5.92927 22.5859 5.89653Z" fill="white"/>
<path fill-rule="evenodd" clip-rule="evenodd" d="M16.418 5.90957C16.3771 5.78131 16.2036 5.8468 16.2036 5.90957C16.2444 6.03782 16.418 5.97233 16.418 5.90957Z" fill="white"/>
<path fill-rule="evenodd" clip-rule="evenodd" d="M7.70113 5.89653C7.81343 5.83649 7.54801 5.7519 7.48675 5.78464C7.37446 5.84468 7.63988 5.92927 7.70113 5.89653Z" fill="white"/>
<path fill-rule="evenodd" clip-rule="evenodd" d="M13.8671 6.01149C13.9794 5.95146 13.714 5.86686 13.6528 5.89688C13.5456 5.95691 13.8059 6.04151 13.8671 6.01149Z" fill="white"/>
<path fill-rule="evenodd" clip-rule="evenodd" d="M17.6953 6.23805C17.8076 6.17802 17.5421 6.09342 17.4809 6.12344C17.3686 6.18348 17.634 6.26807 17.6953 6.23805Z" fill="white"/>
<path fill-rule="evenodd" clip-rule="evenodd" d="M25.1425 6.35133C25.2548 6.2913 24.9894 6.2067 24.9282 6.23672C24.8159 6.29676 25.0813 6.38135 25.1425 6.35133Z" fill="white"/>
<path fill-rule="evenodd" clip-rule="evenodd" d="M25.7754 6.46071C25.8876 6.40067 25.6222 6.31608 25.561 6.3461C25.4487 6.40613 25.7141 6.49073 25.7754 6.46071Z" fill="white"/>
<path fill-rule="evenodd" clip-rule="evenodd" d="M22.584 6.47207C22.5432 6.34381 22.3696 6.4093 22.3696 6.47207C22.4104 6.60032 22.584 6.53483 22.584 6.47207Z" fill="white"/>
<path fill-rule="evenodd" clip-rule="evenodd" d="M5.14837 6.46071C5.26067 6.40067 4.99525 6.31608 4.9391 6.3461C4.82681 6.40613 5.09223 6.49073 5.14837 6.46071Z" fill="white"/>
<path fill-rule="evenodd" clip-rule="evenodd" d="M43.2148 6.808C43.174 6.67975 43.0005 6.74524 43.0005 6.808C43.0413 6.93899 43.2148 6.87077 43.2148 6.808Z" fill="white"/>
<path fill-rule="evenodd" clip-rule="evenodd" d="M45.3437 6.92555C45.456 6.86552 45.1906 6.78092 45.1293 6.81094C45.017 6.87098 45.2825 6.95557 45.3437 6.92555Z" fill="white"/>
<path fill-rule="evenodd" clip-rule="evenodd" d="M43.2148 7.149C43.174 7.01802 43.0005 7.08624 43.0005 7.149C43.0413 7.27726 43.2148 7.21177 43.2148 7.149Z" fill="white"/>
<path fill-rule="evenodd" clip-rule="evenodd" d="M37.2597 7.15211C37.372 7.09208 37.1066 7.00749 37.0453 7.0375C36.9382 7.09754 37.1985 7.18213 37.2597 7.15211Z" fill="white"/>
<path fill-rule="evenodd" clip-rule="evenodd" d="M22.7988 7.26371C22.9111 7.20368 22.6457 7.11908 22.5844 7.15183C22.4721 7.21186 22.7375 7.29646 22.7988 7.26371Z" fill="white"/>
<path fill-rule="evenodd" clip-rule="evenodd" d="M15.9961 7.25722C15.9553 7.12897 15.7817 7.19446 15.7817 7.25722C15.8225 7.38548 15.9961 7.31999 15.9961 7.25722Z" fill="white"/>
<path fill-rule="evenodd" clip-rule="evenodd" d="M47.2597 7.37477C47.372 7.31474 47.1066 7.23014 47.0453 7.26016C46.9331 7.32019 47.1985 7.40479 47.2597 7.37477Z" fill="white"/>
<path fill-rule="evenodd" clip-rule="evenodd" d="M34.2832 7.37477C34.3955 7.31474 34.13 7.23014 34.0688 7.26016C33.9565 7.32019 34.2219 7.40479 34.2832 7.37477Z" fill="white"/>
<path fill-rule="evenodd" clip-rule="evenodd" d="M20.8847 7.37477C20.997 7.31474 20.7316 7.23014 20.6703 7.26016C20.5581 7.32019 20.8235 7.40479 20.8847 7.37477Z" fill="white"/>
<path fill-rule="evenodd" clip-rule="evenodd" d="M9.40033 7.37477C9.51262 7.31474 9.2472 7.23014 9.19105 7.26016C9.07876 7.32019 9.34418 7.40479 9.40033 7.37477Z" fill="white"/>
<path fill-rule="evenodd" clip-rule="evenodd" d="M43.2168 7.48805C43.3291 7.42802 43.0636 7.34342 43.0024 7.37344C42.8901 7.43348 43.1555 7.51807 43.2168 7.48805Z" fill="white"/>
<path fill-rule="evenodd" clip-rule="evenodd" d="M3.02137 7.48378C2.98054 7.35553 2.807 7.42102 2.8121 7.48378C2.85293 7.61204 3.02648 7.54655 3.02137 7.48378Z" fill="white"/>
<path fill-rule="evenodd" clip-rule="evenodd" d="M18.7617 7.61528C18.874 7.55524 18.6085 7.47065 18.5473 7.50339C18.435 7.56343 18.7004 7.64802 18.7617 7.61528Z" fill="white"/>
<path fill-rule="evenodd" clip-rule="evenodd" d="M12.8046 7.61528C12.9169 7.55524 12.6515 7.47065 12.5903 7.50339C12.4831 7.56343 12.7434 7.64802 12.8046 7.61528Z" fill="white"/>
<path fill-rule="evenodd" clip-rule="evenodd" d="M4.93356 7.61528C5.04585 7.55524 4.78043 7.47065 4.71918 7.50339C4.60688 7.56343 4.8723 7.64802 4.93356 7.61528Z" fill="white"/>
<path fill-rule="evenodd" clip-rule="evenodd" d="M46.4062 7.72633C46.5185 7.6663 46.2531 7.5817 46.1918 7.61172C46.0795 7.67176 46.345 7.75635 46.4062 7.72633Z" fill="white"/>
<path fill-rule="evenodd" clip-rule="evenodd" d="M30.6699 7.83793C30.7822 7.7779 30.5167 7.6933 30.4606 7.72605C30.3483 7.78608 30.6137 7.87068 30.6699 7.83793Z" fill="white"/>
<path fill-rule="evenodd" clip-rule="evenodd" d="M23.6504 7.9529C23.7626 7.89286 23.4972 7.80827 23.436 7.83828C23.3237 7.89832 23.5891 7.98291 23.6504 7.9529Z" fill="white"/>
<path fill-rule="evenodd" clip-rule="evenodd" d="M22.7988 7.94863C22.758 7.82037 22.5844 7.88586 22.5844 7.94863C22.6253 8.07961 22.7988 8.01139 22.7988 7.94863Z" fill="white"/>
<path fill-rule="evenodd" clip-rule="evenodd" d="M4.72457 7.9529C4.83687 7.89286 4.57144 7.80827 4.51019 7.83828C4.39789 7.89832 4.66332 7.98291 4.72457 7.9529Z" fill="white"/>
<path fill-rule="evenodd" clip-rule="evenodd" d="M6.42379 8.06618C6.53608 8.00614 6.27066 7.92155 6.20941 7.95157C6.10222 8.0116 6.36254 8.09619 6.42379 8.06618Z" fill="white"/>
<path fill-rule="evenodd" clip-rule="evenodd" d="M35.7754 8.17128C35.7346 8.04303 35.561 8.10852 35.561 8.17128C35.6018 8.29954 35.7754 8.23405 35.7754 8.17128Z" fill="white"/>
<path fill-rule="evenodd" clip-rule="evenodd" d="M44.916 8.62868C45.0283 8.56864 44.7628 8.48405 44.7016 8.51407C44.5893 8.5741 44.8547 8.65869 44.916 8.62868Z" fill="white"/>
<path fill-rule="evenodd" clip-rule="evenodd" d="M31.9453 8.62868C32.0576 8.56864 31.7921 8.48405 31.7309 8.51407C31.6237 8.5741 31.884 8.65869 31.9453 8.62868Z" fill="white"/>
<path fill-rule="evenodd" clip-rule="evenodd" d="M27.4804 8.63613C27.4395 8.50787 27.266 8.57336 27.2711 8.63613C27.3119 8.76438 27.4855 8.69889 27.4804 8.63613Z" fill="white"/>
<path fill-rule="evenodd" clip-rule="evenodd" d="M9.82422 8.63613C9.78338 8.50787 9.60984 8.57336 9.60984 8.63613C9.65067 8.76438 9.82422 8.69889 9.82422 8.63613Z" fill="white"/>
<path fill-rule="evenodd" clip-rule="evenodd" d="M37.9023 8.74027C38.0146 8.68024 37.7492 8.59565 37.6879 8.62839C37.5756 8.68843 37.8411 8.77302 37.9023 8.74027Z" fill="white"/>
<path fill-rule="evenodd" clip-rule="evenodd" d="M25.1425 8.85133C25.2548 8.7913 24.9894 8.7067 24.9282 8.73672C24.8159 8.79676 25.0813 8.88135 25.1425 8.85133Z" fill="white"/>
<path fill-rule="evenodd" clip-rule="evenodd" d="M25.5664 8.96293C25.6787 8.9029 25.4132 8.8183 25.352 8.85105C25.2448 8.91108 25.5051 8.99568 25.5664 8.96293Z" fill="white"/>
<path fill-rule="evenodd" clip-rule="evenodd" d="M12.5898 9.0779C12.7021 9.01786 12.4367 8.93327 12.3805 8.96328C12.2682 9.02332 12.5336 9.10791 12.5898 9.0779Z" fill="white"/>
<path fill-rule="evenodd" clip-rule="evenodd" d="M15.1425 9.19118C15.2548 9.13114 14.9894 9.04655 14.9282 9.07657C14.8159 9.1366 15.0813 9.22119 15.1425 9.19118Z" fill="white"/>
<path fill-rule="evenodd" clip-rule="evenodd" d="M45.7676 9.31191C45.7267 9.18365 45.5532 9.24915 45.5532 9.31191C45.594 9.44017 45.7676 9.37467 45.7676 9.31191Z" fill="white"/>
<path fill-rule="evenodd" clip-rule="evenodd" d="M5.57223 9.30278C5.68452 9.24274 5.4191 9.15815 5.35785 9.19089C5.24555 9.25093 5.51098 9.33552 5.57223 9.30278Z" fill="white"/>
<path fill-rule="evenodd" clip-rule="evenodd" d="M3.87301 9.30278C3.9853 9.24274 3.71988 9.15815 3.65863 9.19089C3.54633 9.25093 3.81176 9.33552 3.87301 9.30278Z" fill="white"/>
<path fill-rule="evenodd" clip-rule="evenodd" d="M44.4921 9.42946C44.6044 9.36942 44.339 9.28483 44.2828 9.31485C44.1706 9.37488 44.436 9.45948 44.4921 9.42946Z" fill="white"/>
<path fill-rule="evenodd" clip-rule="evenodd" d="M34.498 9.65602C34.6103 9.59599 34.3449 9.51139 34.2836 9.54141C34.1713 9.60144 34.4368 9.68604 34.498 9.65602Z" fill="white"/>
<path fill-rule="evenodd" clip-rule="evenodd" d="M25.1425 9.65602C25.2548 9.59599 24.9894 9.51139 24.9282 9.54141C24.8159 9.60144 25.0813 9.68604 25.1425 9.65602Z" fill="white"/>
<path fill-rule="evenodd" clip-rule="evenodd" d="M8.33783 9.65602C8.45012 9.59599 8.1847 9.51139 8.12855 9.54141C8.01626 9.60144 8.28168 9.68604 8.33783 9.65602Z" fill="white"/>
<path fill-rule="evenodd" clip-rule="evenodd" d="M38.9629 9.7654C39.0751 9.70536 38.8097 9.62077 38.7485 9.65078C38.6362 9.71082 38.9016 9.79541 38.9629 9.7654Z" fill="white"/>
<path fill-rule="evenodd" clip-rule="evenodd" d="M31.7304 9.87868C31.8427 9.81864 31.5773 9.73405 31.5211 9.76407C31.4088 9.8241 31.6743 9.90869 31.7304 9.87868Z" fill="white"/>
<path fill-rule="evenodd" clip-rule="evenodd" d="M15.9941 9.87868C16.1064 9.81864 15.841 9.73405 15.7797 9.76407C15.6725 9.8241 15.9329 9.90869 15.9941 9.87868Z" fill="white"/>
<path fill-rule="evenodd" clip-rule="evenodd" d="M14.5039 9.87868C14.6162 9.81864 14.3507 9.73405 14.2895 9.76407C14.1772 9.8241 14.4426 9.90869 14.5039 9.87868Z" fill="white"/>
<path fill-rule="evenodd" clip-rule="evenodd" d="M11.5273 9.87868C11.6396 9.81864 11.3742 9.73405 11.318 9.76407C11.2057 9.8241 11.4711 9.90869 11.5273 9.87868Z" fill="white"/>
<path fill-rule="evenodd" clip-rule="evenodd" d="M10.8926 9.98885C10.8517 9.85786 10.6782 9.92608 10.6782 9.98885C10.719 10.1171 10.8926 10.0516 10.8926 9.98885Z" fill="white"/>
<path fill-rule="evenodd" clip-rule="evenodd" d="M44.4921 10.101C44.4512 9.97272 44.2777 10.0382 44.2828 10.101C44.3236 10.2292 44.4972 10.1637 44.4921 10.101Z" fill="white"/>
<path fill-rule="evenodd" clip-rule="evenodd" d="M20.0334 9.98517C19.916 10.2362 20.4417 10.1462 20.457 10.3263C20.9879 10.2799 20.4672 9.88421 20.0334 9.98517Z" fill="white"/>
<path fill-rule="evenodd" clip-rule="evenodd" d="M15.1426 10.101C15.1017 9.97272 14.9282 10.0382 14.9282 10.101C14.969 10.2292 15.1426 10.1637 15.1426 10.101Z" fill="white"/>
<path fill-rule="evenodd" clip-rule="evenodd" d="M40.2402 10.2302C40.3525 10.1702 40.087 10.0856 40.0309 10.1156C39.9186 10.1757 40.184 10.2603 40.2402 10.2302Z" fill="white"/>
<path fill-rule="evenodd" clip-rule="evenodd" d="M33.6464 10.2302C33.7587 10.1702 33.4933 10.0856 33.4321 10.1156C33.3198 10.1757 33.5852 10.2603 33.6464 10.2302Z" fill="white"/>
<path fill-rule="evenodd" clip-rule="evenodd" d="M33.2207 10.2302C33.333 10.1702 33.0675 10.0856 33.0063 10.1156C32.894 10.1757 33.1594 10.2603 33.2207 10.2302Z" fill="white"/>
<path fill-rule="evenodd" clip-rule="evenodd" d="M32.7929 10.2302C32.9052 10.1702 32.6398 10.0856 32.5836 10.1156C32.4713 10.1757 32.7368 10.2603 32.7929 10.2302Z" fill="white"/>
<path fill-rule="evenodd" clip-rule="evenodd" d="M16.418 10.2103C16.3771 10.0821 16.2036 10.1476 16.2036 10.2103C16.2444 10.3413 16.418 10.2731 16.418 10.2103Z" fill="white"/>
<path fill-rule="evenodd" clip-rule="evenodd" d="M4.93356 10.2302C5.04585 10.1702 4.78043 10.0856 4.71918 10.1156C4.60688 10.1757 4.8723 10.2603 4.93356 10.2302Z" fill="white"/>
<path fill-rule="evenodd" clip-rule="evenodd" d="M32.1562 10.3279C32.2685 10.2679 32.0031 10.1833 31.9418 10.2133C31.8295 10.2733 32.095 10.3579 32.1562 10.3279Z" fill="white"/>
<path fill-rule="evenodd" clip-rule="evenodd" d="M18.7617 10.3279C18.874 10.2679 18.6085 10.1833 18.5473 10.2133C18.435 10.2733 18.7004 10.3579 18.7617 10.3279Z" fill="white"/>
<path fill-rule="evenodd" clip-rule="evenodd" d="M5.35738 10.3279C5.46968 10.2679 5.20426 10.1833 5.143 10.2133C5.03581 10.2733 5.29613 10.3579 5.35738 10.3279Z" fill="white"/>
<path fill-rule="evenodd" clip-rule="evenodd" d="M4.50973 10.3279C4.62202 10.2679 4.3566 10.1833 4.29535 10.2133C4.18305 10.2733 4.44848 10.3579 4.50973 10.3279Z" fill="white"/>
<path fill-rule="evenodd" clip-rule="evenodd" d="M44.4921 10.4551C44.6044 10.3951 44.339 10.3105 44.2828 10.3432C44.1706 10.4033 44.436 10.4879 44.4921 10.4551Z" fill="white"/>
<path fill-rule="evenodd" clip-rule="evenodd" d="M23.2226 10.4551C23.3349 10.3951 23.0695 10.3105 23.0133 10.3432C22.901 10.4033 23.1664 10.4879 23.2226 10.4551Z" fill="white"/>
<path fill-rule="evenodd" clip-rule="evenodd" d="M14.5039 10.4551C14.6162 10.3951 14.3507 10.3105 14.2895 10.3432C14.1772 10.4033 14.4426 10.4879 14.5039 10.4551Z" fill="white"/>
<path fill-rule="evenodd" clip-rule="evenodd" d="M24.289 10.5701C24.4013 10.51 24.1359 10.4255 24.0797 10.4555C23.9674 10.5155 24.2329 10.6001 24.289 10.5701Z" fill="white"/>
<path fill-rule="evenodd" clip-rule="evenodd" d="M6.20892 10.5701C6.32121 10.51 6.05579 10.4255 5.99965 10.4555C5.88735 10.5155 6.15277 10.6001 6.20892 10.5701Z" fill="white"/>
<path fill-rule="evenodd" clip-rule="evenodd" d="M29.1777 10.6752C29.1369 10.5469 28.9634 10.6124 28.9634 10.6752C29.0042 10.8034 29.1777 10.738 29.1777 10.6752Z" fill="white"/>
<path fill-rule="evenodd" clip-rule="evenodd" d="M3.44336 10.6752C3.40253 10.5469 3.22898 10.6124 3.22898 10.6752C3.26981 10.8034 3.44336 10.738 3.44336 10.6752Z" fill="white"/>
<path fill-rule="evenodd" clip-rule="evenodd" d="M41.5156 10.7927C41.6279 10.7327 41.3625 10.6481 41.3012 10.6781C41.194 10.7382 41.4543 10.8228 41.5156 10.7927Z" fill="white"/>
<path fill-rule="evenodd" clip-rule="evenodd" d="M24.498 10.7927C24.6103 10.7327 24.3449 10.6481 24.2836 10.6781C24.1764 10.7382 24.4368 10.8228 24.498 10.7927Z" fill="white"/>
<path fill-rule="evenodd" clip-rule="evenodd" d="M17.4863 10.7927C17.5986 10.7327 17.3332 10.6481 17.2719 10.6781C17.1596 10.7382 17.425 10.8228 17.4863 10.7927Z" fill="white"/>
<path fill-rule="evenodd" clip-rule="evenodd" d="M44.4921 10.906C44.6044 10.846 44.339 10.7614 44.2828 10.7914C44.1706 10.8514 44.436 10.936 44.4921 10.906Z" fill="white"/>
<path fill-rule="evenodd" clip-rule="evenodd" d="M32.5839 10.906C32.6962 10.846 32.4308 10.7614 32.3696 10.7914C32.2573 10.8514 32.5227 10.936 32.5839 10.906Z" fill="white"/>
<path fill-rule="evenodd" clip-rule="evenodd" d="M41.3027 11.0176C41.415 10.9576 41.1495 10.873 41.0934 10.9057C40.9811 10.9658 41.2465 11.0504 41.3027 11.0176Z" fill="white"/>
<path fill-rule="evenodd" clip-rule="evenodd" d="M36.8359 11.1326C36.9482 11.0725 36.6828 10.988 36.6215 11.018C36.5092 11.078 36.7746 11.1626 36.8359 11.1326Z" fill="white"/>
<path fill-rule="evenodd" clip-rule="evenodd" d="M45.9824 11.2533C45.9416 11.1251 45.768 11.1906 45.768 11.2533C45.8089 11.3816 45.9824 11.3161 45.9824 11.2533Z" fill="white"/>
<path fill-rule="evenodd" clip-rule="evenodd" d="M24.0742 11.3666C24.0334 11.2383 23.8598 11.3038 23.8598 11.3666C23.9007 11.4976 24.0742 11.4294 24.0742 11.3666Z" fill="white"/>
<path fill-rule="evenodd" clip-rule="evenodd" d="M14.7187 11.3552C14.831 11.2952 14.5656 11.2106 14.5094 11.2406C14.3971 11.3007 14.6625 11.3853 14.7187 11.3552Z" fill="white"/>
<path fill-rule="evenodd" clip-rule="evenodd" d="M37.4726 11.4685C37.5849 11.4085 37.3195 11.3239 37.2582 11.3539C37.1459 11.4139 37.4114 11.4985 37.4726 11.4685Z" fill="white"/>
<path fill-rule="evenodd" clip-rule="evenodd" d="M24.498 11.4685C24.6103 11.4085 24.3449 11.3239 24.2836 11.3539C24.1764 11.4139 24.4368 11.4985 24.498 11.4685Z" fill="white"/>
<path fill-rule="evenodd" clip-rule="evenodd" d="M29.1796 11.5818C29.2919 11.5218 29.0265 11.4372 28.9653 11.4672C28.853 11.5272 29.1184 11.6118 29.1796 11.5818Z" fill="white"/>
<path fill-rule="evenodd" clip-rule="evenodd" d="M22.7988 11.5818C22.9111 11.5218 22.6457 11.4372 22.5844 11.4672C22.4721 11.5272 22.7375 11.6118 22.7988 11.5818Z" fill="white"/>
<path fill-rule="evenodd" clip-rule="evenodd" d="M22.375 11.5818C22.4873 11.5218 22.2218 11.4372 22.1606 11.4672C22.0534 11.5272 22.3137 11.6118 22.375 11.5818Z" fill="white"/>
<path fill-rule="evenodd" clip-rule="evenodd" d="M4.50973 11.5818C4.62202 11.5218 4.3566 11.4372 4.29535 11.4672C4.18305 11.5272 4.44848 11.6118 4.50973 11.5818Z" fill="white"/>
<path fill-rule="evenodd" clip-rule="evenodd" d="M39.3886 11.6951C39.5009 11.635 39.2355 11.5505 39.1743 11.5805C39.0671 11.6405 39.3274 11.7251 39.3886 11.6951Z" fill="white"/>
<path fill-rule="evenodd" clip-rule="evenodd" d="M21.0995 11.6951C21.2118 11.635 20.9464 11.5505 20.8903 11.5805C20.778 11.6405 21.0434 11.7251 21.0995 11.6951Z" fill="white"/>
<path fill-rule="evenodd" clip-rule="evenodd" d="M7.0625 11.698C7.01146 11.5561 6.63885 11.5834 6.63885 11.698C6.82771 11.769 7.01656 11.8345 7.0625 11.698Z" fill="white"/>
<path fill-rule="evenodd" clip-rule="evenodd" d="M47.6822 11.9251C48.1978 12.3071 46.9676 11.6495 47.6822 11.9251V11.9251Z" fill="white"/>
<path fill-rule="evenodd" clip-rule="evenodd" d="M21.5234 11.9271C21.5183 11.818 21.2631 11.8398 21.0998 11.8125C21.1049 11.9244 21.3601 11.8998 21.5234 11.9271Z" fill="white"/>
<path fill-rule="evenodd" clip-rule="evenodd" d="M40.8789 12.0466C40.9912 11.9866 40.7257 11.902 40.6645 11.932C40.5522 11.9921 40.8176 12.0767 40.8789 12.0466Z" fill="white"/>
<path fill-rule="evenodd" clip-rule="evenodd" d="M7.27142 12.0466C7.38371 11.9866 7.11829 11.902 7.06214 11.932C6.94985 11.9921 7.21527 12.0767 7.27142 12.0466Z" fill="white"/>
<path fill-rule="evenodd" clip-rule="evenodd" d="M37.4726 12.1543C37.5849 12.0943 37.3195 12.0097 37.2582 12.0425C37.1459 12.1025 37.4114 12.1871 37.4726 12.1543Z" fill="white"/>
<path fill-rule="evenodd" clip-rule="evenodd" d="M35.5605 12.1543C35.6728 12.0943 35.4074 12.0097 35.3461 12.0425C35.2338 12.1025 35.4993 12.1871 35.5605 12.1543Z" fill="white"/>
<path fill-rule="evenodd" clip-rule="evenodd" d="M26.8418 12.1543C26.9541 12.0943 26.6886 12.0097 26.6274 12.0425C26.5151 12.1025 26.7805 12.1871 26.8418 12.1543Z" fill="white"/>
<path fill-rule="evenodd" clip-rule="evenodd" d="M9.40223 12.1518C9.3614 12.0235 9.18786 12.089 9.19296 12.1518C9.23379 12.28 9.40734 12.2145 9.40223 12.1518Z" fill="white"/>
<path fill-rule="evenodd" clip-rule="evenodd" d="M8.76168 12.1543C8.87397 12.0943 8.60855 12.0097 8.5473 12.0425C8.43501 12.1025 8.70043 12.1871 8.76168 12.1543Z" fill="white"/>
<path fill-rule="evenodd" clip-rule="evenodd" d="M8.33783 12.1543C8.45012 12.0943 8.1847 12.0097 8.12855 12.0425C8.01626 12.1025 8.28168 12.1871 8.33783 12.1543Z" fill="white"/>
<path fill-rule="evenodd" clip-rule="evenodd" d="M3.01947 12.2693C3.13176 12.2093 2.86634 12.1247 2.81019 12.1547C2.6979 12.2147 2.96332 12.2993 3.01947 12.2693Z" fill="white"/>
<path fill-rule="evenodd" clip-rule="evenodd" d="M38.1113 12.4959C38.2236 12.4358 37.9581 12.3512 37.902 12.3813C37.7897 12.4413 38.0551 12.5259 38.1113 12.4959Z" fill="white"/>
<path fill-rule="evenodd" clip-rule="evenodd" d="M39.1738 12.6091C39.2861 12.5491 39.0206 12.4645 38.9645 12.4945C38.8522 12.5546 39.1176 12.6392 39.1738 12.6091Z" fill="white"/>
<path fill-rule="evenodd" clip-rule="evenodd" d="M28.332 12.6091C28.4443 12.5491 28.1789 12.4645 28.1176 12.4945C28.0053 12.5546 28.2707 12.6392 28.332 12.6091Z" fill="white"/>
<path fill-rule="evenodd" clip-rule="evenodd" d="M38.5351 12.7325C38.6474 12.6724 38.382 12.5878 38.3207 12.6206C38.2084 12.6806 38.4739 12.7652 38.5351 12.7325Z" fill="white"/>
<path fill-rule="evenodd" clip-rule="evenodd" d="M12.8046 12.7325C12.9169 12.6724 12.6515 12.5878 12.5903 12.6206C12.4831 12.6806 12.7434 12.7652 12.8046 12.7325Z" fill="white"/>
<path fill-rule="evenodd" clip-rule="evenodd" d="M9.82418 12.7325C9.93647 12.6724 9.67105 12.5878 9.6098 12.6206C9.49751 12.6806 9.76293 12.7652 9.82418 12.7325Z" fill="white"/>
<path fill-rule="evenodd" clip-rule="evenodd" d="M9.19137 12.7325C9.30366 12.6724 9.03824 12.5878 8.97698 12.6206C8.86469 12.6806 9.13012 12.7652 9.19137 12.7325Z" fill="white"/>
<path fill-rule="evenodd" clip-rule="evenodd" d="M7.48633 12.7122C7.39445 12.5458 7.29747 12.7232 7.06267 12.7122C7.11371 12.8541 7.48633 12.8269 7.48633 12.7122Z" fill="white"/>
<path fill-rule="evenodd" clip-rule="evenodd" d="M36.4121 12.8287C36.3713 12.6977 36.1977 12.7659 36.1977 12.8287C36.2386 12.9569 36.4121 12.8915 36.4121 12.8287Z" fill="white"/>
<path fill-rule="evenodd" clip-rule="evenodd" d="M21.7363 12.959C21.8486 12.899 21.5832 12.8144 21.5219 12.8471C21.4096 12.9072 21.675 12.9918 21.7363 12.959Z" fill="white"/>
<path fill-rule="evenodd" clip-rule="evenodd" d="M16.8417 12.959C16.954 12.899 16.6886 12.8144 16.6325 12.8471C16.5202 12.9072 16.7856 12.9918 16.8417 12.959Z" fill="white"/>
<path fill-rule="evenodd" clip-rule="evenodd" d="M43.2168 13.0701C43.3291 13.01 43.0636 12.9255 43.0024 12.9555C42.8901 13.0155 43.1555 13.1001 43.2168 13.0701Z" fill="white"/>
<path fill-rule="evenodd" clip-rule="evenodd" d="M29.18 12.9492C29.8282 13.3313 28.3939 13.2931 29.18 12.9492V12.9492Z" fill="white"/>
<path fill-rule="evenodd" clip-rule="evenodd" d="M26.2031 13.0701C26.3154 13.01 26.05 12.9255 25.9887 12.9555C25.8764 13.0155 26.1418 13.1001 26.2031 13.0701Z" fill="white"/>
<path fill-rule="evenodd" clip-rule="evenodd" d="M41.0918 13.1834C41.2041 13.1233 40.9386 13.0387 40.8774 13.0688C40.7651 13.1288 41.0305 13.2134 41.0918 13.1834Z" fill="white"/>
<path fill-rule="evenodd" clip-rule="evenodd" d="M26.8418 13.1834C26.9541 13.1233 26.6886 13.0387 26.6274 13.0688C26.5151 13.1288 26.7805 13.2134 26.8418 13.1834Z" fill="white"/>
<path fill-rule="evenodd" clip-rule="evenodd" d="M13.8671 13.1834C13.9794 13.1233 13.714 13.0387 13.6528 13.0688C13.5456 13.1288 13.8059 13.2134 13.8671 13.1834Z" fill="white"/>
<path fill-rule="evenodd" clip-rule="evenodd" d="M38.9629 13.2966C39.0751 13.2366 38.8097 13.152 38.7485 13.182C38.6362 13.2421 38.9016 13.3267 38.9629 13.2966Z" fill="white"/>
<path fill-rule="evenodd" clip-rule="evenodd" d="M33.6464 13.4099C33.7587 13.3499 33.4933 13.2653 33.4321 13.2953C33.3198 13.3554 33.5852 13.4399 33.6464 13.4099Z" fill="white"/>
<path fill-rule="evenodd" clip-rule="evenodd" d="M41.7265 13.5215C41.8388 13.4615 41.5734 13.3769 41.5121 13.4096C41.3998 13.4697 41.6653 13.5543 41.7265 13.5215Z" fill="white"/>
<path fill-rule="evenodd" clip-rule="evenodd" d="M2.81051 13.5215C2.9228 13.4615 2.65738 13.3769 2.59613 13.4096C2.48383 13.4697 2.74926 13.5543 2.81051 13.5215Z" fill="white"/>
<path fill-rule="evenodd" clip-rule="evenodd" d="M27.6894 13.7459C27.8017 13.6858 27.5363 13.6012 27.475 13.6313C27.3678 13.6913 27.6282 13.7759 27.6894 13.7459Z" fill="white"/>
<path fill-rule="evenodd" clip-rule="evenodd" d="M15.3574 13.7459C15.4697 13.6858 15.2043 13.6012 15.143 13.6313C15.0307 13.6913 15.2961 13.7759 15.3574 13.7459Z" fill="white"/>
<path fill-rule="evenodd" clip-rule="evenodd" d="M3.44332 13.7459C3.55562 13.6858 3.29019 13.6012 3.22894 13.6313C3.11665 13.6913 3.38207 13.7759 3.44332 13.7459Z" fill="white"/>
<path fill-rule="evenodd" clip-rule="evenodd" d="M24.7129 13.8575C24.8251 13.7974 24.5597 13.7128 24.4985 13.7456C24.3862 13.8056 24.6516 13.8902 24.7129 13.8575Z" fill="white"/>
<path fill-rule="evenodd" clip-rule="evenodd" d="M20.2461 13.8621C20.1951 13.7202 19.8224 13.7475 19.8224 13.8621C20.0113 13.933 20.2002 13.9985 20.2461 13.8621Z" fill="white"/>
<path fill-rule="evenodd" clip-rule="evenodd" d="M10.4609 13.8575C10.5732 13.7974 10.3077 13.7128 10.2516 13.7456C10.1393 13.8056 10.4047 13.8902 10.4609 13.8575Z" fill="white"/>
<path fill-rule="evenodd" clip-rule="evenodd" d="M23.2226 13.9724C23.3349 13.9124 23.0695 13.8278 23.0133 13.8578C22.901 13.9179 23.1664 14.0024 23.2226 13.9724Z" fill="white"/>
<path fill-rule="evenodd" clip-rule="evenodd" d="M19.3945 13.9724C19.5068 13.9124 19.2414 13.8278 19.1801 13.8578C19.0678 13.9179 19.3332 14.0024 19.3945 13.9724Z" fill="white"/>
<path fill-rule="evenodd" clip-rule="evenodd" d="M6.42379 13.9724C6.53608 13.9124 6.27066 13.8278 6.20941 13.8578C6.10222 13.9179 6.36254 14.0024 6.42379 13.9724Z" fill="white"/>
<path fill-rule="evenodd" clip-rule="evenodd" d="M37.2597 14.1951C37.372 14.1351 37.1066 14.0505 37.0453 14.0805C36.9382 14.1405 37.1985 14.2251 37.2597 14.1951Z" fill="white"/>
<path fill-rule="evenodd" clip-rule="evenodd" d="M46.4062 14.42C46.5185 14.3599 46.2531 14.2753 46.1918 14.3081C46.0795 14.3681 46.345 14.4527 46.4062 14.42Z" fill="white"/>
<path fill-rule="evenodd" clip-rule="evenodd" d="M40.4492 14.42C40.5615 14.3599 40.2961 14.2753 40.2348 14.3081C40.1276 14.3681 40.3879 14.4527 40.4492 14.42Z" fill="white"/>
<path fill-rule="evenodd" clip-rule="evenodd" d="M27.0566 14.6465C27.1689 14.5865 26.9035 14.5019 26.8422 14.5346C26.7299 14.5947 26.9954 14.6793 27.0566 14.6465Z" fill="white"/>
<path fill-rule="evenodd" clip-rule="evenodd" d="M8.33783 14.6465C8.45012 14.5865 8.1847 14.5019 8.12855 14.5346C8.01626 14.5947 8.28168 14.6793 8.33783 14.6465Z" fill="white"/>
<path fill-rule="evenodd" clip-rule="evenodd" d="M34.7109 14.7732C34.8232 14.7132 34.5578 14.6286 34.4965 14.6586C34.3842 14.7186 34.6496 14.8032 34.7109 14.7732Z" fill="white"/>
<path fill-rule="evenodd" clip-rule="evenodd" d="M28.9648 14.7732C29.0771 14.7132 28.8117 14.6286 28.7504 14.6586C28.6381 14.7186 28.9036 14.8032 28.9648 14.7732Z" fill="white"/>
<path fill-rule="evenodd" clip-rule="evenodd" d="M14.7187 14.8709C14.831 14.8108 14.5656 14.7262 14.5094 14.7563C14.3971 14.8163 14.6625 14.9009 14.7187 14.8709Z" fill="white"/>
<path fill-rule="evenodd" clip-rule="evenodd" d="M25.7754 14.9998C25.8876 14.9397 25.6222 14.8551 25.561 14.8852C25.4487 14.9452 25.7141 15.0298 25.7754 14.9998Z" fill="white"/>
<path fill-rule="evenodd" clip-rule="evenodd" d="M37.4726 15.3357C37.5849 15.2757 37.3195 15.1911 37.2582 15.2211C37.1459 15.2811 37.4114 15.3657 37.4726 15.3357Z" fill="white"/>
<path fill-rule="evenodd" clip-rule="evenodd" d="M15.3574 15.3357C15.4697 15.2757 15.2043 15.1911 15.143 15.2211C15.0307 15.2811 15.2961 15.3657 15.3574 15.3357Z" fill="white"/>
<path fill-rule="evenodd" clip-rule="evenodd" d="M20.8848 15.4564C20.8439 15.3282 20.6704 15.3937 20.6704 15.4564C20.7112 15.5847 20.8848 15.5192 20.8848 15.4564Z" fill="white"/>
<path fill-rule="evenodd" clip-rule="evenodd" d="M3.44336 15.4564C3.40253 15.3282 3.22898 15.3937 3.22898 15.4564C3.26981 15.5847 3.44336 15.5192 3.44336 15.4564Z" fill="white"/>
<path fill-rule="evenodd" clip-rule="evenodd" d="M5.14837 15.5723C5.26067 15.5123 4.99525 15.4277 4.9391 15.4604C4.82681 15.5205 5.09223 15.6051 5.14837 15.5723Z" fill="white"/>
<path fill-rule="evenodd" clip-rule="evenodd" d="M21.0995 15.7989C21.2118 15.7388 20.9464 15.6542 20.8903 15.687C20.778 15.747 21.0434 15.8316 21.0995 15.7989Z" fill="white"/>
<path fill-rule="evenodd" clip-rule="evenodd" d="M17.2714 16.0232C17.3837 15.9632 17.1183 15.8786 17.0571 15.9086C16.9448 15.9686 17.2102 16.0532 17.2714 16.0232Z" fill="white"/>
<path fill-rule="evenodd" clip-rule="evenodd" d="M47.2584 16.2532C47.7739 16.6353 46.5438 15.9776 47.2584 16.2532V16.2532Z" fill="white"/>
<path fill-rule="evenodd" clip-rule="evenodd" d="M37.2597 16.2498C37.372 16.1897 37.1066 16.1051 37.0453 16.1352C36.9382 16.1952 37.1985 16.2798 37.2597 16.2498Z" fill="white"/>
<path fill-rule="evenodd" clip-rule="evenodd" d="M28.541 16.2498C28.6532 16.1897 28.3878 16.1051 28.3317 16.1352C28.2194 16.1952 28.4848 16.2798 28.541 16.2498Z" fill="white"/>
<path fill-rule="evenodd" clip-rule="evenodd" d="M25.7754 16.4763C25.8876 16.4163 25.6222 16.3317 25.561 16.3617C25.4487 16.4218 25.7141 16.5063 25.7754 16.4763Z" fill="white"/>
<path fill-rule="evenodd" clip-rule="evenodd" d="M21.0995 16.5857C21.2118 16.5257 20.9464 16.4411 20.8903 16.4711C20.778 16.5311 21.0434 16.6157 21.0995 16.5857Z" fill="white"/>
<path fill-rule="evenodd" clip-rule="evenodd" d="M9.40223 16.5814C9.3614 16.4532 9.18786 16.5187 9.19296 16.5814C9.23379 16.7097 9.40734 16.6442 9.40223 16.5814Z" fill="white"/>
<path fill-rule="evenodd" clip-rule="evenodd" d="M7.48568 16.5834C7.37339 16.4087 7.2662 16.5752 7.2713 16.698C7.3836 16.8726 7.49589 16.7062 7.48568 16.5834Z" fill="white"/>
<path fill-rule="evenodd" clip-rule="evenodd" d="M18.9706 16.8123C19.0829 16.7522 18.8175 16.6676 18.7614 16.6977C18.6491 16.7577 18.9145 16.8423 18.9706 16.8123Z" fill="white"/>
<path fill-rule="evenodd" clip-rule="evenodd" d="M36.8359 16.9239C36.9482 16.8638 36.6828 16.7792 36.6215 16.812C36.5092 16.872 36.7746 16.9566 36.8359 16.9239Z" fill="white"/>
<path fill-rule="evenodd" clip-rule="evenodd" d="M15.7812 16.9239C15.8935 16.8638 15.6281 16.7792 15.5719 16.812C15.4596 16.872 15.725 16.9566 15.7812 16.9239Z" fill="white"/>
<path fill-rule="evenodd" clip-rule="evenodd" d="M11.1054 16.9239C11.2177 16.8638 10.9523 16.7792 10.891 16.812C10.7788 16.872 11.0442 16.9566 11.1054 16.9239Z" fill="white"/>
<path fill-rule="evenodd" clip-rule="evenodd" d="M20.8847 17.0388C20.997 16.9788 20.7316 16.8942 20.6703 16.9242C20.5581 16.9843 20.8235 17.0689 20.8847 17.0388Z" fill="white"/>
<path fill-rule="evenodd" clip-rule="evenodd" d="M11.5292 17.0388C11.6415 16.9788 11.3761 16.8942 11.32 16.9242C11.2077 16.9843 11.4731 17.0689 11.5292 17.0388Z" fill="white"/>
<path fill-rule="evenodd" clip-rule="evenodd" d="M7.27137 17.0463C7.23054 16.918 7.05699 16.9835 7.0621 17.0463C7.10293 17.1773 7.27648 17.109 7.27137 17.0463Z" fill="white"/>
<path fill-rule="evenodd" clip-rule="evenodd" d="M16.205 17.1482C16.3173 17.0882 16.0519 17.0036 15.9907 17.0336C15.8784 17.0936 16.1438 17.1782 16.205 17.1482Z" fill="white"/>
<path fill-rule="evenodd" clip-rule="evenodd" d="M41.5156 17.2754C41.6279 17.2154 41.3625 17.1308 41.3012 17.1635C41.194 17.2236 41.4543 17.3082 41.5156 17.2754Z" fill="white"/>
<path fill-rule="evenodd" clip-rule="evenodd" d="M23.8652 17.2728C23.8244 17.1446 23.6509 17.2101 23.6509 17.2728C23.6917 17.4011 23.8652 17.3356 23.8652 17.2728Z" fill="white"/>
<path fill-rule="evenodd" clip-rule="evenodd" d="M11.3144 17.2754C11.4267 17.2154 11.1613 17.1308 11.1 17.1635C10.9877 17.2236 11.2532 17.3082 11.3144 17.2754Z" fill="white"/>
<path fill-rule="evenodd" clip-rule="evenodd" d="M38.5351 17.4981C38.6474 17.4381 38.382 17.3535 38.3207 17.3862C38.2084 17.4462 38.4739 17.5308 38.5351 17.4981Z" fill="white"/>
<path fill-rule="evenodd" clip-rule="evenodd" d="M33.8593 17.6088C33.8184 17.4805 33.6449 17.546 33.65 17.6088C33.6908 17.7398 33.8644 17.6715 33.8593 17.6088Z" fill="white"/>
<path fill-rule="evenodd" clip-rule="evenodd" d="M18.7617 18.1912C18.874 18.1311 18.6085 18.0465 18.5473 18.0766C18.435 18.1366 18.7004 18.2212 18.7617 18.1912Z" fill="white"/>
<path fill-rule="evenodd" clip-rule="evenodd" d="M32.1562 18.3045C32.2685 18.2444 32.0031 18.1598 31.9418 18.1898C31.8295 18.2499 32.095 18.3345 32.1562 18.3045Z" fill="white"/>
<path fill-rule="evenodd" clip-rule="evenodd" d="M22.162 18.3045C22.2743 18.2444 22.0089 18.1598 21.9528 18.1898C21.8405 18.2499 22.1059 18.3345 22.162 18.3045Z" fill="white"/>
<path fill-rule="evenodd" clip-rule="evenodd" d="M41.5156 18.4138C41.6279 18.3538 41.3625 18.2692 41.3012 18.2992C41.194 18.3593 41.4543 18.4439 41.5156 18.4138Z" fill="white"/>
<path fill-rule="evenodd" clip-rule="evenodd" d="M35.5586 18.7573C35.4667 18.5936 35.3697 18.771 35.1349 18.7573C35.186 18.8992 35.5586 18.8719 35.5586 18.7573Z" fill="white"/>
<path fill-rule="evenodd" clip-rule="evenodd" d="M34.498 18.7537C34.6103 18.6936 34.3449 18.609 34.2836 18.6391C34.1713 18.6991 34.4368 18.7837 34.498 18.7537Z" fill="white"/>
<path fill-rule="evenodd" clip-rule="evenodd" d="M33.2207 18.9747C33.333 18.9146 33.0675 18.83 33.0063 18.8628C32.894 18.9228 33.1594 19.0074 33.2207 18.9747Z" fill="white"/>
<path fill-rule="evenodd" clip-rule="evenodd" d="M21.9511 18.9747C22.0634 18.9146 21.798 18.83 21.7368 18.8628C21.6245 18.9228 21.8899 19.0074 21.9511 18.9747Z" fill="white"/>
<path fill-rule="evenodd" clip-rule="evenodd" d="M22.375 19.0896C22.4873 19.0296 22.2218 18.945 22.1606 18.975C22.0534 19.035 22.3137 19.1196 22.375 19.0896Z" fill="white"/>
<path fill-rule="evenodd" clip-rule="evenodd" d="M5.57227 19.0865C5.53143 18.9555 5.35789 19.0237 5.35789 19.0865C5.39872 19.2148 5.57227 19.1493 5.57227 19.0865Z" fill="white"/>
<path fill-rule="evenodd" clip-rule="evenodd" d="M20.8847 19.2012C20.997 19.1412 20.7316 19.0566 20.6703 19.0893C20.5581 19.1494 20.8235 19.234 20.8847 19.2012Z" fill="white"/>
<path fill-rule="evenodd" clip-rule="evenodd" d="M31.7304 19.3162C31.8427 19.2561 31.5773 19.1715 31.5211 19.2016C31.4088 19.2616 31.6743 19.3462 31.7304 19.3162Z" fill="white"/>
<path fill-rule="evenodd" clip-rule="evenodd" d="M24.289 19.4295C24.4013 19.3694 24.1359 19.2848 24.0797 19.3148C23.9674 19.3749 24.2329 19.4595 24.289 19.4295Z" fill="white"/>
<path fill-rule="evenodd" clip-rule="evenodd" d="M46.1972 19.5372C46.3095 19.4771 46.0441 19.3925 45.9828 19.4253C45.8706 19.4853 46.136 19.5699 46.1972 19.5372Z" fill="white"/>
<path fill-rule="evenodd" clip-rule="evenodd" d="M6.42379 19.6521C6.53608 19.5921 6.27066 19.5075 6.20941 19.5375C6.10222 19.5975 6.36254 19.6821 6.42379 19.6521Z" fill="white"/>
<path fill-rule="evenodd" clip-rule="evenodd" d="M11.7382 19.7793C11.8505 19.7193 11.5851 19.6347 11.5239 19.6675C11.4167 19.7275 11.677 19.8121 11.7382 19.7793Z" fill="white"/>
<path fill-rule="evenodd" clip-rule="evenodd" d="M31.0937 20.0037C31.206 19.9436 30.9406 19.859 30.8793 19.8891C30.767 19.9491 31.0325 20.0337 31.0937 20.0037Z" fill="white"/>
<path fill-rule="evenodd" clip-rule="evenodd" d="M4.72461 19.9994C4.68378 19.8712 4.51023 19.9366 4.51023 19.9994C4.55106 20.1277 4.72461 20.0622 4.72461 19.9994Z" fill="white"/>
<path fill-rule="evenodd" clip-rule="evenodd" d="M15.5703 20.2302C15.6826 20.1702 15.4171 20.0856 15.3559 20.1156C15.2436 20.1757 15.509 20.2603 15.5703 20.2302Z" fill="white"/>
<path fill-rule="evenodd" clip-rule="evenodd" d="M43.2168 20.3418C43.3291 20.2818 43.0636 20.1972 43.0024 20.23C42.8901 20.29 43.1555 20.3746 43.2168 20.3418Z" fill="white"/>
<path fill-rule="evenodd" clip-rule="evenodd" d="M38.5352 20.3308C38.4841 20.1889 38.1115 20.2162 38.1115 20.3308C38.3004 20.4018 38.4943 20.4673 38.5352 20.3308Z" fill="white"/>
<path fill-rule="evenodd" clip-rule="evenodd" d="M28.5409 20.3353C28.5001 20.2071 28.3265 20.2726 28.3316 20.3353C28.3725 20.4636 28.546 20.3981 28.5409 20.3353Z" fill="white"/>
<path fill-rule="evenodd" clip-rule="evenodd" d="M6.63473 20.3418C6.74702 20.2818 6.4816 20.1972 6.42035 20.23C6.30805 20.29 6.57348 20.3746 6.63473 20.3418Z" fill="white"/>
<path fill-rule="evenodd" clip-rule="evenodd" d="M40.4492 20.5818C40.5615 20.5218 40.2961 20.4372 40.2348 20.4672C40.1276 20.5272 40.3879 20.6118 40.4492 20.5818Z" fill="white"/>
<path fill-rule="evenodd" clip-rule="evenodd" d="M12.8046 20.9043C12.9169 20.8443 12.6515 20.7597 12.5903 20.7925C12.4831 20.8525 12.7434 20.9371 12.8046 20.9043Z" fill="white"/>
<path fill-rule="evenodd" clip-rule="evenodd" d="M20.4609 21.031C20.5732 20.971 20.3078 20.8864 20.2465 20.9164C20.1342 20.9764 20.3996 21.061 20.4609 21.031Z" fill="white"/>
<path fill-rule="evenodd" clip-rule="evenodd" d="M42.5781 21.14C42.5373 21.0118 42.3637 21.0773 42.3637 21.14C42.4046 21.2683 42.5781 21.2028 42.5781 21.14Z" fill="white"/>
<path fill-rule="evenodd" clip-rule="evenodd" d="M18.5468 21.2559C18.6591 21.1959 18.3937 21.1113 18.3325 21.144C18.2202 21.2041 18.4856 21.2886 18.5468 21.2559Z" fill="white"/>
<path fill-rule="evenodd" clip-rule="evenodd" d="M13.6523 21.2559C13.7646 21.1959 13.4991 21.1113 13.443 21.144C13.3307 21.2041 13.5961 21.2886 13.6523 21.2559Z" fill="white"/>
<path fill-rule="evenodd" clip-rule="evenodd" d="M3.6582 21.4713C3.6531 21.3594 3.39788 21.3839 3.23455 21.3594C3.23965 21.4685 3.49487 21.4467 3.6582 21.4713Z" fill="white"/>
<path fill-rule="evenodd" clip-rule="evenodd" d="M15.5703 21.7068C15.6826 21.6468 15.4171 21.5622 15.3559 21.5922C15.2436 21.6522 15.509 21.7368 15.5703 21.7068Z" fill="white"/>
<path fill-rule="evenodd" clip-rule="evenodd" d="M41.5176 21.823C41.4665 21.6811 41.0939 21.7084 41.0939 21.823C41.2828 21.894 41.4716 21.9595 41.5176 21.823Z" fill="white"/>
<path fill-rule="evenodd" clip-rule="evenodd" d="M21.7363 21.8201C21.8486 21.7601 21.5832 21.6755 21.5219 21.7055C21.4096 21.7655 21.675 21.8501 21.7363 21.8201Z" fill="white"/>
<path fill-rule="evenodd" clip-rule="evenodd" d="M42.5781 22.0411C42.6904 21.981 42.425 21.8964 42.3637 21.9292C42.2565 21.9892 42.5168 22.0738 42.5781 22.0411Z" fill="white"/>
<path fill-rule="evenodd" clip-rule="evenodd" d="M29.6035 22.156C29.7157 22.096 29.4503 22.0114 29.3942 22.0414C29.2819 22.1014 29.5473 22.186 29.6035 22.156Z" fill="white"/>
<path fill-rule="evenodd" clip-rule="evenodd" d="M13.8671 22.156C13.9794 22.096 13.714 22.0114 13.6528 22.0414C13.5456 22.1014 13.8059 22.186 13.8671 22.156Z" fill="white"/>
<path fill-rule="evenodd" clip-rule="evenodd" d="M10.6758 22.1635C10.6349 22.0352 10.4614 22.1007 10.4614 22.1635C10.5022 22.2945 10.6758 22.2262 10.6758 22.1635Z" fill="white"/>
<path fill-rule="evenodd" clip-rule="evenodd" d="M22.162 22.2693C22.2743 22.2093 22.0089 22.1247 21.9528 22.1547C21.8405 22.2147 22.1059 22.2993 22.162 22.2693Z" fill="white"/>
<path fill-rule="evenodd" clip-rule="evenodd" d="M17.2714 22.2693C17.3837 22.2093 17.1183 22.1247 17.0571 22.1547C16.9448 22.2147 17.2102 22.2993 17.2714 22.2693Z" fill="white"/>
<path fill-rule="evenodd" clip-rule="evenodd" d="M42.5781 22.3809C42.6904 22.3209 42.425 22.2363 42.3637 22.269C42.2565 22.3291 42.5168 22.4136 42.5781 22.3809Z" fill="white"/>
<path fill-rule="evenodd" clip-rule="evenodd" d="M14.7187 22.3809C14.831 22.3209 14.5656 22.2363 14.5094 22.269C14.3971 22.3291 14.6625 22.4136 14.7187 22.3809Z" fill="white"/>
<path fill-rule="evenodd" clip-rule="evenodd" d="M9.19137 22.492C9.30366 22.4319 9.03824 22.3473 8.97698 22.3773C8.86469 22.4374 9.13012 22.522 9.19137 22.492Z" fill="white"/>
<path fill-rule="evenodd" clip-rule="evenodd" d="M41.3027 22.7341C41.415 22.6741 41.1495 22.5895 41.0934 22.6195C40.9811 22.6796 41.2465 22.7642 41.3027 22.7341Z" fill="white"/>
<path fill-rule="evenodd" clip-rule="evenodd" d="M40.2402 22.7341C40.3525 22.6741 40.087 22.5895 40.0309 22.6195C39.9186 22.6796 40.184 22.7642 40.2402 22.7341Z" fill="white"/>
<path fill-rule="evenodd" clip-rule="evenodd" d="M22.7988 22.7341C22.9111 22.6741 22.6457 22.5895 22.5844 22.6195C22.4721 22.6796 22.7375 22.7642 22.7988 22.7341Z" fill="white"/>
<path fill-rule="evenodd" clip-rule="evenodd" d="M7.91402 22.8435C8.02632 22.7835 7.76089 22.6989 7.69964 22.7289C7.58735 22.7889 7.85277 22.8735 7.91402 22.8435Z" fill="white"/>
<path fill-rule="evenodd" clip-rule="evenodd" d="M40.6641 22.9525C40.6232 22.8243 40.4497 22.8898 40.4497 22.9525C40.4905 23.0808 40.6641 23.0153 40.6641 22.9525Z" fill="white"/>
<path fill-rule="evenodd" clip-rule="evenodd" d="M25.3515 22.9551C25.4638 22.8951 25.1984 22.8105 25.1422 22.8432C25.0299 22.9033 25.2954 22.9879 25.3515 22.9551Z" fill="white"/>
<path fill-rule="evenodd" clip-rule="evenodd" d="M5.57223 22.9551C5.68452 22.8951 5.4191 22.8105 5.35785 22.8432C5.24555 22.9033 5.51098 22.9879 5.57223 22.9551Z" fill="white"/>
<path fill-rule="evenodd" clip-rule="evenodd" d="M45.3437 23.0701C45.456 23.0101 45.1906 22.9255 45.1293 22.9555C45.017 23.0155 45.2825 23.1001 45.3437 23.0701Z" fill="white"/>
<path fill-rule="evenodd" clip-rule="evenodd" d="M28.7558 23.0701C28.8681 23.0101 28.6027 22.9255 28.5414 22.9555C28.4343 23.0155 28.6946 23.1001 28.7558 23.0701Z" fill="white"/>
<path fill-rule="evenodd" clip-rule="evenodd" d="M27.0566 23.0701C27.1689 23.0101 26.9035 22.9255 26.8422 22.9555C26.7299 23.0155 26.9954 23.1001 27.0566 23.0701Z" fill="white"/>
<path fill-rule="evenodd" clip-rule="evenodd" d="M15.1425 23.3084C15.2548 23.2483 14.9894 23.1637 14.9282 23.1938C14.8159 23.2538 15.0813 23.3384 15.1425 23.3084Z" fill="white"/>
<path fill-rule="evenodd" clip-rule="evenodd" d="M16.418 23.4154C16.4129 23.3035 16.1576 23.3253 15.9943 23.3008C15.9994 23.4127 16.2546 23.3908 16.418 23.4154Z" fill="white"/>
<path fill-rule="evenodd" clip-rule="evenodd" d="M46.621 23.5349C46.7333 23.4749 46.4679 23.3903 46.4118 23.4203C46.2995 23.4804 46.5649 23.5649 46.621 23.5349Z" fill="white"/>
<path fill-rule="evenodd" clip-rule="evenodd" d="M30.2461 23.5349C30.3583 23.4749 30.0929 23.3903 30.0317 23.4203C29.9194 23.4804 30.1848 23.5649 30.2461 23.5349Z" fill="white"/>
<path fill-rule="evenodd" clip-rule="evenodd" d="M39.1738 23.6482C39.2861 23.5882 39.0206 23.5036 38.9645 23.5336C38.8522 23.5936 39.1176 23.6782 39.1738 23.6482Z" fill="white"/>
<path fill-rule="evenodd" clip-rule="evenodd" d="M3.01947 23.6482C3.13176 23.5882 2.86634 23.5036 2.81019 23.5336C2.6979 23.5936 2.96332 23.6782 3.01947 23.6482Z" fill="white"/>
<path fill-rule="evenodd" clip-rule="evenodd" d="M39.8164 23.7559C39.9287 23.6959 39.6632 23.6113 39.602 23.644C39.4897 23.7041 39.7551 23.7886 39.8164 23.7559Z" fill="white"/>
<path fill-rule="evenodd" clip-rule="evenodd" d="M5.14837 23.7559C5.26067 23.6959 4.99525 23.6113 4.9391 23.644C4.82681 23.7041 5.09223 23.7886 5.14837 23.7559Z" fill="white"/>
<path fill-rule="evenodd" clip-rule="evenodd" d="M22.7988 24.2193C22.758 24.0883 22.5844 24.1566 22.5844 24.2193C22.6253 24.3476 22.7988 24.2821 22.7988 24.2193Z" fill="white"/>
<path fill-rule="evenodd" clip-rule="evenodd" d="M39.3886 24.3184C39.5009 24.2584 39.2355 24.1738 39.1743 24.2065C39.0671 24.2666 39.3274 24.3511 39.3886 24.3184Z" fill="white"/>
<path fill-rule="evenodd" clip-rule="evenodd" d="M10.4609 24.3184C10.5732 24.2584 10.3077 24.1738 10.2516 24.2065C10.1393 24.2666 10.4047 24.3511 10.4609 24.3184Z" fill="white"/>
<path fill-rule="evenodd" clip-rule="evenodd" d="M9.40033 24.3184C9.51262 24.2584 9.2472 24.1738 9.19105 24.2065C9.07876 24.2666 9.34418 24.3511 9.40033 24.3184Z" fill="white"/>
<path fill-rule="evenodd" clip-rule="evenodd" d="M16.8417 24.4334C16.954 24.3733 16.6886 24.2887 16.6325 24.3188C16.5202 24.3788 16.7856 24.4634 16.8417 24.4334Z" fill="white"/>
<path fill-rule="evenodd" clip-rule="evenodd" d="M42.5781 24.6582C42.6904 24.5982 42.425 24.5136 42.3637 24.5464C42.2565 24.6064 42.5168 24.691 42.5781 24.6582Z" fill="white"/>
<path fill-rule="evenodd" clip-rule="evenodd" d="M39.6035 24.875H39.1799V25.1015H39.6035V24.875Z" fill="white"/>
<path fill-rule="evenodd" clip-rule="evenodd" d="M34.9218 24.9959C35.0341 24.9358 34.7687 24.8512 34.7125 24.8813C34.6002 24.9413 34.8657 25.0259 34.9218 24.9959Z" fill="white"/>
<path fill-rule="evenodd" clip-rule="evenodd" d="M27.6875 25.1166C27.6467 24.9883 27.4731 25.0538 27.4731 25.1166C27.514 25.2449 27.6875 25.1794 27.6875 25.1166Z" fill="white"/>
<path fill-rule="evenodd" clip-rule="evenodd" d="M3.23434 25.1091C3.34663 25.0491 3.08121 24.9645 3.01996 24.9945C2.91277 25.0546 3.17309 25.1392 3.23434 25.1091Z" fill="white"/>
<path fill-rule="evenodd" clip-rule="evenodd" d="M45.3437 25.2224C45.456 25.1624 45.1906 25.0778 45.1293 25.1078C45.017 25.1679 45.2825 25.2524 45.3437 25.2224Z" fill="white"/>
<path fill-rule="evenodd" clip-rule="evenodd" d="M7.91402 25.2224C8.02632 25.1624 7.76089 25.0778 7.69964 25.1078C7.58735 25.1679 7.85277 25.2524 7.91402 25.2224Z" fill="white"/>
<path fill-rule="evenodd" clip-rule="evenodd" d="M41.9394 25.3474C42.0517 25.2874 41.7863 25.2028 41.725 25.2328C41.6127 25.2929 41.8782 25.3774 41.9394 25.3474Z" fill="white"/>
<path fill-rule="evenodd" clip-rule="evenodd" d="M24.498 25.3474C24.6103 25.2874 24.3449 25.2028 24.2836 25.2328C24.1764 25.2929 24.4368 25.3774 24.498 25.3474Z" fill="white"/>
<path fill-rule="evenodd" clip-rule="evenodd" d="M19.8222 25.4434C19.9345 25.3834 19.6691 25.2988 19.6078 25.3315C19.4956 25.3916 19.761 25.4761 19.8222 25.4434Z" fill="white"/>
<path fill-rule="evenodd" clip-rule="evenodd" d="M23.2226 25.574C23.3349 25.514 23.0695 25.4294 23.0133 25.4594C22.901 25.5194 23.1664 25.604 23.2226 25.574Z" fill="white"/>
<path fill-rule="evenodd" clip-rule="evenodd" d="M37.6875 25.8106C37.7998 25.7506 37.5343 25.666 37.4731 25.6987C37.3608 25.7587 37.6262 25.8433 37.6875 25.8106Z" fill="white"/>
<path fill-rule="evenodd" clip-rule="evenodd" d="M27.4804 25.808C27.4395 25.6797 27.266 25.7452 27.2711 25.808C27.3119 25.9363 27.4855 25.8708 27.4804 25.808Z" fill="white"/>
<path fill-rule="evenodd" clip-rule="evenodd" d="M37.2597 26.1365C37.372 26.0765 37.1066 25.9919 37.0453 26.0219C36.9382 26.0819 37.1985 26.1665 37.2597 26.1365Z" fill="white"/>
<path fill-rule="evenodd" clip-rule="evenodd" d="M23.8652 26.1365C23.9775 26.0765 23.7121 25.9919 23.6508 26.0219C23.5385 26.0819 23.8039 26.1665 23.8652 26.1365Z" fill="white"/>
<path fill-rule="evenodd" clip-rule="evenodd" d="M16.205 26.2615C16.3173 26.2015 16.0519 26.1169 15.9907 26.1469C15.8784 26.2069 16.1438 26.2915 16.205 26.2615Z" fill="white"/>
<path fill-rule="evenodd" clip-rule="evenodd" d="M34.2832 26.9373C34.3955 26.8772 34.13 26.7926 34.0688 26.8227C33.9565 26.8827 34.2219 26.9673 34.2832 26.9373Z" fill="white"/>
<path fill-rule="evenodd" clip-rule="evenodd" d="M44.0684 27.1713C44.0275 27.043 43.854 27.1085 43.854 27.1713C43.8948 27.2995 44.0684 27.234 44.0684 27.1713Z" fill="white"/>
<path fill-rule="evenodd" clip-rule="evenodd" d="M37.2597 27.4981C37.372 27.4381 37.1066 27.3535 37.0453 27.3862C36.9382 27.4462 37.1985 27.5308 37.2597 27.4981Z" fill="white"/>
<path fill-rule="evenodd" clip-rule="evenodd" d="M26.8418 27.4981C26.9541 27.4381 26.6886 27.3535 26.6274 27.3862C26.5151 27.4462 26.7805 27.5308 26.8418 27.4981Z" fill="white"/>
<path fill-rule="evenodd" clip-rule="evenodd" d="M19.3945 27.4981C19.5068 27.4381 19.2414 27.3535 19.1801 27.3862C19.0678 27.4462 19.3332 27.5308 19.3945 27.4981Z" fill="white"/>
<path fill-rule="evenodd" clip-rule="evenodd" d="M24.498 27.6131C24.6103 27.553 24.3449 27.4684 24.2836 27.4984C24.1764 27.5585 24.4368 27.6431 24.498 27.6131Z" fill="white"/>
<path fill-rule="evenodd" clip-rule="evenodd" d="M27.4804 27.8357C27.5927 27.7757 27.3273 27.6911 27.2711 27.7211C27.1588 27.7811 27.4243 27.8657 27.4804 27.8357Z" fill="white"/>
<path fill-rule="evenodd" clip-rule="evenodd" d="M43.6406 27.949C43.7529 27.889 43.4875 27.8044 43.4262 27.8344C43.319 27.8944 43.5793 27.979 43.6406 27.949Z" fill="white"/>
<path fill-rule="evenodd" clip-rule="evenodd" d="M41.3027 27.949C41.415 27.889 41.1495 27.8044 41.0934 27.8344C40.9811 27.8944 41.2465 27.979 41.3027 27.949Z" fill="white"/>
<path fill-rule="evenodd" clip-rule="evenodd" d="M38.1113 27.949C38.2236 27.889 37.9581 27.8044 37.902 27.8344C37.7897 27.8944 38.0551 27.979 38.1113 27.949Z" fill="white"/>
<path fill-rule="evenodd" clip-rule="evenodd" d="M33.8593 28.0762C33.9716 28.0162 33.7062 27.9316 33.65 27.9643C33.5377 28.0244 33.8032 28.109 33.8593 28.0762Z" fill="white"/>
<path fill-rule="evenodd" clip-rule="evenodd" d="M17.4863 28.4096C17.4455 28.2813 17.2719 28.3468 17.2719 28.4096C17.3128 28.5406 17.4863 28.4723 17.4863 28.4096Z" fill="white"/>
<path fill-rule="evenodd" clip-rule="evenodd" d="M27.9025 28.6445C27.3717 28.6909 27.8923 29.0866 28.3262 28.9856C28.2496 28.8356 27.9536 28.8055 27.9025 28.6445Z" fill="white"/>
<path fill-rule="evenodd" clip-rule="evenodd" d="M33.2207 28.877C33.333 28.817 33.0675 28.7324 33.0063 28.7651C32.894 28.8251 33.1594 28.9097 33.2207 28.877Z" fill="white"/>
<path fill-rule="evenodd" clip-rule="evenodd" d="M13.4434 28.8744C13.4025 28.7462 13.229 28.8116 13.229 28.8744C13.2698 29.0027 13.4434 28.9372 13.4434 28.8744Z" fill="white"/>
<path fill-rule="evenodd" clip-rule="evenodd" d="M24.9277 28.992C25.04 28.9319 24.7746 28.8473 24.7133 28.8773C24.601 28.9374 24.8664 29.022 24.9277 28.992Z" fill="white"/>
<path fill-rule="evenodd" clip-rule="evenodd" d="M26.2051 29.4369C26.1642 29.3087 25.9907 29.3741 25.9907 29.4369C26.0315 29.5652 26.2051 29.4997 26.2051 29.4369Z" fill="white"/>
<path fill-rule="evenodd" clip-rule="evenodd" d="M40.4492 29.5545C40.5615 29.4944 40.2961 29.4098 40.2348 29.4398C40.1276 29.4999 40.3879 29.5845 40.4492 29.5545Z" fill="white"/>
<path fill-rule="evenodd" clip-rule="evenodd" d="M12.3808 29.6638C12.4931 29.6038 12.2277 29.5192 12.1664 29.5492C12.0541 29.6093 12.3196 29.6939 12.3808 29.6638Z" fill="white"/>
<path fill-rule="evenodd" clip-rule="evenodd" d="M31.7304 29.7754C31.8427 29.7154 31.5773 29.6308 31.5211 29.6635C31.4088 29.7236 31.6743 29.8082 31.7304 29.7754Z" fill="white"/>
<path fill-rule="evenodd" clip-rule="evenodd" d="M17.6953 29.7754C17.8076 29.7154 17.5421 29.6308 17.4809 29.6635C17.3686 29.7236 17.634 29.8082 17.6953 29.7754Z" fill="white"/>
<path fill-rule="evenodd" clip-rule="evenodd" d="M5.57223 29.7754C5.68452 29.7154 5.4191 29.6308 5.35785 29.6635C5.24555 29.7236 5.51098 29.8082 5.57223 29.7754Z" fill="white"/>
<path fill-rule="evenodd" clip-rule="evenodd" d="M16.4179 29.8904C16.5302 29.8304 16.2648 29.7458 16.2036 29.7758C16.0913 29.8358 16.3567 29.9204 16.4179 29.8904Z" fill="white"/>
<path fill-rule="evenodd" clip-rule="evenodd" d="M38.9629 30.002C39.0751 29.942 38.8097 29.8574 38.7485 29.8901C38.6362 29.9501 38.9016 30.0347 38.9629 30.002Z" fill="white"/>
<path fill-rule="evenodd" clip-rule="evenodd" d="M44.2832 30.117C44.3955 30.0569 44.13 29.9723 44.0688 30.0023C43.9565 30.0624 44.2219 30.147 44.2832 30.117Z" fill="white"/>
<path fill-rule="evenodd" clip-rule="evenodd" d="M17.2714 30.117C17.3837 30.0569 17.1183 29.9723 17.0571 30.0023C16.9448 30.0624 17.2102 30.147 17.2714 30.117Z" fill="white"/>
<path fill-rule="evenodd" clip-rule="evenodd" d="M8.12305 30.1199C8.072 29.978 7.69939 30.0053 7.69939 30.1199C7.88825 30.1909 8.07711 30.2563 8.12305 30.1199Z" fill="white"/>
<path fill-rule="evenodd" clip-rule="evenodd" d="M40.0254 30.4529C40.1376 30.3929 39.8722 30.3083 39.811 30.3383C39.6987 30.3983 39.9641 30.4829 40.0254 30.4529Z" fill="white"/>
<path fill-rule="evenodd" clip-rule="evenodd" d="M30.455 30.4529C30.5673 30.3929 30.3019 30.3083 30.2407 30.3383C30.1284 30.3983 30.3938 30.4829 30.455 30.4529Z" fill="white"/>
<path fill-rule="evenodd" clip-rule="evenodd" d="M43.2161 30.6883C43.1039 30.5136 42.9916 30.6828 43.0018 30.8029C43.1141 30.9775 43.2264 30.8084 43.2161 30.6883Z" fill="white"/>
<path fill-rule="evenodd" clip-rule="evenodd" d="M33.4355 30.9161C33.5478 30.856 33.2824 30.7714 33.2211 30.8042C33.1088 30.8642 33.3743 30.9488 33.4355 30.9161Z" fill="white"/>
<path fill-rule="evenodd" clip-rule="evenodd" d="M40.664 31.031C40.7763 30.971 40.5109 30.8864 40.4496 30.9164C40.3374 30.9764 40.6028 31.061 40.664 31.031Z" fill="white"/>
<path fill-rule="evenodd" clip-rule="evenodd" d="M18.5468 31.031C18.6591 30.971 18.3937 30.8864 18.3325 30.9164C18.2202 30.9764 18.4856 31.061 18.5468 31.031Z" fill="white"/>
<path fill-rule="evenodd" clip-rule="evenodd" d="M17.6953 31.031C17.8076 30.971 17.5421 30.8864 17.4809 30.9164C17.3686 30.9764 17.634 31.061 17.6953 31.031Z" fill="white"/>
<path fill-rule="evenodd" clip-rule="evenodd" d="M39.8164 31.2537C39.9287 31.1936 39.6632 31.109 39.602 31.1391C39.4897 31.1991 39.7551 31.2837 39.8164 31.2537Z" fill="white"/>
<path fill-rule="evenodd" clip-rule="evenodd" d="M20.0331 31.4903C20.1454 31.4302 19.88 31.3456 19.8239 31.3784C19.7116 31.4384 19.977 31.523 20.0331 31.4903Z" fill="white"/>
<path fill-rule="evenodd" clip-rule="evenodd" d="M38.5351 31.7168C38.6474 31.6568 38.382 31.5722 38.3207 31.605C38.2084 31.665 38.4739 31.7496 38.5351 31.7168Z" fill="white"/>
<path fill-rule="evenodd" clip-rule="evenodd" d="M8.33783 31.7168C8.45012 31.6568 8.1847 31.5722 8.12855 31.605C8.01626 31.665 8.28168 31.7496 8.33783 31.7168Z" fill="white"/>
<path fill-rule="evenodd" clip-rule="evenodd" d="M34.498 31.9451C34.6103 31.8851 34.3449 31.8005 34.2836 31.8305C34.1713 31.8905 34.4368 31.9751 34.498 31.9451Z" fill="white"/>
<path fill-rule="evenodd" clip-rule="evenodd" d="M42.5781 32.1677C42.6904 32.1077 42.425 32.0231 42.3637 32.0531C42.2565 32.1132 42.5168 32.1978 42.5781 32.1677Z" fill="white"/>
<path fill-rule="evenodd" clip-rule="evenodd" d="M22.162 32.2793C22.2743 32.2193 22.0089 32.1347 21.9528 32.1675C21.8405 32.2275 22.1059 32.3121 22.162 32.2793Z" fill="white"/>
<path fill-rule="evenodd" clip-rule="evenodd" d="M10.4609 32.2793C10.5732 32.2193 10.3077 32.1347 10.2516 32.1675C10.1393 32.2275 10.4047 32.3121 10.4609 32.2793Z" fill="white"/>
<path fill-rule="evenodd" clip-rule="evenodd" d="M34.9218 32.39C34.8809 32.2618 34.7074 32.3273 34.7125 32.39C34.7533 32.521 34.9269 32.4528 34.9218 32.39Z" fill="white"/>
<path fill-rule="evenodd" clip-rule="evenodd" d="M37.2597 32.5076C37.372 32.4475 37.1066 32.363 37.0453 32.393C36.9382 32.453 37.1985 32.5376 37.2597 32.5076Z" fill="white"/>
<path fill-rule="evenodd" clip-rule="evenodd" d="M34.498 32.5076C34.6103 32.4475 34.3449 32.363 34.2836 32.393C34.1713 32.453 34.4368 32.5376 34.498 32.5076Z" fill="white"/>
<path fill-rule="evenodd" clip-rule="evenodd" d="M25.7754 32.5076C25.8876 32.4475 25.6222 32.363 25.561 32.393C25.4487 32.453 25.7141 32.5376 25.7754 32.5076Z" fill="white"/>
<path fill-rule="evenodd" clip-rule="evenodd" d="M42.1543 32.5117H41.5163C41.455 32.6946 41.7153 32.7082 41.7306 32.8528H42.1543V32.5117Z" fill="white"/>
<path fill-rule="evenodd" clip-rule="evenodd" d="M8.97652 32.6153C9.08882 32.5552 8.8234 32.4706 8.76214 32.5034C8.64985 32.5634 8.91527 32.648 8.97652 32.6153Z" fill="white"/>
<path fill-rule="evenodd" clip-rule="evenodd" d="M45.3437 32.7302C45.456 32.6702 45.1906 32.5856 45.1293 32.6156C45.017 32.6757 45.2825 32.7603 45.3437 32.7302Z" fill="white"/>
<path fill-rule="evenodd" clip-rule="evenodd" d="M33.0078 32.7302C33.1201 32.6702 32.8546 32.5856 32.7934 32.6156C32.6862 32.6757 32.9465 32.7603 33.0078 32.7302Z" fill="white"/>
<path fill-rule="evenodd" clip-rule="evenodd" d="M40.0254 32.8418C40.1376 32.7818 39.8722 32.6972 39.811 32.73C39.6987 32.79 39.9641 32.8746 40.0254 32.8418Z" fill="white"/>
<path fill-rule="evenodd" clip-rule="evenodd" d="M7.06246 32.8418C7.17476 32.7818 6.90933 32.6972 6.84808 32.73C6.73579 32.79 7.00121 32.8746 7.06246 32.8418Z" fill="white"/>
<path fill-rule="evenodd" clip-rule="evenodd" d="M43.2168 33.0701C43.3291 33.0101 43.0636 32.9255 43.0024 32.9555C42.8901 33.0155 43.1555 33.1001 43.2168 33.0701Z" fill="white"/>
<path fill-rule="evenodd" clip-rule="evenodd" d="M10.4609 33.0701C10.5732 33.0101 10.3077 32.9255 10.2516 32.9555C10.1393 33.0155 10.4047 33.1001 10.4609 33.0701Z" fill="white"/>
<path fill-rule="evenodd" clip-rule="evenodd" d="M28.332 33.3084C28.4443 33.2483 28.1789 33.1637 28.1176 33.1938C28.0053 33.2538 28.2707 33.3384 28.332 33.3084Z" fill="white"/>
<path fill-rule="evenodd" clip-rule="evenodd" d="M3.44332 33.3084C3.55562 33.2483 3.29019 33.1637 3.22894 33.1938C3.11665 33.2538 3.38207 33.3384 3.44332 33.3084Z" fill="white"/>
<path fill-rule="evenodd" clip-rule="evenodd" d="M25.1425 33.4043C25.2548 33.3443 24.9894 33.2597 24.9282 33.2925C24.8159 33.3525 25.0813 33.4371 25.1425 33.4043Z" fill="white"/>
<path fill-rule="evenodd" clip-rule="evenodd" d="M14.7201 33.3125C14.0055 33.348 13.8728 33.6918 13.6584 33.9947C13.8473 34.0438 14.0412 34.0957 14.0821 34.2212C14.276 33.9183 15.2867 33.67 14.7201 33.3125Z" fill="white"/>
<path fill-rule="evenodd" clip-rule="evenodd" d="M38.5351 33.6443C38.6474 33.5843 38.382 33.4997 38.3207 33.5297C38.2084 33.5897 38.4739 33.6743 38.5351 33.6443Z" fill="white"/>
<path fill-rule="evenodd" clip-rule="evenodd" d="M12.3808 33.6443C12.4931 33.5843 12.2277 33.4997 12.1664 33.5297C12.0541 33.5897 12.3196 33.6743 12.3808 33.6443Z" fill="white"/>
<path fill-rule="evenodd" clip-rule="evenodd" d="M30.2461 33.7576C30.3583 33.6976 30.0929 33.613 30.0317 33.643C29.9194 33.703 30.1848 33.7876 30.2461 33.7576Z" fill="white"/>
<path fill-rule="evenodd" clip-rule="evenodd" d="M27.6894 33.7576C27.8017 33.6976 27.5363 33.613 27.475 33.643C27.3678 33.703 27.6282 33.7876 27.6894 33.7576Z" fill="white"/>
<path fill-rule="evenodd" clip-rule="evenodd" d="M29.8183 33.8709C29.9306 33.8108 29.6652 33.7262 29.6039 33.7563C29.4968 33.8163 29.7571 33.9009 29.8183 33.8709Z" fill="white"/>
<path fill-rule="evenodd" clip-rule="evenodd" d="M43.2168 33.9942C43.3291 33.9341 43.0636 33.8496 43.0024 33.8823C42.8901 33.9423 43.1555 34.0269 43.2168 33.9942Z" fill="white"/>
<path fill-rule="evenodd" clip-rule="evenodd" d="M15.1426 34.1016H14.7189V34.3281H15.1426V34.1016Z" fill="white"/>
<path fill-rule="evenodd" clip-rule="evenodd" d="M41.0918 34.334C41.2041 34.274 40.9386 34.1894 40.8774 34.2221C40.7651 34.2822 41.0305 34.3668 41.0918 34.334Z" fill="white"/>
<path fill-rule="evenodd" clip-rule="evenodd" d="M46.621 34.4451C46.7333 34.3851 46.4679 34.3005 46.4118 34.3305C46.2995 34.3905 46.5649 34.4751 46.621 34.4451Z" fill="white"/>
<path fill-rule="evenodd" clip-rule="evenodd" d="M25.9882 34.4451C26.1005 34.3851 25.8351 34.3005 25.7739 34.3305C25.6616 34.3905 25.927 34.4751 25.9882 34.4451Z" fill="white"/>
<path fill-rule="evenodd" clip-rule="evenodd" d="M39.1738 34.5567C39.2861 34.4966 39.0206 34.4121 38.9645 34.4448C38.8522 34.5048 39.1176 34.5894 39.1738 34.5567Z" fill="white"/>
<path fill-rule="evenodd" clip-rule="evenodd" d="M27.0566 34.7849C27.1689 34.7249 26.9035 34.6403 26.8422 34.6703C26.7299 34.7304 26.9954 34.8149 27.0566 34.7849Z" fill="white"/>
<path fill-rule="evenodd" clip-rule="evenodd" d="M25.7754 34.8965C25.8876 34.8365 25.6222 34.7519 25.561 34.7846C25.4487 34.8447 25.7141 34.9293 25.7754 34.8965Z" fill="white"/>
<path fill-rule="evenodd" clip-rule="evenodd" d="M21.7383 34.9036C21.6464 34.7372 21.5494 34.9146 21.3146 34.9036C21.3657 35.0455 21.7383 35.0183 21.7383 34.9036Z" fill="white"/>
<path fill-rule="evenodd" clip-rule="evenodd" d="M29.1796 35.0076C29.2919 34.9476 29.0265 34.863 28.9653 34.893C28.853 34.953 29.1184 35.0376 29.1796 35.0076Z" fill="white"/>
<path fill-rule="evenodd" clip-rule="evenodd" d="M26.6269 35.0076C26.7392 34.9476 26.4738 34.863 26.4125 34.893C26.3053 34.953 26.5657 35.0376 26.6269 35.0076Z" fill="white"/>
<path fill-rule="evenodd" clip-rule="evenodd" d="M14.7188 35.1119C14.7188 35 14.4584 35.0246 14.2951 35C14.2951 35.1092 14.5554 35.0873 14.7188 35.1119Z" fill="white"/>
<path fill-rule="evenodd" clip-rule="evenodd" d="M27.9023 35.2341C28.0146 35.1741 27.7492 35.0895 27.6879 35.1195C27.5756 35.1796 27.8411 35.2642 27.9023 35.2341Z" fill="white"/>
<path fill-rule="evenodd" clip-rule="evenodd" d="M26.2031 35.3474C26.3154 35.2874 26.05 35.2028 25.9887 35.2328C25.8764 35.2929 26.1418 35.3774 26.2031 35.3474Z" fill="white"/>
<path fill-rule="evenodd" clip-rule="evenodd" d="M28.9648 35.4607C29.0771 35.4007 28.8117 35.3161 28.7504 35.3461C28.6381 35.4061 28.9036 35.4907 28.9648 35.4607Z" fill="white"/>
<path fill-rule="evenodd" clip-rule="evenodd" d="M45.5546 35.5701C45.6669 35.51 45.4015 35.4255 45.3453 35.4555C45.2331 35.5155 45.4985 35.6001 45.5546 35.5701Z" fill="white"/>
<path fill-rule="evenodd" clip-rule="evenodd" d="M4.29488 35.6817C4.40718 35.6216 4.14176 35.5371 4.0805 35.5698C3.97331 35.6298 4.23363 35.7144 4.29488 35.6817Z" fill="white"/>
<path fill-rule="evenodd" clip-rule="evenodd" d="M15.5723 35.8041C15.5314 35.6758 15.3579 35.7413 15.3579 35.8041C15.3987 35.9351 15.5723 35.8669 15.5723 35.8041Z" fill="white"/>
<path fill-rule="evenodd" clip-rule="evenodd" d="M10.6757 35.7966C10.788 35.7366 10.5226 35.652 10.4614 35.682C10.3542 35.7421 10.6145 35.8267 10.6757 35.7966Z" fill="white"/>
<path fill-rule="evenodd" clip-rule="evenodd" d="M8.54879 36.1326C8.66108 36.0726 8.39566 35.988 8.33441 36.018C8.22722 36.078 8.48754 36.1626 8.54879 36.1326Z" fill="white"/>
<path fill-rule="evenodd" clip-rule="evenodd" d="M39.1738 36.4841C39.2861 36.4241 39.0206 36.3395 38.9645 36.3695C38.8522 36.4296 39.1176 36.5142 39.1738 36.4841Z" fill="white"/>
<path fill-rule="evenodd" clip-rule="evenodd" d="M44.4921 36.6114C44.6044 36.5513 44.339 36.4667 44.2828 36.4995C44.1706 36.5595 44.436 36.6441 44.4921 36.6114Z" fill="white"/>
<path fill-rule="evenodd" clip-rule="evenodd" d="M40.8789 36.6114C40.9912 36.5513 40.7257 36.4667 40.6645 36.4995C40.5522 36.5595 40.8176 36.6441 40.8789 36.6114Z" fill="white"/>
<path fill-rule="evenodd" clip-rule="evenodd" d="M39.8164 36.7263C39.9287 36.6663 39.6632 36.5817 39.602 36.6117C39.4897 36.6718 39.7551 36.7564 39.8164 36.7263Z" fill="white"/>
<path fill-rule="evenodd" clip-rule="evenodd" d="M43.0078 36.9427C43.0027 36.8336 42.7475 36.8554 42.5842 36.8281C42.5893 36.94 42.8445 36.9154 43.0078 36.9427Z" fill="white"/>
<path fill-rule="evenodd" clip-rule="evenodd" d="M24.289 36.949C24.4013 36.889 24.1359 36.8044 24.0797 36.8344C23.9674 36.8944 24.2329 36.979 24.289 36.949Z" fill="white"/>
<path fill-rule="evenodd" clip-rule="evenodd" d="M40.2402 37.0623C40.3525 37.0022 40.087 36.9176 40.0309 36.9477C39.9186 37.0077 40.184 37.0923 40.2402 37.0623Z" fill="white"/>
<path fill-rule="evenodd" clip-rule="evenodd" d="M39.1746 37.0543C39.2103 36.8087 38.4192 37.0024 38.1129 36.9397C37.7454 37.1362 38.4243 37.3872 37.4749 37.3954C37.8271 37.6219 37.4545 37.54 37.4749 37.8511C37.6484 37.772 38.0568 37.6737 38.1129 37.8511C38.8837 37.802 38.164 37.0352 39.1746 37.3954C39.0266 37.3026 38.8428 37.0843 39.1746 37.0543Z" fill="white"/>
<path fill-rule="evenodd" clip-rule="evenodd" d="M22.7988 37.3965C22.9111 37.3365 22.6457 37.2519 22.5844 37.2846C22.4721 37.3447 22.7375 37.4293 22.7988 37.3965Z" fill="white"/>
<path fill-rule="evenodd" clip-rule="evenodd" d="M23.8652 37.5115C23.9775 37.4515 23.7121 37.3669 23.6508 37.3969C23.5385 37.4569 23.8039 37.5415 23.8652 37.5115Z" fill="white"/>
<path fill-rule="evenodd" clip-rule="evenodd" d="M44.2832 37.7455C44.2424 37.6172 44.0688 37.6827 44.0688 37.7455C44.1097 37.8738 44.2832 37.8083 44.2832 37.7455Z" fill="white"/>
<path fill-rule="evenodd" clip-rule="evenodd" d="M9.40033 37.8513C9.51262 37.7913 9.2472 37.7067 9.19105 37.7367C9.07876 37.7968 9.34418 37.8814 9.40033 37.8513Z" fill="white"/>
<path fill-rule="evenodd" clip-rule="evenodd" d="M8.76168 37.959C8.87397 37.899 8.60855 37.8144 8.5473 37.8471C8.43501 37.9072 8.70043 37.9918 8.76168 37.959Z" fill="white"/>
<path fill-rule="evenodd" clip-rule="evenodd" d="M29.1796 38.074C29.2919 38.014 29.0265 37.9294 28.9653 37.9594C28.853 38.0194 29.1184 38.104 29.1796 38.074Z" fill="white"/>
<path fill-rule="evenodd" clip-rule="evenodd" d="M17.9101 38.074C18.0224 38.014 17.757 37.9294 17.7008 37.9594C17.5885 38.0194 17.8539 38.104 17.9101 38.074Z" fill="white"/>
<path fill-rule="evenodd" clip-rule="evenodd" d="M44.4921 38.1873C44.6044 38.1272 44.339 38.0426 44.2828 38.0727C44.1706 38.1327 44.436 38.2173 44.4921 38.1873Z" fill="white"/>
<path fill-rule="evenodd" clip-rule="evenodd" d="M20.0331 38.4138C20.1454 38.3538 19.88 38.2692 19.8239 38.2992C19.7116 38.3593 19.977 38.4439 20.0331 38.4138Z" fill="white"/>
<path fill-rule="evenodd" clip-rule="evenodd" d="M36.8359 38.5215C36.9482 38.4615 36.6828 38.3769 36.6215 38.4096C36.5092 38.4697 36.7746 38.5543 36.8359 38.5215Z" fill="white"/>
<path fill-rule="evenodd" clip-rule="evenodd" d="M35.1367 38.5215C35.249 38.4615 34.9836 38.3769 34.9223 38.4096C34.8151 38.4697 35.0754 38.5543 35.1367 38.5215Z" fill="white"/>
<path fill-rule="evenodd" clip-rule="evenodd" d="M26.2051 38.5299C26.2 38.418 25.9448 38.4425 25.7814 38.418C25.7865 38.5271 26.0417 38.5053 26.2051 38.5299Z" fill="white"/>
<path fill-rule="evenodd" clip-rule="evenodd" d="M18.7606 38.8765C18.8167 39.1439 19.6947 38.942 19.8223 38.8765C19.6691 38.4835 19.1791 38.8001 18.7606 38.8765Z" fill="white"/>
<path fill-rule="evenodd" clip-rule="evenodd" d="M37.4726 38.8748C37.5849 38.8147 37.3195 38.7301 37.2582 38.7602C37.1459 38.8202 37.4114 38.9048 37.4726 38.8748Z" fill="white"/>
<path fill-rule="evenodd" clip-rule="evenodd" d="M30.455 38.8748C30.5673 38.8147 30.3019 38.7301 30.2407 38.7602C30.1284 38.8202 30.3938 38.9048 30.455 38.8748Z" fill="white"/>
<path fill-rule="evenodd" clip-rule="evenodd" d="M20.2461 38.8748C20.3583 38.8147 20.0929 38.7301 20.0317 38.7602C19.9245 38.8202 20.1848 38.9048 20.2461 38.8748Z" fill="white"/>
<path fill-rule="evenodd" clip-rule="evenodd" d="M18.332 38.8748C18.4443 38.8147 18.1789 38.7301 18.1176 38.7602C18.0053 38.8202 18.2707 38.9048 18.332 38.8748Z" fill="white"/>
<path fill-rule="evenodd" clip-rule="evenodd" d="M12.166 38.8748C12.2783 38.8147 12.0128 38.7301 11.9516 38.7602C11.8393 38.8202 12.1047 38.9048 12.166 38.8748Z" fill="white"/>
<path fill-rule="evenodd" clip-rule="evenodd" d="M17.2714 38.988C17.3837 38.928 17.1183 38.8434 17.0571 38.8734C16.9448 38.9335 17.2102 39.0181 17.2714 38.988Z" fill="white"/>
<path fill-rule="evenodd" clip-rule="evenodd" d="M45.5547 38.9961H45.131V39.2226H45.5547V38.9961Z" fill="white"/>
<path fill-rule="evenodd" clip-rule="evenodd" d="M37.6875 39.1153C37.7998 39.0552 37.5343 38.9706 37.4731 39.0034C37.3608 39.0634 37.6262 39.148 37.6875 39.1153Z" fill="white"/>
<path fill-rule="evenodd" clip-rule="evenodd" d="M10.2519 39.1153C10.3642 39.0552 10.0988 38.9706 10.0375 39.0034C9.92524 39.0634 10.1907 39.148 10.2519 39.1153Z" fill="white"/>
<path fill-rule="evenodd" clip-rule="evenodd" d="M33.6445 39.2103C33.6037 39.0821 33.4302 39.1476 33.4302 39.2103C33.471 39.3413 33.6445 39.2731 33.6445 39.2103Z" fill="white"/>
<path fill-rule="evenodd" clip-rule="evenodd" d="M39.1738 39.3396C39.2861 39.2796 39.0206 39.195 38.9645 39.225C38.8522 39.285 39.1176 39.3696 39.1738 39.3396Z" fill="white"/>
<path fill-rule="evenodd" clip-rule="evenodd" d="M45.554 39.45C45.4417 39.2754 45.3345 39.4445 45.3447 39.5646C45.457 39.7393 45.5642 39.5701 45.554 39.45Z" fill="white"/>
<path fill-rule="evenodd" clip-rule="evenodd" d="M37.6875 39.4356C37.7998 39.3756 37.5343 39.291 37.4731 39.3237C37.3608 39.3837 37.6262 39.4683 37.6875 39.4356Z" fill="white"/>
<path fill-rule="evenodd" clip-rule="evenodd" d="M4.08192 39.4486C4.04109 39.3204 3.86754 39.3859 3.87264 39.4486C3.91348 39.5769 4.08703 39.5114 4.08192 39.4486Z" fill="white"/>
<path fill-rule="evenodd" clip-rule="evenodd" d="M38.5351 39.7888C38.6474 39.7288 38.382 39.6442 38.3207 39.6742C38.2084 39.7343 38.4739 39.8189 38.5351 39.7888Z" fill="white"/>
<path fill-rule="evenodd" clip-rule="evenodd" d="M6.84762 39.9021C6.95991 39.8421 6.69449 39.7575 6.63324 39.7875C6.52094 39.8475 6.78637 39.9321 6.84762 39.9021Z" fill="white"/>
<path fill-rule="evenodd" clip-rule="evenodd" d="M44.4921 40.2403C44.6044 40.1802 44.339 40.0956 44.2828 40.1284C44.1706 40.1884 44.436 40.273 44.4921 40.2403Z" fill="white"/>
<path fill-rule="evenodd" clip-rule="evenodd" d="M39.6015 40.2403C39.7138 40.1802 39.4484 40.0956 39.3871 40.1284C39.2748 40.1884 39.5403 40.273 39.6015 40.2403Z" fill="white"/>
<path fill-rule="evenodd" clip-rule="evenodd" d="M31.7304 40.2403C31.8427 40.1802 31.5773 40.0956 31.5211 40.1284C31.4088 40.1884 31.6743 40.273 31.7304 40.2403Z" fill="white"/>
<path fill-rule="evenodd" clip-rule="evenodd" d="M16.6328 40.2403C16.7451 40.1802 16.4796 40.0956 16.4184 40.1284C16.3061 40.1884 16.5715 40.273 16.6328 40.2403Z" fill="white"/>
<path fill-rule="evenodd" clip-rule="evenodd" d="M43.2168 40.4646C43.3291 40.4046 43.0636 40.32 43.0024 40.35C42.8901 40.41 43.1555 40.4946 43.2168 40.4646Z" fill="white"/>
<path fill-rule="evenodd" clip-rule="evenodd" d="M40.4492 40.4646C40.5615 40.4046 40.2961 40.32 40.2348 40.35C40.1276 40.41 40.3879 40.4946 40.4492 40.4646Z" fill="white"/>
<path fill-rule="evenodd" clip-rule="evenodd" d="M4.51172 40.4584C4.50661 40.3465 4.2514 40.3683 4.08807 40.3438C4.09317 40.4556 4.34838 40.4338 4.51172 40.4584Z" fill="white"/>
<path fill-rule="evenodd" clip-rule="evenodd" d="M28.9648 40.5779C29.0771 40.5179 28.8117 40.4333 28.7504 40.4633C28.6381 40.5233 28.9036 40.6079 28.9648 40.5779Z" fill="white"/>
<path fill-rule="evenodd" clip-rule="evenodd" d="M29.3925 40.6912C29.5048 40.6311 29.2394 40.5465 29.1782 40.5766C29.0659 40.6366 29.3313 40.7212 29.3925 40.6912Z" fill="white"/>
<path fill-rule="evenodd" clip-rule="evenodd" d="M25.5664 40.6912C25.6787 40.6311 25.4132 40.5465 25.352 40.5766C25.2448 40.6366 25.5051 40.7212 25.5664 40.6912Z" fill="white"/>
<path fill-rule="evenodd" clip-rule="evenodd" d="M24.9277 40.8028C25.04 40.7427 24.7746 40.6581 24.7133 40.6909C24.601 40.7509 24.8664 40.8355 24.9277 40.8028Z" fill="white"/>
<path fill-rule="evenodd" clip-rule="evenodd" d="M42.7929 40.9138C42.9052 40.8538 42.6398 40.7692 42.5785 40.7992C42.4663 40.8593 42.7317 40.9439 42.7929 40.9138Z" fill="white"/>
<path fill-rule="evenodd" clip-rule="evenodd" d="M43.2168 41.0271C43.3291 40.9671 43.0636 40.8825 43.0024 40.9125C42.8901 40.9725 43.1555 41.0571 43.2168 41.0271Z" fill="white"/>
<path fill-rule="evenodd" clip-rule="evenodd" d="M28.7558 41.377C28.8681 41.317 28.6027 41.2324 28.5414 41.2651C28.4343 41.3251 28.6946 41.4097 28.7558 41.377Z" fill="white"/>
<path fill-rule="evenodd" clip-rule="evenodd" d="M13.4433 41.4763C13.5556 41.4163 13.2902 41.3317 13.2289 41.3617C13.1166 41.4218 13.3821 41.5064 13.4433 41.4763Z" fill="white"/>
<path fill-rule="evenodd" clip-rule="evenodd" d="M32.7929 41.6052C32.9052 41.5452 32.6398 41.4606 32.5836 41.4906C32.4713 41.5507 32.7368 41.6353 32.7929 41.6052Z" fill="white"/>
<path fill-rule="evenodd" clip-rule="evenodd" d="M33.4355 42.0545C33.5478 41.9944 33.2824 41.9098 33.2211 41.9398C33.1088 41.9999 33.3743 42.0845 33.4355 42.0545Z" fill="white"/>
<path fill-rule="evenodd" clip-rule="evenodd" d="M33.8593 42.1795C33.9716 42.1194 33.7062 42.0348 33.65 42.0648C33.5377 42.1249 33.8032 42.2095 33.8593 42.1795Z" fill="white"/>
<path fill-rule="evenodd" clip-rule="evenodd" d="M30.8789 42.1795C30.9912 42.1194 30.7257 42.0348 30.6645 42.0648C30.5573 42.1249 30.8176 42.2095 30.8789 42.1795Z" fill="white"/>
<path fill-rule="evenodd" clip-rule="evenodd" d="M45.3457 42.1745C44.8812 42.1527 44.6668 42.2673 44.7077 42.5156H45.3457V42.1745Z" fill="white"/>
<path fill-rule="evenodd" clip-rule="evenodd" d="M21.7363 42.2927C21.8486 42.2327 21.5832 42.1481 21.5219 42.1781C21.4096 42.2382 21.675 42.3228 21.7363 42.2927Z" fill="white"/>
<path fill-rule="evenodd" clip-rule="evenodd" d="M4.50973 42.2927C4.62202 42.2327 4.3566 42.1481 4.29535 42.1781C4.18305 42.2382 4.44848 42.3228 4.50973 42.2927Z" fill="white"/>
<path fill-rule="evenodd" clip-rule="evenodd" d="M36.1973 42.3998C36.1973 42.2879 35.9369 42.3097 35.7736 42.2852C35.7736 42.397 36.0339 42.3752 36.1973 42.3998Z" fill="white"/>
<path fill-rule="evenodd" clip-rule="evenodd" d="M17.6953 42.406C17.8076 42.346 17.5421 42.2614 17.4809 42.2914C17.3686 42.3514 17.634 42.436 17.6953 42.406Z" fill="white"/>
<path fill-rule="evenodd" clip-rule="evenodd" d="M16.8417 42.406C16.954 42.346 16.6886 42.2614 16.6325 42.2914C16.5202 42.3514 16.7856 42.436 16.8417 42.406Z" fill="white"/>
<path fill-rule="evenodd" clip-rule="evenodd" d="M12.166 42.406C12.2783 42.346 12.0128 42.2614 11.9516 42.2914C11.8393 42.3514 12.1047 42.436 12.166 42.406Z" fill="white"/>
<path fill-rule="evenodd" clip-rule="evenodd" d="M44.4921 42.5176C44.6044 42.4576 44.339 42.373 44.2828 42.4057C44.1706 42.4658 44.436 42.5504 44.4921 42.5176Z" fill="white"/>
<path fill-rule="evenodd" clip-rule="evenodd" d="M4.29488 42.6326C4.40718 42.5726 4.14176 42.488 4.0805 42.518C3.97331 42.578 4.23363 42.6626 4.29488 42.6326Z" fill="white"/>
<path fill-rule="evenodd" clip-rule="evenodd" d="M35.1367 42.742C35.249 42.6819 34.9836 42.5973 34.9223 42.6273C34.8151 42.6874 35.0754 42.772 35.1367 42.742Z" fill="white"/>
<path fill-rule="evenodd" clip-rule="evenodd" d="M34.9218 42.9685C35.0341 42.9085 34.7687 42.8239 34.7125 42.8539C34.6002 42.9139 34.8657 42.9985 34.9218 42.9685Z" fill="white"/>
<path fill-rule="evenodd" clip-rule="evenodd" d="M11.5292 42.9685C11.6415 42.9085 11.3761 42.8239 11.32 42.8539C11.2077 42.9139 11.4731 42.9985 11.5292 42.9685Z" fill="white"/>
<path fill-rule="evenodd" clip-rule="evenodd" d="M5.35742 42.8553C4.99502 42.8143 4.95418 42.9453 4.93376 43.0818C5.11242 43.0599 5.13283 43.1254 5.14304 43.1964C5.39315 43.1773 5.32169 42.989 5.35742 42.8553Z" fill="white"/>
<path fill-rule="evenodd" clip-rule="evenodd" d="M14.08 43.0801C14.1923 43.0201 13.9269 42.9355 13.8657 42.9682C13.7534 43.0283 14.0188 43.1129 14.08 43.0801Z" fill="white"/>
<path fill-rule="evenodd" clip-rule="evenodd" d="M42.3633 43.1836H41.9396V43.4101H42.3633V43.1836Z" fill="white"/>
<path fill-rule="evenodd" clip-rule="evenodd" d="M30.4551 43.7736C30.4296 43.3725 29.7507 44.0165 29.817 43.659C29.2454 43.9401 30.1846 44.0684 30.4551 43.7736Z" fill="white"/>
<path fill-rule="evenodd" clip-rule="evenodd" d="M24.2909 43.765C24.2501 43.6368 24.0765 43.7023 24.0816 43.765C24.1225 43.896 24.296 43.8278 24.2909 43.765Z" fill="white"/>
<path fill-rule="evenodd" clip-rule="evenodd" d="M14.5039 43.8826C14.6162 43.8226 14.3507 43.738 14.2895 43.768C14.1772 43.828 14.4426 43.9126 14.5039 43.8826Z" fill="white"/>
<path fill-rule="evenodd" clip-rule="evenodd" d="M23.8652 43.9802C23.9775 43.9202 23.7121 43.8356 23.6508 43.8656C23.5385 43.9257 23.8039 44.0103 23.8652 43.9802Z" fill="white"/>
<path fill-rule="evenodd" clip-rule="evenodd" d="M46.1973 44.1021C46.1564 43.9711 45.9829 44.0394 45.9829 44.1021C46.0237 44.2304 46.1973 44.1649 46.1973 44.1021Z" fill="white"/>
<path fill-rule="evenodd" clip-rule="evenodd" d="M42.3652 44.1091C42.4775 44.0491 42.212 43.9645 42.1559 43.9945C42.0436 44.0546 42.309 44.1392 42.3652 44.1091Z" fill="white"/>
<path fill-rule="evenodd" clip-rule="evenodd" d="M16.6328 44.1091C16.7451 44.0491 16.4796 43.9645 16.4184 43.9945C16.3061 44.0546 16.5715 44.1392 16.6328 44.1091Z" fill="white"/>
<path fill-rule="evenodd" clip-rule="evenodd" d="M21.5234 44.2168C21.6357 44.1568 21.3703 44.0722 21.309 44.105C21.1967 44.165 21.4621 44.2496 21.5234 44.2168Z" fill="white"/>
<path fill-rule="evenodd" clip-rule="evenodd" d="M15.7812 44.2168C15.8935 44.1568 15.6281 44.0722 15.5719 44.105C15.4596 44.165 15.725 44.2496 15.7812 44.2168Z" fill="white"/>
<path fill-rule="evenodd" clip-rule="evenodd" d="M34.9218 44.3318C35.0341 44.2718 34.7687 44.1872 34.7125 44.2172C34.6002 44.2772 34.8657 44.3618 34.9218 44.3318Z" fill="white"/>
<path fill-rule="evenodd" clip-rule="evenodd" d="M20.0312 44.323C19.9802 44.1811 19.6076 44.2084 19.6076 44.323C19.7965 44.394 19.9853 44.4595 20.0312 44.323Z" fill="white"/>
<path fill-rule="evenodd" clip-rule="evenodd" d="M27.4785 45.3575C27.5907 45.2974 27.3253 45.2128 27.2692 45.2456C27.1569 45.3056 27.4223 45.3902 27.4785 45.3575Z" fill="white"/>
<path fill-rule="evenodd" clip-rule="evenodd" d="M24.289 45.3575C24.4013 45.2974 24.1359 45.2128 24.0797 45.2456C23.9674 45.3056 24.2329 45.3902 24.289 45.3575Z" fill="white"/>
<path fill-rule="evenodd" clip-rule="evenodd" d="M2.59566 45.3575C2.70796 45.2974 2.44254 45.2128 2.38129 45.2456C2.26899 45.3056 2.53441 45.3902 2.59566 45.3575Z" fill="white"/>
<path fill-rule="evenodd" clip-rule="evenodd" d="M37.0497 5.57268C37.6316 5.22611 36.4015 5.88377 37.0497 5.57268V5.57268Z" fill="white"/>
<path fill-rule="evenodd" clip-rule="evenodd" d="M14.0804 5.66395V6.11967C14.3714 6.08419 14.2591 5.83587 14.2948 5.66395C14.499 5.66668 14.4582 5.80312 14.5092 5.89045C14.7695 5.84133 14.9431 5.74582 14.9329 5.54934C15.1115 5.52751 15.1319 5.593 15.1472 5.66395C15.6832 5.38288 14.4377 5.50568 14.0855 5.66395H14.0804Z" fill="white"/>
<path fill-rule="evenodd" clip-rule="evenodd" d="M4.08096 7.04713C4.66285 7.3937 3.43271 6.73604 4.08096 7.04713V7.04713Z" fill="white"/>
<path fill-rule="evenodd" clip-rule="evenodd" d="M10.2539 7.15595C10.0446 6.77937 9.83535 7.28148 9.61587 7.26784C9.73327 7.59803 9.94765 7.09319 10.2539 7.15595Z" fill="white"/>
<path fill-rule="evenodd" clip-rule="evenodd" d="M18.3334 9.77545C18.3334 9.77545 18.3181 9.6663 18.3334 9.66084C17.4351 10.0047 19.2777 9.8464 18.7571 9.66084C18.7214 9.64993 18.4304 9.77273 18.3334 9.77545Z" fill="white"/>
<path fill-rule="evenodd" clip-rule="evenodd" d="M21.0985 10.2133C21.6804 9.86674 20.4503 10.5244 21.0985 10.2133V10.2133Z" fill="white"/>
<path fill-rule="evenodd" clip-rule="evenodd" d="M19.6087 10.4553C19.3484 10.3734 19.1391 10.3352 19.3943 10.4553C19.6444 10.5726 19.8996 10.5454 19.6087 10.4553Z" fill="white"/>
<path fill-rule="evenodd" clip-rule="evenodd" d="M15.7815 10.7836V11.1248C15.9704 11.0538 16.1644 10.9883 16.2052 11.1248C16.5829 11.1575 16.2205 10.6827 15.7815 10.7836Z" fill="white"/>
<path fill-rule="evenodd" clip-rule="evenodd" d="M38.3266 11.1391C38.49 10.9644 38.1939 11.0545 38.1123 11.1391C37.9693 11.2919 38.2552 11.3928 38.3266 11.2509C38.3419 11.2182 38.3011 11.1663 38.3266 11.1391Z" fill="white"/>
<path fill-rule="evenodd" clip-rule="evenodd" d="M21.5224 11.5901C22.1043 11.9367 20.8741 11.279 21.5224 11.5901V11.5901Z" fill="white"/>
<path fill-rule="evenodd" clip-rule="evenodd" d="M46.62 11.8128C47.2019 12.1593 45.9718 11.5017 46.62 11.8128V11.8128Z" fill="white"/>
<path fill-rule="evenodd" clip-rule="evenodd" d="M28.7564 12.3846C28.2817 11.948 28.8482 12.6902 28.9707 12.6111C29.1494 12.4938 28.7819 12.4064 28.7564 12.3846Z" fill="white"/>
<path fill-rule="evenodd" clip-rule="evenodd" d="M29.817 13.2982C29.9089 13.129 30.0876 13.3446 30.4551 13.2982C30.2407 12.9953 29.8732 12.7742 29.6027 12.5014C29.23 12.4659 29.2249 13.1399 29.817 12.9571C29.572 13.1235 29.572 13.2436 29.817 13.4128C30.0569 13.391 29.9344 13.2982 29.817 13.2982Z" fill="white"/>
<path fill-rule="evenodd" clip-rule="evenodd" d="M25.1423 13.7441C25.1729 13.7441 25.0606 13.5585 24.9279 13.6294C24.9279 13.6294 25.423 14.3526 25.7803 13.9706C25.8875 13.8532 25.4333 13.9051 25.566 13.9706C25.4435 13.9105 25.3414 13.7495 25.1423 13.7441Z" fill="white"/>
<path fill-rule="evenodd" clip-rule="evenodd" d="M13.4423 14.1917C14.0242 14.5382 12.794 13.8806 13.4423 14.1917V14.1917Z" fill="white"/>
<path fill-rule="evenodd" clip-rule="evenodd" d="M8.12393 14.3167C8.70582 14.6632 7.47568 14.0056 8.12393 14.3167V14.3167Z" fill="white"/>
<path fill-rule="evenodd" clip-rule="evenodd" d="M25.3522 14.7802C25.7401 14.4173 24.4232 15.3724 25.3522 14.7802V14.7802Z" fill="white"/>
<path fill-rule="evenodd" clip-rule="evenodd" d="M35.7743 15.5667C36.3562 15.9132 35.1261 15.2556 35.7743 15.5667V15.5667Z" fill="white"/>
<path fill-rule="evenodd" clip-rule="evenodd" d="M19.6098 17.3935C19.1351 16.9542 19.7017 17.6992 19.8242 17.62C19.9978 17.5027 19.6354 17.4154 19.6098 17.3935Z" fill="white"/>
<path fill-rule="evenodd" clip-rule="evenodd" d="M34.7121 18.0776C33.9567 17.9002 34.5845 18.4651 34.0741 18.4187C34.1405 18.6588 34.8142 18.2986 34.7121 18.0776Z" fill="white"/>
<path fill-rule="evenodd" clip-rule="evenodd" d="M5.57119 21.926C6.15308 22.2726 4.92295 21.615 5.57119 21.926V21.926Z" fill="white"/>
<path fill-rule="evenodd" clip-rule="evenodd" d="M4.2958 21.926C4.87769 22.2726 3.64756 21.615 4.2958 21.926V21.926Z" fill="white"/>
<path fill-rule="evenodd" clip-rule="evenodd" d="M30.6691 25.1182C30.9294 24.8317 30.3577 25.1509 30.2454 25.3447C30.174 25.4702 30.4445 25.3611 30.6691 25.1182Z" fill="white"/>
<path fill-rule="evenodd" clip-rule="evenodd" d="M38.1118 26.9439C38.7702 26.7965 37.4993 26.7938 37.6881 27.0585C37.8719 27.274 37.8157 26.9357 38.1118 26.9439Z" fill="white"/>
<path fill-rule="evenodd" clip-rule="evenodd" d="M33.8604 30.3477C33.1407 30.7761 34.4219 31.1035 34.7128 31.371C35.0957 31.1227 33.5848 30.918 33.8604 30.3477Z" fill="white"/>
<path fill-rule="evenodd" clip-rule="evenodd" d="M17.2704 31.3656C17.8523 31.0191 16.6222 31.6767 17.2704 31.3656V31.3656Z" fill="white"/>
<path fill-rule="evenodd" clip-rule="evenodd" d="M30.6693 32.1687C30.1997 31.9777 31.4146 32.6162 32.1598 32.5098C32.3384 32.488 32.3589 32.5535 32.3742 32.6217C32.563 32.2697 31.3941 32.3761 30.6744 32.1687H30.6693Z" fill="white"/>
<path fill-rule="evenodd" clip-rule="evenodd" d="M33.4365 32.9677C33.4212 32.9486 33.365 32.6457 33.2221 32.7412C33.0485 32.8531 33.7376 33.2925 33.4365 32.9677Z" fill="white"/>
<path fill-rule="evenodd" clip-rule="evenodd" d="M46.62 34.6643C47.2019 35.0109 45.9718 34.3532 46.62 34.6643V34.6643Z" fill="white"/>
<path fill-rule="evenodd" clip-rule="evenodd" d="M21.3075 35.3578C21.8894 35.0113 20.6593 35.6689 21.3075 35.3578V35.3578Z" fill="white"/>
<path fill-rule="evenodd" clip-rule="evenodd" d="M24.5001 36.6144C24.6532 36.8164 24.888 36.6308 25.1381 36.6144C25.2147 36.8082 24.9697 36.83 24.7145 36.8409C24.7502 36.9747 25.1024 36.9365 25.3525 36.9556C25.2147 37.0702 24.8625 37.0729 24.9288 37.2967C25.3627 37.2612 25.3474 36.9883 25.7812 36.9556C25.526 36.7372 25.0513 36.3361 24.5052 36.6144H24.5001Z" fill="white"/>
<path fill-rule="evenodd" clip-rule="evenodd" d="M42.1552 36.7094C42.7371 36.3628 41.5069 37.0205 42.1552 36.7094V36.7094Z" fill="white"/>
<path fill-rule="evenodd" clip-rule="evenodd" d="M10.4618 39.8948C11.0437 40.2414 9.81357 39.5837 10.4618 39.8948V39.8948Z" fill="white"/>
<path fill-rule="evenodd" clip-rule="evenodd" d="M34.0692 40.4729C34.6511 40.8195 33.421 40.1618 34.0692 40.4729V40.4729Z" fill="white"/>
<path fill-rule="evenodd" clip-rule="evenodd" d="M8.54737 40.9287C8.53206 40.9096 8.47591 40.6067 8.33299 40.7022C8.16455 40.8141 8.84853 41.2534 8.54737 40.9287Z" fill="white"/>
<path fill-rule="evenodd" clip-rule="evenodd" d="M21.0985 43.0745C21.6804 43.421 20.4503 42.7634 21.0985 43.0745V43.0745Z" fill="white"/>
<path fill-rule="evenodd" clip-rule="evenodd" d="M29.1792 43.8714C30.2817 44.368 28.5003 43.664 29.1792 43.8714V43.8714Z" fill="white"/>
</g>
</g>
</svg>
