<svg width="25" height="24" viewBox="0 0 25 24" fill="none" xmlns="http://www.w3.org/2000/svg">
<g style="mix-blend-mode:multiply">
<path fill-rule="evenodd" clip-rule="evenodd" d="M11.6509 5.87338C11.6509 7.99102 9.9819 9.7077 7.92309 9.7077C5.86427 9.7077 4.19528 7.99102 4.19528 5.87338C4.19528 3.75575 5.86427 2.03906 7.92309 2.03906C9.9819 2.03906 11.6509 3.75575 11.6509 5.87338ZM17.3881 13.1516C19.3881 13.1516 21.0094 11.5302 21.0094 9.53026C21.0094 7.53027 19.3881 5.90895 17.3881 5.90895C15.3882 5.90895 13.7668 7.53027 13.7668 9.53026C13.7668 11.5302 15.3882 13.1516 17.3881 13.1516ZM14.2997 14.9694C15.1778 14.6111 16.2121 14.4186 17.3882 14.4186C21.5239 14.4186 23.9065 16.7999 23.9065 20.3937C23.9065 22.9651 21.8727 22.5111 19.783 22.0447C18.9521 21.8593 18.1124 21.6718 17.3882 21.6718C16.6639 21.6718 15.8242 21.8593 14.9933 22.0447C12.9036 22.5111 10.8698 22.9651 10.8698 20.3937C10.8698 20.008 10.8972 19.6363 10.9514 19.28C10.6672 19.2371 10.3785 19.1877 10.0901 19.1384L10.09 19.1383C9.29747 19.0028 8.50684 18.8675 7.81657 18.8675C7.12629 18.8675 6.33567 19.0028 5.54315 19.1383C3.27931 19.5256 1 19.9155 1 17.1634C1 14.3819 2.39632 12.303 4.9128 11.4335V11.433C5.32751 11.2897 5.77264 11.1793 6.24696 11.104V11.1044C6.73919 11.0262 7.26286 10.9859 7.81657 10.9859C11.2194 10.9859 13.4873 12.5099 14.2997 14.9694Z" fill="white"/>
</g>
<circle cx="17.3869" cy="9.52755" r="3.6213" fill="#0F76D6"/>
<path d="M17.3875 14.4141C13.2517 14.4141 10.8691 16.7954 10.8691 20.3892C10.8691 23.983 14.8419 21.6673 17.3875 21.6673C19.9331 21.6673 23.9058 23.983 23.9058 20.3892C23.9058 16.7954 21.5232 14.4141 17.3875 14.4141Z" fill="#CDE7FF"/>
<g style="mix-blend-mode:plus-darker">
<ellipse cx="7.92312" cy="5.86557" rx="3.72781" ry="3.83432" fill="#0A4E8E"/>
<path d="M7.81657 10.9766C3.49162 10.9766 1 13.4385 1 17.1541C1 20.8696 5.15453 18.8582 7.81657 18.8582C10.4786 18.8582 14.6331 20.8696 14.6331 17.1541C14.6331 13.4385 12.1415 10.9766 7.81657 10.9766Z" fill="#36BBF8"/>
<path fill-rule="evenodd" clip-rule="evenodd" d="M4.9131 11.4228V12.7172C4.24323 12.9895 3.76953 13.66 3.76953 14.4439C3.76953 15.4694 4.58019 16.3007 5.58018 16.3007C6.58018 16.3007 7.39083 15.4694 7.39083 14.4439C7.39083 13.66 6.91713 12.9895 6.24726 12.7172V11.0938C5.77294 11.1691 5.32781 11.2795 4.9131 11.4228ZM5.58018 13.9553C5.31703 13.9553 5.1037 14.174 5.1037 14.4439C5.1037 14.7137 5.31703 14.9325 5.58018 14.9325C5.84334 14.9325 6.05667 14.7137 6.05667 14.4439C6.05667 14.174 5.84334 13.9553 5.58018 13.9553Z" fill="#CDE7FF"/>
<g style="mix-blend-mode:multiply">
<path fill-rule="evenodd" clip-rule="evenodd" d="M9.31849 11.0859V12.7414C8.68802 13.0121 8.24219 13.6785 8.24219 14.4577V16.3033H9.67725V14.9434H9.49787V14.4577C9.49787 14.1895 9.69865 13.972 9.94633 13.972C10.194 13.972 10.3948 14.1895 10.3948 14.4577V14.9434H10.2154V16.3033H11.6505V14.4577C11.6505 13.6785 11.2046 13.0121 10.5742 12.7414V11.3768C10.1815 11.2505 9.76263 11.153 9.31849 11.0859Z" fill="#0A4E8E"/>
</g>
</g>
<g opacity="0.6">
<mask id="mask0_7322_339669" style="mask-type:alpha" maskUnits="userSpaceOnUse" x="1" y="2" width="22" height="18">
<path fill-rule="evenodd" clip-rule="evenodd" d="M11.6509 5.86557C11.6509 7.98321 9.98189 9.69989 7.92308 9.69989C5.86426 9.69989 4.19527 7.98321 4.19527 5.86557C4.19527 3.74793 5.86426 2.03125 7.92308 2.03125C9.98189 2.03125 11.6509 3.74793 11.6509 5.86557ZM16.4651 9.91291C18.4651 9.91291 20.0864 8.29159 20.0864 6.2916C20.0864 4.29162 18.4651 2.6703 16.4651 2.6703C14.4651 2.6703 12.8438 4.29162 12.8438 6.2916C12.8438 8.29159 14.4651 9.91291 16.4651 9.91291ZM12.3544 12.2679C13.4112 11.5684 14.7953 11.1802 16.4651 11.1802C20.6008 11.1802 22.9834 13.5615 22.9834 17.1553C22.9834 19.7267 20.9496 19.2728 18.8599 18.8063C18.029 18.6209 17.1893 18.4335 16.4651 18.4335C15.7659 18.4335 14.959 18.6082 14.1563 18.7871C13.3703 19.6916 11.7261 19.4103 10.09 19.1305C9.29747 18.9949 8.50684 18.8597 7.81657 18.8597C7.12629 18.8597 6.33567 18.9949 5.54315 19.1305C3.27931 19.5177 1 19.9076 1 17.1555C1 14.374 2.39632 12.2951 4.9128 11.4256V11.4252C5.32751 11.2819 5.77264 11.1715 6.24696 11.0962V11.0965C6.73919 11.0183 7.26286 10.978 7.81657 10.978C9.69169 10.978 11.2222 11.4408 12.3544 12.2679Z" fill="#0A4E8E"/>
</mask>
<g mask="url(#mask0_7322_339669)">
</g>
<mask id="mask1_7322_339669" style="mask-type:alpha" maskUnits="userSpaceOnUse" x="1" y="2" width="23" height="21">
<g style="mix-blend-mode:multiply">
<path fill-rule="evenodd" clip-rule="evenodd" d="M11.6509 5.86557C11.6509 7.98321 9.9819 9.69989 7.92309 9.69989C5.86427 9.69989 4.19528 7.98321 4.19528 5.86557C4.19528 3.74793 5.86427 2.03125 7.92309 2.03125C9.9819 2.03125 11.6509 3.74793 11.6509 5.86557ZM17.3881 13.1437C19.3881 13.1437 21.0094 11.5224 21.0094 9.52244C21.0094 7.52245 19.3881 5.90114 17.3881 5.90114C15.3882 5.90114 13.7668 7.52245 13.7668 9.52244C13.7668 11.5224 15.3882 13.1437 17.3881 13.1437ZM14.2997 14.9616C15.1778 14.6033 16.2121 14.4108 17.3882 14.4108C21.5239 14.4108 23.9065 16.7921 23.9065 20.3859C23.9065 22.9573 21.8727 22.5033 19.783 22.0369C18.9521 21.8514 18.1124 21.664 17.3882 21.664C16.6639 21.664 15.8242 21.8514 14.9933 22.0369C12.9036 22.5033 10.8698 22.9573 10.8698 20.3859C10.8698 20.0002 10.8972 19.6285 10.9514 19.2722C10.6672 19.2293 10.3785 19.1799 10.0901 19.1306L10.09 19.1305C9.29747 18.995 8.50684 18.8597 7.81657 18.8597C7.12629 18.8597 6.33567 18.995 5.54315 19.1305C3.27931 19.5178 1 19.9077 1 17.1556C1 14.3741 2.39632 12.2952 4.9128 11.4257V11.4252C5.32751 11.2819 5.77264 11.1715 6.24696 11.0962V11.0966C6.73919 11.0184 7.26286 10.9781 7.81657 10.9781C11.2194 10.9781 13.4873 12.5021 14.2997 14.9616Z" fill="#0A4E8E"/>
</g>
</mask>
<g mask="url(#mask1_7322_339669)">
<path fill-rule="evenodd" clip-rule="evenodd" d="M12.647 2.04439C12.5968 2.01846 12.7156 1.98192 12.7407 1.99489C12.791 2.02082 12.6722 2.05736 12.647 2.04439Z" fill="white"/>
<path fill-rule="evenodd" clip-rule="evenodd" d="M20.7427 2.04439C20.6925 2.01846 20.8113 1.98192 20.8364 1.99489C20.8867 2.02082 20.7679 2.05736 20.7427 2.04439Z" fill="white"/>
<path fill-rule="evenodd" clip-rule="evenodd" d="M10.457 2.0943C10.4753 2.0389 10.553 2.06719 10.553 2.0943C10.5347 2.1497 10.457 2.12141 10.457 2.0943Z" fill="white"/>
<path fill-rule="evenodd" clip-rule="evenodd" d="M21.9805 2.0943C21.9988 2.0389 22.0765 2.06719 22.0765 2.0943C22.0582 2.1497 21.9805 2.12141 21.9805 2.0943Z" fill="white"/>
<path fill-rule="evenodd" clip-rule="evenodd" d="M2.07671 2.14205C2.02643 2.11612 2.14528 2.07958 2.1727 2.09254C2.2207 2.11848 2.10414 2.15502 2.07671 2.14205Z" fill="white"/>
<path fill-rule="evenodd" clip-rule="evenodd" d="M4.93414 2.14205C4.88386 2.11612 5.0027 2.07958 5.03012 2.09254C5.07812 2.11848 4.96156 2.15502 4.93414 2.14205Z" fill="white"/>
<path fill-rule="evenodd" clip-rule="evenodd" d="M12.5533 2.14205C12.503 2.11612 12.6218 2.07958 12.6493 2.09254C12.6973 2.11848 12.5807 2.15502 12.5533 2.14205Z" fill="white"/>
<path fill-rule="evenodd" clip-rule="evenodd" d="M15.6939 2.14205C15.6436 2.11612 15.7625 2.07958 15.7899 2.09254C15.8402 2.11848 15.7213 2.15502 15.6939 2.14205Z" fill="white"/>
<path fill-rule="evenodd" clip-rule="evenodd" d="M3.60016 2.19283C3.54988 2.1669 3.66873 2.13036 3.69387 2.14333C3.74415 2.16926 3.6253 2.2058 3.60016 2.19283Z" fill="white"/>
<path fill-rule="evenodd" clip-rule="evenodd" d="M8.93218 2.19283C8.8819 2.1669 9.00075 2.13036 9.02817 2.14333C9.07845 2.16926 8.95961 2.2058 8.93218 2.19283Z" fill="white"/>
<path fill-rule="evenodd" clip-rule="evenodd" d="M5.02985 2.23898C4.97957 2.21305 5.09841 2.17651 5.12355 2.19065C5.17383 2.21658 5.05499 2.25313 5.02985 2.23898Z" fill="white"/>
<path fill-rule="evenodd" clip-rule="evenodd" d="M2.17243 2.29049C2.12215 2.26456 2.24099 2.22802 2.26613 2.24098C2.31641 2.26691 2.19757 2.30345 2.17243 2.29049Z" fill="white"/>
<path fill-rule="evenodd" clip-rule="evenodd" d="M7.02984 2.29049C6.97956 2.26456 7.0984 2.22802 7.12583 2.24098C7.17611 2.26691 7.05726 2.30345 7.02984 2.29049Z" fill="white"/>
<path fill-rule="evenodd" clip-rule="evenodd" d="M2.93359 2.3404C2.95188 2.285 3.02958 2.31329 3.02958 2.3404C3.0113 2.3958 2.93359 2.36751 2.93359 2.3404Z" fill="white"/>
<path fill-rule="evenodd" clip-rule="evenodd" d="M12.7422 2.38727C12.7605 2.33187 12.8382 2.36016 12.8382 2.38727C12.8199 2.44385 12.7422 2.41438 12.7422 2.38727Z" fill="white"/>
<path fill-rule="evenodd" clip-rule="evenodd" d="M16.9322 2.38814C16.8819 2.36221 17.0008 2.32567 17.0259 2.33864C17.0762 2.36457 16.9573 2.40111 16.9322 2.38814Z" fill="white"/>
<path fill-rule="evenodd" clip-rule="evenodd" d="M6.74273 2.43502C6.69245 2.40909 6.81129 2.37255 6.83872 2.38551C6.889 2.41145 6.77015 2.44799 6.74273 2.43502Z" fill="white"/>
<path fill-rule="evenodd" clip-rule="evenodd" d="M12.5533 2.43502C12.503 2.40909 12.6218 2.37255 12.6493 2.38551C12.6973 2.41145 12.5807 2.44799 12.5533 2.43502Z" fill="white"/>
<path fill-rule="evenodd" clip-rule="evenodd" d="M1.79156 2.48189C1.74128 2.45596 1.86012 2.41942 1.88755 2.43239C1.93783 2.45832 1.81898 2.49486 1.79156 2.48189Z" fill="white"/>
<path fill-rule="evenodd" clip-rule="evenodd" d="M10.4576 2.48189C10.4073 2.45596 10.5261 2.41942 10.5536 2.43239C10.6038 2.45832 10.485 2.49486 10.4576 2.48189Z" fill="white"/>
<path fill-rule="evenodd" clip-rule="evenodd" d="M13.313 2.48189C13.2628 2.45596 13.3816 2.41942 13.409 2.43239C13.4593 2.45832 13.3405 2.49486 13.313 2.48189Z" fill="white"/>
<path fill-rule="evenodd" clip-rule="evenodd" d="M13.5044 2.48189C13.4542 2.45596 13.573 2.41942 13.6004 2.43239C13.6484 2.45832 13.5319 2.49486 13.5044 2.48189Z" fill="white"/>
<path fill-rule="evenodd" clip-rule="evenodd" d="M21.5025 2.48189C21.4522 2.45596 21.5711 2.41942 21.5985 2.43239C21.6488 2.45832 21.5299 2.49486 21.5025 2.48189Z" fill="white"/>
<path fill-rule="evenodd" clip-rule="evenodd" d="M5.88726 2.53658C5.83698 2.51065 5.95582 2.47411 5.98325 2.48708C6.03124 2.51301 5.91469 2.54955 5.88726 2.53658Z" fill="white"/>
<path fill-rule="evenodd" clip-rule="evenodd" d="M14.0748 2.53658C14.0245 2.51065 14.1433 2.47411 14.1685 2.48708C14.2188 2.51301 14.0999 2.54955 14.0748 2.53658Z" fill="white"/>
<path fill-rule="evenodd" clip-rule="evenodd" d="M20.3594 2.53776C20.3822 2.47647 20.5491 2.48825 20.5491 2.53776C20.4645 2.56841 20.3799 2.5967 20.3594 2.53776Z" fill="white"/>
<path fill-rule="evenodd" clip-rule="evenodd" d="M2.17356 2.63164C1.94273 2.79667 2.49352 2.51259 2.17356 2.63164V2.63164Z" fill="white"/>
<path fill-rule="evenodd" clip-rule="evenodd" d="M13.8867 2.63154C13.889 2.58439 14.0033 2.59382 14.0764 2.58203C14.0741 2.63036 13.9599 2.61975 13.8867 2.63154Z" fill="white"/>
<path fill-rule="evenodd" clip-rule="evenodd" d="M5.21929 2.68502C5.16901 2.65909 5.28786 2.62255 5.31528 2.63551C5.36556 2.66145 5.24672 2.69799 5.21929 2.68502Z" fill="white"/>
<path fill-rule="evenodd" clip-rule="evenodd" d="M20.2662 2.68502C20.2159 2.65909 20.3347 2.62255 20.3599 2.63551C20.4102 2.66145 20.2913 2.69799 20.2662 2.68502Z" fill="white"/>
<path fill-rule="evenodd" clip-rule="evenodd" d="M23.4087 2.68502C23.3585 2.65909 23.4773 2.62255 23.5047 2.63551C23.555 2.66145 23.4362 2.69799 23.4087 2.68502Z" fill="white"/>
<path fill-rule="evenodd" clip-rule="evenodd" d="M1.12554 2.73117C1.07526 2.70523 1.19411 2.6687 1.22153 2.68284C1.26953 2.70877 1.15297 2.74531 1.12554 2.73117Z" fill="white"/>
<path fill-rule="evenodd" clip-rule="evenodd" d="M6.74273 2.73117C6.69245 2.70523 6.81129 2.6687 6.83872 2.68284C6.889 2.70877 6.77015 2.74531 6.74273 2.73117Z" fill="white"/>
<path fill-rule="evenodd" clip-rule="evenodd" d="M7.60015 2.73117C7.54987 2.70523 7.66871 2.6687 7.69614 2.68284C7.74642 2.70877 7.62758 2.74531 7.60015 2.73117Z" fill="white"/>
<path fill-rule="evenodd" clip-rule="evenodd" d="M11.5044 2.73117C11.4542 2.70523 11.573 2.6687 11.6004 2.68284C11.6507 2.70877 11.5319 2.74531 11.5044 2.73117Z" fill="white"/>
<path fill-rule="evenodd" clip-rule="evenodd" d="M19.3125 2.73493C19.3308 2.67953 19.4085 2.70782 19.4063 2.73493C19.388 2.79033 19.3103 2.76204 19.3125 2.73493Z" fill="white"/>
<path fill-rule="evenodd" clip-rule="evenodd" d="M19.6002 2.73117C19.5499 2.70523 19.6687 2.6687 19.6961 2.68284C19.7464 2.70877 19.6276 2.74531 19.6002 2.73117Z" fill="white"/>
<path fill-rule="evenodd" clip-rule="evenodd" d="M19.7896 2.73117C19.7393 2.70523 19.8582 2.6687 19.8833 2.68284C19.9336 2.70877 19.8148 2.74531 19.7896 2.73117Z" fill="white"/>
<path fill-rule="evenodd" clip-rule="evenodd" d="M22.1705 2.77877C22.1202 2.75284 22.239 2.7163 22.2642 2.72926C22.3145 2.7552 22.1956 2.79174 22.1705 2.77877Z" fill="white"/>
<path fill-rule="evenodd" clip-rule="evenodd" d="M6.45758 2.88033C6.4073 2.8544 6.52615 2.81786 6.55129 2.83083C6.60157 2.85676 6.48272 2.8933 6.45758 2.88033Z" fill="white"/>
<path fill-rule="evenodd" clip-rule="evenodd" d="M5.98298 2.9233C5.93269 2.89737 6.05154 2.86083 6.07668 2.87379C6.12696 2.89973 6.00812 2.93627 5.98298 2.9233Z" fill="white"/>
<path fill-rule="evenodd" clip-rule="evenodd" d="M10.8365 2.9233C10.7862 2.89737 10.905 2.86083 10.9325 2.87379C10.9827 2.89973 10.8639 2.93627 10.8365 2.9233Z" fill="white"/>
<path fill-rule="evenodd" clip-rule="evenodd" d="M6.26812 2.97336C6.21784 2.94742 6.33668 2.91088 6.36411 2.92503C6.41439 2.95096 6.29555 2.9875 6.26812 2.97336Z" fill="white"/>
<path fill-rule="evenodd" clip-rule="evenodd" d="M17.7896 2.97336C17.7393 2.94742 17.8582 2.91088 17.8856 2.92503C17.9336 2.95096 17.817 2.9875 17.7896 2.97336Z" fill="white"/>
<path fill-rule="evenodd" clip-rule="evenodd" d="M19.1236 2.97336C19.0733 2.94742 19.1922 2.91088 19.2196 2.92503C19.2699 2.95096 19.151 2.9875 19.1236 2.97336Z" fill="white"/>
<path fill-rule="evenodd" clip-rule="evenodd" d="M19.4068 2.97336C19.3565 2.94742 19.4754 2.91088 19.5028 2.92503C19.5531 2.95096 19.4342 2.9875 19.4068 2.97336Z" fill="white"/>
<path fill-rule="evenodd" clip-rule="evenodd" d="M20.1699 2.97625C20.2111 2.90434 20.2545 2.98096 20.3596 2.97625C20.3368 3.03754 20.1699 3.02575 20.1699 2.97625Z" fill="white"/>
<path fill-rule="evenodd" clip-rule="evenodd" d="M7.21875 3.02449C7.23703 2.96791 7.31474 2.99738 7.31474 3.02449C7.29646 3.07989 7.21875 3.0516 7.21875 3.02449Z" fill="white"/>
<path fill-rule="evenodd" clip-rule="evenodd" d="M13.7896 3.07492C13.7393 3.04899 13.8582 3.01245 13.8856 3.02659C13.9359 3.05252 13.817 3.08906 13.7896 3.07492Z" fill="white"/>
<path fill-rule="evenodd" clip-rule="evenodd" d="M15.981 3.07492C15.9307 3.04899 16.0496 3.01245 16.0747 3.02659C16.125 3.05252 16.0062 3.08906 15.981 3.07492Z" fill="white"/>
<path fill-rule="evenodd" clip-rule="evenodd" d="M4.17242 3.12643C4.12214 3.10049 4.24098 3.06395 4.26841 3.07692C4.31869 3.10285 4.19984 3.13939 4.17242 3.12643Z" fill="white"/>
<path fill-rule="evenodd" clip-rule="evenodd" d="M10.4566 3.07812C10.1664 3.24315 10.8086 3.22664 10.4566 3.07812V3.07812Z" fill="white"/>
<path fill-rule="evenodd" clip-rule="evenodd" d="M11.7896 3.12643C11.7393 3.10049 11.8582 3.06395 11.8856 3.07692C11.9359 3.10285 11.817 3.13939 11.7896 3.12643Z" fill="white"/>
<path fill-rule="evenodd" clip-rule="evenodd" d="M5.12359 3.17721C5.07331 3.15128 5.19215 3.11474 5.21958 3.1277C5.26986 3.15363 5.15101 3.19017 5.12359 3.17721Z" fill="white"/>
<path fill-rule="evenodd" clip-rule="evenodd" d="M11.5044 3.17721C11.4542 3.15128 11.573 3.11474 11.6004 3.1277C11.6507 3.15363 11.5319 3.19017 11.5044 3.17721Z" fill="white"/>
<path fill-rule="evenodd" clip-rule="evenodd" d="M17.313 3.17721C17.2628 3.15128 17.3816 3.11474 17.409 3.1277C17.457 3.15363 17.3405 3.19017 17.313 3.17721Z" fill="white"/>
<path fill-rule="evenodd" clip-rule="evenodd" d="M6.07671 3.22408C6.02643 3.19815 6.14528 3.16161 6.1727 3.17458C6.22298 3.20051 6.10414 3.23705 6.07671 3.22408Z" fill="white"/>
<path fill-rule="evenodd" clip-rule="evenodd" d="M8.45757 3.27096C8.40729 3.24503 8.52614 3.20849 8.55356 3.22145C8.60384 3.24738 8.485 3.28392 8.45757 3.27096Z" fill="white"/>
<path fill-rule="evenodd" clip-rule="evenodd" d="M4.84039 3.32492C4.79011 3.29898 4.90895 3.26245 4.93637 3.27659C4.98666 3.30252 4.86781 3.33906 4.84039 3.32492Z" fill="white"/>
<path fill-rule="evenodd" clip-rule="evenodd" d="M22.2642 3.32492C22.2139 3.29898 22.3328 3.26245 22.3602 3.27659C22.4105 3.30252 22.2916 3.33906 22.2642 3.32492Z" fill="white"/>
<path fill-rule="evenodd" clip-rule="evenodd" d="M11.1255 3.41939C11.0753 3.39346 11.1941 3.35692 11.2215 3.36989C11.2695 3.39582 11.153 3.43236 11.1255 3.41939Z" fill="white"/>
<path fill-rule="evenodd" clip-rule="evenodd" d="M16.647 3.41939C16.5967 3.39346 16.7156 3.35692 16.743 3.36989C16.7933 3.39582 16.6745 3.43236 16.647 3.41939Z" fill="white"/>
<path fill-rule="evenodd" clip-rule="evenodd" d="M21.981 3.41939C21.9307 3.39346 22.0496 3.35692 22.077 3.36989C22.1273 3.39582 22.0084 3.43236 21.981 3.41939Z" fill="white"/>
<path fill-rule="evenodd" clip-rule="evenodd" d="M12.4576 3.46554C12.4073 3.43961 12.5261 3.40307 12.5536 3.41722C12.6038 3.44315 12.485 3.47969 12.4576 3.46554Z" fill="white"/>
<path fill-rule="evenodd" clip-rule="evenodd" d="M14.457 3.46745C14.4799 3.40615 14.6467 3.41794 14.6467 3.46745C14.5622 3.4981 14.4776 3.52638 14.457 3.46745Z" fill="white"/>
<path fill-rule="evenodd" clip-rule="evenodd" d="M18.8384 3.46554C18.7882 3.43961 18.907 3.40307 18.9321 3.41722C18.9824 3.44315 18.8636 3.47969 18.8384 3.46554Z" fill="white"/>
<path fill-rule="evenodd" clip-rule="evenodd" d="M22.8345 3.46554C22.7842 3.43961 22.9031 3.40307 22.9305 3.41722C22.9808 3.44315 22.862 3.47969 22.8345 3.46554Z" fill="white"/>
<path fill-rule="evenodd" clip-rule="evenodd" d="M13.1236 3.52096C13.0733 3.49503 13.1922 3.45849 13.2173 3.47145C13.2676 3.49738 13.1487 3.53393 13.1236 3.52096Z" fill="white"/>
<path fill-rule="evenodd" clip-rule="evenodd" d="M14.8384 3.52096C14.7882 3.49503 14.907 3.45849 14.9344 3.47145C14.9847 3.49738 14.8659 3.53393 14.8384 3.52096Z" fill="white"/>
<path fill-rule="evenodd" clip-rule="evenodd" d="M20.647 3.52096C20.5967 3.49503 20.7156 3.45849 20.743 3.47145C20.791 3.49738 20.6745 3.53393 20.647 3.52096Z" fill="white"/>
<path fill-rule="evenodd" clip-rule="evenodd" d="M23.0279 3.52096C22.9776 3.49503 23.0964 3.45849 23.1239 3.47145C23.1719 3.49738 23.0553 3.53393 23.0279 3.52096Z" fill="white"/>
<path fill-rule="evenodd" clip-rule="evenodd" d="M6.84039 3.61471C6.79011 3.58878 6.90895 3.55224 6.93637 3.5652C6.98437 3.59113 6.86781 3.62768 6.84039 3.61471Z" fill="white"/>
<path fill-rule="evenodd" clip-rule="evenodd" d="M2.74273 3.71554C2.69245 3.68961 2.81129 3.65307 2.83872 3.66722C2.889 3.69315 2.77015 3.72969 2.74273 3.71554Z" fill="white"/>
<path fill-rule="evenodd" clip-rule="evenodd" d="M5.4107 3.71554C5.36042 3.68961 5.47926 3.65307 5.50669 3.66722C5.55468 3.69315 5.43812 3.72969 5.4107 3.71554Z" fill="white"/>
<path fill-rule="evenodd" clip-rule="evenodd" d="M11.4087 3.80929C11.3585 3.78336 11.4773 3.74682 11.5047 3.76097C11.555 3.7869 11.4362 3.82344 11.4087 3.80929Z" fill="white"/>
<path fill-rule="evenodd" clip-rule="evenodd" d="M19.7896 3.80929C19.7393 3.78336 19.8582 3.74682 19.8833 3.76097C19.9336 3.7869 19.8148 3.82344 19.7896 3.80929Z" fill="white"/>
<path fill-rule="evenodd" clip-rule="evenodd" d="M7.98101 3.8608C7.93073 3.83487 8.04957 3.79833 8.077 3.8113C8.12728 3.83723 8.00844 3.87377 7.98101 3.8608Z" fill="white"/>
<path fill-rule="evenodd" clip-rule="evenodd" d="M10.5533 3.8608C10.503 3.83487 10.6218 3.79833 10.6493 3.8113C10.6995 3.83723 10.5807 3.87377 10.5533 3.8608Z" fill="white"/>
<path fill-rule="evenodd" clip-rule="evenodd" d="M16.9322 3.90768C16.8819 3.88175 17.0008 3.8452 17.0259 3.85817C17.0762 3.8841 16.9573 3.92064 16.9322 3.90768Z" fill="white"/>
<path fill-rule="evenodd" clip-rule="evenodd" d="M11.981 3.95846C11.9307 3.93253 12.0496 3.89599 12.077 3.90895C12.1273 3.93488 12.0084 3.97143 11.981 3.95846Z" fill="white"/>
<path fill-rule="evenodd" clip-rule="evenodd" d="M22.8345 3.95846C22.7842 3.93253 22.9031 3.89599 22.9305 3.90895C22.9808 3.93488 22.862 3.97143 22.8345 3.95846Z" fill="white"/>
<path fill-rule="evenodd" clip-rule="evenodd" d="M2.07671 4.00924C2.02643 3.98331 2.14528 3.94677 2.1727 3.95973C2.2207 3.98566 2.10414 4.0222 2.07671 4.00924Z" fill="white"/>
<path fill-rule="evenodd" clip-rule="evenodd" d="M6.74273 4.10299C6.69245 4.07706 6.81129 4.04052 6.83872 4.05348C6.889 4.07941 6.77015 4.11596 6.74273 4.10299Z" fill="white"/>
<path fill-rule="evenodd" clip-rule="evenodd" d="M16.647 4.10299C16.5967 4.07706 16.7156 4.04052 16.743 4.05348C16.7933 4.07941 16.6745 4.11596 16.647 4.10299Z" fill="white"/>
<path fill-rule="evenodd" clip-rule="evenodd" d="M1.98296 4.15377C1.93268 4.12784 2.05153 4.0913 2.07895 4.10426C2.12923 4.1302 2.01039 4.16673 1.98296 4.15377Z" fill="white"/>
<path fill-rule="evenodd" clip-rule="evenodd" d="M14.1719 4.1568C14.1902 4.1014 14.2679 4.12969 14.2679 4.1568C14.2496 4.2122 14.1719 4.18391 14.1719 4.1568Z" fill="white"/>
<path fill-rule="evenodd" clip-rule="evenodd" d="M21.9805 4.1568C21.9988 4.1014 22.0765 4.12969 22.0765 4.1568C22.0582 4.2122 21.9805 4.18391 21.9805 4.1568Z" fill="white"/>
<path fill-rule="evenodd" clip-rule="evenodd" d="M21.2174 4.20773C21.1671 4.1818 21.2859 4.14526 21.3111 4.1594C21.3613 4.18533 21.2425 4.22188 21.2174 4.20773Z" fill="white"/>
<path fill-rule="evenodd" clip-rule="evenodd" d="M2.07671 4.25533C2.02643 4.2294 2.14528 4.19286 2.1727 4.20583C2.2207 4.23176 2.10414 4.2683 2.07671 4.25533Z" fill="white"/>
<path fill-rule="evenodd" clip-rule="evenodd" d="M14.0748 4.30539C14.0245 4.27946 14.1433 4.24291 14.1685 4.25706C14.2188 4.28299 14.0999 4.31953 14.0748 4.30539Z" fill="white"/>
<path fill-rule="evenodd" clip-rule="evenodd" d="M15.7896 4.39987C15.7393 4.37393 15.8582 4.33739 15.8856 4.35036C15.9359 4.37629 15.817 4.41283 15.7896 4.39987Z" fill="white"/>
<path fill-rule="evenodd" clip-rule="evenodd" d="M22.9302 4.44992C22.8799 4.42399 22.9988 4.38745 23.0262 4.40159C23.0765 4.42752 22.9577 4.46406 22.9302 4.44992Z" fill="white"/>
<path fill-rule="evenodd" clip-rule="evenodd" d="M2.36301 4.49883C2.13218 4.66385 2.68298 4.37978 2.36301 4.49883V4.49883Z" fill="white"/>
<path fill-rule="evenodd" clip-rule="evenodd" d="M6.84039 4.50143C6.79011 4.4755 6.90895 4.43895 6.93637 4.45192C6.98437 4.47785 6.86781 4.51439 6.84039 4.50143Z" fill="white"/>
<path fill-rule="evenodd" clip-rule="evenodd" d="M10.7427 4.50143C10.6925 4.4755 10.8113 4.43895 10.8364 4.45192C10.8867 4.47785 10.7679 4.51439 10.7427 4.50143Z" fill="white"/>
<path fill-rule="evenodd" clip-rule="evenodd" d="M1.6021 4.59517C1.55182 4.56924 1.67067 4.5327 1.69809 4.54567C1.74609 4.5716 1.62953 4.60814 1.6021 4.59517Z" fill="white"/>
<path fill-rule="evenodd" clip-rule="evenodd" d="M11.981 4.59517C11.9307 4.56924 12.0496 4.5327 12.077 4.54567C12.1273 4.5716 12.0084 4.60814 11.981 4.59517Z" fill="white"/>
<path fill-rule="evenodd" clip-rule="evenodd" d="M14.0748 4.64596C14.0245 4.62003 14.1433 4.58349 14.1685 4.59645C14.2188 4.62238 14.0999 4.65893 14.0748 4.64596Z" fill="white"/>
<path fill-rule="evenodd" clip-rule="evenodd" d="M19.3125 4.64899C19.3308 4.59359 19.4085 4.62188 19.4063 4.64899C19.388 4.70439 19.3103 4.6761 19.3125 4.64899Z" fill="white"/>
<path fill-rule="evenodd" clip-rule="evenodd" d="M20.1702 4.64982C20.2205 4.57438 20.2685 4.64628 20.2662 4.69932C20.2159 4.77476 20.1656 4.70286 20.1702 4.64982Z" fill="white"/>
<path fill-rule="evenodd" clip-rule="evenodd" d="M15.0279 4.74361C14.9776 4.71768 15.0965 4.68114 15.1216 4.69411C15.1719 4.72004 15.053 4.75658 15.0279 4.74361Z" fill="white"/>
<path fill-rule="evenodd" clip-rule="evenodd" d="M1.41016 4.79442C1.41244 4.74609 1.52671 4.7567 1.59985 4.74609C1.59756 4.79324 1.48329 4.78381 1.41016 4.79442Z" fill="white"/>
<path fill-rule="evenodd" clip-rule="evenodd" d="M7.02984 4.79367C6.97956 4.76774 7.0984 4.7312 7.12583 4.74534C7.17611 4.77127 7.05726 4.80781 7.02984 4.79367Z" fill="white"/>
<path fill-rule="evenodd" clip-rule="evenodd" d="M16.4576 4.79367C16.4073 4.76774 16.5261 4.7312 16.5513 4.74534C16.6016 4.77127 16.4827 4.80781 16.4576 4.79367Z" fill="white"/>
<path fill-rule="evenodd" clip-rule="evenodd" d="M18.5494 4.79367C18.4991 4.76774 18.6179 4.7312 18.6454 4.74534C18.6956 4.77127 18.5768 4.80781 18.5494 4.79367Z" fill="white"/>
<path fill-rule="evenodd" clip-rule="evenodd" d="M14.1705 4.84127C14.1202 4.81534 14.239 4.7788 14.2665 4.79176C14.3167 4.8177 14.1979 4.85424 14.1705 4.84127Z" fill="white"/>
<path fill-rule="evenodd" clip-rule="evenodd" d="M18.3599 4.84127C18.3096 4.81534 18.4285 4.7788 18.4536 4.79176C18.5039 4.8177 18.3851 4.85424 18.3599 4.84127Z" fill="white"/>
<path fill-rule="evenodd" clip-rule="evenodd" d="M20.2657 4.8443C20.284 4.7889 20.3617 4.81719 20.3594 4.8443C20.3411 4.90088 20.2634 4.87141 20.2657 4.8443Z" fill="white"/>
<path fill-rule="evenodd" clip-rule="evenodd" d="M16.2662 4.88814C16.2159 4.86221 16.3347 4.82567 16.3622 4.83864C16.4124 4.86457 16.2936 4.90111 16.2662 4.88814Z" fill="white"/>
<path fill-rule="evenodd" clip-rule="evenodd" d="M4.93414 4.94211C4.88386 4.91617 5.0027 4.87963 5.03012 4.89378C5.07812 4.91971 4.96156 4.95625 4.93414 4.94211Z" fill="white"/>
<path fill-rule="evenodd" clip-rule="evenodd" d="M12.8359 4.94587C12.8542 4.89047 12.9319 4.91876 12.9319 4.94587C12.9136 5.00127 12.8359 4.97298 12.8359 4.94587Z" fill="white"/>
<path fill-rule="evenodd" clip-rule="evenodd" d="M18.4556 4.94211C18.4053 4.91617 18.5242 4.87963 18.5516 4.89378C18.6019 4.91971 18.483 4.95625 18.4556 4.94211Z" fill="white"/>
<path fill-rule="evenodd" clip-rule="evenodd" d="M6.26812 5.03976C6.21784 5.01383 6.33668 4.97729 6.36411 4.99143C6.41439 5.01737 6.29555 5.05391 6.26812 5.03976Z" fill="white"/>
<path fill-rule="evenodd" clip-rule="evenodd" d="M8.36138 5.08649C8.37966 5.03109 8.45737 5.05938 8.45508 5.08649C8.4368 5.14307 8.35909 5.1136 8.36138 5.08649Z" fill="white"/>
<path fill-rule="evenodd" clip-rule="evenodd" d="M23.4087 5.13815C23.3585 5.11221 23.4773 5.07567 23.5047 5.08864C23.555 5.11457 23.4362 5.15111 23.4087 5.13815Z" fill="white"/>
<path fill-rule="evenodd" clip-rule="evenodd" d="M15.1216 5.33346C15.0714 5.30752 15.1902 5.27099 15.2176 5.28395C15.2679 5.30988 15.1491 5.34642 15.1216 5.33346Z" fill="white"/>
<path fill-rule="evenodd" clip-rule="evenodd" d="M9.12554 5.38033C9.07526 5.3544 9.19411 5.31786 9.22153 5.33083C9.27181 5.35676 9.15297 5.3933 9.12554 5.38033Z" fill="white"/>
<path fill-rule="evenodd" clip-rule="evenodd" d="M13.6002 5.38033C13.5499 5.3544 13.6687 5.31786 13.6939 5.33083C13.7441 5.35676 13.6253 5.3933 13.6002 5.38033Z" fill="white"/>
<path fill-rule="evenodd" clip-rule="evenodd" d="M23.502 5.38337C23.5202 5.32797 23.5979 5.35626 23.5979 5.38337C23.5797 5.43877 23.502 5.41048 23.502 5.38337Z" fill="white"/>
<path fill-rule="evenodd" clip-rule="evenodd" d="M4.93414 5.43502C4.88386 5.40909 5.0027 5.37255 5.03012 5.38551C5.07812 5.41145 4.96156 5.44799 4.93414 5.43502Z" fill="white"/>
<path fill-rule="evenodd" clip-rule="evenodd" d="M7.60156 5.57704C7.6427 5.50631 7.68612 5.58293 7.79125 5.57704C7.7684 5.63833 7.60156 5.62654 7.60156 5.57704Z" fill="white"/>
<path fill-rule="evenodd" clip-rule="evenodd" d="M8.07476 5.57955C8.02448 5.55362 8.14332 5.51708 8.17075 5.53004C8.22103 5.55598 8.10219 5.59252 8.07476 5.57955Z" fill="white"/>
<path fill-rule="evenodd" clip-rule="evenodd" d="M8.64703 5.68039C8.59675 5.65446 8.71559 5.61791 8.74302 5.63206C8.7933 5.65799 8.67445 5.69453 8.64703 5.68039Z" fill="white"/>
<path fill-rule="evenodd" clip-rule="evenodd" d="M13.6939 5.68039C13.6436 5.65446 13.7625 5.61791 13.7899 5.63206C13.8402 5.65799 13.7213 5.69453 13.6939 5.68039Z" fill="white"/>
<path fill-rule="evenodd" clip-rule="evenodd" d="M13.5044 5.72799C13.4542 5.70206 13.573 5.66552 13.6004 5.67848C13.6484 5.70441 13.5319 5.74096 13.5044 5.72799Z" fill="white"/>
<path fill-rule="evenodd" clip-rule="evenodd" d="M21.0273 5.73152C21.0456 5.67494 21.1233 5.70441 21.1233 5.73152C21.105 5.78692 21.0273 5.75863 21.0273 5.73152Z" fill="white"/>
<path fill-rule="evenodd" clip-rule="evenodd" d="M14.1705 5.77804C14.1202 5.75211 14.239 5.71557 14.2665 5.72972C14.3167 5.75565 14.1979 5.79219 14.1705 5.77804Z" fill="white"/>
<path fill-rule="evenodd" clip-rule="evenodd" d="M22.6451 5.77804C22.5948 5.75211 22.7136 5.71557 22.7388 5.72972C22.7891 5.75565 22.6702 5.79219 22.6451 5.77804Z" fill="white"/>
<path fill-rule="evenodd" clip-rule="evenodd" d="M1.31499 5.82565C1.26471 5.79971 1.38356 5.76317 1.41098 5.77614C1.46126 5.80207 1.34242 5.83861 1.31499 5.82565Z" fill="white"/>
<path fill-rule="evenodd" clip-rule="evenodd" d="M9.31501 5.82565C9.26473 5.79971 9.38357 5.76317 9.40871 5.77614C9.45899 5.80207 9.34015 5.83861 9.31501 5.82565Z" fill="white"/>
<path fill-rule="evenodd" clip-rule="evenodd" d="M12.647 5.87252C12.5968 5.84659 12.7156 5.81005 12.7407 5.82301C12.791 5.84895 12.6722 5.88549 12.647 5.87252Z" fill="white"/>
<path fill-rule="evenodd" clip-rule="evenodd" d="M2.83843 5.92257C2.78815 5.89664 2.907 5.8601 2.93442 5.87425C2.9847 5.90018 2.86586 5.93672 2.83843 5.92257Z" fill="white"/>
<path fill-rule="evenodd" clip-rule="evenodd" d="M22.6451 5.92257C22.5948 5.89664 22.7136 5.8601 22.7388 5.87425C22.7891 5.90018 22.6702 5.93672 22.6451 5.92257Z" fill="white"/>
<path fill-rule="evenodd" clip-rule="evenodd" d="M20.647 5.97408C20.5967 5.94815 20.7156 5.91161 20.743 5.92458C20.791 5.95051 20.6745 5.98705 20.647 5.97408Z" fill="white"/>
<path fill-rule="evenodd" clip-rule="evenodd" d="M18.2662 6.02414C18.2159 5.99821 18.3347 5.96166 18.3622 5.97581C18.4101 6.00174 18.2936 6.03828 18.2662 6.02414Z" fill="white"/>
<path fill-rule="evenodd" clip-rule="evenodd" d="M9.60015 6.11862C9.54987 6.09268 9.66871 6.05614 9.69614 6.06911C9.74642 6.09504 9.62758 6.13158 9.60015 6.11862Z" fill="white"/>
<path fill-rule="evenodd" clip-rule="evenodd" d="M21.4062 6.12555C21.4245 6.07015 21.5022 6.09844 21.5022 6.12555C21.484 6.18095 21.4062 6.15266 21.4062 6.12555Z" fill="white"/>
<path fill-rule="evenodd" clip-rule="evenodd" d="M2.17192 6.16852C2.19021 6.11312 2.26791 6.14141 2.26563 6.16852C2.24734 6.22392 2.16964 6.19563 2.17192 6.16852Z" fill="white"/>
<path fill-rule="evenodd" clip-rule="evenodd" d="M23.5025 6.1694C23.4522 6.14346 23.5711 6.10692 23.5985 6.11989C23.6465 6.14582 23.5299 6.18236 23.5025 6.1694Z" fill="white"/>
<path fill-rule="evenodd" clip-rule="evenodd" d="M16.5513 6.22017C16.501 6.19424 16.6199 6.1577 16.6473 6.17067C16.6976 6.1966 16.5787 6.23314 16.5513 6.22017Z" fill="white"/>
<path fill-rule="evenodd" clip-rule="evenodd" d="M4.17242 6.26632C4.12214 6.24039 4.24098 6.20385 4.26841 6.218C4.31869 6.24393 4.19984 6.28047 4.17242 6.26632Z" fill="white"/>
<path fill-rule="evenodd" clip-rule="evenodd" d="M6.26758 6.26823C6.29043 6.20694 6.45727 6.21872 6.45727 6.26823C6.37271 6.29888 6.28586 6.32717 6.26758 6.26823Z" fill="white"/>
<path fill-rule="evenodd" clip-rule="evenodd" d="M10.7422 6.27008C10.7605 6.21468 10.8382 6.24297 10.8359 6.27008C10.8177 6.32548 10.74 6.2972 10.7422 6.27008Z" fill="white"/>
<path fill-rule="evenodd" clip-rule="evenodd" d="M20.5513 6.26632C20.501 6.24039 20.6199 6.20385 20.6473 6.218C20.6976 6.24393 20.5787 6.28047 20.5513 6.26632Z" fill="white"/>
<path fill-rule="evenodd" clip-rule="evenodd" d="M23.4087 6.26632C23.3585 6.24039 23.4773 6.20385 23.5047 6.218C23.555 6.24393 23.4362 6.28047 23.4087 6.26632Z" fill="white"/>
<path fill-rule="evenodd" clip-rule="evenodd" d="M5.4107 6.36471C5.36042 6.33877 5.47926 6.30224 5.50669 6.3152C5.55468 6.34113 5.43812 6.37767 5.4107 6.36471Z" fill="white"/>
<path fill-rule="evenodd" clip-rule="evenodd" d="M23.313 6.36471C23.2628 6.33877 23.3816 6.30224 23.409 6.3152C23.4593 6.34113 23.3405 6.37767 23.313 6.36471Z" fill="white"/>
<path fill-rule="evenodd" clip-rule="evenodd" d="M22.6451 6.41867C22.5948 6.39274 22.7136 6.3562 22.7388 6.37034C22.7891 6.39627 22.6702 6.43281 22.6451 6.41867Z" fill="white"/>
<path fill-rule="evenodd" clip-rule="evenodd" d="M17.7896 6.51242C17.7393 6.48649 17.8582 6.44995 17.8856 6.46409C17.9336 6.49002 17.817 6.52656 17.7896 6.51242Z" fill="white"/>
<path fill-rule="evenodd" clip-rule="evenodd" d="M1.31641 6.56305C1.33469 6.50765 1.4124 6.53594 1.4124 6.56305C1.39411 6.61963 1.31641 6.59016 1.31641 6.56305Z" fill="white"/>
<path fill-rule="evenodd" clip-rule="evenodd" d="M14.3619 6.56002C14.3116 6.53409 14.4304 6.49755 14.4579 6.51051C14.5081 6.53645 14.3893 6.57299 14.3619 6.56002Z" fill="white"/>
<path fill-rule="evenodd" clip-rule="evenodd" d="M4.45898 6.61383C4.47727 6.55843 4.55497 6.58672 4.55497 6.61383C4.53669 6.66923 4.45898 6.64095 4.45898 6.61383Z" fill="white"/>
<path fill-rule="evenodd" clip-rule="evenodd" d="M15.2173 6.66476C15.1671 6.63883 15.2859 6.60229 15.3133 6.61643C15.3636 6.64237 15.2448 6.67891 15.2173 6.66476Z" fill="white"/>
<path fill-rule="evenodd" clip-rule="evenodd" d="M17.4107 6.66476C17.3604 6.63883 17.4793 6.60229 17.5044 6.61643C17.5547 6.64237 17.4358 6.67891 17.4107 6.66476Z" fill="white"/>
<path fill-rule="evenodd" clip-rule="evenodd" d="M21.8848 6.75927C21.8871 6.71094 22.0013 6.72155 22.0745 6.71094C22.0722 6.75809 21.9579 6.74866 21.8848 6.75927Z" fill="white"/>
<path fill-rule="evenodd" clip-rule="evenodd" d="M16.5513 6.8569C16.501 6.83096 16.6199 6.79442 16.6473 6.80739C16.6976 6.83332 16.5787 6.86986 16.5513 6.8569Z" fill="white"/>
<path fill-rule="evenodd" clip-rule="evenodd" d="M4.93359 6.90885C4.95645 6.84756 5.12329 6.85935 5.12329 6.90885C5.03873 6.9395 4.95416 6.96779 4.93359 6.90885Z" fill="white"/>
<path fill-rule="evenodd" clip-rule="evenodd" d="M13.7896 6.90377C13.7393 6.87784 13.8582 6.8413 13.8856 6.85426C13.9359 6.8802 13.817 6.91674 13.7896 6.90377Z" fill="white"/>
<path fill-rule="evenodd" clip-rule="evenodd" d="M4.45757 7.00461C4.40729 6.97867 4.52614 6.94213 4.55356 6.95628C4.60156 6.98221 4.485 7.01875 4.45757 7.00461Z" fill="white"/>
<path fill-rule="evenodd" clip-rule="evenodd" d="M10.2681 7.05221C10.2179 7.02628 10.3367 6.98974 10.3618 7.0027C10.4121 7.02863 10.2933 7.06518 10.2681 7.05221Z" fill="white"/>
<path fill-rule="evenodd" clip-rule="evenodd" d="M17.313 7.05221C17.2628 7.02628 17.3816 6.98974 17.409 7.0027C17.457 7.02863 17.3405 7.06518 17.313 7.05221Z" fill="white"/>
<path fill-rule="evenodd" clip-rule="evenodd" d="M18.7422 7.05524C18.7605 6.99984 18.8382 7.02813 18.8382 7.05524C18.8199 7.11182 18.7422 7.08235 18.7422 7.05524Z" fill="white"/>
<path fill-rule="evenodd" clip-rule="evenodd" d="M13.6002 7.10299C13.5499 7.07706 13.6687 7.04052 13.6939 7.05348C13.7441 7.07941 13.6253 7.11595 13.6002 7.10299Z" fill="white"/>
<path fill-rule="evenodd" clip-rule="evenodd" d="M15.7896 7.10299C15.7393 7.07706 15.8582 7.04052 15.8856 7.05348C15.9359 7.07941 15.817 7.11595 15.7896 7.10299Z" fill="white"/>
<path fill-rule="evenodd" clip-rule="evenodd" d="M4.45757 7.15304C4.40729 7.12711 4.52614 7.09057 4.55356 7.10472C4.60156 7.13065 4.485 7.16719 4.45757 7.15304Z" fill="white"/>
<path fill-rule="evenodd" clip-rule="evenodd" d="M16.9322 7.15304C16.8819 7.12711 17.0008 7.09057 17.0259 7.10472C17.0762 7.13065 16.9573 7.16719 16.9322 7.15304Z" fill="white"/>
<path fill-rule="evenodd" clip-rule="evenodd" d="M19.4068 7.20065C19.3565 7.17471 19.4754 7.13817 19.5028 7.15114C19.5531 7.17707 19.4342 7.21361 19.4068 7.20065Z" fill="white"/>
<path fill-rule="evenodd" clip-rule="evenodd" d="M2.07617 7.25055C2.09446 7.19515 2.17216 7.22344 2.17216 7.25055C2.15388 7.30595 2.07617 7.27766 2.07617 7.25055Z" fill="white"/>
<path fill-rule="evenodd" clip-rule="evenodd" d="M5.02985 7.2983C4.97957 7.27237 5.09841 7.23583 5.12355 7.24879C5.17383 7.27473 5.05499 7.31127 5.02985 7.2983Z" fill="white"/>
<path fill-rule="evenodd" clip-rule="evenodd" d="M5.50446 7.2983C5.45418 7.27237 5.57302 7.23583 5.59816 7.24879C5.64844 7.27473 5.5296 7.31127 5.50446 7.2983Z" fill="white"/>
<path fill-rule="evenodd" clip-rule="evenodd" d="M13.313 7.2983C13.2628 7.27237 13.3816 7.23583 13.409 7.24879C13.4593 7.27473 13.3405 7.31127 13.313 7.2983Z" fill="white"/>
<path fill-rule="evenodd" clip-rule="evenodd" d="M19.9791 7.34908C19.9288 7.32315 20.0476 7.28661 20.075 7.29958C20.1253 7.32551 20.0065 7.36205 19.9791 7.34908Z" fill="white"/>
<path fill-rule="evenodd" clip-rule="evenodd" d="M5.31445 7.39508C5.33274 7.33968 5.41044 7.36797 5.41044 7.39508C5.39216 7.45048 5.31445 7.4222 5.31445 7.39508Z" fill="white"/>
<path fill-rule="evenodd" clip-rule="evenodd" d="M12.1724 7.39523C12.1221 7.3693 12.241 7.33276 12.2661 7.3469C12.3164 7.37283 12.1976 7.40938 12.1724 7.39523Z" fill="white"/>
<path fill-rule="evenodd" clip-rule="evenodd" d="M21.0279 7.39523C20.9776 7.3693 21.0964 7.33276 21.1239 7.3469C21.1742 7.37283 21.0553 7.40938 21.0279 7.39523Z" fill="white"/>
<path fill-rule="evenodd" clip-rule="evenodd" d="M3.21929 7.44283C3.16901 7.4169 3.28786 7.38036 3.31528 7.39333C3.36556 7.41926 3.24672 7.4558 3.21929 7.44283Z" fill="white"/>
<path fill-rule="evenodd" clip-rule="evenodd" d="M10.647 7.44283C10.5967 7.4169 10.7156 7.38036 10.743 7.39333C10.791 7.41926 10.6745 7.4558 10.647 7.44283Z" fill="white"/>
<path fill-rule="evenodd" clip-rule="evenodd" d="M11.4087 7.44283C11.3585 7.4169 11.4773 7.38036 11.5047 7.39333C11.555 7.41926 11.4362 7.4558 11.4087 7.44283Z" fill="white"/>
<path fill-rule="evenodd" clip-rule="evenodd" d="M16.7427 7.54439C16.6924 7.51846 16.8113 7.48192 16.8387 7.49489C16.889 7.52082 16.7702 7.55736 16.7427 7.54439Z" fill="white"/>
<path fill-rule="evenodd" clip-rule="evenodd" d="M22.4556 7.54439C22.4053 7.51846 22.5242 7.48192 22.5516 7.49489C22.6019 7.52082 22.483 7.55736 22.4556 7.54439Z" fill="white"/>
<path fill-rule="evenodd" clip-rule="evenodd" d="M16.1719 7.59638C16.1742 7.54806 16.2884 7.55748 16.3616 7.54688C16.3593 7.5952 16.245 7.58577 16.1719 7.59638Z" fill="white"/>
<path fill-rule="evenodd" clip-rule="evenodd" d="M2.64899 7.64205C2.59871 7.61612 2.71755 7.57958 2.74269 7.59254C2.79297 7.61848 2.67413 7.65502 2.64899 7.64205Z" fill="white"/>
<path fill-rule="evenodd" clip-rule="evenodd" d="M9.97906 7.64205C9.92878 7.61612 10.0476 7.57958 10.075 7.59254C10.1253 7.61848 10.0065 7.65502 9.97906 7.64205Z" fill="white"/>
<path fill-rule="evenodd" clip-rule="evenodd" d="M5.98298 7.69283C5.93269 7.6669 6.05154 7.63036 6.07668 7.64333C6.12696 7.66926 6.00812 7.7058 5.98298 7.69283Z" fill="white"/>
<path fill-rule="evenodd" clip-rule="evenodd" d="M22.1705 7.69283C22.1202 7.6669 22.239 7.63036 22.2642 7.64333C22.3145 7.66926 22.1956 7.7058 22.1705 7.69283Z" fill="white"/>
<path fill-rule="evenodd" clip-rule="evenodd" d="M5.6939 7.74289C5.64362 7.71696 5.76246 7.68041 5.78989 7.69456C5.84017 7.72049 5.72133 7.75703 5.6939 7.74289Z" fill="white"/>
<path fill-rule="evenodd" clip-rule="evenodd" d="M21.2174 7.74289C21.1671 7.71696 21.2859 7.68041 21.3111 7.69456C21.3613 7.72049 21.2425 7.75703 21.2174 7.74289Z" fill="white"/>
<path fill-rule="evenodd" clip-rule="evenodd" d="M13.3145 7.93465C13.3327 7.87807 13.4104 7.90754 13.4104 7.93465C13.3922 7.99005 13.3145 7.96176 13.3145 7.93465Z" fill="white"/>
<path fill-rule="evenodd" clip-rule="evenodd" d="M5.88726 7.98507C5.83698 7.95914 5.95582 7.9226 5.98325 7.93675C6.03124 7.96268 5.91469 7.99922 5.88726 7.98507Z" fill="white"/>
<path fill-rule="evenodd" clip-rule="evenodd" d="M18.8384 7.98507C18.7882 7.95914 18.907 7.9226 18.9321 7.93675C18.9824 7.96268 18.8636 7.99922 18.8384 7.98507Z" fill="white"/>
<path fill-rule="evenodd" clip-rule="evenodd" d="M19.3131 7.98507C19.2628 7.95914 19.3816 7.9226 19.4068 7.93675C19.457 7.96268 19.3382 7.99922 19.3131 7.98507Z" fill="white"/>
<path fill-rule="evenodd" clip-rule="evenodd" d="M15.981 8.03658C15.9307 8.01065 16.0496 7.97411 16.0747 7.98708C16.125 8.01301 16.0062 8.04955 15.981 8.03658Z" fill="white"/>
<path fill-rule="evenodd" clip-rule="evenodd" d="M23.7877 8.03658C23.7374 8.01065 23.8562 7.97411 23.8836 7.98708C23.9339 8.01301 23.8151 8.04955 23.7877 8.03658Z" fill="white"/>
<path fill-rule="evenodd" clip-rule="evenodd" d="M4.45757 8.13351C4.40729 8.10758 4.52614 8.07104 4.55356 8.08518C4.60156 8.11112 4.485 8.14766 4.45757 8.13351Z" fill="white"/>
<path fill-rule="evenodd" clip-rule="evenodd" d="M5.79102 8.23047H5.98071V8.3283H5.79102V8.23047Z" fill="white"/>
<path fill-rule="evenodd" clip-rule="evenodd" d="M7.88532 8.27877C7.83504 8.25284 7.95388 8.2163 7.97902 8.22926C8.0293 8.2552 7.91046 8.29173 7.88532 8.27877Z" fill="white"/>
<path fill-rule="evenodd" clip-rule="evenodd" d="M1.31499 8.33346C1.26471 8.30753 1.38356 8.27099 1.41098 8.28395C1.46126 8.30988 1.34242 8.34643 1.31499 8.33346Z" fill="white"/>
<path fill-rule="evenodd" clip-rule="evenodd" d="M11.125 8.32868C11.1433 8.27328 11.221 8.30157 11.221 8.32868C11.2027 8.38408 11.125 8.35579 11.125 8.32868Z" fill="white"/>
<path fill-rule="evenodd" clip-rule="evenodd" d="M22.0748 8.33346C22.0245 8.30753 22.1433 8.27099 22.1707 8.28395C22.2187 8.30988 22.1022 8.34643 22.0748 8.33346Z" fill="white"/>
<path fill-rule="evenodd" clip-rule="evenodd" d="M3.21929 8.38033C3.16901 8.3544 3.28786 8.31786 3.31528 8.33083C3.36556 8.35676 3.24672 8.3933 3.21929 8.38033Z" fill="white"/>
<path fill-rule="evenodd" clip-rule="evenodd" d="M19.9791 8.38033C19.9288 8.3544 20.0476 8.31786 20.075 8.33083C20.1253 8.35676 20.0065 8.3933 19.9791 8.38033Z" fill="white"/>
<path fill-rule="evenodd" clip-rule="evenodd" d="M4.74273 8.42721C4.69245 8.40127 4.81129 8.36474 4.83872 8.3777C4.889 8.40363 4.77015 8.44017 4.74273 8.42721Z" fill="white"/>
<path fill-rule="evenodd" clip-rule="evenodd" d="M12.5533 8.42721C12.503 8.40127 12.6218 8.36474 12.6493 8.3777C12.6973 8.40363 12.5807 8.44017 12.5533 8.42721Z" fill="white"/>
<path fill-rule="evenodd" clip-rule="evenodd" d="M14.647 8.47726C14.5967 8.45133 14.7156 8.41479 14.743 8.42893C14.7933 8.45487 14.6745 8.49141 14.647 8.47726Z" fill="white"/>
<path fill-rule="evenodd" clip-rule="evenodd" d="M13.1236 8.52877C13.0733 8.50284 13.1922 8.4663 13.2173 8.47926C13.2676 8.5052 13.1487 8.54174 13.1236 8.52877Z" fill="white"/>
<path fill-rule="evenodd" clip-rule="evenodd" d="M6.64703 8.6257C6.59675 8.59977 6.71559 8.56323 6.74302 8.57737C6.7933 8.6033 6.67445 8.63984 6.64703 8.6257Z" fill="white"/>
<path fill-rule="evenodd" clip-rule="evenodd" d="M11.2188 8.62946C11.2371 8.57406 11.3148 8.60235 11.3125 8.62946C11.2942 8.68486 11.2165 8.65657 11.2188 8.62946Z" fill="white"/>
<path fill-rule="evenodd" clip-rule="evenodd" d="M6.84039 8.77096C6.79011 8.74503 6.90895 8.70849 6.93637 8.72145C6.98437 8.74738 6.86781 8.78393 6.84039 8.77096Z" fill="white"/>
<path fill-rule="evenodd" clip-rule="evenodd" d="M12.8365 8.77096C12.7862 8.74503 12.905 8.70849 12.9325 8.72145C12.9827 8.74738 12.8639 8.78393 12.8365 8.77096Z" fill="white"/>
<path fill-rule="evenodd" clip-rule="evenodd" d="M16.2662 8.82174C16.2159 8.79581 16.3347 8.75927 16.3622 8.77223C16.4124 8.79816 16.2936 8.83471 16.2662 8.82174Z" fill="white"/>
<path fill-rule="evenodd" clip-rule="evenodd" d="M8.17242 9.11471C8.12214 9.08878 8.24098 9.05224 8.26841 9.0652C8.31869 9.09113 8.19984 9.12768 8.17242 9.11471Z" fill="white"/>
<path fill-rule="evenodd" clip-rule="evenodd" d="M3.79102 9.21149C3.8093 9.15609 3.88701 9.18438 3.88701 9.21149C3.86872 9.26689 3.79102 9.2386 3.79102 9.21149Z" fill="white"/>
<path fill-rule="evenodd" clip-rule="evenodd" d="M23.0273 9.31218C23.0685 9.24028 23.1119 9.3169 23.217 9.31218C23.1942 9.37348 23.0273 9.36169 23.0273 9.31218Z" fill="white"/>
<path fill-rule="evenodd" clip-rule="evenodd" d="M6.84039 9.36398C6.79011 9.33805 6.90895 9.30151 6.93637 9.31565C6.98437 9.34158 6.86781 9.37813 6.84039 9.36398Z" fill="white"/>
<path fill-rule="evenodd" clip-rule="evenodd" d="M11.5044 9.36398C11.4542 9.33805 11.573 9.30151 11.6004 9.31565C11.6507 9.34158 11.5319 9.37813 11.5044 9.36398Z" fill="white"/>
<path fill-rule="evenodd" clip-rule="evenodd" d="M14.8384 9.36398C14.7882 9.33805 14.907 9.30151 14.9344 9.31565C14.9847 9.34158 14.8659 9.37813 14.8384 9.36398Z" fill="white"/>
<path fill-rule="evenodd" clip-rule="evenodd" d="M12.5533 9.41158C12.503 9.38565 12.6218 9.34911 12.6493 9.36208C12.6973 9.38801 12.5807 9.42455 12.5533 9.41158Z" fill="white"/>
<path fill-rule="evenodd" clip-rule="evenodd" d="M11.2193 9.50924C11.169 9.48331 11.2879 9.44677 11.313 9.45973C11.3633 9.48566 11.2444 9.52221 11.2193 9.50924Z" fill="white"/>
<path fill-rule="evenodd" clip-rule="evenodd" d="M3.98296 9.56002C3.93268 9.53409 4.05153 9.49755 4.07895 9.51051C4.12695 9.53645 4.01039 9.57299 3.98296 9.56002Z" fill="white"/>
<path fill-rule="evenodd" clip-rule="evenodd" d="M5.02985 9.56002C4.97957 9.53409 5.09841 9.49755 5.12355 9.51051C5.17383 9.53645 5.05499 9.57299 5.02985 9.56002Z" fill="white"/>
<path fill-rule="evenodd" clip-rule="evenodd" d="M6.45758 9.56002C6.4073 9.53409 6.52615 9.49755 6.55129 9.51051C6.60157 9.53645 6.48272 9.57299 6.45758 9.56002Z" fill="white"/>
<path fill-rule="evenodd" clip-rule="evenodd" d="M8.36188 9.60617C8.3116 9.58024 8.43044 9.5437 8.45558 9.55784C8.50586 9.58377 8.38702 9.62031 8.36188 9.60617Z" fill="white"/>
<path fill-rule="evenodd" clip-rule="evenodd" d="M15.6934 9.75446C15.7116 9.69906 15.7893 9.72735 15.7893 9.75446C15.7711 9.81104 15.6934 9.78157 15.6934 9.75446Z" fill="white"/>
<path fill-rule="evenodd" clip-rule="evenodd" d="M11.0295 9.85156C11.2672 9.8716 11.0341 10.0425 10.8398 9.9989C10.8741 9.93407 11.0067 9.92111 11.0295 9.85156Z" fill="white"/>
<path fill-rule="evenodd" clip-rule="evenodd" d="M8.64703 9.95382C8.59675 9.92789 8.71559 9.89135 8.74302 9.9055C8.7933 9.93143 8.67445 9.96797 8.64703 9.95382Z" fill="white"/>
<path fill-rule="evenodd" clip-rule="evenodd" d="M17.5039 9.95368C17.5222 9.89828 17.5999 9.92657 17.5999 9.95368C17.5816 10.0091 17.5039 9.98079 17.5039 9.95368Z" fill="white"/>
<path fill-rule="evenodd" clip-rule="evenodd" d="M12.3619 9.99752C12.3116 9.97159 12.4304 9.93505 12.4579 9.94801C12.5081 9.97395 12.3893 10.0105 12.3619 9.99752Z" fill="white"/>
<path fill-rule="evenodd" clip-rule="evenodd" d="M1.79156 10.0483C1.74128 10.0224 1.86012 9.98583 1.88755 9.9988C1.93783 10.0247 1.81898 10.0613 1.79156 10.0483Z" fill="white"/>
<path fill-rule="evenodd" clip-rule="evenodd" d="M1.50445 10.0984C1.45417 10.0724 1.57301 10.0359 1.60044 10.05C1.65072 10.076 1.53187 10.1125 1.50445 10.0984Z" fill="white"/>
<path fill-rule="evenodd" clip-rule="evenodd" d="M11.7891 10.1959C11.8073 10.1405 11.8851 10.1688 11.8851 10.1959C11.8668 10.2513 11.7891 10.223 11.7891 10.1959Z" fill="white"/>
<path fill-rule="evenodd" clip-rule="evenodd" d="M5.4107 10.2475C5.36042 10.2216 5.47926 10.185 5.50669 10.198C5.55468 10.2239 5.43812 10.2605 5.4107 10.2475Z" fill="white"/>
<path fill-rule="evenodd" clip-rule="evenodd" d="M17.9791 10.2944C17.9288 10.2685 18.0476 10.2319 18.075 10.2449C18.1253 10.2708 18.0065 10.3074 17.9791 10.2944Z" fill="white"/>
<path fill-rule="evenodd" clip-rule="evenodd" d="M9.31501 10.3444C9.26473 10.3185 9.38357 10.282 9.40871 10.2961C9.45899 10.3221 9.34015 10.3586 9.31501 10.3444Z" fill="white"/>
<path fill-rule="evenodd" clip-rule="evenodd" d="M15.6002 10.3444C15.5499 10.3185 15.6687 10.282 15.6961 10.2961C15.7464 10.3221 15.6276 10.3586 15.6002 10.3444Z" fill="white"/>
<path fill-rule="evenodd" clip-rule="evenodd" d="M21.0279 10.3444C20.9776 10.3185 21.0964 10.282 21.1239 10.2961C21.1742 10.3221 21.0553 10.3586 21.0279 10.3444Z" fill="white"/>
<path fill-rule="evenodd" clip-rule="evenodd" d="M16.1705 10.396C16.1202 10.37 16.239 10.3335 16.2665 10.3465C16.3167 10.3724 16.1979 10.4089 16.1705 10.396Z" fill="white"/>
<path fill-rule="evenodd" clip-rule="evenodd" d="M6.07671 10.4421C6.02643 10.4162 6.14528 10.3796 6.1727 10.3938C6.22298 10.4197 6.10414 10.4563 6.07671 10.4421Z" fill="white"/>
<path fill-rule="evenodd" clip-rule="evenodd" d="M3.6939 10.4936C3.64362 10.4677 3.76246 10.4311 3.78989 10.4441C3.84017 10.47 3.72133 10.5066 3.6939 10.4936Z" fill="white"/>
<path fill-rule="evenodd" clip-rule="evenodd" d="M15.7896 10.4936C15.7393 10.4677 15.8582 10.4311 15.8856 10.4441C15.9359 10.47 15.817 10.5066 15.7896 10.4936Z" fill="white"/>
<path fill-rule="evenodd" clip-rule="evenodd" d="M19.8848 10.4909C19.9076 10.4296 20.0745 10.4414 20.0745 10.4909C19.9899 10.5215 19.9053 10.5498 19.8848 10.4909Z" fill="white"/>
<path fill-rule="evenodd" clip-rule="evenodd" d="M5.60015 10.6381C5.54987 10.6122 5.66871 10.5757 5.69614 10.5886C5.74642 10.6146 5.62758 10.6511 5.60015 10.6381Z" fill="white"/>
<path fill-rule="evenodd" clip-rule="evenodd" d="M9.88531 10.6381C9.83503 10.6122 9.95387 10.5757 9.9813 10.5886C10.0316 10.6146 9.91273 10.6511 9.88531 10.6381Z" fill="white"/>
<path fill-rule="evenodd" clip-rule="evenodd" d="M4.17216 10.7355C4.22244 10.6601 4.27272 10.7332 4.26815 10.785C4.21787 10.8605 4.16759 10.7874 4.17216 10.7355Z" fill="white"/>
<path fill-rule="evenodd" clip-rule="evenodd" d="M23.0279 10.7397C22.9776 10.7138 23.0964 10.6772 23.1239 10.6902C23.1719 10.7161 23.0553 10.7527 23.0279 10.7397Z" fill="white"/>
<path fill-rule="evenodd" clip-rule="evenodd" d="M8.55132 10.8327C8.50104 10.8068 8.61989 10.7703 8.64731 10.7844C8.69759 10.8103 8.57875 10.8469 8.55132 10.8327Z" fill="white"/>
<path fill-rule="evenodd" clip-rule="evenodd" d="M5.31499 10.8842C5.26471 10.8583 5.38356 10.8218 5.41098 10.8347C5.46126 10.8607 5.34242 10.8972 5.31499 10.8842Z" fill="white"/>
<path fill-rule="evenodd" clip-rule="evenodd" d="M15.2173 10.8842C15.1671 10.8583 15.2859 10.8218 15.3133 10.8347C15.3636 10.8607 15.2448 10.8972 15.2173 10.8842Z" fill="white"/>
<path fill-rule="evenodd" clip-rule="evenodd" d="M15.6002 10.8842C15.5499 10.8583 15.6687 10.8218 15.6961 10.8347C15.7464 10.8607 15.6276 10.8972 15.6002 10.8842Z" fill="white"/>
<path fill-rule="evenodd" clip-rule="evenodd" d="M22.8345 10.9343C22.7842 10.9084 22.9031 10.8718 22.9305 10.886C22.9808 10.9119 22.862 10.9484 22.8345 10.9343Z" fill="white"/>
<path fill-rule="evenodd" clip-rule="evenodd" d="M5.6939 10.9819C5.64362 10.956 5.76246 10.9194 5.78989 10.9324C5.84017 10.9583 5.72133 10.9949 5.6939 10.9819Z" fill="white"/>
<path fill-rule="evenodd" clip-rule="evenodd" d="M14.5533 11.0827C14.503 11.0568 14.6219 11.0203 14.647 11.0344C14.6973 11.0603 14.5784 11.0969 14.5533 11.0827Z" fill="white"/>
<path fill-rule="evenodd" clip-rule="evenodd" d="M6.26812 11.1765C6.21784 11.1505 6.33668 11.114 6.36411 11.1282C6.41439 11.1541 6.29555 11.1906 6.26812 11.1765Z" fill="white"/>
<path fill-rule="evenodd" clip-rule="evenodd" d="M19.7896 11.1765C19.7393 11.1505 19.8582 11.114 19.8833 11.1282C19.9336 11.1541 19.8148 11.1906 19.7896 11.1765Z" fill="white"/>
<path fill-rule="evenodd" clip-rule="evenodd" d="M22.9302 11.228C22.8799 11.2021 22.9988 11.1655 23.0262 11.1785C23.0765 11.2044 22.9577 11.241 22.9302 11.228Z" fill="white"/>
<path fill-rule="evenodd" clip-rule="evenodd" d="M8.07671 11.2788C8.02643 11.2528 8.14528 11.2163 8.1727 11.2293C8.22298 11.2552 8.10414 11.2917 8.07671 11.2788Z" fill="white"/>
<path fill-rule="evenodd" clip-rule="evenodd" d="M4.45757 11.3725C4.40729 11.3466 4.52614 11.31 4.55356 11.323C4.60156 11.3489 4.485 11.3855 4.45757 11.3725Z" fill="white"/>
<path fill-rule="evenodd" clip-rule="evenodd" d="M13.6002 11.4265C13.5499 11.4005 13.6687 11.364 13.6939 11.3782C13.7441 11.4041 13.6253 11.4406 13.6002 11.4265Z" fill="white"/>
<path fill-rule="evenodd" clip-rule="evenodd" d="M18.8384 11.4265C18.7882 11.4005 18.907 11.364 18.9321 11.3782C18.9824 11.4041 18.8636 11.4406 18.8384 11.4265Z" fill="white"/>
<path fill-rule="evenodd" clip-rule="evenodd" d="M7.88677 11.4732C7.90505 11.4178 7.98276 11.4461 7.98047 11.4732C7.96219 11.5298 7.88448 11.5003 7.88677 11.4732Z" fill="white"/>
<path fill-rule="evenodd" clip-rule="evenodd" d="M6.84039 11.5249C6.79011 11.4989 6.90895 11.4624 6.93637 11.4754C6.98437 11.5013 6.86781 11.5378 6.84039 11.5249Z" fill="white"/>
<path fill-rule="evenodd" clip-rule="evenodd" d="M8.07671 11.5249C8.02643 11.4989 8.14528 11.4624 8.1727 11.4754C8.22298 11.5013 8.10414 11.5378 8.07671 11.5249Z" fill="white"/>
<path fill-rule="evenodd" clip-rule="evenodd" d="M11.981 11.5249C11.9307 11.4989 12.0496 11.4624 12.077 11.4754C12.1273 11.5013 12.0084 11.5378 11.981 11.5249Z" fill="white"/>
<path fill-rule="evenodd" clip-rule="evenodd" d="M4.64844 11.5234H4.93412C4.96154 11.6024 4.84499 11.6083 4.83813 11.6708H4.64844V11.5234Z" fill="white"/>
<path fill-rule="evenodd" clip-rule="evenodd" d="M19.5025 11.5749C19.4522 11.549 19.5711 11.5124 19.5985 11.5266C19.6488 11.5525 19.5299 11.5891 19.5025 11.5749Z" fill="white"/>
<path fill-rule="evenodd" clip-rule="evenodd" d="M3.21929 11.6186C3.16901 11.5927 3.28786 11.5561 3.31528 11.5691C3.36556 11.595 3.24672 11.6316 3.21929 11.6186Z" fill="white"/>
<path fill-rule="evenodd" clip-rule="evenodd" d="M8.74273 11.6186C8.69245 11.5927 8.81129 11.5561 8.83872 11.5691C8.88671 11.595 8.77015 11.6316 8.74273 11.6186Z" fill="white"/>
<path fill-rule="evenodd" clip-rule="evenodd" d="M2.17243 11.6687C2.12215 11.6427 2.24099 11.6062 2.26613 11.6203C2.31641 11.6463 2.19757 11.6828 2.17243 11.6687Z" fill="white"/>
<path fill-rule="evenodd" clip-rule="evenodd" d="M5.60015 11.6687C5.54987 11.6427 5.66871 11.6062 5.69614 11.6203C5.74642 11.6463 5.62758 11.6828 5.60015 11.6687Z" fill="white"/>
<path fill-rule="evenodd" clip-rule="evenodd" d="M20.3599 11.6687C20.3096 11.6427 20.4285 11.6062 20.4559 11.6203C20.5062 11.6463 20.3873 11.6828 20.3599 11.6687Z" fill="white"/>
<path fill-rule="evenodd" clip-rule="evenodd" d="M4.17242 11.7671C4.12214 11.7411 4.24098 11.7046 4.26841 11.7175C4.31869 11.7435 4.19984 11.78 4.17242 11.7671Z" fill="white"/>
<path fill-rule="evenodd" clip-rule="evenodd" d="M18.8384 11.7671C18.7882 11.7411 18.907 11.7046 18.9321 11.7175C18.9824 11.7435 18.8636 11.78 18.8384 11.7671Z" fill="white"/>
<path fill-rule="evenodd" clip-rule="evenodd" d="M22.9302 11.8171C22.8799 11.7912 22.9988 11.7546 23.0262 11.7688C23.0765 11.7947 22.9577 11.8313 22.9302 11.8171Z" fill="white"/>
<path fill-rule="evenodd" clip-rule="evenodd" d="M10.8365 11.8647C10.7862 11.8388 10.905 11.8022 10.9325 11.8152C10.9827 11.8411 10.8639 11.8777 10.8365 11.8647Z" fill="white"/>
<path fill-rule="evenodd" clip-rule="evenodd" d="M21.981 11.8647C21.9307 11.8388 22.0496 11.8022 22.077 11.8152C22.1273 11.8411 22.0084 11.8777 21.981 11.8647Z" fill="white"/>
<path fill-rule="evenodd" clip-rule="evenodd" d="M12.2662 11.9187C12.2159 11.8927 12.3347 11.8562 12.3622 11.8703C12.4124 11.8963 12.2936 11.9328 12.2662 11.9187Z" fill="white"/>
<path fill-rule="evenodd" clip-rule="evenodd" d="M16.9318 11.8672C17.2518 11.8825 17.3112 12.031 17.4072 12.1619C17.3226 12.1831 17.2358 12.2055 17.2175 12.2597C17.1307 12.1289 16.6781 12.0216 16.9318 11.8672Z" fill="white"/>
<path fill-rule="evenodd" clip-rule="evenodd" d="M2.17243 11.9663C2.12215 11.9403 2.24099 11.9038 2.26613 11.9168C2.31641 11.9427 2.19757 11.9792 2.17243 11.9663Z" fill="white"/>
<path fill-rule="evenodd" clip-rule="evenodd" d="M6.26812 12.0131C6.21784 11.9872 6.33668 11.9507 6.36411 11.9636C6.41439 11.9896 6.29555 12.0261 6.26812 12.0131Z" fill="white"/>
<path fill-rule="evenodd" clip-rule="evenodd" d="M17.9791 12.0131C17.9288 11.9872 18.0476 11.9507 18.075 11.9636C18.1253 11.9896 18.0065 12.0261 17.9791 12.0131Z" fill="white"/>
<path fill-rule="evenodd" clip-rule="evenodd" d="M9.97906 12.06C9.92878 12.0341 10.0476 11.9975 10.075 12.0105C10.1253 12.0364 10.0065 12.073 9.97906 12.06Z" fill="white"/>
<path fill-rule="evenodd" clip-rule="evenodd" d="M11.1255 12.06C11.0753 12.0341 11.1941 11.9975 11.2215 12.0105C11.2695 12.0364 11.153 12.073 11.1255 12.06Z" fill="white"/>
<path fill-rule="evenodd" clip-rule="evenodd" d="M10.1724 12.1069C10.1221 12.081 10.241 12.0444 10.2684 12.0574C10.3164 12.0833 10.1998 12.1199 10.1724 12.1069Z" fill="white"/>
<path fill-rule="evenodd" clip-rule="evenodd" d="M4.17242 12.1609C4.12214 12.1349 4.24098 12.0984 4.26841 12.1125C4.31869 12.1385 4.19984 12.175 4.17242 12.1609Z" fill="white"/>
<path fill-rule="evenodd" clip-rule="evenodd" d="M23.1235 12.1641C23.576 12.1876 23.0092 12.3963 23.1235 12.5566C22.8332 12.4658 23.2332 12.3232 23.1235 12.1641Z" fill="white"/>
<path fill-rule="evenodd" clip-rule="evenodd" d="M16.7422 12.2109H16.9319V12.3088H16.7422V12.2109Z" fill="white"/>
<path fill-rule="evenodd" clip-rule="evenodd" d="M22.9302 12.2592C22.8799 12.2333 22.9988 12.1968 23.0262 12.2097C23.0765 12.2357 22.9577 12.2722 22.9302 12.2592Z" fill="white"/>
<path fill-rule="evenodd" clip-rule="evenodd" d="M5.12359 12.3054C5.07331 12.2795 5.19215 12.2429 5.21958 12.2571C5.26986 12.283 5.15101 12.3195 5.12359 12.3054Z" fill="white"/>
<path fill-rule="evenodd" clip-rule="evenodd" d="M2.64899 12.3569C2.59871 12.331 2.71755 12.2944 2.74269 12.3074C2.79297 12.3333 2.67413 12.3699 2.64899 12.3569Z" fill="white"/>
<path fill-rule="evenodd" clip-rule="evenodd" d="M11.8853 12.3569C11.835 12.331 11.9539 12.2944 11.9813 12.3074C12.0316 12.3333 11.9127 12.3699 11.8853 12.3569Z" fill="white"/>
<path fill-rule="evenodd" clip-rule="evenodd" d="M5.98298 12.4069C5.93269 12.381 6.05154 12.3445 6.07668 12.3586C6.12696 12.3846 6.00812 12.4211 5.98298 12.4069Z" fill="white"/>
<path fill-rule="evenodd" clip-rule="evenodd" d="M1.40874 12.4585C1.35846 12.4325 1.47731 12.396 1.50473 12.409C1.55501 12.4349 1.43617 12.4714 1.40874 12.4585Z" fill="white"/>
<path fill-rule="evenodd" clip-rule="evenodd" d="M11.4087 12.5014C11.3585 12.4755 11.4773 12.439 11.5047 12.4519C11.555 12.4779 11.4362 12.5144 11.4087 12.5014Z" fill="white"/>
<path fill-rule="evenodd" clip-rule="evenodd" d="M11.981 12.5515C11.9307 12.5255 12.0496 12.489 12.077 12.5032C12.1273 12.5291 12.0084 12.5656 11.981 12.5515Z" fill="white"/>
<path fill-rule="evenodd" clip-rule="evenodd" d="M13.7891 12.5544C13.8302 12.4825 13.8736 12.5591 13.9788 12.5544C13.9559 12.6157 13.7891 12.6039 13.7891 12.5544Z" fill="white"/>
<path fill-rule="evenodd" clip-rule="evenodd" d="M10.4576 12.603C10.4073 12.5771 10.5261 12.5405 10.5536 12.5535C10.6038 12.5794 10.485 12.616 10.4576 12.603Z" fill="white"/>
<path fill-rule="evenodd" clip-rule="evenodd" d="M11.6002 12.603C11.5499 12.5771 11.6687 12.5405 11.6961 12.5535C11.7441 12.5794 11.6276 12.616 11.6002 12.603Z" fill="white"/>
<path fill-rule="evenodd" clip-rule="evenodd" d="M16.9316 12.6499C16.9316 12.6016 17.0482 12.6122 17.1213 12.6016C17.1213 12.6487 17.0048 12.6393 16.9316 12.6499Z" fill="white"/>
<path fill-rule="evenodd" clip-rule="evenodd" d="M22.5527 12.6529C22.571 12.5975 22.6487 12.6258 22.6487 12.6529C22.6304 12.7083 22.5527 12.68 22.5527 12.6529Z" fill="white"/>
<path fill-rule="evenodd" clip-rule="evenodd" d="M11.0279 12.7045C10.9776 12.6786 11.0964 12.6421 11.1239 12.655C11.1742 12.681 11.0553 12.7175 11.0279 12.7045Z" fill="white"/>
<path fill-rule="evenodd" clip-rule="evenodd" d="M11.7896 12.7514C11.7393 12.7255 11.8582 12.689 11.8856 12.7019C11.9359 12.7279 11.817 12.7644 11.7896 12.7514Z" fill="white"/>
<path fill-rule="evenodd" clip-rule="evenodd" d="M10.5533 12.7983C10.503 12.7724 10.6218 12.7358 10.6493 12.7488C10.6995 12.7747 10.5807 12.8113 10.5533 12.7983Z" fill="white"/>
<path fill-rule="evenodd" clip-rule="evenodd" d="M3.12555 12.8491C3.07527 12.8231 3.19412 12.7866 3.21926 12.7996C3.26954 12.8255 3.15069 12.862 3.12555 12.8491Z" fill="white"/>
<path fill-rule="evenodd" clip-rule="evenodd" d="M21.5982 12.8991C21.5479 12.8732 21.6668 12.8367 21.6942 12.8508C21.7422 12.8767 21.6256 12.9133 21.5982 12.8991Z" fill="white"/>
<path fill-rule="evenodd" clip-rule="evenodd" d="M16.5508 12.9498C16.5691 12.8944 16.6468 12.9227 16.6468 12.9498C16.6285 13.0064 16.5508 12.9769 16.5508 12.9498Z" fill="white"/>
<path fill-rule="evenodd" clip-rule="evenodd" d="M18.7427 12.9467C18.6924 12.9208 18.8113 12.8843 18.8387 12.8972C18.8867 12.9232 18.7702 12.9597 18.7427 12.9467Z" fill="white"/>
<path fill-rule="evenodd" clip-rule="evenodd" d="M19.6959 13.0913C19.6456 13.0653 19.7644 13.0288 19.7918 13.0418C19.8398 13.0677 19.7233 13.1042 19.6959 13.0913Z" fill="white"/>
<path fill-rule="evenodd" clip-rule="evenodd" d="M5.98298 13.2436C5.93269 13.2177 6.05154 13.1811 6.07668 13.1941C6.12696 13.22 6.00812 13.2566 5.98298 13.2436Z" fill="white"/>
<path fill-rule="evenodd" clip-rule="evenodd" d="M3.60016 13.2898C3.54988 13.2638 3.66873 13.2273 3.69387 13.2414C3.74415 13.2674 3.6253 13.3039 3.60016 13.2898Z" fill="white"/>
<path fill-rule="evenodd" clip-rule="evenodd" d="M5.21929 13.2898C5.16901 13.2638 5.28786 13.2273 5.31528 13.2414C5.36556 13.2674 5.24672 13.3039 5.21929 13.2898Z" fill="white"/>
<path fill-rule="evenodd" clip-rule="evenodd" d="M5.6939 13.3413C5.64362 13.3153 5.76246 13.2788 5.78989 13.2918C5.84017 13.3177 5.72133 13.3542 5.6939 13.3413Z" fill="white"/>
<path fill-rule="evenodd" clip-rule="evenodd" d="M4.26562 13.4401C4.26791 13.393 4.38218 13.4024 4.45532 13.3906C4.45303 13.439 4.33876 13.4283 4.26562 13.4401Z" fill="white"/>
<path fill-rule="evenodd" clip-rule="evenodd" d="M12.647 13.4389C12.5968 13.413 12.7156 13.3765 12.7407 13.3894C12.791 13.4154 12.6722 13.4519 12.647 13.4389Z" fill="white"/>
<path fill-rule="evenodd" clip-rule="evenodd" d="M5.50446 13.4858C5.45418 13.4599 5.57302 13.4233 5.59816 13.4363C5.64844 13.4622 5.5296 13.4988 5.50446 13.4858Z" fill="white"/>
<path fill-rule="evenodd" clip-rule="evenodd" d="M5.98295 13.4852C5.96695 13.3791 6.32119 13.4628 6.45832 13.4357C6.62287 13.5206 6.31891 13.629 6.744 13.6325C6.58631 13.7304 6.75315 13.695 6.744 13.8294C6.6663 13.7952 6.48346 13.7528 6.45832 13.8294C6.11322 13.8082 6.43547 13.4769 5.98295 13.6325C6.04922 13.5925 6.1315 13.4982 5.98295 13.4852Z" fill="white"/>
<path fill-rule="evenodd" clip-rule="evenodd" d="M13.313 13.6374C13.2628 13.6115 13.3816 13.5749 13.409 13.5891C13.4593 13.615 13.3405 13.6516 13.313 13.6374Z" fill="white"/>
<path fill-rule="evenodd" clip-rule="evenodd" d="M12.8365 13.6811C12.7862 13.6552 12.905 13.6186 12.9325 13.6316C12.9827 13.6575 12.8639 13.6941 12.8365 13.6811Z" fill="white"/>
<path fill-rule="evenodd" clip-rule="evenodd" d="M3.69531 13.7818C3.7136 13.7264 3.7913 13.7547 3.7913 13.7818C3.77302 13.8372 3.69531 13.8089 3.69531 13.7818Z" fill="white"/>
<path fill-rule="evenodd" clip-rule="evenodd" d="M19.3131 13.8335C19.2628 13.8075 19.3816 13.771 19.4068 13.784C19.457 13.8099 19.3382 13.8464 19.3131 13.8335Z" fill="white"/>
<path fill-rule="evenodd" clip-rule="evenodd" d="M19.6002 13.8835C19.5499 13.8576 19.6687 13.821 19.6961 13.8352C19.7464 13.8611 19.6276 13.8977 19.6002 13.8835Z" fill="white"/>
<path fill-rule="evenodd" clip-rule="evenodd" d="M10.4576 13.9272C10.4073 13.9013 10.5261 13.8647 10.5536 13.8777C10.6038 13.9036 10.485 13.9402 10.4576 13.9272Z" fill="white"/>
<path fill-rule="evenodd" clip-rule="evenodd" d="M15.5045 13.9272C15.4542 13.9013 15.573 13.8647 15.5982 13.8777C15.6484 13.9036 15.5296 13.9402 15.5045 13.9272Z" fill="white"/>
<path fill-rule="evenodd" clip-rule="evenodd" d="M3.60016 13.978C3.54988 13.9521 3.66873 13.9155 3.69387 13.9285C3.74415 13.9544 3.6253 13.991 3.60016 13.978Z" fill="white"/>
<path fill-rule="evenodd" clip-rule="evenodd" d="M14.5533 14.0756C14.503 14.0497 14.6219 14.0132 14.647 14.0261C14.6973 14.0521 14.5784 14.0886 14.5533 14.0756Z" fill="white"/>
<path fill-rule="evenodd" clip-rule="evenodd" d="M7.02984 14.1257C6.97956 14.0998 7.0984 14.0632 7.12583 14.0774C7.17611 14.1033 7.05726 14.1398 7.02984 14.1257Z" fill="white"/>
<path fill-rule="evenodd" clip-rule="evenodd" d="M7.7896 14.1257C7.73932 14.0998 7.85817 14.0632 7.88559 14.0774C7.93359 14.1033 7.81703 14.1398 7.7896 14.1257Z" fill="white"/>
<path fill-rule="evenodd" clip-rule="evenodd" d="M11.7891 14.1265C11.7913 14.0781 11.9056 14.0887 11.9788 14.0781C11.9765 14.1253 11.8622 14.1158 11.7891 14.1265Z" fill="white"/>
<path fill-rule="evenodd" clip-rule="evenodd" d="M15.1219 14.2708C15.0967 14.3863 14.7036 14.2991 14.6465 14.2708C14.715 14.1011 14.9345 14.2378 15.1219 14.2708Z" fill="white"/>
<path fill-rule="evenodd" clip-rule="evenodd" d="M6.74273 14.271C6.69245 14.245 6.81129 14.2085 6.83872 14.2215C6.889 14.2474 6.77015 14.2839 6.74273 14.271Z" fill="white"/>
<path fill-rule="evenodd" clip-rule="evenodd" d="M9.88531 14.271C9.83503 14.245 9.95387 14.2085 9.9813 14.2215C10.0316 14.2474 9.91273 14.2839 9.88531 14.271Z" fill="white"/>
<path fill-rule="evenodd" clip-rule="evenodd" d="M14.4576 14.271C14.4073 14.245 14.5261 14.2085 14.5536 14.2215C14.6016 14.2474 14.485 14.2839 14.4576 14.271Z" fill="white"/>
<path fill-rule="evenodd" clip-rule="evenodd" d="M15.313 14.271C15.2628 14.245 15.3816 14.2085 15.409 14.2215C15.4593 14.2474 15.3405 14.2839 15.313 14.271Z" fill="white"/>
<path fill-rule="evenodd" clip-rule="evenodd" d="M18.0748 14.271C18.0245 14.245 18.1433 14.2085 18.1707 14.2215C18.221 14.2474 18.1022 14.2839 18.0748 14.271Z" fill="white"/>
<path fill-rule="evenodd" clip-rule="evenodd" d="M15.7896 14.3256C15.7393 14.2997 15.8582 14.2632 15.8856 14.2761C15.9359 14.3021 15.817 14.3386 15.7896 14.3256Z" fill="white"/>
<path fill-rule="evenodd" clip-rule="evenodd" d="M3.125 14.3242H3.31469V14.4221H3.125V14.3242Z" fill="white"/>
<path fill-rule="evenodd" clip-rule="evenodd" d="M6.64703 14.3718C6.59675 14.3459 6.71559 14.3093 6.74302 14.3235C6.7933 14.3494 6.67445 14.3859 6.64703 14.3718Z" fill="white"/>
<path fill-rule="evenodd" clip-rule="evenodd" d="M18.9322 14.3718C18.8819 14.3459 19.0007 14.3093 19.0282 14.3235C19.0785 14.3494 18.9596 14.3859 18.9322 14.3718Z" fill="white"/>
<path fill-rule="evenodd" clip-rule="evenodd" d="M8.45703 14.4185C8.47531 14.3631 8.55302 14.3914 8.55302 14.4185C8.53474 14.4751 8.45703 14.4456 8.45703 14.4185Z" fill="white"/>
<path fill-rule="evenodd" clip-rule="evenodd" d="M5.98298 14.4663C5.93269 14.4403 6.05154 14.4038 6.07668 14.4168C6.12696 14.4427 6.00812 14.4792 5.98298 14.4663Z" fill="white"/>
<path fill-rule="evenodd" clip-rule="evenodd" d="M3.1253 14.5246C3.17558 14.4491 3.22358 14.5222 3.21901 14.5741C3.16873 14.6495 3.12073 14.5764 3.1253 14.5246Z" fill="white"/>
<path fill-rule="evenodd" clip-rule="evenodd" d="M6.64703 14.5163C6.59675 14.4904 6.71559 14.4539 6.74302 14.468C6.7933 14.4939 6.67445 14.5305 6.64703 14.5163Z" fill="white"/>
<path fill-rule="evenodd" clip-rule="evenodd" d="M21.6954 14.524C21.7136 14.4686 21.7914 14.4969 21.7891 14.524C21.7708 14.5794 21.6931 14.5511 21.6954 14.524Z" fill="white"/>
<path fill-rule="evenodd" clip-rule="evenodd" d="M6.26812 14.6616C6.21784 14.6357 6.33668 14.5991 6.36411 14.6121C6.41439 14.638 6.29555 14.6746 6.26812 14.6616Z" fill="white"/>
<path fill-rule="evenodd" clip-rule="evenodd" d="M20.4556 14.7124C20.4053 14.6864 20.5242 14.6499 20.5516 14.6629C20.6019 14.6888 20.483 14.7253 20.4556 14.7124Z" fill="white"/>
<path fill-rule="evenodd" clip-rule="evenodd" d="M3.60016 14.8601C3.54988 14.8341 3.66873 14.7976 3.69387 14.8117C3.74415 14.8377 3.6253 14.8742 3.60016 14.8601Z" fill="white"/>
<path fill-rule="evenodd" clip-rule="evenodd" d="M5.79156 14.8601C5.74128 14.8341 5.86012 14.7976 5.88755 14.8117C5.93783 14.8377 5.81898 14.8742 5.79156 14.8601Z" fill="white"/>
<path fill-rule="evenodd" clip-rule="evenodd" d="M9.31501 14.8601C9.26473 14.8341 9.38357 14.7976 9.40871 14.8117C9.45899 14.8377 9.34015 14.8742 9.31501 14.8601Z" fill="white"/>
<path fill-rule="evenodd" clip-rule="evenodd" d="M16.0748 14.8601C16.0245 14.8341 16.1433 14.7976 16.1707 14.8117C16.221 14.8377 16.1022 14.8742 16.0748 14.8601Z" fill="white"/>
<path fill-rule="evenodd" clip-rule="evenodd" d="M4.17242 14.9585C4.12214 14.9325 4.24098 14.896 4.26841 14.909C4.31869 14.9349 4.19984 14.9714 4.17242 14.9585Z" fill="white"/>
<path fill-rule="evenodd" clip-rule="evenodd" d="M5.4107 14.9585C5.36042 14.9325 5.47926 14.896 5.50669 14.909C5.55468 14.9349 5.43812 14.9714 5.4107 14.9585Z" fill="white"/>
<path fill-rule="evenodd" clip-rule="evenodd" d="M21.502 14.9597C21.5042 14.9113 21.6185 14.9208 21.6916 14.9102C21.6894 14.9585 21.5751 14.9491 21.502 14.9597Z" fill="white"/>
<path fill-rule="evenodd" clip-rule="evenodd" d="M10.5533 15.0092C10.503 14.9833 10.6218 14.9468 10.6493 14.9597C10.6995 14.9857 10.5807 15.0222 10.5533 15.0092Z" fill="white"/>
<path fill-rule="evenodd" clip-rule="evenodd" d="M10.3619 15.06C10.3116 15.0341 10.4304 14.9975 10.4579 15.0105C10.5081 15.0364 10.3893 15.073 10.3619 15.06Z" fill="white"/>
<path fill-rule="evenodd" clip-rule="evenodd" d="M12.0748 15.06C12.0245 15.0341 12.1433 14.9975 12.1707 15.0105C12.2187 15.0364 12.1022 15.073 12.0748 15.06Z" fill="white"/>
<path fill-rule="evenodd" clip-rule="evenodd" d="M12.3619 15.1101C12.3116 15.0841 12.4304 15.0476 12.4579 15.0617C12.5081 15.0877 12.3893 15.1242 12.3619 15.1101Z" fill="white"/>
<path fill-rule="evenodd" clip-rule="evenodd" d="M4.36187 15.1577C4.31159 15.1317 4.43043 15.0952 4.45786 15.1082C4.50814 15.1341 4.3893 15.1706 4.36187 15.1577Z" fill="white"/>
<path fill-rule="evenodd" clip-rule="evenodd" d="M4.17242 15.2085C4.12214 15.1825 4.24098 15.146 4.26841 15.159C4.31869 15.1849 4.19984 15.2214 4.17242 15.2085Z" fill="white"/>
<path fill-rule="evenodd" clip-rule="evenodd" d="M10.647 15.3562C10.5967 15.3302 10.7156 15.2937 10.743 15.3078C10.791 15.3338 10.6745 15.3703 10.647 15.3562Z" fill="white"/>
<path fill-rule="evenodd" clip-rule="evenodd" d="M17.5044 15.3999C17.4542 15.3739 17.573 15.3374 17.6004 15.3504C17.6507 15.3763 17.5319 15.4128 17.5044 15.3999Z" fill="white"/>
<path fill-rule="evenodd" clip-rule="evenodd" d="M8.83844 15.4506C8.78816 15.4247 8.90701 15.3882 8.93215 15.4011C8.98243 15.4271 8.86358 15.4636 8.83844 15.4506Z" fill="white"/>
<path fill-rule="evenodd" clip-rule="evenodd" d="M8.55132 15.646C8.50104 15.62 8.61989 15.5835 8.64731 15.5965C8.69759 15.6224 8.57875 15.6589 8.55132 15.646Z" fill="white"/>
<path fill-rule="evenodd" clip-rule="evenodd" d="M8.36188 15.6967C8.3116 15.6708 8.43044 15.6343 8.45558 15.6472C8.50586 15.6732 8.38702 15.7097 8.36188 15.6967Z" fill="white"/>
<path fill-rule="evenodd" clip-rule="evenodd" d="M9.69585 15.6967C9.64557 15.6708 9.76442 15.6343 9.79184 15.6472C9.83984 15.6732 9.72328 15.7097 9.69585 15.6967Z" fill="white"/>
<path fill-rule="evenodd" clip-rule="evenodd" d="M3.21875 15.6964C3.42673 15.687 3.52272 15.7365 3.50443 15.8438H3.21875V15.6964Z" fill="white"/>
<path fill-rule="evenodd" clip-rule="evenodd" d="M13.7896 15.7475C13.7393 15.7216 13.8582 15.685 13.8856 15.698C13.9359 15.7239 13.817 15.7605 13.7896 15.7475Z" fill="white"/>
<path fill-rule="evenodd" clip-rule="evenodd" d="M21.5025 15.7475C21.4522 15.7216 21.5711 15.685 21.5985 15.698C21.6488 15.7239 21.5299 15.7605 21.5025 15.7475Z" fill="white"/>
<path fill-rule="evenodd" clip-rule="evenodd" d="M7.31445 15.7917C7.31445 15.7434 7.43101 15.7528 7.50415 15.7422C7.50415 15.7905 7.38759 15.7811 7.31445 15.7917Z" fill="white"/>
<path fill-rule="evenodd" clip-rule="evenodd" d="M15.6002 15.7944C15.5499 15.7685 15.6687 15.7319 15.6961 15.7449C15.7464 15.7708 15.6276 15.8074 15.6002 15.7944Z" fill="white"/>
<path fill-rule="evenodd" clip-rule="evenodd" d="M15.981 15.7944C15.9307 15.7685 16.0496 15.7319 16.0747 15.7449C16.125 15.7708 16.0062 15.8074 15.981 15.7944Z" fill="white"/>
<path fill-rule="evenodd" clip-rule="evenodd" d="M18.0748 15.7944C18.0245 15.7685 18.1433 15.7319 18.1707 15.7449C18.221 15.7708 18.1022 15.8074 18.0748 15.7944Z" fill="white"/>
<path fill-rule="evenodd" clip-rule="evenodd" d="M3.60016 15.8444C3.54988 15.8185 3.66873 15.782 3.69387 15.7961C3.74415 15.8221 3.6253 15.8586 3.60016 15.8444Z" fill="white"/>
<path fill-rule="evenodd" clip-rule="evenodd" d="M21.5982 15.8921C21.5479 15.8661 21.6668 15.8296 21.6942 15.8425C21.7422 15.8685 21.6256 15.905 21.5982 15.8921Z" fill="white"/>
<path fill-rule="evenodd" clip-rule="evenodd" d="M22.5529 15.8438C22.6695 15.865 22.7472 15.9062 22.7426 15.9911C22.6261 15.9699 22.5484 15.9286 22.5529 15.8438Z" fill="white"/>
<path fill-rule="evenodd" clip-rule="evenodd" d="M7.7896 15.9428C7.73932 15.9169 7.85817 15.8804 7.88559 15.8933C7.93359 15.9193 7.81703 15.9558 7.7896 15.9428Z" fill="white"/>
<path fill-rule="evenodd" clip-rule="evenodd" d="M24.0745 15.9414C24.0722 15.9886 23.9579 15.9791 23.8848 15.9897C23.8871 15.9426 24.0013 15.952 24.0745 15.9414Z" fill="white"/>
<path fill-rule="evenodd" clip-rule="evenodd" d="M7.88532 16.0405C7.83504 16.0146 7.95388 15.978 7.97902 15.991C8.0293 16.0169 7.91046 16.0535 7.88532 16.0405Z" fill="white"/>
<path fill-rule="evenodd" clip-rule="evenodd" d="M18.3599 16.0405C18.3096 16.0146 18.4285 15.978 18.4536 15.991C18.5039 16.0169 18.3851 16.0535 18.3599 16.0405Z" fill="white"/>
<path fill-rule="evenodd" clip-rule="evenodd" d="M21.125 15.9916C21.2873 15.9739 21.3056 16.0305 21.3147 16.0894C21.2347 16.08 21.2256 16.1083 21.221 16.1389C21.109 16.1307 21.141 16.0493 21.125 15.9916Z" fill="white"/>
<path fill-rule="evenodd" clip-rule="evenodd" d="M17.2173 16.0905C17.1671 16.0646 17.2859 16.0281 17.3133 16.0422C17.3636 16.0681 17.2448 16.1047 17.2173 16.0905Z" fill="white"/>
<path fill-rule="evenodd" clip-rule="evenodd" d="M4.55469 16.1406H4.74438V16.2385H4.55469V16.1406Z" fill="white"/>
<path fill-rule="evenodd" clip-rule="evenodd" d="M9.88672 16.3834C9.89815 16.2101 10.2021 16.4883 10.1724 16.3339C10.4284 16.4553 10.0078 16.5107 9.88672 16.3834Z" fill="white"/>
<path fill-rule="evenodd" clip-rule="evenodd" d="M12.6465 16.3834C12.6648 16.328 12.7425 16.3563 12.7402 16.3834C12.722 16.4399 12.6442 16.4105 12.6465 16.3834Z" fill="white"/>
<path fill-rule="evenodd" clip-rule="evenodd" d="M17.0279 16.435C16.9776 16.4091 17.0964 16.3725 17.1239 16.3855C17.1742 16.4114 17.0553 16.448 17.0279 16.435Z" fill="white"/>
<path fill-rule="evenodd" clip-rule="evenodd" d="M12.8365 16.4819C12.7862 16.456 12.905 16.4194 12.9325 16.4324C12.9827 16.4583 12.8639 16.4949 12.8365 16.4819Z" fill="white"/>
<path fill-rule="evenodd" clip-rule="evenodd" d="M2.83789 16.5323C2.85617 16.4757 2.93388 16.5052 2.93388 16.5323C2.9156 16.5877 2.83789 16.5594 2.83789 16.5323Z" fill="white"/>
<path fill-rule="evenodd" clip-rule="evenodd" d="M4.55329 16.5327C4.50301 16.5067 4.62185 16.4702 4.64699 16.4832C4.69727 16.5091 4.57843 16.5456 4.55329 16.5327Z" fill="white"/>
<path fill-rule="evenodd" clip-rule="evenodd" d="M16.0748 16.5327C16.0245 16.5067 16.1433 16.4702 16.1707 16.4832C16.221 16.5091 16.1022 16.5456 16.0748 16.5327Z" fill="white"/>
<path fill-rule="evenodd" clip-rule="evenodd" d="M1.88672 16.5826C1.905 16.5272 1.98271 16.5555 1.98271 16.5826C1.96442 16.638 1.88672 16.6097 1.88672 16.5826Z" fill="white"/>
<path fill-rule="evenodd" clip-rule="evenodd" d="M13.8853 16.5827C13.835 16.5568 13.9539 16.5203 13.9813 16.5344C14.0316 16.5603 13.9127 16.5969 13.8853 16.5827Z" fill="white"/>
<path fill-rule="evenodd" clip-rule="evenodd" d="M16.4576 16.5827C16.4073 16.5568 16.5261 16.5203 16.5513 16.5344C16.6016 16.5603 16.4827 16.5969 16.4576 16.5827Z" fill="white"/>
<path fill-rule="evenodd" clip-rule="evenodd" d="M22.8345 16.5827C22.7842 16.5568 22.9031 16.5203 22.9305 16.5344C22.9808 16.5603 22.862 16.5969 22.8345 16.5827Z" fill="white"/>
<path fill-rule="evenodd" clip-rule="evenodd" d="M7.88532 16.6303C7.83504 16.6044 7.95388 16.5679 7.97902 16.5808C8.0293 16.6068 7.91046 16.6433 7.88532 16.6303Z" fill="white"/>
<path fill-rule="evenodd" clip-rule="evenodd" d="M14.5527 16.6315C14.5756 16.5702 14.7424 16.582 14.7424 16.6315C14.6579 16.6622 14.5733 16.6904 14.5527 16.6315Z" fill="white"/>
<path fill-rule="evenodd" clip-rule="evenodd" d="M11.2193 17.071C11.169 17.0451 11.2879 17.0085 11.313 17.0227C11.3633 17.0486 11.2444 17.0852 11.2193 17.071Z" fill="white"/>
<path fill-rule="evenodd" clip-rule="evenodd" d="M12.647 17.071C12.5968 17.0451 12.7156 17.0085 12.7407 17.0227C12.791 17.0486 12.6722 17.0852 12.647 17.071Z" fill="white"/>
<path fill-rule="evenodd" clip-rule="evenodd" d="M22.3599 17.071C22.3096 17.0451 22.4285 17.0085 22.4559 17.0227C22.5062 17.0486 22.3873 17.0852 22.3599 17.071Z" fill="white"/>
<path fill-rule="evenodd" clip-rule="evenodd" d="M3.50586 17.1216C3.52414 17.0662 3.60185 17.0945 3.60185 17.1216C3.58357 17.1782 3.50586 17.1488 3.50586 17.1216Z" fill="white"/>
<path fill-rule="evenodd" clip-rule="evenodd" d="M3.98242 17.1724C4.00071 17.117 4.07841 17.1453 4.07841 17.1724C4.06013 17.2278 3.98242 17.1995 3.98242 17.1724Z" fill="white"/>
<path fill-rule="evenodd" clip-rule="evenodd" d="M12.7427 17.1733C12.6924 17.1474 12.8113 17.1108 12.8387 17.1238C12.889 17.1497 12.7702 17.1863 12.7427 17.1733Z" fill="white"/>
<path fill-rule="evenodd" clip-rule="evenodd" d="M22.0748 17.1733C22.0245 17.1474 22.1433 17.1108 22.1707 17.1238C22.2187 17.1497 22.1022 17.1863 22.0748 17.1733Z" fill="white"/>
<path fill-rule="evenodd" clip-rule="evenodd" d="M4.17188 17.2193C4.19016 17.1639 4.26786 17.1922 4.26786 17.2193C4.24958 17.2747 4.17188 17.2464 4.17188 17.2193Z" fill="white"/>
<path fill-rule="evenodd" clip-rule="evenodd" d="M2.83843 17.267C2.78815 17.2411 2.907 17.2046 2.93442 17.2175C2.9847 17.2435 2.86586 17.28 2.83843 17.267Z" fill="white"/>
<path fill-rule="evenodd" clip-rule="evenodd" d="M8.64703 17.267C8.59675 17.2411 8.71559 17.2046 8.74302 17.2175C8.7933 17.2435 8.67445 17.28 8.64703 17.267Z" fill="white"/>
<path fill-rule="evenodd" clip-rule="evenodd" d="M18.9316 17.2682C18.9545 17.2069 19.1213 17.2187 19.1213 17.2682C19.0779 17.339 19.0368 17.2623 18.9316 17.2682Z" fill="white"/>
<path fill-rule="evenodd" clip-rule="evenodd" d="M21.981 17.267C21.9307 17.2411 22.0496 17.2046 22.077 17.2175C22.1273 17.2435 22.0084 17.28 21.981 17.267Z" fill="white"/>
<path fill-rule="evenodd" clip-rule="evenodd" d="M7.7896 17.3171C7.73932 17.2912 7.85817 17.2546 7.88559 17.2688C7.93359 17.2947 7.81703 17.3313 7.7896 17.3171Z" fill="white"/>
<path fill-rule="evenodd" clip-rule="evenodd" d="M3.4107 17.4194C3.36042 17.3935 3.47926 17.3569 3.50669 17.3699C3.55697 17.3958 3.43812 17.4324 3.4107 17.4194Z" fill="white"/>
<path fill-rule="evenodd" clip-rule="evenodd" d="M5.50446 17.4194C5.45418 17.3935 5.57302 17.3569 5.59816 17.3699C5.64844 17.3958 5.5296 17.4324 5.50446 17.4194Z" fill="white"/>
<path fill-rule="evenodd" clip-rule="evenodd" d="M19.9791 17.5131C19.9288 17.4872 20.0476 17.4507 20.075 17.4636C20.1253 17.4896 20.0065 17.5261 19.9791 17.5131Z" fill="white"/>
<path fill-rule="evenodd" clip-rule="evenodd" d="M2.17243 17.5632C2.12215 17.5373 2.24099 17.5007 2.26613 17.5149C2.31641 17.5408 2.19757 17.5773 2.17243 17.5632Z" fill="white"/>
<path fill-rule="evenodd" clip-rule="evenodd" d="M8.36188 17.5632C8.3116 17.5373 8.43044 17.5007 8.45558 17.5149C8.50586 17.5408 8.38702 17.5773 8.36188 17.5632Z" fill="white"/>
<path fill-rule="evenodd" clip-rule="evenodd" d="M11.0279 17.5632C10.9776 17.5373 11.0964 17.5007 11.1239 17.5149C11.1742 17.5408 11.0553 17.5773 11.0279 17.5632Z" fill="white"/>
<path fill-rule="evenodd" clip-rule="evenodd" d="M1.88726 17.6147C1.83698 17.5888 1.95582 17.5522 1.98325 17.5652C2.03353 17.5911 1.91469 17.6277 1.88726 17.6147Z" fill="white"/>
<path fill-rule="evenodd" clip-rule="evenodd" d="M5.41211 17.6138C5.43039 17.5584 5.5081 17.5867 5.5081 17.6138C5.48982 17.6704 5.41211 17.6409 5.41211 17.6138Z" fill="white"/>
<path fill-rule="evenodd" clip-rule="evenodd" d="M13.4107 17.6147C13.3604 17.5888 13.4793 17.5522 13.5067 17.5652C13.557 17.5911 13.4381 17.6277 13.4107 17.6147Z" fill="white"/>
<path fill-rule="evenodd" clip-rule="evenodd" d="M22.1705 17.6147C22.1202 17.5888 22.239 17.5522 22.2642 17.5652C22.3145 17.5911 22.1956 17.6277 22.1705 17.6147Z" fill="white"/>
<path fill-rule="evenodd" clip-rule="evenodd" d="M1.98296 17.7631C1.93268 17.7372 2.05153 17.7007 2.07895 17.7136C2.12923 17.7396 2.01039 17.7761 1.98296 17.7631Z" fill="white"/>
<path fill-rule="evenodd" clip-rule="evenodd" d="M17.5044 17.7631C17.4542 17.7372 17.573 17.7007 17.6004 17.7136C17.6507 17.7396 17.5319 17.7761 17.5044 17.7631Z" fill="white"/>
<path fill-rule="evenodd" clip-rule="evenodd" d="M7.31445 17.8091C7.33274 17.7537 7.41044 17.782 7.41044 17.8091C7.39216 17.8645 7.31445 17.8363 7.31445 17.8091Z" fill="white"/>
<path fill-rule="evenodd" clip-rule="evenodd" d="M2.64899 17.8569C2.59871 17.831 2.71755 17.7944 2.74269 17.8074C2.79297 17.8333 2.67413 17.8699 2.64899 17.8569Z" fill="white"/>
<path fill-rule="evenodd" clip-rule="evenodd" d="M9.60015 17.8569C9.54987 17.831 9.66871 17.7944 9.69614 17.8074C9.74642 17.8333 9.62758 17.8699 9.60015 17.8569Z" fill="white"/>
<path fill-rule="evenodd" clip-rule="evenodd" d="M19.6955 17.8086C19.8121 17.8298 19.8898 17.8711 19.8852 17.9559C19.7686 17.9347 19.6909 17.8935 19.6955 17.8086Z" fill="white"/>
<path fill-rule="evenodd" clip-rule="evenodd" d="M7.69585 17.9077C7.64557 17.8817 7.76442 17.8452 7.79184 17.8582C7.84212 17.8841 7.72328 17.9206 7.69585 17.9077Z" fill="white"/>
<path fill-rule="evenodd" clip-rule="evenodd" d="M2.07671 17.9585C2.02643 17.9325 2.14528 17.896 2.1727 17.909C2.2207 17.9349 2.10414 17.9714 2.07671 17.9585Z" fill="white"/>
<path fill-rule="evenodd" clip-rule="evenodd" d="M9.88531 17.9585C9.83503 17.9325 9.95387 17.896 9.9813 17.909C10.0316 17.9349 9.91273 17.9714 9.88531 17.9585Z" fill="white"/>
<path fill-rule="evenodd" clip-rule="evenodd" d="M17.6002 18.0053C17.5499 17.9794 17.6687 17.9429 17.6961 17.9558C17.7464 17.9818 17.6276 18.0183 17.6002 18.0053Z" fill="white"/>
<path fill-rule="evenodd" clip-rule="evenodd" d="M3.88726 18.0554C3.83698 18.0295 3.95582 17.9929 3.98325 18.0071C4.03353 18.033 3.91469 18.0695 3.88726 18.0554Z" fill="white"/>
<path fill-rule="evenodd" clip-rule="evenodd" d="M8.55132 18.103C8.50104 18.0771 8.61989 18.0405 8.64731 18.0535C8.69759 18.0794 8.57875 18.116 8.55132 18.103Z" fill="white"/>
<path fill-rule="evenodd" clip-rule="evenodd" d="M21.5996 18.1021C21.6179 18.0467 21.6956 18.075 21.6956 18.1021C21.6773 18.1587 21.5996 18.1292 21.5996 18.1021Z" fill="white"/>
<path fill-rule="evenodd" clip-rule="evenodd" d="M4.55329 18.1538C4.50301 18.1278 4.62185 18.0913 4.64699 18.1043C4.69727 18.1302 4.57843 18.1667 4.55329 18.1538Z" fill="white"/>
<path fill-rule="evenodd" clip-rule="evenodd" d="M10.457 18.2511C10.4753 18.1945 10.553 18.2239 10.553 18.2511C10.5347 18.3065 10.457 18.2782 10.457 18.2511Z" fill="white"/>
<path fill-rule="evenodd" clip-rule="evenodd" d="M20.3599 18.2514C20.3096 18.2255 20.4285 18.189 20.4559 18.2019C20.5062 18.2279 20.3873 18.2644 20.3599 18.2514Z" fill="white"/>
<path fill-rule="evenodd" clip-rule="evenodd" d="M9.50445 18.3015C9.45417 18.2755 9.57301 18.239 9.60044 18.2532C9.65072 18.2791 9.53187 18.3156 9.50445 18.3015Z" fill="white"/>
<path fill-rule="evenodd" clip-rule="evenodd" d="M1.88726 18.3452C1.83698 18.3192 1.95582 18.2827 1.98325 18.2957C2.03353 18.3216 1.91469 18.3581 1.88726 18.3452Z" fill="white"/>
<path fill-rule="evenodd" clip-rule="evenodd" d="M11.2193 18.3452C11.169 18.3192 11.2879 18.2827 11.313 18.2957C11.3633 18.3216 11.2444 18.3581 11.2193 18.3452Z" fill="white"/>
<path fill-rule="evenodd" clip-rule="evenodd" d="M3.98296 18.396C3.93268 18.37 4.05153 18.3335 4.07895 18.3465C4.12695 18.3724 4.01039 18.4089 3.98296 18.396Z" fill="white"/>
<path fill-rule="evenodd" clip-rule="evenodd" d="M9.78962 18.396C9.73934 18.37 9.85818 18.3335 9.88332 18.3465C9.9336 18.3724 9.81476 18.4089 9.78962 18.396Z" fill="white"/>
<path fill-rule="evenodd" clip-rule="evenodd" d="M10.5533 18.396C10.503 18.37 10.6218 18.3335 10.6493 18.3465C10.6995 18.3724 10.5807 18.4089 10.5533 18.396Z" fill="white"/>
<path fill-rule="evenodd" clip-rule="evenodd" d="M17.9791 18.396C17.9288 18.37 18.0476 18.3335 18.075 18.3465C18.1253 18.3724 18.0065 18.4089 17.9791 18.396Z" fill="white"/>
<path fill-rule="evenodd" clip-rule="evenodd" d="M22.2642 18.396C22.2139 18.37 22.3328 18.3335 22.3602 18.3465C22.4105 18.3724 22.2916 18.4089 22.2642 18.396Z" fill="white"/>
<path fill-rule="evenodd" clip-rule="evenodd" d="M17.0279 18.4499C16.9776 18.424 17.0964 18.3874 17.1239 18.4016C17.1742 18.4275 17.0553 18.4641 17.0279 18.4499Z" fill="white"/>
<path fill-rule="evenodd" clip-rule="evenodd" d="M20.0748 18.4499C20.0245 18.424 20.1433 18.3874 20.1707 18.4016C20.221 18.4275 20.1022 18.4641 20.0748 18.4499Z" fill="white"/>
<path fill-rule="evenodd" clip-rule="evenodd" d="M1.40874 18.4975C1.35846 18.4716 1.47731 18.435 1.50473 18.448C1.55501 18.4739 1.43617 18.5105 1.40874 18.4975Z" fill="white"/>
<path fill-rule="evenodd" clip-rule="evenodd" d="M8.93218 18.646C8.8819 18.62 9.00075 18.5835 9.02817 18.5965C9.07845 18.6224 8.95961 18.6589 8.93218 18.646Z" fill="white"/>
<path fill-rule="evenodd" clip-rule="evenodd" d="M16.7427 18.646C16.6924 18.62 16.8113 18.5835 16.8387 18.5965C16.889 18.6224 16.7702 18.6589 16.7427 18.646Z" fill="white"/>
<path fill-rule="evenodd" clip-rule="evenodd" d="M7.60015 18.6967C7.54987 18.6708 7.66871 18.6343 7.69614 18.6472C7.74642 18.6732 7.62758 18.7097 7.60015 18.6967Z" fill="white"/>
<path fill-rule="evenodd" clip-rule="evenodd" d="M15.5045 18.7937C15.4542 18.7677 15.573 18.7312 15.5982 18.7453C15.6484 18.7713 15.5296 18.8078 15.5045 18.7937Z" fill="white"/>
<path fill-rule="evenodd" clip-rule="evenodd" d="M22.4556 18.7937C22.4053 18.7677 22.5242 18.7312 22.5516 18.7453C22.6019 18.7713 22.483 18.8078 22.4556 18.7937Z" fill="white"/>
<path fill-rule="evenodd" clip-rule="evenodd" d="M14.7427 18.8374C14.6924 18.8114 14.8113 18.7749 14.8387 18.7879C14.889 18.8138 14.7702 18.8503 14.7427 18.8374Z" fill="white"/>
<path fill-rule="evenodd" clip-rule="evenodd" d="M3.50445 18.8881C3.45417 18.8622 3.57301 18.8257 3.60044 18.8386C3.64843 18.8646 3.53187 18.9011 3.50445 18.8881Z" fill="white"/>
<path fill-rule="evenodd" clip-rule="evenodd" d="M10.2681 18.9858C10.2179 18.9599 10.3367 18.9233 10.3618 18.9363C10.4121 18.9622 10.2933 18.9988 10.2681 18.9858Z" fill="white"/>
<path fill-rule="evenodd" clip-rule="evenodd" d="M4.74273 19.0359C4.69245 19.0099 4.81129 18.9734 4.83872 18.9875C4.889 19.0135 4.77015 19.05 4.74273 19.0359Z" fill="white"/>
<path fill-rule="evenodd" clip-rule="evenodd" d="M21.981 19.0359C21.9307 19.0099 22.0496 18.9734 22.077 18.9875C22.1273 19.0135 22.0084 19.05 21.981 19.0359Z" fill="white"/>
<path fill-rule="evenodd" clip-rule="evenodd" d="M1.88726 19.0835C1.83698 19.0575 1.95582 19.021 1.98325 19.034C2.03353 19.0599 1.91469 19.0964 1.88726 19.0835Z" fill="white"/>
<path fill-rule="evenodd" clip-rule="evenodd" d="M8.36188 19.1381C8.3116 19.1122 8.43044 19.0757 8.45558 19.0886C8.50586 19.1146 8.38702 19.1511 8.36188 19.1381Z" fill="white"/>
<path fill-rule="evenodd" clip-rule="evenodd" d="M8.64703 19.1843C8.59675 19.1584 8.71559 19.1218 8.74302 19.136C8.7933 19.1619 8.67445 19.1984 8.64703 19.1843Z" fill="white"/>
<path fill-rule="evenodd" clip-rule="evenodd" d="M10.5533 19.1843C10.503 19.1584 10.6218 19.1218 10.6493 19.136C10.6995 19.1619 10.5807 19.1984 10.5533 19.1843Z" fill="white"/>
<path fill-rule="evenodd" clip-rule="evenodd" d="M7.69585 19.2358C7.64557 19.2099 7.76442 19.1733 7.79184 19.1863C7.84212 19.2122 7.72328 19.2488 7.69585 19.2358Z" fill="white"/>
<path fill-rule="evenodd" clip-rule="evenodd" d="M8.17188 19.2818C8.19016 19.2264 8.26786 19.2547 8.26786 19.2818C8.24958 19.3372 8.17188 19.3089 8.17188 19.2818Z" fill="white"/>
<path fill-rule="evenodd" clip-rule="evenodd" d="M1.98195 1.99386C1.91338 1.93375 1.88139 1.88542 1.98195 1.94554C2.08022 2.00212 2.05737 2.06105 1.98195 1.99386Z" fill="white"/>
<path fill-rule="evenodd" clip-rule="evenodd" d="M14.7436 1.99393C14.8601 1.95857 14.9538 1.94207 14.8396 1.99393C14.7276 2.04462 14.6133 2.03283 14.7436 1.99393Z" fill="white"/>
<path fill-rule="evenodd" clip-rule="evenodd" d="M16.4577 2.13891V2.28625C16.3732 2.2556 16.2863 2.22732 16.2681 2.28625C16.0989 2.3004 16.2612 2.0953 16.4577 2.13891Z" fill="white"/>
<path fill-rule="evenodd" clip-rule="evenodd" d="M6.3615 2.28928C6.28836 2.21385 6.42092 2.25274 6.45749 2.28928C6.52148 2.35529 6.3935 2.39891 6.3615 2.33761C6.35464 2.32347 6.37293 2.30107 6.3615 2.28928Z" fill="white"/>
<path fill-rule="evenodd" clip-rule="evenodd" d="M13.8866 2.48645C13.6261 2.63615 14.1769 2.35208 13.8866 2.48645V2.48645Z" fill="white"/>
<path fill-rule="evenodd" clip-rule="evenodd" d="M2.64836 2.5802C2.38782 2.7299 2.93862 2.44583 2.64836 2.5802V2.5802Z" fill="white"/>
<path fill-rule="evenodd" clip-rule="evenodd" d="M10.6471 2.82936C10.8597 2.64077 10.606 2.96138 10.5511 2.9272C10.4712 2.87651 10.6357 2.83879 10.6471 2.82936Z" fill="white"/>
<path fill-rule="evenodd" clip-rule="evenodd" d="M10.1724 3.22368C10.1313 3.1506 10.0513 3.24372 9.88672 3.22368C9.98271 3.09284 10.1473 2.99736 10.2684 2.87949C10.4352 2.86417 10.4375 3.15531 10.1724 3.07634C10.2821 3.14824 10.2821 3.2001 10.1724 3.27319C10.065 3.26376 10.1198 3.22368 10.1724 3.22368Z" fill="white"/>
<path fill-rule="evenodd" clip-rule="evenodd" d="M1.31551 3.17285C1.29037 2.96775 1.72232 3.2141 1.69718 3.32019C1.33608 3.39209 1.6789 3.10094 1.31551 3.17285Z" fill="white"/>
<path fill-rule="evenodd" clip-rule="evenodd" d="M12.2657 3.41586C12.252 3.41586 12.3023 3.33571 12.3617 3.36636C12.3617 3.36636 12.14 3.67872 11.9801 3.5137C11.9321 3.46302 12.1355 3.48541 12.076 3.5137C12.1309 3.48777 12.1766 3.41822 12.2657 3.41586Z" fill="white"/>
<path fill-rule="evenodd" clip-rule="evenodd" d="M17.5038 3.61536C17.2433 3.76506 17.7941 3.48098 17.5038 3.61536V3.61536Z" fill="white"/>
<path fill-rule="evenodd" clip-rule="evenodd" d="M19.8847 3.66614C19.6241 3.81584 20.1749 3.53176 19.8847 3.66614V3.66614Z" fill="white"/>
<path fill-rule="evenodd" clip-rule="evenodd" d="M12.1716 3.86089C11.9979 3.70412 12.5876 4.11668 12.1716 3.86089V3.86089Z" fill="white"/>
<path fill-rule="evenodd" clip-rule="evenodd" d="M7.50383 4.2052C7.24329 4.3549 7.79408 4.07083 7.50383 4.2052V4.2052Z" fill="white"/>
<path fill-rule="evenodd" clip-rule="evenodd" d="M14.742 4.99C14.9545 4.80023 14.7008 5.12202 14.646 5.08784C14.5683 5.03715 14.7305 4.99943 14.742 4.99Z" fill="white"/>
<path fill-rule="evenodd" clip-rule="evenodd" d="M7.97931 5.28447C8.31756 5.20785 8.03645 5.45185 8.265 5.43181C8.23529 5.53554 7.93361 5.37995 7.97931 5.28447Z" fill="white"/>
<path fill-rule="evenodd" clip-rule="evenodd" d="M21.0273 6.95129C20.7667 7.10099 21.3175 6.81692 21.0273 6.95129V6.95129Z" fill="white"/>
<path fill-rule="evenodd" clip-rule="evenodd" d="M21.5995 6.95129C21.339 7.10099 21.8898 6.81692 21.5995 6.95129V6.95129Z" fill="white"/>
<path fill-rule="evenodd" clip-rule="evenodd" d="M9.78987 8.33062C9.67332 8.20685 9.92929 8.34476 9.97957 8.42845C10.0116 8.48267 9.89043 8.43553 9.78987 8.33062Z" fill="white"/>
<path fill-rule="evenodd" clip-rule="evenodd" d="M6.45855 9.11746C6.16372 9.05381 6.7328 9.05263 6.64824 9.16696C6.56596 9.26008 6.5911 9.11392 6.45855 9.11746Z" fill="white"/>
<path fill-rule="evenodd" clip-rule="evenodd" d="M1.22063 9.36145C0.960086 9.51115 1.51088 9.22708 1.22063 9.36145V9.36145Z" fill="white"/>
<path fill-rule="evenodd" clip-rule="evenodd" d="M8.3628 10.5859C8.68505 10.771 8.1114 10.9124 7.98113 11.028C7.80972 10.9207 8.48622 10.8323 8.3628 10.5859Z" fill="white"/>
<path fill-rule="evenodd" clip-rule="evenodd" d="M15.789 11.0293C15.5284 10.8796 16.0792 11.1636 15.789 11.0293V11.0293Z" fill="white"/>
<path fill-rule="evenodd" clip-rule="evenodd" d="M9.79004 11.3749C10.0003 11.2924 9.45636 11.5682 9.12268 11.5222C9.04269 11.5128 9.03355 11.5411 9.02669 11.5706C8.94213 11.4185 9.4655 11.4645 9.78775 11.3749H9.79004Z" fill="white"/>
<path fill-rule="evenodd" clip-rule="evenodd" d="M8.55019 11.7152C8.55705 11.707 8.58219 11.5761 8.64618 11.6174C8.72389 11.6657 8.41535 11.8555 8.55019 11.7152Z" fill="white"/>
<path fill-rule="evenodd" clip-rule="evenodd" d="M0.744066 11.963C0.483524 12.1127 1.03432 11.8286 0.744066 11.963V11.963Z" fill="white"/>
<path fill-rule="evenodd" clip-rule="evenodd" d="M2.64836 12.4552C2.38782 12.6049 2.93862 12.3208 2.64836 12.4552V12.4552Z" fill="white"/>
<path fill-rule="evenodd" clip-rule="evenodd" d="M13.9823 12.7519C13.7218 12.6022 14.2726 12.8863 13.9823 12.7519V12.7519Z" fill="white"/>
<path fill-rule="evenodd" clip-rule="evenodd" d="M0.837543 13.1383C0.663848 12.9816 1.25578 13.3929 0.837543 13.1383V13.1383Z" fill="white"/>
<path fill-rule="evenodd" clip-rule="evenodd" d="M12.5522 13.291C12.4836 13.3782 12.3785 13.2981 12.2665 13.291C12.2322 13.3747 12.3419 13.3841 12.4562 13.3888C12.4402 13.4466 12.2825 13.4301 12.1705 13.4383C12.2322 13.4878 12.3899 13.489 12.3602 13.5857C12.1659 13.5704 12.1728 13.4525 11.9785 13.4383C12.0928 13.344 12.3053 13.1708 12.5499 13.291H12.5522Z" fill="white"/>
<path fill-rule="evenodd" clip-rule="evenodd" d="M4.64836 13.3418C4.38782 13.1921 4.93862 13.4761 4.64836 13.3418V13.3418Z" fill="white"/>
<path fill-rule="evenodd" clip-rule="evenodd" d="M18.8378 14.713C18.5773 14.8627 19.1281 14.5786 18.8378 14.713V14.713Z" fill="white"/>
<path fill-rule="evenodd" clip-rule="evenodd" d="M8.2675 14.963C8.00696 15.1127 8.55776 14.8286 8.2675 14.963V14.963Z" fill="white"/>
<path fill-rule="evenodd" clip-rule="evenodd" d="M19.6949 15.1566C19.7018 15.1484 19.7269 15.0176 19.7909 15.0588C19.8663 15.1071 19.5601 15.2969 19.6949 15.1566Z" fill="white"/>
<path fill-rule="evenodd" clip-rule="evenodd" d="M14.0741 16.0919C13.8136 16.2416 14.3644 15.9575 14.0741 16.0919V16.0919Z" fill="white"/>
<path fill-rule="evenodd" clip-rule="evenodd" d="M10.4585 16.435C9.96483 16.6495 10.7625 16.3454 10.4585 16.435V16.435Z" fill="white"/>
<path fill-rule="evenodd" clip-rule="evenodd" d="M16.7418 17.5628C16.7486 17.5558 16.7738 17.4237 16.8378 17.465C16.9132 17.5145 16.6069 17.7031 16.7418 17.5628Z" fill="white"/>
<path fill-rule="evenodd" clip-rule="evenodd" d="M5.12297 17.5607C4.86243 17.7104 5.41322 17.4263 5.12297 17.5607V17.5607Z" fill="white"/>
<path fill-rule="evenodd" clip-rule="evenodd" d="M5.60032 18.3498C5.65289 18.4583 5.41749 18.4194 5.41063 18.4972C5.2415 18.5113 5.40377 18.3062 5.60032 18.3498Z" fill="white"/>
<path fill-rule="evenodd" clip-rule="evenodd" d="M12.4569 18.4492C12.77 18.5836 12.0661 18.6036 12.0752 18.7439C11.8398 18.6508 12.3975 18.5529 12.4569 18.4492Z" fill="white"/>
<path fill-rule="evenodd" clip-rule="evenodd" d="M7.69727 18.5982C7.71555 18.5428 7.79326 18.5711 7.79326 18.5982C8.0698 18.5286 7.90067 18.5605 7.88924 18.696C7.7864 18.6842 7.82525 18.5982 7.69955 18.5982H7.69727Z" fill="white"/>
<path fill-rule="evenodd" clip-rule="evenodd" d="M4.74438 19.6243C4.5844 19.4416 5.27918 19.279 5.50544 19.1328C5.74084 19.2259 5.07349 19.2672 5.21976 19.477" fill="white"/>
</g>
</g>
</svg>
