<svg width="48" height="48" viewBox="0 0 48 48" fill="none" xmlns="http://www.w3.org/2000/svg">
<g style="mix-blend-mode:multiply">
<path fill-rule="evenodd" clip-rule="evenodd" d="M21.8089 11.7488C21.8089 15.7824 18.6299 19.0522 14.7083 19.0522C10.7868 19.0522 7.60772 15.7824 7.60772 11.7488C7.60772 7.71519 10.7868 4.44531 14.7083 4.44531C18.6299 4.44531 21.8089 7.71519 21.8089 11.7488ZM32.737 25.612C36.5465 25.612 39.6347 22.5238 39.6347 18.7143C39.6347 14.9047 36.5465 11.8165 32.737 11.8165C28.9275 11.8165 25.8393 14.9047 25.8393 18.7143C25.8393 22.5238 28.9275 25.612 32.737 25.612ZM26.8542 29.0745C28.5267 28.3921 30.4969 28.0253 32.737 28.0253C40.6146 28.0253 45.1529 32.5612 45.1529 39.4066C45.1529 44.3045 41.2789 43.4398 37.2986 42.5513C35.7159 42.1981 34.1165 41.841 32.737 41.841C31.3576 41.841 29.7581 42.1981 28.1754 42.5513C24.1951 43.4398 20.3211 44.3045 20.3211 39.4066C20.3211 38.6719 20.3734 37.9639 20.4764 37.2852C19.9352 37.2034 19.3854 37.1094 18.836 37.0154L18.8358 37.0154C17.3262 36.7571 15.8202 36.4995 14.5054 36.4995C13.1906 36.4995 11.6847 36.7571 10.1751 37.0154C5.86303 37.753 1.52148 38.4956 1.52148 33.2536C1.52148 27.9555 4.18114 23.9956 8.97444 22.3394V22.3386C9.76436 22.0656 10.6122 21.8553 11.5157 21.7118V21.7126C12.4533 21.5637 13.4507 21.4869 14.5054 21.4869C20.9869 21.4869 25.3068 24.3898 26.8542 29.0745Z" fill="white"/>
</g>
<circle cx="32.7356" cy="18.7102" r="6.89772" fill="#0F76D6"/>
<path d="M32.7362 28.0195C24.8586 28.0195 20.3203 32.5554 20.3203 39.4008C20.3203 46.2462 27.8875 41.8353 32.7362 41.8353C37.5849 41.8353 45.1521 46.2462 45.1521 39.4008C45.1521 32.5554 40.6138 28.0195 32.7362 28.0195Z" fill="#CDE7FF"/>
<g style="mix-blend-mode:plus-darker">
<ellipse cx="14.708" cy="11.741" rx="7.10059" ry="7.30347" fill="#0A4E8E"/>
<path d="M14.5054 21.4766C6.26742 21.4766 1.52148 26.166 1.52148 33.2433C1.52148 40.3205 9.43488 36.4892 14.5054 36.4892C19.576 36.4892 27.4894 40.3205 27.4894 33.2433C27.4894 26.166 22.7434 21.4766 14.5054 21.4766Z" fill="#36BBF8"/>
<path fill-rule="evenodd" clip-rule="evenodd" d="M8.9751 22.3299V24.7954C7.69916 25.3142 6.79688 26.5912 6.79688 28.0843C6.79688 30.0376 8.34098 31.6211 10.2457 31.6211C12.1505 31.6211 13.6946 30.0376 13.6946 28.0843C13.6946 26.5912 12.7923 25.3142 11.5164 24.7954V21.7031C10.6129 21.8466 9.76503 22.057 8.9751 22.3299ZM10.2457 27.1536C9.74448 27.1536 9.33814 27.5703 9.33814 28.0843C9.33814 28.5984 9.74448 29.015 10.2457 29.015C10.747 29.015 11.1533 28.5984 11.1533 28.0843C11.1533 27.5703 10.747 27.1536 10.2457 27.1536Z" fill="#CDE7FF"/>
<g style="mix-blend-mode:multiply">
<path fill-rule="evenodd" clip-rule="evenodd" d="M17.3665 21.6836V24.8369C16.1656 25.3525 15.3164 26.6219 15.3164 28.106V31.6214H18.0499V29.0311H17.7082V28.106C17.7082 27.5951 18.0906 27.1809 18.5624 27.1809C19.0342 27.1809 19.4166 27.5951 19.4166 28.106V29.0311H19.0749V31.6214H21.8084V28.106C21.8084 26.6219 20.9592 25.3525 19.7583 24.8369V22.2377C19.0104 21.9971 18.2125 21.8113 17.3665 21.6836Z" fill="#0A4E8E"/>
</g>
</g>
<g opacity="0.6">
<mask id="mask0_7322_338840" style="mask-type:alpha" maskUnits="userSpaceOnUse" x="1" y="4" width="43" height="34">
<path fill-rule="evenodd" clip-rule="evenodd" d="M21.8089 11.7371C21.8089 15.7707 18.6298 19.0405 14.7083 19.0405C10.7867 19.0405 7.60771 15.7707 7.60771 11.7371C7.60771 7.70347 10.7867 4.43359 14.7083 4.43359C18.6298 4.43359 21.8089 7.70347 21.8089 11.7371ZM30.9788 19.4463C34.7883 19.4463 37.8765 16.3581 37.8765 12.5486C37.8765 8.73905 34.7883 5.65084 30.9788 5.65084C27.1693 5.65084 24.0811 8.73905 24.0811 12.5486C24.0811 16.3581 27.1693 19.4463 30.9788 19.4463ZM23.149 23.9319C25.1619 22.5996 27.7982 21.8602 30.9788 21.8602C38.8564 21.8602 43.3947 26.396 43.3947 33.2414C43.3947 38.1393 39.5207 37.2746 35.5404 36.3861C33.9577 36.0329 32.3582 35.6759 30.9788 35.6759C29.647 35.6759 28.11 36.0087 26.5812 36.3496C25.084 38.0723 21.9522 37.5366 18.8358 37.0035C17.3262 36.7453 15.8202 36.4877 14.5054 36.4877C13.1906 36.4877 11.6847 36.7453 10.1751 37.0035C5.86303 37.7411 1.52148 38.4838 1.52148 33.2417C1.52148 27.9437 4.18114 23.9837 8.97444 22.3276V22.3269C9.76436 22.0539 10.6122 21.8436 11.5157 21.7001V21.7008C12.4533 21.5519 13.4507 21.475 14.5054 21.475C18.0771 21.475 20.9923 22.3565 23.149 23.9319Z" fill="#0A4E8E"/>
</mask>
<g mask="url(#mask0_7322_338840)">
</g>
<mask id="mask1_7322_338840" style="mask-type:alpha" maskUnits="userSpaceOnUse" x="1" y="4" width="45" height="40">
<g style="mix-blend-mode:multiply">
<path fill-rule="evenodd" clip-rule="evenodd" d="M21.8089 11.7371C21.8089 15.7707 18.6299 19.0405 14.7083 19.0405C10.7868 19.0405 7.60772 15.7707 7.60772 11.7371C7.60772 7.70347 10.7868 4.43359 14.7083 4.43359C18.6299 4.43359 21.8089 7.70347 21.8089 11.7371ZM32.737 25.6003C36.5465 25.6003 39.6347 22.512 39.6347 18.7025C39.6347 14.893 36.5465 11.8048 32.737 11.8048C28.9275 11.8048 25.8393 14.893 25.8393 18.7025C25.8393 22.512 28.9275 25.6003 32.737 25.6003ZM26.8542 29.0628C28.5267 28.3804 30.4969 28.0136 32.737 28.0136C40.6146 28.0136 45.1529 32.5495 45.1529 39.3948C45.1529 44.2927 41.2789 43.428 37.2986 42.5396C35.7159 42.1863 34.1165 41.8293 32.737 41.8293C31.3576 41.8293 29.7581 42.1863 28.1754 42.5396C24.1951 43.428 20.3211 44.2927 20.3211 39.3948C20.3211 38.6602 20.3734 37.9522 20.4764 37.2735C19.9352 37.1917 19.3854 37.0977 18.836 37.0037L18.8358 37.0037C17.3262 36.7454 15.8202 36.4878 14.5054 36.4878C13.1906 36.4878 11.6847 36.7454 10.1751 37.0037C5.86303 37.7413 1.52148 38.4839 1.52148 33.2418C1.52148 27.9438 4.18114 23.9839 8.97444 22.3277V22.3269C9.76436 22.0539 10.6122 21.8436 11.5157 21.7001V21.7009C12.4533 21.552 13.4507 21.4751 14.5054 21.4751C20.9869 21.4751 25.3068 24.378 26.8542 29.0628Z" fill="#0A4E8E"/>
</g>
</mask>
<g mask="url(#mask1_7322_338840)">
<path fill-rule="evenodd" clip-rule="evenodd" d="M23.707 4.45491C23.6112 4.40552 23.8376 4.33592 23.8855 4.36061C23.9812 4.41001 23.7549 4.47961 23.707 4.45491Z" fill="white"/>
<path fill-rule="evenodd" clip-rule="evenodd" d="M39.1269 4.45491C39.0311 4.40552 39.2575 4.33592 39.3054 4.36061C39.4011 4.41001 39.1748 4.47961 39.1269 4.45491Z" fill="white"/>
<path fill-rule="evenodd" clip-rule="evenodd" d="M19.5371 4.55667C19.5719 4.45115 19.7199 4.50503 19.7199 4.55667C19.6851 4.6622 19.5371 4.60831 19.5371 4.55667Z" fill="white"/>
<path fill-rule="evenodd" clip-rule="evenodd" d="M41.4863 4.55667C41.5212 4.45115 41.6692 4.50503 41.6692 4.55667C41.6343 4.6622 41.4863 4.60831 41.4863 4.55667Z" fill="white"/>
<path fill-rule="evenodd" clip-rule="evenodd" d="M3.57218 4.64241C3.47641 4.59302 3.70278 4.52342 3.75502 4.54811C3.84644 4.59751 3.62442 4.66711 3.57218 4.64241Z" fill="white"/>
<path fill-rule="evenodd" clip-rule="evenodd" d="M9.01359 4.64241C8.91782 4.59302 9.14419 4.52342 9.19642 4.54811C9.28784 4.59751 9.06583 4.66711 9.01359 4.64241Z" fill="white"/>
<path fill-rule="evenodd" clip-rule="evenodd" d="M23.5292 4.64241C23.4334 4.59302 23.6598 4.52342 23.712 4.54811C23.8035 4.59751 23.5815 4.66711 23.5292 4.64241Z" fill="white"/>
<path fill-rule="evenodd" clip-rule="evenodd" d="M29.5097 4.64241C29.4139 4.59302 29.6403 4.52342 29.6925 4.54811C29.7883 4.59751 29.5619 4.66711 29.5097 4.64241Z" fill="white"/>
<path fill-rule="evenodd" clip-rule="evenodd" d="M6.4765 4.74007C6.38073 4.69067 6.6071 4.62107 6.65498 4.64577C6.75075 4.69516 6.52439 4.76476 6.4765 4.74007Z" fill="white"/>
<path fill-rule="evenodd" clip-rule="evenodd" d="M16.6327 4.74007C16.537 4.69067 16.7633 4.62107 16.8156 4.64577C16.9113 4.69516 16.685 4.76476 16.6327 4.74007Z" fill="white"/>
<path fill-rule="evenodd" clip-rule="evenodd" d="M9.1972 4.83243C9.10143 4.78304 9.3278 4.71344 9.37569 4.74038C9.47146 4.78977 9.24509 4.85938 9.1972 4.83243Z" fill="white"/>
<path fill-rule="evenodd" clip-rule="evenodd" d="M3.7558 4.92366C3.66003 4.87427 3.88639 4.80467 3.93428 4.82936C4.03005 4.87876 3.80368 4.94836 3.7558 4.92366Z" fill="white"/>
<path fill-rule="evenodd" clip-rule="evenodd" d="M13.0058 4.92366C12.91 4.87427 13.1364 4.80467 13.1886 4.82936C13.2844 4.87876 13.058 4.94836 13.0058 4.92366Z" fill="white"/>
<path fill-rule="evenodd" clip-rule="evenodd" d="M5.20508 5.02152C5.2399 4.91599 5.38791 4.96988 5.38791 5.02152C5.35309 5.12704 5.20508 5.07315 5.20508 5.02152Z" fill="white"/>
<path fill-rule="evenodd" clip-rule="evenodd" d="M23.8906 5.11136C23.9255 5.00584 24.0735 5.05972 24.0735 5.11136C24.0386 5.21913 23.8906 5.163 23.8906 5.11136Z" fill="white"/>
<path fill-rule="evenodd" clip-rule="evenodd" d="M31.8691 5.11116C31.7733 5.06177 31.9997 4.99217 32.0476 5.01686C32.1433 5.06626 31.917 5.13586 31.8691 5.11116Z" fill="white"/>
<path fill-rule="evenodd" clip-rule="evenodd" d="M12.4628 5.20491C12.367 5.15552 12.5934 5.08592 12.6456 5.11061C12.7414 5.16001 12.515 5.22961 12.4628 5.20491Z" fill="white"/>
<path fill-rule="evenodd" clip-rule="evenodd" d="M23.5292 5.20491C23.4334 5.15552 23.6598 5.08592 23.712 5.11061C23.8035 5.16001 23.5815 5.22961 23.5292 5.20491Z" fill="white"/>
<path fill-rule="evenodd" clip-rule="evenodd" d="M3.02921 5.29476C2.93344 5.24536 3.15981 5.17576 3.21205 5.20046C3.30782 5.24985 3.08145 5.31945 3.02921 5.29476Z" fill="white"/>
<path fill-rule="evenodd" clip-rule="evenodd" d="M19.537 5.29476C19.4413 5.24536 19.6676 5.17576 19.7199 5.20046C19.8156 5.24985 19.5893 5.31945 19.537 5.29476Z" fill="white"/>
<path fill-rule="evenodd" clip-rule="evenodd" d="M24.9784 5.29476C24.8827 5.24536 25.109 5.17576 25.1613 5.20046C25.257 5.24985 25.0307 5.31945 24.9784 5.29476Z" fill="white"/>
<path fill-rule="evenodd" clip-rule="evenodd" d="M25.3398 5.29476C25.244 5.24536 25.4704 5.17576 25.5226 5.20046C25.614 5.24985 25.392 5.31945 25.3398 5.29476Z" fill="white"/>
<path fill-rule="evenodd" clip-rule="evenodd" d="M40.5761 5.29476C40.4803 5.24536 40.7067 5.17576 40.7589 5.20046C40.8547 5.24985 40.6283 5.31945 40.5761 5.29476Z" fill="white"/>
<path fill-rule="evenodd" clip-rule="evenodd" d="M10.83 5.39241C10.7342 5.34302 10.9606 5.27342 11.0128 5.29811C11.1042 5.34751 10.8822 5.41711 10.83 5.39241Z" fill="white"/>
<path fill-rule="evenodd" clip-rule="evenodd" d="M26.4277 5.39241C26.3319 5.34302 26.5583 5.27342 26.6062 5.29811C26.7019 5.34751 26.4756 5.41711 26.4277 5.39241Z" fill="white"/>
<path fill-rule="evenodd" clip-rule="evenodd" d="M38.3984 5.39968C38.442 5.28293 38.7598 5.30538 38.7598 5.39968C38.5987 5.45805 38.4376 5.51194 38.3984 5.39968Z" fill="white"/>
<path fill-rule="evenodd" clip-rule="evenodd" d="M3.75563 5.58074C3.31595 5.89506 4.36508 5.35397 3.75563 5.58074V5.58074Z" fill="white"/>
<path fill-rule="evenodd" clip-rule="evenodd" d="M26.0664 5.57867C26.0708 5.48886 26.2884 5.50683 26.4277 5.48438C26.4234 5.57643 26.2057 5.55622 26.0664 5.57867Z" fill="white"/>
<path fill-rule="evenodd" clip-rule="evenodd" d="M9.55851 5.67757C9.46274 5.62817 9.68911 5.55857 9.74135 5.58327C9.83712 5.63266 9.61075 5.70226 9.55851 5.67757Z" fill="white"/>
<path fill-rule="evenodd" clip-rule="evenodd" d="M38.2206 5.67757C38.1249 5.62817 38.3512 5.55857 38.3991 5.58327C38.4949 5.63266 38.2685 5.70226 38.2206 5.67757Z" fill="white"/>
<path fill-rule="evenodd" clip-rule="evenodd" d="M44.2069 5.67757C44.1112 5.62817 44.3375 5.55857 44.3898 5.58327C44.4856 5.63266 44.2592 5.70226 44.2069 5.67757Z" fill="white"/>
<path fill-rule="evenodd" clip-rule="evenodd" d="M1.76163 5.76602C1.66586 5.71663 1.89223 5.64703 1.94447 5.67397C2.03589 5.72337 1.81387 5.79297 1.76163 5.76602Z" fill="white"/>
<path fill-rule="evenodd" clip-rule="evenodd" d="M12.4628 5.76602C12.367 5.71663 12.5934 5.64703 12.6456 5.67397C12.7414 5.72337 12.515 5.79297 12.4628 5.76602Z" fill="white"/>
<path fill-rule="evenodd" clip-rule="evenodd" d="M14.0956 5.76602C13.9998 5.71663 14.2262 5.64703 14.2785 5.67397C14.3742 5.72337 14.1479 5.79297 14.0956 5.76602Z" fill="white"/>
<path fill-rule="evenodd" clip-rule="evenodd" d="M21.5292 5.76602C21.4334 5.71663 21.6598 5.64703 21.712 5.67397C21.8078 5.72337 21.5815 5.79297 21.5292 5.76602Z" fill="white"/>
<path fill-rule="evenodd" clip-rule="evenodd" d="M36.4044 5.77152C36.4392 5.66599 36.5872 5.71988 36.5829 5.77152C36.548 5.87704 36.4 5.82315 36.4044 5.77152Z" fill="white"/>
<path fill-rule="evenodd" clip-rule="evenodd" d="M36.9491 5.76602C36.8534 5.71663 37.0797 5.64703 37.132 5.67397C37.2277 5.72337 37.0014 5.79297 36.9491 5.76602Z" fill="white"/>
<path fill-rule="evenodd" clip-rule="evenodd" d="M37.3105 5.76602C37.2147 5.71663 37.4411 5.64703 37.489 5.67397C37.5847 5.72337 37.3584 5.79297 37.3105 5.76602Z" fill="white"/>
<path fill-rule="evenodd" clip-rule="evenodd" d="M41.8476 5.85726C41.7518 5.80786 41.9782 5.73826 42.0261 5.76296C42.1218 5.81235 41.8955 5.88195 41.8476 5.85726Z" fill="white"/>
<path fill-rule="evenodd" clip-rule="evenodd" d="M11.9179 6.04866C11.8221 5.99927 12.0485 5.92967 12.0964 5.95436C12.1922 6.00376 11.9658 6.07336 11.9179 6.04866Z" fill="white"/>
<path fill-rule="evenodd" clip-rule="evenodd" d="M11.0117 6.13851C10.9159 6.08911 11.1423 6.01951 11.1901 6.04421C11.2859 6.0936 11.0595 6.1632 11.0117 6.13851Z" fill="white"/>
<path fill-rule="evenodd" clip-rule="evenodd" d="M20.2597 6.13851C20.1639 6.08911 20.3903 6.01951 20.4425 6.04421C20.5383 6.0936 20.3119 6.1632 20.2597 6.13851Z" fill="white"/>
<path fill-rule="evenodd" clip-rule="evenodd" d="M11.5566 6.23478C11.4608 6.18538 11.6872 6.11578 11.7394 6.14272C11.8352 6.19212 11.6088 6.26172 11.5566 6.23478Z" fill="white"/>
<path fill-rule="evenodd" clip-rule="evenodd" d="M33.5019 6.23478C33.4061 6.18538 33.6325 6.11578 33.6847 6.14272C33.7761 6.19212 33.5541 6.26172 33.5019 6.23478Z" fill="white"/>
<path fill-rule="evenodd" clip-rule="evenodd" d="M36.0448 6.23478C35.9491 6.18538 36.1754 6.11578 36.2277 6.14272C36.3234 6.19212 36.0971 6.26172 36.0448 6.23478Z" fill="white"/>
<path fill-rule="evenodd" clip-rule="evenodd" d="M36.5839 6.23478C36.4881 6.18538 36.7145 6.11578 36.7667 6.14272C36.8625 6.19212 36.6361 6.26172 36.5839 6.23478Z" fill="white"/>
<path fill-rule="evenodd" clip-rule="evenodd" d="M38.0391 6.2347C38.1174 6.09775 38.2001 6.24368 38.4004 6.2347C38.3569 6.35145 38.0391 6.329 38.0391 6.2347Z" fill="white"/>
<path fill-rule="evenodd" clip-rule="evenodd" d="M13.3672 6.32715C13.402 6.21939 13.55 6.27552 13.55 6.32715C13.5152 6.43268 13.3672 6.37879 13.3672 6.32715Z" fill="white"/>
<path fill-rule="evenodd" clip-rule="evenodd" d="M25.8827 6.41837C25.787 6.36898 26.0133 6.29938 26.0656 6.32632C26.1613 6.37571 25.935 6.44531 25.8827 6.41837Z" fill="white"/>
<path fill-rule="evenodd" clip-rule="evenodd" d="M30.0585 6.41837C29.9628 6.36898 30.1891 6.29938 30.237 6.32632C30.3328 6.37571 30.1064 6.44531 30.0585 6.41837Z" fill="white"/>
<path fill-rule="evenodd" clip-rule="evenodd" d="M7.56437 6.51741C7.4686 6.46802 7.69497 6.39842 7.7472 6.42311C7.84298 6.47251 7.61661 6.54211 7.56437 6.51741Z" fill="white"/>
<path fill-rule="evenodd" clip-rule="evenodd" d="M19.5367 6.42578C18.9838 6.74011 20.2071 6.70868 19.5367 6.42578V6.42578Z" fill="white"/>
<path fill-rule="evenodd" clip-rule="evenodd" d="M22.0741 6.51741C21.9784 6.46802 22.2047 6.39842 22.257 6.42311C22.3527 6.47251 22.1264 6.54211 22.0741 6.51741Z" fill="white"/>
<path fill-rule="evenodd" clip-rule="evenodd" d="M9.37492 6.61507C9.27914 6.56567 9.50551 6.49607 9.55775 6.52077C9.65352 6.57016 9.42715 6.63976 9.37492 6.61507Z" fill="white"/>
<path fill-rule="evenodd" clip-rule="evenodd" d="M21.5292 6.61507C21.4334 6.56567 21.6598 6.49607 21.712 6.52077C21.8078 6.57016 21.5815 6.63976 21.5292 6.61507Z" fill="white"/>
<path fill-rule="evenodd" clip-rule="evenodd" d="M32.5956 6.61507C32.4998 6.56567 32.7262 6.49607 32.7785 6.52077C32.8699 6.57016 32.6479 6.63976 32.5956 6.61507Z" fill="white"/>
<path fill-rule="evenodd" clip-rule="evenodd" d="M11.1913 6.70101C11.0956 6.65161 11.3219 6.58201 11.3742 6.60671C11.4699 6.6561 11.2436 6.7257 11.1913 6.70101Z" fill="white"/>
<path fill-rule="evenodd" clip-rule="evenodd" d="M15.7265 6.79085C15.6307 6.74145 15.8571 6.67185 15.9093 6.69655C16.0051 6.74595 15.7787 6.81555 15.7265 6.79085Z" fill="white"/>
<path fill-rule="evenodd" clip-rule="evenodd" d="M8.83585 6.89493C8.74008 6.84554 8.96645 6.77594 9.01869 6.80288C9.11446 6.85227 8.88809 6.92187 8.83585 6.89493Z" fill="white"/>
<path fill-rule="evenodd" clip-rule="evenodd" d="M42.0253 6.89493C41.9295 6.84554 42.1559 6.77594 42.2081 6.80288C42.3039 6.85227 42.0775 6.92187 42.0253 6.89493Z" fill="white"/>
<path fill-rule="evenodd" clip-rule="evenodd" d="M20.8085 7.07991C20.7127 7.03052 20.9391 6.96092 20.9913 6.98561C21.0828 7.03501 20.8607 7.10461 20.8085 7.07991Z" fill="white"/>
<path fill-rule="evenodd" clip-rule="evenodd" d="M31.3261 7.07991C31.2303 7.03052 31.4567 6.96092 31.5089 6.98561C31.6047 7.03501 31.3783 7.10461 31.3261 7.07991Z" fill="white"/>
<path fill-rule="evenodd" clip-rule="evenodd" d="M41.4843 7.07991C41.3885 7.03052 41.6149 6.96092 41.6671 6.98561C41.7629 7.03501 41.5365 7.10461 41.4843 7.07991Z" fill="white"/>
<path fill-rule="evenodd" clip-rule="evenodd" d="M23.3456 7.16837C23.2498 7.11898 23.4762 7.04938 23.5285 7.07632C23.6242 7.12571 23.3979 7.19531 23.3456 7.16837Z" fill="white"/>
<path fill-rule="evenodd" clip-rule="evenodd" d="M27.1543 7.16921C27.1978 7.05246 27.5156 7.07491 27.5156 7.16921C27.3545 7.22758 27.1935 7.28147 27.1543 7.16921Z" fill="white"/>
<path fill-rule="evenodd" clip-rule="evenodd" d="M35.4999 7.16837C35.4042 7.11898 35.6305 7.04938 35.6784 7.07632C35.7742 7.12571 35.5478 7.19531 35.4999 7.16837Z" fill="white"/>
<path fill-rule="evenodd" clip-rule="evenodd" d="M43.1132 7.16837C43.0174 7.11898 43.2438 7.04938 43.296 7.07632C43.3918 7.12571 43.1654 7.19531 43.1132 7.16837Z" fill="white"/>
<path fill-rule="evenodd" clip-rule="evenodd" d="M24.6171 7.26741C24.5214 7.21802 24.7477 7.14842 24.7956 7.17311C24.8914 7.22251 24.665 7.29211 24.6171 7.26741Z" fill="white"/>
<path fill-rule="evenodd" clip-rule="evenodd" d="M27.8808 7.26741C27.785 7.21802 28.0114 7.14842 28.0636 7.17311C28.1594 7.22251 27.933 7.29211 27.8808 7.26741Z" fill="white"/>
<path fill-rule="evenodd" clip-rule="evenodd" d="M38.9433 7.26741C38.8475 7.21802 39.0739 7.14842 39.1261 7.17311C39.2175 7.22251 38.9955 7.29211 38.9433 7.26741Z" fill="white"/>
<path fill-rule="evenodd" clip-rule="evenodd" d="M43.4804 7.26741C43.3846 7.21802 43.611 7.14842 43.6632 7.17311C43.7546 7.22251 43.5326 7.29211 43.4804 7.26741Z" fill="white"/>
<path fill-rule="evenodd" clip-rule="evenodd" d="M12.6444 7.45101C12.5487 7.40161 12.775 7.33201 12.8273 7.35671C12.9187 7.4061 12.6967 7.47571 12.6444 7.45101Z" fill="white"/>
<path fill-rule="evenodd" clip-rule="evenodd" d="M4.84367 7.63712C4.74789 7.58773 4.97426 7.51813 5.0265 7.54507C5.12227 7.59446 4.8959 7.66406 4.84367 7.63712Z" fill="white"/>
<path fill-rule="evenodd" clip-rule="evenodd" d="M9.92374 7.63712C9.82797 7.58773 10.0543 7.51813 10.1066 7.54507C10.198 7.59446 9.97598 7.66406 9.92374 7.63712Z" fill="white"/>
<path fill-rule="evenodd" clip-rule="evenodd" d="M21.3476 7.82071C21.2518 7.77132 21.4782 7.70172 21.5304 7.72866C21.6262 7.77806 21.3998 7.84766 21.3476 7.82071Z" fill="white"/>
<path fill-rule="evenodd" clip-rule="evenodd" d="M37.3105 7.82071C37.2147 7.77132 37.4411 7.70172 37.489 7.72866C37.5847 7.77806 37.3584 7.84766 37.3105 7.82071Z" fill="white"/>
<path fill-rule="evenodd" clip-rule="evenodd" d="M14.8183 7.91975C14.7225 7.87036 14.9489 7.80076 15.0011 7.82546C15.0969 7.87485 14.8705 7.94445 14.8183 7.91975Z" fill="white"/>
<path fill-rule="evenodd" clip-rule="evenodd" d="M19.7187 7.91975C19.6229 7.87036 19.8493 7.80076 19.9015 7.82546C19.9973 7.87485 19.7709 7.94445 19.7187 7.91975Z" fill="white"/>
<path fill-rule="evenodd" clip-rule="evenodd" d="M31.8691 8.01351C31.7733 7.96411 31.9997 7.89451 32.0476 7.91921C32.1433 7.9686 31.917 8.03821 31.8691 8.01351Z" fill="white"/>
<path fill-rule="evenodd" clip-rule="evenodd" d="M22.4394 8.11116C22.3436 8.06177 22.57 7.99217 22.6222 8.01686C22.718 8.06626 22.4916 8.13586 22.4394 8.11116Z" fill="white"/>
<path fill-rule="evenodd" clip-rule="evenodd" d="M43.1132 8.11116C43.0174 8.06177 43.2438 7.99217 43.296 8.01686C43.3918 8.06626 43.1654 8.13586 43.1132 8.11116Z" fill="white"/>
<path fill-rule="evenodd" clip-rule="evenodd" d="M3.57218 8.201C3.47641 8.15161 3.70278 8.08201 3.75502 8.10671C3.84644 8.1561 3.62442 8.2257 3.57218 8.201Z" fill="white"/>
<path fill-rule="evenodd" clip-rule="evenodd" d="M12.4628 8.3846C12.367 8.33521 12.5934 8.2656 12.6456 8.2903C12.7414 8.3397 12.515 8.4093 12.4628 8.3846Z" fill="white"/>
<path fill-rule="evenodd" clip-rule="evenodd" d="M31.3261 8.3846C31.2303 8.33521 31.4567 8.2656 31.5089 8.2903C31.6047 8.3397 31.3783 8.4093 31.3261 8.3846Z" fill="white"/>
<path fill-rule="evenodd" clip-rule="evenodd" d="M3.39445 8.48225C3.29868 8.43286 3.52504 8.36326 3.57728 8.38796C3.67305 8.43735 3.44669 8.50695 3.39445 8.48225Z" fill="white"/>
<path fill-rule="evenodd" clip-rule="evenodd" d="M26.6113 8.48245C26.6462 8.37693 26.7942 8.43081 26.7942 8.48245C26.7593 8.58798 26.6113 8.53409 26.6113 8.48245Z" fill="white"/>
<path fill-rule="evenodd" clip-rule="evenodd" d="M41.4863 8.48245C41.5212 8.37693 41.6692 8.43081 41.6692 8.48245C41.6343 8.58798 41.4863 8.53409 41.4863 8.48245Z" fill="white"/>
<path fill-rule="evenodd" clip-rule="evenodd" d="M40.0312 8.57462C39.9354 8.52523 40.1618 8.45563 40.2097 8.48257C40.3054 8.53196 40.0791 8.60156 40.0312 8.57462Z" fill="white"/>
<path fill-rule="evenodd" clip-rule="evenodd" d="M3.57218 8.66585C3.47641 8.61646 3.70278 8.54685 3.75502 8.57155C3.84644 8.62095 3.62442 8.69055 3.57218 8.66585Z" fill="white"/>
<path fill-rule="evenodd" clip-rule="evenodd" d="M26.4277 8.76212C26.3319 8.71273 26.5583 8.64313 26.6062 8.67007C26.7019 8.71946 26.4756 8.78906 26.4277 8.76212Z" fill="white"/>
<path fill-rule="evenodd" clip-rule="evenodd" d="M29.6933 8.9471C29.5975 8.89771 29.8239 8.8281 29.8761 8.8528C29.9719 8.9022 29.7455 8.9718 29.6933 8.9471Z" fill="white"/>
<path fill-rule="evenodd" clip-rule="evenodd" d="M43.2968 9.04337C43.201 8.99398 43.4274 8.92438 43.4796 8.95132C43.5754 9.00071 43.349 9.07031 43.2968 9.04337Z" fill="white"/>
<path fill-rule="evenodd" clip-rule="evenodd" d="M4.11696 9.13152C3.67728 9.44584 4.72641 8.90475 4.11696 9.13152V9.13152Z" fill="white"/>
<path fill-rule="evenodd" clip-rule="evenodd" d="M12.6444 9.1346C12.5487 9.08521 12.775 9.0156 12.8273 9.0403C12.9187 9.0897 12.6967 9.1593 12.6444 9.1346Z" fill="white"/>
<path fill-rule="evenodd" clip-rule="evenodd" d="M20.08 9.1346C19.9842 9.08521 20.2106 9.0156 20.2585 9.0403C20.3543 9.0897 20.1279 9.1593 20.08 9.1346Z" fill="white"/>
<path fill-rule="evenodd" clip-rule="evenodd" d="M2.66788 9.31819C2.57211 9.2688 2.79848 9.1992 2.85072 9.2239C2.94214 9.27329 2.72012 9.34289 2.66788 9.31819Z" fill="white"/>
<path fill-rule="evenodd" clip-rule="evenodd" d="M22.4394 9.31819C22.3436 9.2688 22.57 9.1992 22.6222 9.2239C22.718 9.27329 22.4916 9.34289 22.4394 9.31819Z" fill="white"/>
<path fill-rule="evenodd" clip-rule="evenodd" d="M26.4277 9.41585C26.3319 9.36646 26.5583 9.29685 26.6062 9.32155C26.7019 9.37095 26.4756 9.44055 26.4277 9.41585Z" fill="white"/>
<path fill-rule="evenodd" clip-rule="evenodd" d="M36.4044 9.41605C36.4392 9.31052 36.5872 9.36441 36.5829 9.41605C36.548 9.52157 36.4 9.46769 36.4044 9.41605Z" fill="white"/>
<path fill-rule="evenodd" clip-rule="evenodd" d="M38.0377 9.41762C38.1334 9.27393 38.2249 9.41088 38.2205 9.51192C38.1247 9.65561 38.029 9.51866 38.0377 9.41762Z" fill="white"/>
<path fill-rule="evenodd" clip-rule="evenodd" d="M28.2421 9.59944C28.1464 9.55005 28.3727 9.48045 28.4206 9.50515C28.5164 9.55454 28.29 9.62414 28.2421 9.59944Z" fill="white"/>
<path fill-rule="evenodd" clip-rule="evenodd" d="M2.30273 9.69752C2.30709 9.60547 2.52475 9.62568 2.66405 9.60547C2.6597 9.69528 2.44204 9.67732 2.30273 9.69752Z" fill="white"/>
<path fill-rule="evenodd" clip-rule="evenodd" d="M13.0058 9.69571C12.91 9.64632 13.1364 9.57672 13.1886 9.60366C13.2844 9.65306 13.058 9.72266 13.0058 9.69571Z" fill="white"/>
<path fill-rule="evenodd" clip-rule="evenodd" d="M30.9628 9.69571C30.8671 9.64632 31.0934 9.57672 31.1413 9.60366C31.2371 9.65306 31.0107 9.72266 30.9628 9.69571Z" fill="white"/>
<path fill-rule="evenodd" clip-rule="evenodd" d="M34.9511 9.69571C34.8553 9.64632 35.0817 9.57672 35.1339 9.60366C35.2297 9.65306 35.0033 9.72266 34.9511 9.69571Z" fill="white"/>
<path fill-rule="evenodd" clip-rule="evenodd" d="M26.6112 9.78695C26.5155 9.73755 26.7418 9.66795 26.7941 9.69264C26.8899 9.74204 26.6635 9.81164 26.6112 9.78695Z" fill="white"/>
<path fill-rule="evenodd" clip-rule="evenodd" d="M34.5898 9.78695C34.494 9.73755 34.7204 9.66795 34.7683 9.69264C34.864 9.74204 34.6377 9.81164 34.5898 9.78695Z" fill="white"/>
<path fill-rule="evenodd" clip-rule="evenodd" d="M38.2208 9.78714C38.2556 9.68162 38.4036 9.7355 38.3993 9.78714C38.3645 9.89491 38.2164 9.83878 38.2208 9.78714Z" fill="white"/>
<path fill-rule="evenodd" clip-rule="evenodd" d="M30.6015 9.88069C30.5057 9.8313 30.7321 9.7617 30.7843 9.7864C30.8801 9.83579 30.6537 9.90539 30.6015 9.88069Z" fill="white"/>
<path fill-rule="evenodd" clip-rule="evenodd" d="M9.01359 9.97696C8.91782 9.92757 9.14419 9.85797 9.19642 9.88491C9.28784 9.93431 9.06583 10.0039 9.01359 9.97696Z" fill="white"/>
<path fill-rule="evenodd" clip-rule="evenodd" d="M24.0684 9.98245C24.1032 9.87693 24.2512 9.93081 24.2512 9.98245C24.2164 10.088 24.0684 10.0341 24.0684 9.98245Z" fill="white"/>
<path fill-rule="evenodd" clip-rule="evenodd" d="M34.7734 9.97696C34.6776 9.92757 34.9039 9.85797 34.9562 9.88491C35.052 9.93431 34.8256 10.0039 34.7734 9.97696Z" fill="white"/>
<path fill-rule="evenodd" clip-rule="evenodd" d="M11.5566 10.1645C11.4608 10.1151 11.6872 10.0455 11.7394 10.0724C11.8352 10.1218 11.6088 10.1914 11.5566 10.1645Z" fill="white"/>
<path fill-rule="evenodd" clip-rule="evenodd" d="M15.545 10.2559C15.5798 10.1504 15.7279 10.2043 15.7235 10.2559C15.6887 10.3637 15.5407 10.3075 15.545 10.2559Z" fill="white"/>
<path fill-rule="evenodd" clip-rule="evenodd" d="M44.2069 10.3494C44.1112 10.3001 44.3375 10.2304 44.3898 10.2551C44.4856 10.3045 44.2592 10.3741 44.2069 10.3494Z" fill="white"/>
<path fill-rule="evenodd" clip-rule="evenodd" d="M28.4218 10.7283C28.326 10.679 28.5524 10.6094 28.6046 10.6341C28.7004 10.6834 28.474 10.753 28.4218 10.7283Z" fill="white"/>
<path fill-rule="evenodd" clip-rule="evenodd" d="M16.998 10.8182C16.9022 10.7688 17.1286 10.6992 17.1808 10.7239C17.2766 10.7733 17.0502 10.8429 16.998 10.8182Z" fill="white"/>
<path fill-rule="evenodd" clip-rule="evenodd" d="M25.5214 10.8182C25.4257 10.7688 25.652 10.6992 25.6999 10.7239C25.7957 10.7733 25.5693 10.8429 25.5214 10.8182Z" fill="white"/>
<path fill-rule="evenodd" clip-rule="evenodd" d="M44.3848 10.8184C44.4196 10.7129 44.5676 10.7668 44.5676 10.8184C44.5328 10.9239 44.3848 10.87 44.3848 10.8184Z" fill="white"/>
<path fill-rule="evenodd" clip-rule="evenodd" d="M9.01359 10.9119C8.91782 10.8626 9.14419 10.7929 9.19642 10.8176C9.28784 10.867 9.06583 10.9366 9.01359 10.9119Z" fill="white"/>
<path fill-rule="evenodd" clip-rule="evenodd" d="M14.0957 11.1942C14.1741 11.0595 14.2568 11.2054 14.457 11.1942C14.4135 11.3109 14.0957 11.2885 14.0957 11.1942Z" fill="white"/>
<path fill-rule="evenodd" clip-rule="evenodd" d="M14.9999 11.1932C14.9041 11.1438 15.1305 11.0742 15.1828 11.0989C15.2785 11.1483 15.0522 11.2179 14.9999 11.1932Z" fill="white"/>
<path fill-rule="evenodd" clip-rule="evenodd" d="M16.0878 11.3793C15.992 11.3299 16.2184 11.2603 16.2706 11.2873C16.3664 11.3366 16.14 11.4063 16.0878 11.3793Z" fill="white"/>
<path fill-rule="evenodd" clip-rule="evenodd" d="M25.7011 11.3793C25.6053 11.3299 25.8317 11.2603 25.8839 11.2873C25.9797 11.3366 25.7533 11.4063 25.7011 11.3793Z" fill="white"/>
<path fill-rule="evenodd" clip-rule="evenodd" d="M25.3398 11.4744C25.244 11.4251 25.4704 11.3554 25.5226 11.3801C25.614 11.4295 25.392 11.4991 25.3398 11.4744Z" fill="white"/>
<path fill-rule="evenodd" clip-rule="evenodd" d="M39.6699 11.4795C39.7047 11.3717 39.8528 11.4279 39.8528 11.4795C39.8179 11.585 39.6699 11.5311 39.6699 11.4795Z" fill="white"/>
<path fill-rule="evenodd" clip-rule="evenodd" d="M26.6112 11.5707C26.5155 11.5213 26.7418 11.4517 26.7941 11.4787C26.8899 11.5281 26.6635 11.5977 26.6112 11.5707Z" fill="white"/>
<path fill-rule="evenodd" clip-rule="evenodd" d="M42.7519 11.5707C42.6561 11.5213 42.8825 11.4517 42.9304 11.4787C43.0261 11.5281 42.7998 11.5977 42.7519 11.5707Z" fill="white"/>
<path fill-rule="evenodd" clip-rule="evenodd" d="M2.12296 11.6619C2.02719 11.6126 2.25356 11.5429 2.3058 11.5676C2.40157 11.617 2.1752 11.6866 2.12296 11.6619Z" fill="white"/>
<path fill-rule="evenodd" clip-rule="evenodd" d="M17.3593 11.6619C17.2635 11.6126 17.4899 11.5429 17.5378 11.5676C17.6336 11.617 17.4072 11.6866 17.3593 11.6619Z" fill="white"/>
<path fill-rule="evenodd" clip-rule="evenodd" d="M23.707 11.7518C23.6112 11.7024 23.8376 11.6328 23.8855 11.6575C23.9812 11.7069 23.7549 11.7765 23.707 11.7518Z" fill="white"/>
<path fill-rule="evenodd" clip-rule="evenodd" d="M5.02335 11.8442C4.92758 11.7948 5.15395 11.7252 5.20619 11.7521C5.30196 11.8015 5.07559 11.8711 5.02335 11.8442Z" fill="white"/>
<path fill-rule="evenodd" clip-rule="evenodd" d="M42.7519 11.8442C42.6561 11.7948 42.8825 11.7252 42.9304 11.7521C43.0261 11.8015 42.7998 11.8711 42.7519 11.8442Z" fill="white"/>
<path fill-rule="evenodd" clip-rule="evenodd" d="M38.9433 11.9432C38.8475 11.8938 39.0739 11.8242 39.1261 11.8489C39.2175 11.8983 38.9955 11.9679 38.9433 11.9432Z" fill="white"/>
<path fill-rule="evenodd" clip-rule="evenodd" d="M34.412 12.0395C34.3163 11.9901 34.5426 11.9205 34.5949 11.9474C34.6863 11.9968 34.4643 12.0664 34.412 12.0395Z" fill="white"/>
<path fill-rule="evenodd" clip-rule="evenodd" d="M17.9042 12.2166C17.8084 12.1672 18.0348 12.0976 18.087 12.1223C18.1828 12.1717 17.9565 12.2413 17.9042 12.2166Z" fill="white"/>
<path fill-rule="evenodd" clip-rule="evenodd" d="M40.3926 12.2285C40.4274 12.123 40.5754 12.1769 40.5754 12.2285C40.5406 12.3341 40.3926 12.2802 40.3926 12.2285Z" fill="white"/>
<path fill-rule="evenodd" clip-rule="evenodd" d="M3.75595 12.3145C3.79078 12.209 3.93879 12.2628 3.93444 12.3145C3.89961 12.42 3.7516 12.3661 3.75595 12.3145Z" fill="white"/>
<path fill-rule="evenodd" clip-rule="evenodd" d="M44.3847 12.3143C44.2889 12.2649 44.5153 12.1953 44.5675 12.22C44.6589 12.2694 44.4369 12.339 44.3847 12.3143Z" fill="white"/>
<path fill-rule="evenodd" clip-rule="evenodd" d="M31.1425 12.4119C31.0467 12.3625 31.2731 12.2929 31.3253 12.3176C31.4211 12.367 31.1947 12.4366 31.1425 12.4119Z" fill="white"/>
<path fill-rule="evenodd" clip-rule="evenodd" d="M7.56437 12.5043C7.4686 12.4549 7.69497 12.3853 7.7472 12.4123C7.84298 12.4616 7.61661 12.5313 7.56437 12.5043Z" fill="white"/>
<path fill-rule="evenodd" clip-rule="evenodd" d="M11.5566 12.5012C11.6002 12.3845 11.918 12.4069 11.918 12.5012C11.7569 12.5596 11.5915 12.6135 11.5566 12.5012Z" fill="white"/>
<path fill-rule="evenodd" clip-rule="evenodd" d="M20.0802 12.5098C20.115 12.4043 20.263 12.4582 20.2587 12.5098C20.2238 12.6153 20.0758 12.5614 20.0802 12.5098Z" fill="white"/>
<path fill-rule="evenodd" clip-rule="evenodd" d="M38.7655 12.5043C38.6698 12.4549 38.8961 12.3853 38.9484 12.4123C39.0441 12.4616 38.8178 12.5313 38.7655 12.5043Z" fill="white"/>
<path fill-rule="evenodd" clip-rule="evenodd" d="M44.2069 12.5043C44.1112 12.4549 44.3375 12.3853 44.3898 12.4123C44.4856 12.4616 44.2592 12.5313 44.2069 12.5043Z" fill="white"/>
<path fill-rule="evenodd" clip-rule="evenodd" d="M9.92374 12.6932C9.82797 12.6438 10.0543 12.5742 10.1066 12.5989C10.198 12.6483 9.97598 12.7179 9.92374 12.6932Z" fill="white"/>
<path fill-rule="evenodd" clip-rule="evenodd" d="M44.0234 12.6932C43.9276 12.6438 44.1539 12.5742 44.2062 12.5989C44.302 12.6483 44.0756 12.7179 44.0234 12.6932Z" fill="white"/>
<path fill-rule="evenodd" clip-rule="evenodd" d="M42.7519 12.7856C42.6561 12.7362 42.8825 12.6666 42.9304 12.6935C43.0261 12.7429 42.7998 12.8125 42.7519 12.7856Z" fill="white"/>
<path fill-rule="evenodd" clip-rule="evenodd" d="M33.5019 12.9731C33.4061 12.9237 33.6325 12.8541 33.6847 12.881C33.7761 12.9304 33.5541 13 33.5019 12.9731Z" fill="white"/>
<path fill-rule="evenodd" clip-rule="evenodd" d="M2.12305 13.0645C2.15787 12.959 2.30588 13.0128 2.30588 13.0645C2.27106 13.1723 2.12305 13.1161 2.12305 13.0645Z" fill="white"/>
<path fill-rule="evenodd" clip-rule="evenodd" d="M26.9726 13.0643C26.8768 13.0149 27.1032 12.9453 27.1554 12.97C27.2512 13.0194 27.0248 13.089 26.9726 13.0643Z" fill="white"/>
<path fill-rule="evenodd" clip-rule="evenodd" d="M8.10938 13.1621C8.1442 13.0566 8.29221 13.1105 8.29221 13.1621C8.25738 13.2677 8.10938 13.2138 8.10938 13.1621Z" fill="white"/>
<path fill-rule="evenodd" clip-rule="evenodd" d="M28.6034 13.2543C28.5077 13.2049 28.734 13.1353 28.7863 13.1623C28.882 13.2116 28.6557 13.2813 28.6034 13.2543Z" fill="white"/>
<path fill-rule="evenodd" clip-rule="evenodd" d="M32.7792 13.2543C32.6835 13.2049 32.9098 13.1353 32.9577 13.1623C33.0535 13.2116 32.8271 13.2813 32.7792 13.2543Z" fill="white"/>
<path fill-rule="evenodd" clip-rule="evenodd" d="M41.3027 13.4397C41.3071 13.3477 41.5248 13.3679 41.6641 13.3477C41.6597 13.4375 41.442 13.4195 41.3027 13.4397Z" fill="white"/>
<path fill-rule="evenodd" clip-rule="evenodd" d="M31.1425 13.6268C31.0467 13.5774 31.2731 13.5078 31.3253 13.5325C31.4211 13.5819 31.1947 13.6515 31.1425 13.6268Z" fill="white"/>
<path fill-rule="evenodd" clip-rule="evenodd" d="M9.01367 13.7239C9.0572 13.6071 9.37499 13.6296 9.37499 13.7239C9.21392 13.7823 9.05285 13.8362 9.01367 13.7239Z" fill="white"/>
<path fill-rule="evenodd" clip-rule="evenodd" d="M25.8827 13.7166C25.787 13.6672 26.0133 13.5976 26.0656 13.6223C26.1613 13.6717 25.935 13.7413 25.8827 13.7166Z" fill="white"/>
<path fill-rule="evenodd" clip-rule="evenodd" d="M8.10929 13.9067C8.01352 13.8573 8.23989 13.7877 8.29213 13.8146C8.38354 13.864 8.16153 13.9336 8.10929 13.9067Z" fill="white"/>
<path fill-rule="evenodd" clip-rule="evenodd" d="M19.1757 13.9979C19.0799 13.9485 19.3063 13.8789 19.3542 13.9036C19.45 13.953 19.2236 14.0226 19.1757 13.9979Z" fill="white"/>
<path fill-rule="evenodd" clip-rule="evenodd" d="M32.5956 13.9979C32.4998 13.9485 32.7262 13.8789 32.7785 13.9036C32.8699 13.953 32.6479 14.0226 32.5956 13.9979Z" fill="white"/>
<path fill-rule="evenodd" clip-rule="evenodd" d="M35.3184 13.9981C35.3532 13.8926 35.5012 13.9464 35.5012 13.9981C35.4664 14.1058 35.3184 14.0497 35.3184 13.9981Z" fill="white"/>
<path fill-rule="evenodd" clip-rule="evenodd" d="M25.5214 14.0916C25.4257 14.0422 25.652 13.9726 25.6999 13.9973C25.7957 14.0467 25.5693 14.1163 25.5214 14.0916Z" fill="white"/>
<path fill-rule="evenodd" clip-rule="evenodd" d="M29.6933 14.0916C29.5975 14.0422 29.8239 13.9726 29.8761 13.9973C29.9719 14.0467 29.7455 14.1163 29.6933 14.0916Z" fill="white"/>
<path fill-rule="evenodd" clip-rule="evenodd" d="M8.10929 14.1879C8.01352 14.1385 8.23989 14.0689 8.29213 14.0958C8.38354 14.1452 8.16153 14.2148 8.10929 14.1879Z" fill="white"/>
<path fill-rule="evenodd" clip-rule="evenodd" d="M31.8691 14.1879C31.7733 14.1385 31.9997 14.0689 32.0476 14.0958C32.1433 14.1452 31.917 14.2148 31.8691 14.1879Z" fill="white"/>
<path fill-rule="evenodd" clip-rule="evenodd" d="M36.5839 14.2791C36.4881 14.2297 36.7145 14.1601 36.7667 14.1848C36.8625 14.2342 36.6361 14.3038 36.5839 14.2791Z" fill="white"/>
<path fill-rule="evenodd" clip-rule="evenodd" d="M3.57227 14.3692C3.60709 14.2636 3.7551 14.3175 3.7551 14.3692C3.72028 14.4747 3.57227 14.4208 3.57227 14.3692Z" fill="white"/>
<path fill-rule="evenodd" clip-rule="evenodd" d="M9.1972 14.4705C9.10143 14.4211 9.3278 14.3515 9.37569 14.3762C9.47146 14.4256 9.24509 14.4952 9.1972 14.4705Z" fill="white"/>
<path fill-rule="evenodd" clip-rule="evenodd" d="M10.1035 14.4705C10.0077 14.4211 10.2341 14.3515 10.2819 14.3762C10.3777 14.4256 10.1513 14.4952 10.1035 14.4705Z" fill="white"/>
<path fill-rule="evenodd" clip-rule="evenodd" d="M24.9784 14.4705C24.8827 14.4211 25.109 14.3515 25.1613 14.3762C25.257 14.4256 25.0307 14.4952 24.9784 14.4705Z" fill="white"/>
<path fill-rule="evenodd" clip-rule="evenodd" d="M37.6718 14.5682C37.576 14.5188 37.8024 14.4492 37.8546 14.4739C37.9504 14.5233 37.724 14.5929 37.6718 14.5682Z" fill="white"/>
<path fill-rule="evenodd" clip-rule="evenodd" d="M9.74219 14.6504C9.77701 14.5449 9.92502 14.5988 9.92502 14.6504C9.8902 14.7559 9.74219 14.7021 9.74219 14.6504Z" fill="white"/>
<path fill-rule="evenodd" clip-rule="evenodd" d="M22.8007 14.6527C22.7049 14.6034 22.9313 14.5338 22.9792 14.5607C23.075 14.6101 22.8486 14.6797 22.8007 14.6527Z" fill="white"/>
<path fill-rule="evenodd" clip-rule="evenodd" d="M39.6698 14.6527C39.5741 14.6034 39.8004 14.5338 39.8527 14.5607C39.9484 14.6101 39.7221 14.6797 39.6698 14.6527Z" fill="white"/>
<path fill-rule="evenodd" clip-rule="evenodd" d="M5.74992 14.744C5.65414 14.6946 5.88051 14.625 5.93275 14.6497C6.02852 14.6991 5.80215 14.7687 5.74992 14.744Z" fill="white"/>
<path fill-rule="evenodd" clip-rule="evenodd" d="M19.8984 14.744C19.8026 14.6946 20.0289 14.625 20.0812 14.6497C20.1726 14.6991 19.9506 14.7687 19.8984 14.744Z" fill="white"/>
<path fill-rule="evenodd" clip-rule="evenodd" d="M21.3476 14.744C21.2518 14.6946 21.4782 14.625 21.5304 14.6497C21.6262 14.6991 21.3998 14.7687 21.3476 14.744Z" fill="white"/>
<path fill-rule="evenodd" clip-rule="evenodd" d="M31.5077 14.9393C31.412 14.8899 31.6383 14.8203 31.6906 14.845C31.7863 14.8944 31.56 14.964 31.5077 14.9393Z" fill="white"/>
<path fill-rule="evenodd" clip-rule="evenodd" d="M42.3905 14.9393C42.2948 14.8899 42.5211 14.8203 42.5734 14.845C42.6691 14.8944 42.4428 14.964 42.3905 14.9393Z" fill="white"/>
<path fill-rule="evenodd" clip-rule="evenodd" d="M30.4199 15.0279C30.4243 14.9358 30.6419 14.9538 30.7812 14.9336C30.7769 15.0256 30.5592 15.0077 30.4199 15.0279Z" fill="white"/>
<path fill-rule="evenodd" clip-rule="evenodd" d="M4.66205 15.1229C4.56628 15.0735 4.79264 15.0039 4.84053 15.0286C4.9363 15.078 4.70993 15.1476 4.66205 15.1229Z" fill="white"/>
<path fill-rule="evenodd" clip-rule="evenodd" d="M18.6269 15.1229C18.5311 15.0735 18.7575 15.0039 18.8097 15.0286C18.9055 15.078 18.6791 15.1476 18.6269 15.1229Z" fill="white"/>
<path fill-rule="evenodd" clip-rule="evenodd" d="M11.0117 15.2205C10.9159 15.1711 11.1423 15.1015 11.1901 15.1262C11.2859 15.1756 11.0595 15.2452 11.0117 15.2205Z" fill="white"/>
<path fill-rule="evenodd" clip-rule="evenodd" d="M41.8476 15.2205C41.7518 15.1711 41.9782 15.1015 42.0261 15.1262C42.1218 15.1756 41.8955 15.2452 41.8476 15.2205Z" fill="white"/>
<path fill-rule="evenodd" clip-rule="evenodd" d="M10.4648 15.3129C10.369 15.2635 10.5954 15.1939 10.6476 15.2208C10.7434 15.2702 10.517 15.3398 10.4648 15.3129Z" fill="white"/>
<path fill-rule="evenodd" clip-rule="evenodd" d="M40.0312 15.3129C39.9354 15.2635 40.1618 15.1939 40.2097 15.2208C40.3054 15.2702 40.0791 15.3398 40.0312 15.3129Z" fill="white"/>
<path fill-rule="evenodd" clip-rule="evenodd" d="M24.9785 15.6826C25.0133 15.5749 25.1614 15.631 25.1614 15.6826C25.1265 15.7881 24.9785 15.7343 24.9785 15.6826Z" fill="white"/>
<path fill-rule="evenodd" clip-rule="evenodd" d="M10.83 15.7738C10.7342 15.7244 10.9606 15.6548 11.0128 15.6818C11.1042 15.7312 10.8822 15.8008 10.83 15.7738Z" fill="white"/>
<path fill-rule="evenodd" clip-rule="evenodd" d="M35.4999 15.7738C35.4042 15.7244 35.6305 15.6548 35.6784 15.6818C35.7742 15.7312 35.5478 15.8008 35.4999 15.7738Z" fill="white"/>
<path fill-rule="evenodd" clip-rule="evenodd" d="M36.4062 15.7738C36.3104 15.7244 36.5368 15.6548 36.5847 15.6818C36.6804 15.7312 36.4541 15.8008 36.4062 15.7738Z" fill="white"/>
<path fill-rule="evenodd" clip-rule="evenodd" d="M30.0585 15.8729C29.9628 15.8235 30.1891 15.7539 30.237 15.7786C30.3328 15.828 30.1064 15.8976 30.0585 15.8729Z" fill="white"/>
<path fill-rule="evenodd" clip-rule="evenodd" d="M44.9296 15.8729C44.8338 15.8235 45.0602 15.7539 45.1124 15.7786C45.2082 15.828 44.9818 15.8976 44.9296 15.8729Z" fill="white"/>
<path fill-rule="evenodd" clip-rule="evenodd" d="M8.10929 16.0551C8.01352 16.0057 8.23989 15.9361 8.29213 15.963C8.38354 16.0124 8.16153 16.082 8.10929 16.0551Z" fill="white"/>
<path fill-rule="evenodd" clip-rule="evenodd" d="M10.6465 16.2461H11.0078V16.4324H10.6465V16.2461Z" fill="white"/>
<path fill-rule="evenodd" clip-rule="evenodd" d="M14.6386 16.3377C14.5428 16.2883 14.7692 16.2187 14.8171 16.2434C14.9129 16.2928 14.6865 16.3624 14.6386 16.3377Z" fill="white"/>
<path fill-rule="evenodd" clip-rule="evenodd" d="M2.12296 16.4354C2.02719 16.386 2.25356 16.3164 2.3058 16.3411C2.40157 16.3905 2.1752 16.4601 2.12296 16.4354Z" fill="white"/>
<path fill-rule="evenodd" clip-rule="evenodd" d="M20.8086 16.4317C20.8434 16.3261 20.9914 16.38 20.9914 16.4317C20.9566 16.5372 20.8086 16.4833 20.8086 16.4317Z" fill="white"/>
<path fill-rule="evenodd" clip-rule="evenodd" d="M41.664 16.4354C41.5682 16.386 41.7946 16.3164 41.8468 16.3411C41.9382 16.3905 41.7162 16.4601 41.664 16.4354Z" fill="white"/>
<path fill-rule="evenodd" clip-rule="evenodd" d="M5.74992 16.5252C5.65414 16.4758 5.88051 16.4062 5.93275 16.4309C6.02852 16.4803 5.80215 16.5499 5.74992 16.5252Z" fill="white"/>
<path fill-rule="evenodd" clip-rule="evenodd" d="M37.6718 16.5252C37.576 16.4758 37.8024 16.4062 37.8546 16.4309C37.9504 16.4803 37.724 16.5499 37.6718 16.5252Z" fill="white"/>
<path fill-rule="evenodd" clip-rule="evenodd" d="M8.65226 16.619C8.55649 16.5696 8.78286 16.5 8.8351 16.5247C8.93087 16.5741 8.7045 16.6437 8.65226 16.619Z" fill="white"/>
<path fill-rule="evenodd" clip-rule="evenodd" d="M23.5292 16.619C23.4334 16.5696 23.6598 16.5 23.712 16.5247C23.8035 16.5741 23.5815 16.6437 23.5292 16.619Z" fill="white"/>
<path fill-rule="evenodd" clip-rule="evenodd" d="M27.5155 16.7152C27.4198 16.6659 27.6461 16.5963 27.6984 16.6232C27.7941 16.6726 27.5678 16.7422 27.5155 16.7152Z" fill="white"/>
<path fill-rule="evenodd" clip-rule="evenodd" d="M24.6171 16.8065C24.5214 16.7571 24.7477 16.6875 24.7956 16.7122C24.8914 16.7616 24.665 16.8312 24.6171 16.8065Z" fill="white"/>
<path fill-rule="evenodd" clip-rule="evenodd" d="M12.2792 16.9965C12.1834 16.9471 12.4098 16.8775 12.462 16.9044C12.5578 16.9538 12.3315 17.0234 12.2792 16.9965Z" fill="white"/>
<path fill-rule="evenodd" clip-rule="evenodd" d="M20.9864 17.002C21.0212 16.8965 21.1693 16.9503 21.1649 17.002C21.1301 17.1075 20.9821 17.0536 20.9864 17.002Z" fill="white"/>
<path fill-rule="evenodd" clip-rule="evenodd" d="M12.6444 17.2713C12.5487 17.2219 12.775 17.1523 12.8273 17.177C12.9187 17.2264 12.6967 17.296 12.6444 17.2713Z" fill="white"/>
<path fill-rule="evenodd" clip-rule="evenodd" d="M24.0683 17.2713C23.9725 17.2219 24.1989 17.1523 24.2511 17.177C24.3469 17.2264 24.1205 17.296 24.0683 17.2713Z" fill="white"/>
<path fill-rule="evenodd" clip-rule="evenodd" d="M30.6015 17.369C30.5057 17.3196 30.7321 17.25 30.7843 17.2747C30.8801 17.3241 30.6537 17.3937 30.6015 17.369Z" fill="white"/>
<path fill-rule="evenodd" clip-rule="evenodd" d="M15.1835 17.9237C15.0877 17.8743 15.3141 17.8047 15.3663 17.8294C15.4621 17.8788 15.2357 17.9484 15.1835 17.9237Z" fill="white"/>
<path fill-rule="evenodd" clip-rule="evenodd" d="M6.83789 18.1114C6.87272 18.0058 7.02073 18.0597 7.02073 18.1114C6.9859 18.2169 6.83789 18.163 6.83789 18.1114Z" fill="white"/>
<path fill-rule="evenodd" clip-rule="evenodd" d="M43.4785 18.305C43.5569 18.1681 43.6396 18.314 43.8398 18.305C43.7963 18.4218 43.4785 18.3993 43.4785 18.305Z" fill="white"/>
<path fill-rule="evenodd" clip-rule="evenodd" d="M12.6444 18.3988C12.5487 18.3494 12.775 18.2798 12.8273 18.3068C12.9187 18.3562 12.6967 18.4258 12.6444 18.3988Z" fill="white"/>
<path fill-rule="evenodd" clip-rule="evenodd" d="M21.5292 18.3988C21.4334 18.3494 21.6598 18.2798 21.712 18.3068C21.8078 18.3562 21.5815 18.4258 21.5292 18.3988Z" fill="white"/>
<path fill-rule="evenodd" clip-rule="evenodd" d="M27.8808 18.3988C27.785 18.3494 28.0114 18.2798 28.0636 18.3068C28.1594 18.3562 27.933 18.4258 27.8808 18.3988Z" fill="white"/>
<path fill-rule="evenodd" clip-rule="evenodd" d="M23.5292 18.4901C23.4334 18.4407 23.6598 18.3711 23.712 18.3958C23.8035 18.4452 23.5815 18.5148 23.5292 18.4901Z" fill="white"/>
<path fill-rule="evenodd" clip-rule="evenodd" d="M20.9863 18.6737C20.8905 18.6243 21.1169 18.5547 21.1647 18.5794C21.2605 18.6288 21.0342 18.6984 20.9863 18.6737Z" fill="white"/>
<path fill-rule="evenodd" clip-rule="evenodd" d="M7.20304 18.7713C7.10727 18.7219 7.33364 18.6523 7.38588 18.677C7.4773 18.7264 7.25528 18.796 7.20304 18.7713Z" fill="white"/>
<path fill-rule="evenodd" clip-rule="evenodd" d="M9.1972 18.7713C9.10143 18.7219 9.3278 18.6523 9.37569 18.677C9.47146 18.7264 9.24509 18.796 9.1972 18.7713Z" fill="white"/>
<path fill-rule="evenodd" clip-rule="evenodd" d="M11.9179 18.7713C11.8221 18.7219 12.0485 18.6523 12.0964 18.677C12.1922 18.7264 11.9658 18.796 11.9179 18.7713Z" fill="white"/>
<path fill-rule="evenodd" clip-rule="evenodd" d="M15.5449 18.8637C15.4491 18.8143 15.6755 18.7447 15.7233 18.7716C15.8191 18.821 15.5927 18.8906 15.5449 18.8637Z" fill="white"/>
<path fill-rule="evenodd" clip-rule="evenodd" d="M29.5078 19.1426C29.5426 19.0371 29.6907 19.091 29.6907 19.1426C29.6558 19.2504 29.5078 19.1942 29.5078 19.1426Z" fill="white"/>
<path fill-rule="evenodd" clip-rule="evenodd" d="M20.625 19.3281C21.0777 19.3663 20.6337 19.6918 20.2637 19.6088C20.329 19.4853 20.5815 19.4606 20.625 19.3281Z" fill="white"/>
<path fill-rule="evenodd" clip-rule="evenodd" d="M16.0878 19.5238C15.992 19.4744 16.2184 19.4048 16.2706 19.4318C16.3664 19.4812 16.14 19.5508 16.0878 19.5238Z" fill="white"/>
<path fill-rule="evenodd" clip-rule="evenodd" d="M32.957 19.5215C32.9919 19.416 33.1399 19.4699 33.1399 19.5215C33.105 19.627 32.957 19.5732 32.957 19.5215Z" fill="white"/>
<path fill-rule="evenodd" clip-rule="evenodd" d="M23.162 19.6073C23.0663 19.5579 23.2926 19.4883 23.3449 19.513C23.4406 19.5624 23.2143 19.632 23.162 19.6073Z" fill="white"/>
<path fill-rule="evenodd" clip-rule="evenodd" d="M3.02921 19.7049C2.93344 19.6555 3.15981 19.5859 3.21205 19.6106C3.30782 19.66 3.08145 19.7296 3.02921 19.7049Z" fill="white"/>
<path fill-rule="evenodd" clip-rule="evenodd" d="M2.48429 19.7973C2.38852 19.7479 2.61489 19.6783 2.66713 19.7052C2.7629 19.7546 2.53653 19.8242 2.48429 19.7973Z" fill="white"/>
<path fill-rule="evenodd" clip-rule="evenodd" d="M22.0742 19.9864C22.109 19.8808 22.2571 19.9347 22.2571 19.9864C22.2222 20.0919 22.0742 20.038 22.0742 19.9864Z" fill="white"/>
<path fill-rule="evenodd" clip-rule="evenodd" d="M9.92374 20.0799C9.82797 20.0305 10.0543 19.9609 10.1066 19.9856C10.198 20.035 9.97598 20.1046 9.92374 20.0799Z" fill="white"/>
<path fill-rule="evenodd" clip-rule="evenodd" d="M33.8632 20.1698C33.7674 20.1204 33.9938 20.0508 34.046 20.0755C34.1418 20.1249 33.9154 20.1945 33.8632 20.1698Z" fill="white"/>
<path fill-rule="evenodd" clip-rule="evenodd" d="M17.3593 20.266C17.2635 20.2166 17.4899 20.147 17.5378 20.174C17.6336 20.2234 17.4072 20.293 17.3593 20.266Z" fill="white"/>
<path fill-rule="evenodd" clip-rule="evenodd" d="M29.3319 20.266C29.2362 20.2166 29.4625 20.147 29.5148 20.174C29.6106 20.2234 29.3842 20.293 29.3319 20.266Z" fill="white"/>
<path fill-rule="evenodd" clip-rule="evenodd" d="M39.6698 20.266C39.5741 20.2166 39.8004 20.147 39.8527 20.174C39.9484 20.2234 39.7221 20.293 39.6698 20.266Z" fill="white"/>
<path fill-rule="evenodd" clip-rule="evenodd" d="M30.4198 20.3651C30.3241 20.3157 30.5504 20.2461 30.6027 20.2708C30.6984 20.3202 30.4721 20.3898 30.4198 20.3651Z" fill="white"/>
<path fill-rule="evenodd" clip-rule="evenodd" d="M11.1913 20.4574C11.0956 20.408 11.3219 20.3384 11.3742 20.3654C11.4699 20.4148 11.2436 20.4844 11.1913 20.4574Z" fill="white"/>
<path fill-rule="evenodd" clip-rule="evenodd" d="M6.65617 20.5487C6.56039 20.4993 6.78676 20.4297 6.839 20.4544C6.93477 20.5038 6.7084 20.5734 6.65617 20.5487Z" fill="white"/>
<path fill-rule="evenodd" clip-rule="evenodd" d="M29.6933 20.5487C29.5975 20.4993 29.8239 20.4297 29.8761 20.4544C29.9719 20.5038 29.7455 20.5734 29.6933 20.5487Z" fill="white"/>
<path fill-rule="evenodd" clip-rule="evenodd" d="M37.4941 20.5481C37.5377 20.4314 37.8555 20.4538 37.8555 20.5481C37.6944 20.6065 37.5333 20.6604 37.4941 20.5481Z" fill="white"/>
<path fill-rule="evenodd" clip-rule="evenodd" d="M10.2851 20.8299C10.1893 20.7805 10.4157 20.7109 10.4679 20.7356C10.5637 20.785 10.3373 20.8546 10.2851 20.8299Z" fill="white"/>
<path fill-rule="evenodd" clip-rule="evenodd" d="M18.4491 20.8299C18.3534 20.7805 18.5797 20.7109 18.632 20.7356C18.7277 20.785 18.5014 20.8546 18.4491 20.8299Z" fill="white"/>
<path fill-rule="evenodd" clip-rule="evenodd" d="M7.56501 21.0109C7.66078 20.8672 7.75655 21.0064 7.74784 21.1052C7.65207 21.2489 7.5563 21.1097 7.56501 21.0109Z" fill="white"/>
<path fill-rule="evenodd" clip-rule="evenodd" d="M43.4804 21.0174C43.3846 20.968 43.611 20.8984 43.6632 20.9231C43.7546 20.9725 43.5326 21.0421 43.4804 21.0174Z" fill="white"/>
<path fill-rule="evenodd" clip-rule="evenodd" d="M15.9062 21.1996C15.8104 21.1502 16.0368 21.0806 16.089 21.1076C16.1848 21.157 15.9584 21.2266 15.9062 21.1996Z" fill="white"/>
<path fill-rule="evenodd" clip-rule="evenodd" d="M9.7421 21.2987C9.64633 21.2493 9.8727 21.1797 9.92494 21.2044C10.0207 21.2538 9.79434 21.3234 9.7421 21.2987Z" fill="white"/>
<path fill-rule="evenodd" clip-rule="evenodd" d="M28.6034 21.2987C28.5077 21.2493 28.734 21.1797 28.7863 21.2044C28.882 21.2538 28.6557 21.3234 28.6034 21.2987Z" fill="white"/>
<path fill-rule="evenodd" clip-rule="evenodd" d="M29.3319 21.2987C29.2362 21.2493 29.4625 21.1797 29.5148 21.2044C29.6106 21.2538 29.3842 21.3234 29.3319 21.2987Z" fill="white"/>
<path fill-rule="evenodd" clip-rule="evenodd" d="M43.1132 21.391C43.0174 21.3416 43.2438 21.272 43.296 21.299C43.3918 21.3484 43.1654 21.418 43.1132 21.391Z" fill="white"/>
<path fill-rule="evenodd" clip-rule="evenodd" d="M10.4648 21.4823C10.369 21.4329 10.5954 21.3633 10.6476 21.388C10.7434 21.4374 10.517 21.507 10.4648 21.4823Z" fill="white"/>
<path fill-rule="evenodd" clip-rule="evenodd" d="M27.3378 21.6723C27.2421 21.6229 27.4684 21.5533 27.5163 21.5802C27.6121 21.6296 27.3857 21.6992 27.3378 21.6723Z" fill="white"/>
<path fill-rule="evenodd" clip-rule="evenodd" d="M11.5566 21.8598C11.4608 21.8104 11.6872 21.7408 11.7394 21.7677C11.8352 21.8171 11.6088 21.8867 11.5566 21.8598Z" fill="white"/>
<path fill-rule="evenodd" clip-rule="evenodd" d="M37.3105 21.8598C37.2147 21.8104 37.4411 21.7408 37.489 21.7677C37.5847 21.8171 37.3584 21.8867 37.3105 21.8598Z" fill="white"/>
<path fill-rule="evenodd" clip-rule="evenodd" d="M43.2968 21.951C43.201 21.9016 43.4274 21.832 43.4796 21.8567C43.5754 21.9061 43.349 21.9757 43.2968 21.951Z" fill="white"/>
<path fill-rule="evenodd" clip-rule="evenodd" d="M14.9999 22.0448C14.9041 21.9954 15.1305 21.9258 15.1828 21.9505C15.2785 21.9999 15.0522 22.0695 14.9999 22.0448Z" fill="white"/>
<path fill-rule="evenodd" clip-rule="evenodd" d="M8.10929 22.2323C8.01352 22.1829 8.23989 22.1133 8.29213 22.138C8.38354 22.1874 8.16153 22.2569 8.10929 22.2323Z" fill="white"/>
<path fill-rule="evenodd" clip-rule="evenodd" d="M25.5214 22.3246C25.4257 22.2752 25.652 22.2056 25.6999 22.2326C25.7957 22.282 25.5693 22.3516 25.5214 22.3246Z" fill="white"/>
<path fill-rule="evenodd" clip-rule="evenodd" d="M35.4999 22.3246C35.4042 22.2752 35.6305 22.2056 35.6784 22.2326C35.7742 22.282 35.5478 22.3516 35.4999 22.3246Z" fill="white"/>
<path fill-rule="evenodd" clip-rule="evenodd" d="M14.6388 22.42C14.6736 22.3144 14.8216 22.3683 14.8172 22.42C14.7824 22.5277 14.6344 22.4716 14.6388 22.42Z" fill="white"/>
<path fill-rule="evenodd" clip-rule="evenodd" d="M12.6444 22.5135C12.5487 22.4641 12.775 22.3945 12.8273 22.4192C12.9187 22.4686 12.6967 22.5382 12.6444 22.5135Z" fill="white"/>
<path fill-rule="evenodd" clip-rule="evenodd" d="M14.9999 22.5135C14.9041 22.4641 15.1305 22.3945 15.1828 22.4192C15.2785 22.4686 15.0522 22.5382 14.9999 22.5135Z" fill="white"/>
<path fill-rule="evenodd" clip-rule="evenodd" d="M22.4394 22.5135C22.3436 22.4641 22.57 22.3945 22.6222 22.4192C22.718 22.4686 22.4916 22.5382 22.4394 22.5135Z" fill="white"/>
<path fill-rule="evenodd" clip-rule="evenodd" d="M8.4707 22.5156H9.01486C9.0671 22.6661 8.84508 22.6773 8.83202 22.7963H8.4707V22.5156Z" fill="white"/>
<path fill-rule="evenodd" clip-rule="evenodd" d="M36.7675 22.6098C36.6717 22.5604 36.8981 22.4908 36.9503 22.5177C37.0461 22.5671 36.8197 22.6367 36.7675 22.6098Z" fill="white"/>
<path fill-rule="evenodd" clip-rule="evenodd" d="M5.74992 22.6971C5.65414 22.6477 5.88051 22.5781 5.93275 22.6028C6.02852 22.6522 5.80215 22.7218 5.74992 22.6971Z" fill="white"/>
<path fill-rule="evenodd" clip-rule="evenodd" d="M16.2714 22.6971C16.1756 22.6477 16.402 22.5781 16.4542 22.6028C16.5457 22.6522 16.3236 22.7218 16.2714 22.6971Z" fill="white"/>
<path fill-rule="evenodd" clip-rule="evenodd" d="M3.7558 22.7934C3.66003 22.744 3.88639 22.6744 3.93428 22.7013C4.03005 22.7507 3.80368 22.8203 3.7558 22.7934Z" fill="white"/>
<path fill-rule="evenodd" clip-rule="evenodd" d="M10.2851 22.7934C10.1893 22.744 10.4157 22.6744 10.4679 22.7013C10.5637 22.7507 10.3373 22.8203 10.2851 22.7934Z" fill="white"/>
<path fill-rule="evenodd" clip-rule="evenodd" d="M38.3984 22.7934C38.3026 22.744 38.5289 22.6744 38.5812 22.7013C38.677 22.7507 38.4506 22.8203 38.3984 22.7934Z" fill="white"/>
<path fill-rule="evenodd" clip-rule="evenodd" d="M7.56437 22.9784C7.4686 22.929 7.69497 22.8594 7.7472 22.8841C7.84298 22.9334 7.61661 23.003 7.56437 22.9784Z" fill="white"/>
<path fill-rule="evenodd" clip-rule="evenodd" d="M35.4999 22.9784C35.4042 22.929 35.6305 22.8594 35.6784 22.8841C35.7742 22.9334 35.5478 23.003 35.4999 22.9784Z" fill="white"/>
<path fill-rule="evenodd" clip-rule="evenodd" d="M43.2968 23.0746C43.201 23.0252 43.4274 22.9556 43.4796 22.9826C43.5754 23.032 43.349 23.1016 43.2968 23.0746Z" fill="white"/>
<path fill-rule="evenodd" clip-rule="evenodd" d="M20.2597 23.1659C20.1639 23.1165 20.3903 23.0469 20.4425 23.0716C20.5383 23.1209 20.3119 23.1905 20.2597 23.1659Z" fill="white"/>
<path fill-rule="evenodd" clip-rule="evenodd" d="M41.4843 23.1659C41.3885 23.1165 41.6149 23.0469 41.6671 23.0716C41.7629 23.1209 41.5365 23.1905 41.4843 23.1659Z" fill="white"/>
<path fill-rule="evenodd" clip-rule="evenodd" d="M22.9804 23.2621C22.8846 23.2127 23.111 23.1431 23.1632 23.1701C23.259 23.2195 23.0326 23.2891 22.9804 23.2621Z" fill="white"/>
<path fill-rule="evenodd" clip-rule="evenodd" d="M31.8681 23.168C32.4775 23.1972 32.5907 23.4801 32.7736 23.7293C32.6125 23.7697 32.4471 23.8123 32.4122 23.9156C32.2468 23.6664 31.3849 23.4621 31.8681 23.168Z" fill="white"/>
<path fill-rule="evenodd" clip-rule="evenodd" d="M3.7558 23.3573C3.66003 23.3079 3.88639 23.2383 3.93428 23.263C4.03005 23.3124 3.80368 23.3819 3.7558 23.3573Z" fill="white"/>
<path fill-rule="evenodd" clip-rule="evenodd" d="M11.5566 23.4471C11.4608 23.3977 11.6872 23.3281 11.7394 23.3528C11.8352 23.4022 11.6088 23.4718 11.5566 23.4471Z" fill="white"/>
<path fill-rule="evenodd" clip-rule="evenodd" d="M33.8632 23.4471C33.7674 23.3977 33.9938 23.3281 34.046 23.3528C34.1418 23.4022 33.9154 23.4718 33.8632 23.4471Z" fill="white"/>
<path fill-rule="evenodd" clip-rule="evenodd" d="M18.6269 23.5369C18.5311 23.4876 18.7575 23.4179 18.8097 23.4426C18.9055 23.492 18.6791 23.5616 18.6269 23.5369Z" fill="white"/>
<path fill-rule="evenodd" clip-rule="evenodd" d="M20.8085 23.5369C20.7127 23.4876 20.9391 23.4179 20.9913 23.4426C21.0828 23.492 20.8607 23.5616 20.8085 23.5369Z" fill="white"/>
<path fill-rule="evenodd" clip-rule="evenodd" d="M18.9921 23.6307C18.8963 23.5813 19.1227 23.5117 19.1749 23.5364C19.2664 23.5858 19.0443 23.6554 18.9921 23.6307Z" fill="white"/>
<path fill-rule="evenodd" clip-rule="evenodd" d="M7.56437 23.727C7.4686 23.6776 7.69497 23.608 7.7472 23.6349C7.84298 23.6843 7.61661 23.7539 7.56437 23.727Z" fill="white"/>
<path fill-rule="evenodd" clip-rule="evenodd" d="M43.6624 23.7305C44.5244 23.7754 43.4448 24.1728 43.6624 24.4781C43.1095 24.3052 43.8714 24.0336 43.6624 23.7305Z" fill="white"/>
<path fill-rule="evenodd" clip-rule="evenodd" d="M31.5078 23.8203H31.8691V24.0067H31.5078V23.8203Z" fill="white"/>
<path fill-rule="evenodd" clip-rule="evenodd" d="M43.2968 23.9158C43.201 23.8665 43.4274 23.7969 43.4796 23.8216C43.5754 23.8709 43.349 23.9405 43.2968 23.9158Z" fill="white"/>
<path fill-rule="evenodd" clip-rule="evenodd" d="M9.37492 24.0082C9.27914 23.9588 9.50551 23.8892 9.55775 23.9162C9.65352 23.9656 9.42715 24.0352 9.37492 24.0082Z" fill="white"/>
<path fill-rule="evenodd" clip-rule="evenodd" d="M4.66205 24.0994C4.56628 24.0501 4.79264 23.9804 4.84053 24.0051C4.9363 24.0545 4.70993 24.1241 4.66205 24.0994Z" fill="white"/>
<path fill-rule="evenodd" clip-rule="evenodd" d="M22.2577 24.0994C22.162 24.0501 22.3883 23.9804 22.4406 24.0051C22.5363 24.0545 22.31 24.1241 22.2577 24.0994Z" fill="white"/>
<path fill-rule="evenodd" clip-rule="evenodd" d="M11.0117 24.1957C10.9159 24.1463 11.1423 24.0767 11.1901 24.1037C11.2859 24.1531 11.0595 24.2227 11.0117 24.1957Z" fill="white"/>
<path fill-rule="evenodd" clip-rule="evenodd" d="M2.30265 24.2909C2.20688 24.2415 2.43325 24.1719 2.48549 24.1966C2.58126 24.2459 2.35489 24.3155 2.30265 24.2909Z" fill="white"/>
<path fill-rule="evenodd" clip-rule="evenodd" d="M21.3476 24.3807C21.2518 24.3313 21.4782 24.2617 21.5304 24.2864C21.6262 24.3358 21.3998 24.4054 21.3476 24.3807Z" fill="white"/>
<path fill-rule="evenodd" clip-rule="evenodd" d="M22.4394 24.477C22.3436 24.4276 22.57 24.358 22.6222 24.3849C22.718 24.4343 22.4916 24.5039 22.4394 24.477Z" fill="white"/>
<path fill-rule="evenodd" clip-rule="evenodd" d="M25.8828 24.4769C25.9612 24.3399 26.0439 24.4859 26.2441 24.4769C26.2006 24.5936 25.8828 24.5712 25.8828 24.4769Z" fill="white"/>
<path fill-rule="evenodd" clip-rule="evenodd" d="M19.537 24.5721C19.4413 24.5227 19.6676 24.4531 19.7199 24.4778C19.8156 24.5272 19.5893 24.5968 19.537 24.5721Z" fill="white"/>
<path fill-rule="evenodd" clip-rule="evenodd" d="M21.7128 24.5721C21.617 24.5227 21.8434 24.4531 21.8956 24.4778C21.9871 24.5272 21.765 24.5968 21.7128 24.5721Z" fill="white"/>
<path fill-rule="evenodd" clip-rule="evenodd" d="M31.8691 24.6624C31.8691 24.5703 32.0912 24.5905 32.2305 24.5703C32.2305 24.6601 32.0084 24.6422 31.8691 24.6624Z" fill="white"/>
<path fill-rule="evenodd" clip-rule="evenodd" d="M42.5742 24.666C42.609 24.5605 42.7571 24.6144 42.7571 24.666C42.7222 24.7716 42.5742 24.7177 42.5742 24.666Z" fill="white"/>
<path fill-rule="evenodd" clip-rule="evenodd" d="M20.6249 24.7596C20.5291 24.7102 20.7555 24.6406 20.8078 24.6653C20.9035 24.7147 20.6772 24.7843 20.6249 24.7596Z" fill="white"/>
<path fill-rule="evenodd" clip-rule="evenodd" d="M22.0741 24.8534C21.9784 24.804 22.2047 24.7344 22.257 24.7591C22.3527 24.8084 22.1264 24.878 22.0741 24.8534Z" fill="white"/>
<path fill-rule="evenodd" clip-rule="evenodd" d="M19.7187 24.9432C19.6229 24.8938 19.8493 24.8242 19.9015 24.8489C19.9973 24.8983 19.7709 24.9679 19.7187 24.9432Z" fill="white"/>
<path fill-rule="evenodd" clip-rule="evenodd" d="M5.57025 25.0408C5.47448 24.9915 5.70085 24.9219 5.74873 24.9466C5.8445 24.9959 5.61814 25.0655 5.57025 25.0408Z" fill="white"/>
<path fill-rule="evenodd" clip-rule="evenodd" d="M40.7597 25.1293C40.6639 25.0799 40.8903 25.0103 40.9425 25.0373C41.0339 25.0866 40.8119 25.1563 40.7597 25.1293Z" fill="white"/>
<path fill-rule="evenodd" clip-rule="evenodd" d="M31.1426 25.2285C31.1774 25.123 31.3254 25.1769 31.3254 25.2285C31.2906 25.3363 31.1426 25.2802 31.1426 25.2285Z" fill="white"/>
<path fill-rule="evenodd" clip-rule="evenodd" d="M35.3163 25.2244C35.2206 25.1751 35.4469 25.1054 35.4992 25.1301C35.5906 25.1795 35.3686 25.2491 35.3163 25.2244Z" fill="white"/>
<path fill-rule="evenodd" clip-rule="evenodd" d="M37.1327 25.5018C37.037 25.4524 37.2633 25.3828 37.3156 25.4075C37.407 25.4569 37.185 25.5265 37.1327 25.5018Z" fill="white"/>
<path fill-rule="evenodd" clip-rule="evenodd" d="M11.0117 25.7909C10.9159 25.7415 11.1423 25.6719 11.1901 25.6966C11.2859 25.7459 11.0595 25.8155 11.0117 25.7909Z" fill="white"/>
<path fill-rule="evenodd" clip-rule="evenodd" d="M6.4765 25.8832C6.38073 25.8338 6.6071 25.7642 6.65498 25.7912C6.75075 25.8406 6.52439 25.9102 6.4765 25.8832Z" fill="white"/>
<path fill-rule="evenodd" clip-rule="evenodd" d="M9.55851 25.8832C9.46274 25.8338 9.68911 25.7642 9.74135 25.7912C9.83712 25.8406 9.61075 25.9102 9.55851 25.8832Z" fill="white"/>
<path fill-rule="evenodd" clip-rule="evenodd" d="M10.4648 25.9744C10.369 25.9251 10.5954 25.8554 10.6476 25.8801C10.7434 25.9295 10.517 25.9991 10.4648 25.9744Z" fill="white"/>
<path fill-rule="evenodd" clip-rule="evenodd" d="M7.74219 26.1607C7.74654 26.0709 7.9642 26.0889 8.10351 26.0664C8.09915 26.1585 7.88149 26.1382 7.74219 26.1607Z" fill="white"/>
<path fill-rule="evenodd" clip-rule="evenodd" d="M23.707 26.1619C23.6112 26.1125 23.8376 26.0429 23.8855 26.0676C23.9812 26.117 23.7549 26.1866 23.707 26.1619Z" fill="white"/>
<path fill-rule="evenodd" clip-rule="evenodd" d="M10.1035 26.2557C10.0077 26.2063 10.2341 26.1367 10.2819 26.1614C10.3777 26.2108 10.1513 26.2804 10.1035 26.2557Z" fill="white"/>
<path fill-rule="evenodd" clip-rule="evenodd" d="M11.0127 26.2542C10.9822 26.0521 11.657 26.2115 11.9182 26.1599C12.2316 26.3215 11.6526 26.5281 12.4624 26.5348C12.162 26.7212 12.4798 26.6538 12.4624 26.9098C12.3143 26.8447 11.9661 26.7638 11.9182 26.9098C11.2609 26.8693 11.8747 26.2385 11.0127 26.5348C11.139 26.4585 11.2957 26.2789 11.0127 26.2542Z" fill="white"/>
<path fill-rule="evenodd" clip-rule="evenodd" d="M24.9784 26.5356C24.8827 26.4862 25.109 26.4166 25.1613 26.4435C25.257 26.4929 25.0307 26.5625 24.9784 26.5356Z" fill="white"/>
<path fill-rule="evenodd" clip-rule="evenodd" d="M24.0683 26.6268C23.9725 26.5774 24.1989 26.5078 24.2511 26.5325C24.3469 26.5819 24.1205 26.6515 24.0683 26.6268Z" fill="white"/>
<path fill-rule="evenodd" clip-rule="evenodd" d="M6.6543 26.8145C6.68912 26.709 6.83713 26.7628 6.83713 26.8145C6.80231 26.92 6.6543 26.8661 6.6543 26.8145Z" fill="white"/>
<path fill-rule="evenodd" clip-rule="evenodd" d="M36.4062 26.908C36.3104 26.8586 36.5368 26.789 36.5847 26.8137C36.6804 26.8631 36.4541 26.9327 36.4062 26.908Z" fill="white"/>
<path fill-rule="evenodd" clip-rule="evenodd" d="M36.9491 27.0043C36.8534 26.9549 37.0797 26.8853 37.132 26.9123C37.2277 26.9616 37.0014 27.0313 36.9491 27.0043Z" fill="white"/>
<path fill-rule="evenodd" clip-rule="evenodd" d="M19.537 27.0955C19.4413 27.0461 19.6676 26.9765 19.7199 27.0012C19.8156 27.0506 19.5893 27.1202 19.537 27.0955Z" fill="white"/>
<path fill-rule="evenodd" clip-rule="evenodd" d="M29.1484 27.0955C29.0526 27.0461 29.279 26.9765 29.3269 27.0012C29.4226 27.0506 29.1963 27.1202 29.1484 27.0955Z" fill="white"/>
<path fill-rule="evenodd" clip-rule="evenodd" d="M6.4765 27.1893C6.38073 27.1399 6.6071 27.0703 6.65498 27.095C6.75075 27.1444 6.52439 27.214 6.4765 27.1893Z" fill="white"/>
<path fill-rule="evenodd" clip-rule="evenodd" d="M27.3378 27.3807C27.2421 27.3313 27.4684 27.2617 27.5163 27.2864C27.6121 27.3358 27.3857 27.4054 27.3378 27.3807Z" fill="white"/>
<path fill-rule="evenodd" clip-rule="evenodd" d="M13.0058 27.4692C12.91 27.4198 13.1364 27.3502 13.1886 27.3771C13.2844 27.4265 13.058 27.4961 13.0058 27.4692Z" fill="white"/>
<path fill-rule="evenodd" clip-rule="evenodd" d="M14.4569 27.4692C14.3612 27.4198 14.5875 27.3502 14.6398 27.3771C14.7312 27.4265 14.5092 27.4961 14.4569 27.4692Z" fill="white"/>
<path fill-rule="evenodd" clip-rule="evenodd" d="M22.0742 27.471C22.0786 27.3789 22.2962 27.3991 22.4355 27.3789C22.4312 27.4687 22.2135 27.4508 22.0742 27.471Z" fill="white"/>
<path fill-rule="evenodd" clip-rule="evenodd" d="M28.4211 27.7525C28.3732 27.9725 27.6245 27.8063 27.5156 27.7525C27.6462 27.4292 28.0641 27.6896 28.4211 27.7525Z" fill="white"/>
<path fill-rule="evenodd" clip-rule="evenodd" d="M12.4628 27.7518C12.367 27.7024 12.5934 27.6328 12.6456 27.6575C12.7414 27.7069 12.515 27.7765 12.4628 27.7518Z" fill="white"/>
<path fill-rule="evenodd" clip-rule="evenodd" d="M18.4491 27.7518C18.3534 27.7024 18.5797 27.6328 18.632 27.6575C18.7277 27.7069 18.5014 27.7765 18.4491 27.7518Z" fill="white"/>
<path fill-rule="evenodd" clip-rule="evenodd" d="M27.1542 27.7518C27.0584 27.7024 27.2848 27.6328 27.337 27.6575C27.4285 27.7069 27.2065 27.7765 27.1542 27.7518Z" fill="white"/>
<path fill-rule="evenodd" clip-rule="evenodd" d="M28.787 27.7518C28.6913 27.7024 28.9176 27.6328 28.9699 27.6575C29.0656 27.7069 28.8393 27.7765 28.787 27.7518Z" fill="white"/>
<path fill-rule="evenodd" clip-rule="evenodd" d="M34.0468 27.7518C33.951 27.7024 34.1774 27.6328 34.2296 27.6575C34.3254 27.7069 34.099 27.7765 34.0468 27.7518Z" fill="white"/>
<path fill-rule="evenodd" clip-rule="evenodd" d="M29.6933 27.8494C29.5975 27.8 29.8239 27.7304 29.8761 27.7551C29.9719 27.8045 29.7455 27.8741 29.6933 27.8494Z" fill="white"/>
<path fill-rule="evenodd" clip-rule="evenodd" d="M5.57227 27.8477H5.93359V28.034H5.57227V27.8477Z" fill="white"/>
<path fill-rule="evenodd" clip-rule="evenodd" d="M12.2792 27.9379C12.1834 27.8885 12.4098 27.8189 12.462 27.8458C12.5578 27.8952 12.3315 27.9648 12.2792 27.9379Z" fill="white"/>
<path fill-rule="evenodd" clip-rule="evenodd" d="M35.6796 27.9379C35.5838 27.8885 35.8102 27.8189 35.8624 27.8458C35.9582 27.8952 35.7318 27.9648 35.6796 27.9379Z" fill="white"/>
<path fill-rule="evenodd" clip-rule="evenodd" d="M15.7285 28.0293C15.7633 27.9238 15.9114 27.9777 15.9114 28.0293C15.8765 28.1371 15.7285 28.081 15.7285 28.0293Z" fill="white"/>
<path fill-rule="evenodd" clip-rule="evenodd" d="M11.0117 28.1229C10.9159 28.0735 11.1423 28.0039 11.1901 28.0286C11.2859 28.078 11.0595 28.1476 11.0117 28.1229Z" fill="white"/>
<path fill-rule="evenodd" clip-rule="evenodd" d="M5.57089 28.2258C5.66666 28.0821 5.75808 28.2213 5.74937 28.3201C5.6536 28.4638 5.56218 28.3246 5.57089 28.2258Z" fill="white"/>
<path fill-rule="evenodd" clip-rule="evenodd" d="M12.2792 28.2192C12.1834 28.1698 12.4098 28.1002 12.462 28.1271C12.5578 28.1765 12.3315 28.2461 12.2792 28.2192Z" fill="white"/>
<path fill-rule="evenodd" clip-rule="evenodd" d="M40.9415 28.2246C40.9763 28.1191 41.1243 28.173 41.12 28.2246C41.0852 28.3302 40.9371 28.2763 40.9415 28.2246Z" fill="white"/>
<path fill-rule="evenodd" clip-rule="evenodd" d="M11.5566 28.494C11.4608 28.4446 11.6872 28.375 11.7394 28.3997C11.8352 28.4491 11.6088 28.5187 11.5566 28.494Z" fill="white"/>
<path fill-rule="evenodd" clip-rule="evenodd" d="M38.5819 28.5916C38.4862 28.5422 38.7125 28.4726 38.7648 28.4973C38.8606 28.5467 38.6342 28.6163 38.5819 28.5916Z" fill="white"/>
<path fill-rule="evenodd" clip-rule="evenodd" d="M6.4765 28.8715C6.38073 28.8221 6.6071 28.7525 6.65498 28.7794C6.75075 28.8288 6.52439 28.8984 6.4765 28.8715Z" fill="white"/>
<path fill-rule="evenodd" clip-rule="evenodd" d="M10.6464 28.8715C10.5506 28.8221 10.777 28.7525 10.8292 28.7794C10.925 28.8288 10.6986 28.8984 10.6464 28.8715Z" fill="white"/>
<path fill-rule="evenodd" clip-rule="evenodd" d="M17.3593 28.8715C17.2635 28.8221 17.4899 28.7525 17.5378 28.7794C17.6336 28.8288 17.4072 28.8984 17.3593 28.8715Z" fill="white"/>
<path fill-rule="evenodd" clip-rule="evenodd" d="M30.2362 28.8715C30.1405 28.8221 30.3668 28.7525 30.4191 28.7794C30.5149 28.8288 30.2885 28.8984 30.2362 28.8715Z" fill="white"/>
<path fill-rule="evenodd" clip-rule="evenodd" d="M7.56437 29.0604C7.4686 29.011 7.69497 28.9414 7.7472 28.9661C7.84298 29.0155 7.61661 29.0851 7.56437 29.0604Z" fill="white"/>
<path fill-rule="evenodd" clip-rule="evenodd" d="M9.92374 29.0604C9.82797 29.011 10.0543 28.9414 10.1066 28.9661C10.198 29.0155 9.97598 29.0851 9.92374 29.0604Z" fill="white"/>
<path fill-rule="evenodd" clip-rule="evenodd" d="M40.5742 29.0591C40.5786 28.9671 40.7962 28.9851 40.9355 28.9648C40.9312 29.0569 40.7135 29.0389 40.5742 29.0591Z" fill="white"/>
<path fill-rule="evenodd" clip-rule="evenodd" d="M19.7187 29.1541C19.6229 29.1047 19.8493 29.0351 19.9015 29.0598C19.9973 29.1092 19.7709 29.1788 19.7187 29.1541Z" fill="white"/>
<path fill-rule="evenodd" clip-rule="evenodd" d="M19.3534 29.2518C19.2577 29.2024 19.484 29.1328 19.5363 29.1575C19.632 29.2069 19.4057 29.2765 19.3534 29.2518Z" fill="white"/>
<path fill-rule="evenodd" clip-rule="evenodd" d="M22.6191 29.2518C22.5233 29.2024 22.7497 29.1328 22.8019 29.1575C22.8933 29.2069 22.6713 29.2765 22.6191 29.2518Z" fill="white"/>
<path fill-rule="evenodd" clip-rule="evenodd" d="M23.162 29.3442C23.0663 29.2948 23.2926 29.2252 23.3449 29.2521C23.4406 29.3015 23.2143 29.3711 23.162 29.3442Z" fill="white"/>
<path fill-rule="evenodd" clip-rule="evenodd" d="M7.9257 29.4354C7.82993 29.386 8.0563 29.3164 8.10853 29.3411C8.20431 29.3905 7.97794 29.4601 7.9257 29.4354Z" fill="white"/>
<path fill-rule="evenodd" clip-rule="evenodd" d="M7.56437 29.533C7.4686 29.4836 7.69497 29.414 7.7472 29.4387C7.84298 29.4881 7.61661 29.5577 7.56437 29.533Z" fill="white"/>
<path fill-rule="evenodd" clip-rule="evenodd" d="M19.8984 29.8129C19.8026 29.7635 20.0289 29.6939 20.0812 29.7208C20.1726 29.7702 19.9506 29.8398 19.8984 29.8129Z" fill="white"/>
<path fill-rule="evenodd" clip-rule="evenodd" d="M32.9569 29.8963C32.8612 29.8469 33.0875 29.7773 33.1398 29.802C33.2356 29.8514 33.0092 29.921 32.9569 29.8963Z" fill="white"/>
<path fill-rule="evenodd" clip-rule="evenodd" d="M16.4531 29.994C16.3573 29.9446 16.5837 29.875 16.6315 29.8997C16.7273 29.9491 16.5009 30.0187 16.4531 29.994Z" fill="white"/>
<path fill-rule="evenodd" clip-rule="evenodd" d="M15.9062 30.369C15.8104 30.3196 16.0368 30.25 16.089 30.2747C16.1848 30.3241 15.9584 30.3937 15.9062 30.369Z" fill="white"/>
<path fill-rule="evenodd" clip-rule="evenodd" d="M15.5449 30.4666C15.4491 30.4172 15.6755 30.3476 15.7233 30.3723C15.8191 30.4217 15.5927 30.4913 15.5449 30.4666Z" fill="white"/>
<path fill-rule="evenodd" clip-rule="evenodd" d="M18.0859 30.4666C17.9901 30.4172 18.2165 30.3476 18.2687 30.3723C18.3601 30.4217 18.1381 30.4913 18.0859 30.4666Z" fill="white"/>
<path fill-rule="evenodd" clip-rule="evenodd" d="M5.75 30.467C6.14615 30.449 6.32898 30.5433 6.29416 30.7476H5.75V30.467Z" fill="white"/>
<path fill-rule="evenodd" clip-rule="evenodd" d="M25.8827 30.5565C25.787 30.5071 26.0133 30.4375 26.0656 30.4622C26.1613 30.5116 25.935 30.5812 25.8827 30.5565Z" fill="white"/>
<path fill-rule="evenodd" clip-rule="evenodd" d="M40.5761 30.5565C40.4803 30.5071 40.7067 30.4375 40.7589 30.4622C40.8547 30.5116 40.6283 30.5812 40.5761 30.5565Z" fill="white"/>
<path fill-rule="evenodd" clip-rule="evenodd" d="M13.5508 30.6451C13.5508 30.553 13.7728 30.571 13.9121 30.5508C13.9121 30.6428 13.6901 30.6249 13.5508 30.6451Z" fill="white"/>
<path fill-rule="evenodd" clip-rule="evenodd" d="M29.3319 30.6502C29.2362 30.6008 29.4625 30.5312 29.5148 30.5559C29.6106 30.6053 29.3842 30.6749 29.3319 30.6502Z" fill="white"/>
<path fill-rule="evenodd" clip-rule="evenodd" d="M30.0585 30.6502C29.9628 30.6008 30.1891 30.5312 30.237 30.5559C30.3328 30.6053 30.1064 30.6749 30.0585 30.6502Z" fill="white"/>
<path fill-rule="evenodd" clip-rule="evenodd" d="M34.0468 30.6502C33.951 30.6008 34.1774 30.5312 34.2296 30.5559C34.3254 30.6053 34.099 30.6749 34.0468 30.6502Z" fill="white"/>
<path fill-rule="evenodd" clip-rule="evenodd" d="M6.4765 30.7465C6.38073 30.6971 6.6071 30.6275 6.65498 30.6544C6.75075 30.7038 6.52439 30.7734 6.4765 30.7465Z" fill="white"/>
<path fill-rule="evenodd" clip-rule="evenodd" d="M40.7597 30.8377C40.6639 30.7883 40.8903 30.7187 40.9425 30.7434C41.0339 30.7928 40.8119 30.8624 40.7597 30.8377Z" fill="white"/>
<path fill-rule="evenodd" clip-rule="evenodd" d="M42.5746 30.7461C42.7966 30.7865 42.9446 30.8651 42.9359 31.0267C42.7139 30.9863 42.5659 30.9077 42.5746 30.7461Z" fill="white"/>
<path fill-rule="evenodd" clip-rule="evenodd" d="M14.4569 30.9354C14.3612 30.886 14.5875 30.8164 14.6398 30.8411C14.7312 30.8905 14.5092 30.9601 14.4569 30.9354Z" fill="white"/>
<path fill-rule="evenodd" clip-rule="evenodd" d="M45.4726 30.9297C45.4683 31.0195 45.2506 31.0015 45.1113 31.0217C45.1157 30.9319 45.3333 30.9499 45.4726 30.9297Z" fill="white"/>
<path fill-rule="evenodd" clip-rule="evenodd" d="M14.6386 31.119C14.5428 31.0696 14.7692 31 14.8171 31.0247C14.9129 31.0741 14.6865 31.1437 14.6386 31.119Z" fill="white"/>
<path fill-rule="evenodd" clip-rule="evenodd" d="M34.5898 31.119C34.494 31.0696 34.7204 31 34.7683 31.0247C34.864 31.0741 34.6377 31.1437 34.5898 31.119Z" fill="white"/>
<path fill-rule="evenodd" clip-rule="evenodd" d="M39.8535 31.0258C40.1626 30.9921 40.1974 31.0999 40.2148 31.2121C40.0625 31.1942 40.0451 31.2481 40.0364 31.3064C39.823 31.2907 39.884 31.1358 39.8535 31.0258Z" fill="white"/>
<path fill-rule="evenodd" clip-rule="evenodd" d="M32.414 31.2152C32.3182 31.1659 32.5446 31.0963 32.5968 31.1232C32.6926 31.1726 32.4662 31.2422 32.414 31.2152Z" fill="white"/>
<path fill-rule="evenodd" clip-rule="evenodd" d="M8.29297 31.3086H8.65429V31.4949H8.29297V31.3086Z" fill="white"/>
<path fill-rule="evenodd" clip-rule="evenodd" d="M18.4492 31.7767C18.471 31.4467 19.05 31.9765 18.9934 31.6824C19.4809 31.9137 18.6799 32.0192 18.4492 31.7767Z" fill="white"/>
<path fill-rule="evenodd" clip-rule="evenodd" d="M23.7052 31.7754C23.74 31.6699 23.888 31.7238 23.8837 31.7754C23.8488 31.8832 23.7008 31.8271 23.7052 31.7754Z" fill="white"/>
<path fill-rule="evenodd" clip-rule="evenodd" d="M32.0527 31.869C31.9569 31.8196 32.1832 31.75 32.2355 31.7747C32.3313 31.8241 32.1049 31.8937 32.0527 31.869Z" fill="white"/>
<path fill-rule="evenodd" clip-rule="evenodd" d="M24.0683 31.9549C23.9725 31.9055 24.1989 31.8359 24.2511 31.8606C24.3469 31.91 24.1205 31.9796 24.0683 31.9549Z" fill="white"/>
<path fill-rule="evenodd" clip-rule="evenodd" d="M5.02344 32.0576C5.05826 31.9499 5.20627 32.006 5.20627 32.0576C5.17145 32.1631 5.02344 32.1093 5.02344 32.0576Z" fill="white"/>
<path fill-rule="evenodd" clip-rule="evenodd" d="M8.29095 32.0526C8.19518 32.0032 8.42155 31.9336 8.46944 31.9583C8.56521 32.0077 8.33884 32.0773 8.29095 32.0526Z" fill="white"/>
<path fill-rule="evenodd" clip-rule="evenodd" d="M30.2362 32.0526C30.1405 32.0032 30.3668 31.9336 30.4191 31.9583C30.5149 32.0077 30.2885 32.0773 30.2362 32.0526Z" fill="white"/>
<path fill-rule="evenodd" clip-rule="evenodd" d="M3.21289 32.1504C3.24772 32.0449 3.39573 32.0988 3.39573 32.1504C3.3609 32.2559 3.21289 32.2021 3.21289 32.1504Z" fill="white"/>
<path fill-rule="evenodd" clip-rule="evenodd" d="M26.0663 32.1488C25.9706 32.0994 26.1969 32.0298 26.2492 32.0568C26.3449 32.1062 26.1186 32.1758 26.0663 32.1488Z" fill="white"/>
<path fill-rule="evenodd" clip-rule="evenodd" d="M30.9628 32.1488C30.8671 32.0994 31.0934 32.0298 31.1413 32.0568C31.2371 32.1062 31.0107 32.1758 30.9628 32.1488Z" fill="white"/>
<path fill-rule="evenodd" clip-rule="evenodd" d="M43.1132 32.1488C43.0174 32.0994 43.2438 32.0298 43.296 32.0568C43.3918 32.1062 43.1654 32.1758 43.1132 32.1488Z" fill="white"/>
<path fill-rule="evenodd" clip-rule="evenodd" d="M14.6386 32.244C14.5428 32.1946 14.7692 32.125 14.8171 32.1497C14.9129 32.1991 14.6865 32.2687 14.6386 32.244Z" fill="white"/>
<path fill-rule="evenodd" clip-rule="evenodd" d="M27.3379 32.2395C27.3814 32.1228 27.6992 32.1452 27.6992 32.2395C27.5381 32.2979 27.3771 32.3518 27.3379 32.2395Z" fill="white"/>
<path fill-rule="evenodd" clip-rule="evenodd" d="M20.9863 33.0824C20.8905 33.033 21.1169 32.9634 21.1647 32.9904C21.2605 33.0398 21.0342 33.1094 20.9863 33.0824Z" fill="white"/>
<path fill-rule="evenodd" clip-rule="evenodd" d="M23.707 33.0824C23.6112 33.033 23.8376 32.9634 23.8855 32.9904C23.9812 33.0398 23.7549 33.1094 23.707 33.0824Z" fill="white"/>
<path fill-rule="evenodd" clip-rule="evenodd" d="M42.2089 33.0824C42.1131 33.033 42.3395 32.9634 42.3917 32.9904C42.4875 33.0398 42.2611 33.1094 42.2089 33.0824Z" fill="white"/>
<path fill-rule="evenodd" clip-rule="evenodd" d="M6.29297 33.1817C6.32779 33.0761 6.47581 33.13 6.47581 33.1817C6.44098 33.2894 6.29297 33.2333 6.29297 33.1817Z" fill="white"/>
<path fill-rule="evenodd" clip-rule="evenodd" d="M7.20312 33.2715C7.23795 33.166 7.38596 33.2199 7.38596 33.2715C7.35114 33.377 7.20312 33.3232 7.20312 33.2715Z" fill="white"/>
<path fill-rule="evenodd" clip-rule="evenodd" d="M23.8886 33.2752C23.7928 33.2258 24.0192 33.1562 24.0714 33.1809C24.1672 33.2303 23.9408 33.2999 23.8886 33.2752Z" fill="white"/>
<path fill-rule="evenodd" clip-rule="evenodd" d="M41.664 33.2752C41.5682 33.2258 41.7946 33.1562 41.8468 33.1809C41.9382 33.2303 41.7162 33.2999 41.664 33.2752Z" fill="white"/>
<path fill-rule="evenodd" clip-rule="evenodd" d="M7.56641 33.3653C7.60123 33.2597 7.74924 33.3136 7.74924 33.3653C7.71442 33.4708 7.56641 33.4169 7.56641 33.3653Z" fill="white"/>
<path fill-rule="evenodd" clip-rule="evenodd" d="M5.02335 33.4549C4.92758 33.4055 5.15395 33.3359 5.20619 33.3606C5.30196 33.41 5.07559 33.4796 5.02335 33.4549Z" fill="white"/>
<path fill-rule="evenodd" clip-rule="evenodd" d="M16.0878 33.4549C15.992 33.4055 16.2184 33.3359 16.2706 33.3606C16.3664 33.41 16.14 33.4796 16.0878 33.4549Z" fill="white"/>
<path fill-rule="evenodd" clip-rule="evenodd" d="M35.6777 33.4622C35.7213 33.3454 36.0391 33.3679 36.0391 33.4622C35.9563 33.5969 35.878 33.451 35.6777 33.4622Z" fill="white"/>
<path fill-rule="evenodd" clip-rule="evenodd" d="M41.4843 33.4549C41.3885 33.4055 41.6149 33.3359 41.6671 33.3606C41.7629 33.41 41.5365 33.4796 41.4843 33.4549Z" fill="white"/>
<path fill-rule="evenodd" clip-rule="evenodd" d="M14.4569 33.5473C14.3612 33.4979 14.5875 33.4283 14.6398 33.4552C14.7312 33.5046 14.5092 33.5742 14.4569 33.5473Z" fill="white"/>
<path fill-rule="evenodd" clip-rule="evenodd" d="M6.11515 33.744C6.01938 33.6946 6.24575 33.625 6.29799 33.6497C6.39376 33.6991 6.16739 33.7687 6.11515 33.744Z" fill="white"/>
<path fill-rule="evenodd" clip-rule="evenodd" d="M10.1035 33.744C10.0077 33.6946 10.2341 33.625 10.2819 33.6497C10.3777 33.6991 10.1513 33.7687 10.1035 33.744Z" fill="white"/>
<path fill-rule="evenodd" clip-rule="evenodd" d="M37.6718 33.9198C37.576 33.8704 37.8024 33.8008 37.8546 33.8255C37.9504 33.8749 37.724 33.9445 37.6718 33.9198Z" fill="white"/>
<path fill-rule="evenodd" clip-rule="evenodd" d="M3.7558 34.016C3.66003 33.9666 3.88639 33.897 3.93428 33.924C4.03005 33.9734 3.80368 34.043 3.7558 34.016Z" fill="white"/>
<path fill-rule="evenodd" clip-rule="evenodd" d="M15.5449 34.016C15.4491 33.9666 15.6755 33.897 15.7233 33.924C15.8191 33.9734 15.5927 34.043 15.5449 34.016Z" fill="white"/>
<path fill-rule="evenodd" clip-rule="evenodd" d="M20.6249 34.016C20.5291 33.9666 20.7555 33.897 20.8078 33.924C20.9035 33.9734 20.6772 34.043 20.6249 34.016Z" fill="white"/>
<path fill-rule="evenodd" clip-rule="evenodd" d="M3.21085 34.1151C3.11508 34.0657 3.34145 33.9961 3.39369 34.0208C3.48946 34.0702 3.26309 34.1398 3.21085 34.1151Z" fill="white"/>
<path fill-rule="evenodd" clip-rule="evenodd" d="M9.92383 34.1153C9.95865 34.0097 10.1067 34.0636 10.1067 34.1153C10.0718 34.223 9.92383 34.1669 9.92383 34.1153Z" fill="white"/>
<path fill-rule="evenodd" clip-rule="evenodd" d="M25.1601 34.1151C25.0643 34.0657 25.2907 33.9961 25.3429 34.0208C25.4387 34.0702 25.2123 34.1398 25.1601 34.1151Z" fill="white"/>
<path fill-rule="evenodd" clip-rule="evenodd" d="M41.8476 34.1151C41.7518 34.0657 41.9782 33.9961 42.0261 34.0208C42.1218 34.0702 41.8955 34.1398 41.8476 34.1151Z" fill="white"/>
<path fill-rule="evenodd" clip-rule="evenodd" d="M3.39445 34.3963C3.29868 34.3469 3.52504 34.2773 3.57728 34.302C3.67305 34.3514 3.44669 34.421 3.39445 34.3963Z" fill="white"/>
<path fill-rule="evenodd" clip-rule="evenodd" d="M32.9569 34.3963C32.8612 34.3469 33.0875 34.2773 33.1398 34.302C33.2356 34.3514 33.0092 34.421 32.9569 34.3963Z" fill="white"/>
<path fill-rule="evenodd" clip-rule="evenodd" d="M13.5508 34.4864C13.5856 34.3808 13.7336 34.4347 13.7336 34.4864C13.6988 34.5919 13.5508 34.538 13.5508 34.4864Z" fill="white"/>
<path fill-rule="evenodd" clip-rule="evenodd" d="M4.66205 34.5799C4.56628 34.5305 4.79264 34.4609 4.84053 34.4856C4.9363 34.535 4.70993 34.6046 4.66205 34.5799Z" fill="white"/>
<path fill-rule="evenodd" clip-rule="evenodd" d="M17.9042 34.5799C17.8084 34.5305 18.0348 34.4609 18.087 34.4856C18.1828 34.535 17.9565 34.6046 17.9042 34.5799Z" fill="white"/>
<path fill-rule="evenodd" clip-rule="evenodd" d="M37.1332 34.4883C37.3552 34.5287 37.5032 34.6073 37.4945 34.7689C37.2725 34.7285 37.1245 34.6499 37.1332 34.4883Z" fill="white"/>
<path fill-rule="evenodd" clip-rule="evenodd" d="M14.2773 34.6776C14.1815 34.6282 14.4079 34.5586 14.4601 34.5833C14.5559 34.6327 14.3295 34.7023 14.2773 34.6776Z" fill="white"/>
<path fill-rule="evenodd" clip-rule="evenodd" d="M3.57218 34.7674C3.47641 34.718 3.70278 34.6484 3.75502 34.6731C3.84644 34.7225 3.62442 34.7921 3.57218 34.7674Z" fill="white"/>
<path fill-rule="evenodd" clip-rule="evenodd" d="M18.4491 34.7674C18.3534 34.718 18.5797 34.6484 18.632 34.6731C18.7277 34.7225 18.5014 34.7921 18.4491 34.7674Z" fill="white"/>
<path fill-rule="evenodd" clip-rule="evenodd" d="M33.1405 34.8612C33.0448 34.8118 33.2711 34.7422 33.3234 34.7669C33.4191 34.8163 33.1928 34.8859 33.1405 34.8612Z" fill="white"/>
<path fill-rule="evenodd" clip-rule="evenodd" d="M7.0214 34.9574C6.92563 34.908 7.152 34.8384 7.20424 34.8654C7.30001 34.9148 7.07364 34.9844 7.0214 34.9574Z" fill="white"/>
<path fill-rule="evenodd" clip-rule="evenodd" d="M15.9062 35.0487C15.8104 34.9993 16.0368 34.9297 16.089 34.9544C16.1848 35.0038 15.9584 35.0734 15.9062 35.0487Z" fill="white"/>
<path fill-rule="evenodd" clip-rule="evenodd" d="M40.7578 35.0489C40.7926 34.9433 40.9406 34.9972 40.9406 35.0489C40.9058 35.1566 40.7578 35.1005 40.7578 35.0489Z" fill="white"/>
<path fill-rule="evenodd" clip-rule="evenodd" d="M8.29095 35.1424C8.19518 35.093 8.42155 35.0234 8.46944 35.0481C8.56521 35.0975 8.33884 35.1671 8.29095 35.1424Z" fill="white"/>
<path fill-rule="evenodd" clip-rule="evenodd" d="M19.5371 35.3311C19.5719 35.2233 19.7199 35.2794 19.7199 35.3311C19.6851 35.4366 19.5371 35.3827 19.5371 35.3311Z" fill="white"/>
<path fill-rule="evenodd" clip-rule="evenodd" d="M38.4003 35.3299C38.3045 35.2805 38.5309 35.2109 38.5831 35.2356C38.6789 35.285 38.4525 35.3546 38.4003 35.3299Z" fill="white"/>
<path fill-rule="evenodd" clip-rule="evenodd" d="M17.7206 35.4223C17.6248 35.3729 17.8512 35.3033 17.9035 35.3302C17.9992 35.3796 17.7729 35.4492 17.7206 35.4223Z" fill="white"/>
<path fill-rule="evenodd" clip-rule="evenodd" d="M3.21085 35.5135C3.11508 35.4641 3.34145 35.3945 3.39369 35.4192C3.48946 35.4686 3.26309 35.5382 3.21085 35.5135Z" fill="white"/>
<path fill-rule="evenodd" clip-rule="evenodd" d="M20.9863 35.5135C20.8905 35.4641 21.1169 35.3945 21.1647 35.4192C21.2605 35.4686 21.0342 35.5382 20.9863 35.5135Z" fill="white"/>
<path fill-rule="evenodd" clip-rule="evenodd" d="M7.20304 35.6112C7.10727 35.5618 7.33364 35.4922 7.38588 35.5169C7.4773 35.5663 7.25528 35.6359 7.20304 35.6112Z" fill="white"/>
<path fill-rule="evenodd" clip-rule="evenodd" d="M18.2656 35.6112C18.1698 35.5618 18.3962 35.4922 18.444 35.5169C18.5398 35.5663 18.3134 35.6359 18.2656 35.6112Z" fill="white"/>
<path fill-rule="evenodd" clip-rule="evenodd" d="M19.7187 35.6112C19.6229 35.5618 19.8493 35.4922 19.9015 35.5169C19.9973 35.5663 19.7709 35.6359 19.7187 35.6112Z" fill="white"/>
<path fill-rule="evenodd" clip-rule="evenodd" d="M33.8632 35.6112C33.7674 35.5618 33.9938 35.4922 34.046 35.5169C34.1418 35.5663 33.9154 35.6359 33.8632 35.6112Z" fill="white"/>
<path fill-rule="evenodd" clip-rule="evenodd" d="M42.0253 35.6112C41.9295 35.5618 42.1559 35.4922 42.2081 35.5169C42.3039 35.5663 42.0775 35.6359 42.0253 35.6112Z" fill="white"/>
<path fill-rule="evenodd" clip-rule="evenodd" d="M32.0527 35.7035C31.9569 35.6541 32.1832 35.5845 32.2355 35.6115C32.3313 35.6609 32.1049 35.7305 32.0527 35.7035Z" fill="white"/>
<path fill-rule="evenodd" clip-rule="evenodd" d="M37.8554 35.7035C37.7596 35.6541 37.986 35.5845 38.0382 35.6115C38.134 35.6609 37.9076 35.7305 37.8554 35.7035Z" fill="white"/>
<path fill-rule="evenodd" clip-rule="evenodd" d="M2.30265 35.7948C2.20688 35.7454 2.43325 35.6758 2.48549 35.7005C2.58126 35.7499 2.35489 35.8195 2.30265 35.7948Z" fill="white"/>
<path fill-rule="evenodd" clip-rule="evenodd" d="M16.6327 36.076C16.537 36.0266 16.7633 35.957 16.8156 35.9817C16.9113 36.0311 16.685 36.1007 16.6327 36.076Z" fill="white"/>
<path fill-rule="evenodd" clip-rule="evenodd" d="M31.5077 36.076C31.412 36.0266 31.6383 35.957 31.6906 35.9817C31.7863 36.0311 31.56 36.1007 31.5077 36.076Z" fill="white"/>
<path fill-rule="evenodd" clip-rule="evenodd" d="M14.0956 36.1737C13.9998 36.1243 14.2262 36.0547 14.2785 36.0794C14.3742 36.1288 14.1479 36.1984 14.0956 36.1737Z" fill="white"/>
<path fill-rule="evenodd" clip-rule="evenodd" d="M29.1484 36.3598C29.0526 36.3104 29.279 36.2408 29.3269 36.2677C29.4226 36.3171 29.1963 36.3867 29.1484 36.3598Z" fill="white"/>
<path fill-rule="evenodd" clip-rule="evenodd" d="M42.3905 36.3598C42.2948 36.3104 42.5211 36.2408 42.5734 36.2677C42.6691 36.3171 42.4428 36.3867 42.3905 36.3598Z" fill="white"/>
<path fill-rule="evenodd" clip-rule="evenodd" d="M27.6991 36.4471C27.6034 36.3977 27.8297 36.3281 27.882 36.3528C27.9777 36.4022 27.7514 36.4718 27.6991 36.4471Z" fill="white"/>
<path fill-rule="evenodd" clip-rule="evenodd" d="M6.29288 36.5448C6.19711 36.4954 6.42348 36.4258 6.47572 36.4505C6.56714 36.4999 6.34512 36.5694 6.29288 36.5448Z" fill="white"/>
<path fill-rule="evenodd" clip-rule="evenodd" d="M19.1757 36.7284C19.0799 36.679 19.3063 36.6094 19.3542 36.6341C19.45 36.6834 19.2236 36.753 19.1757 36.7284Z" fill="white"/>
<path fill-rule="evenodd" clip-rule="evenodd" d="M8.65226 36.8246C8.55649 36.7752 8.78286 36.7056 8.8351 36.7326C8.93087 36.782 8.7045 36.8516 8.65226 36.8246Z" fill="white"/>
<path fill-rule="evenodd" clip-rule="evenodd" d="M41.4843 36.8246C41.3885 36.7752 41.6149 36.7056 41.6671 36.7326C41.7629 36.782 41.5365 36.8516 41.4843 36.8246Z" fill="white"/>
<path fill-rule="evenodd" clip-rule="evenodd" d="M3.21085 36.9159C3.11508 36.8665 3.34145 36.7969 3.39369 36.8216C3.48946 36.8709 3.26309 36.9405 3.21085 36.9159Z" fill="white"/>
<path fill-rule="evenodd" clip-rule="evenodd" d="M15.5449 37.0135C15.4491 36.9641 15.6755 36.8945 15.7233 36.9192C15.8191 36.9686 15.5927 37.0382 15.5449 37.0135Z" fill="white"/>
<path fill-rule="evenodd" clip-rule="evenodd" d="M16.0878 37.1059C15.992 37.0565 16.2184 36.9869 16.2706 37.0138C16.3664 37.0632 16.14 37.1328 16.0878 37.1059Z" fill="white"/>
<path fill-rule="evenodd" clip-rule="evenodd" d="M19.7187 37.1059C19.6229 37.0565 19.8493 36.9869 19.9015 37.0138C19.9973 37.0632 19.7709 37.1328 19.7187 37.1059Z" fill="white"/>
<path fill-rule="evenodd" clip-rule="evenodd" d="M14.2773 37.2049C14.1815 37.1555 14.4079 37.0859 14.4601 37.1106C14.5559 37.16 14.3295 37.2296 14.2773 37.2049Z" fill="white"/>
<path fill-rule="evenodd" clip-rule="evenodd" d="M15.1836 37.2871C15.2184 37.1816 15.3664 37.2355 15.3664 37.2871C15.3316 37.3927 15.1836 37.3388 15.1836 37.2871Z" fill="white"/>
<path fill-rule="evenodd" clip-rule="evenodd" d="M3.3953 4.36331C3.26471 4.24881 3.20376 4.15676 3.3953 4.27126C3.58249 4.37903 3.53896 4.49129 3.3953 4.36331Z" fill="white"/>
<path fill-rule="evenodd" clip-rule="evenodd" d="M27.6984 4.36363C27.9204 4.29628 28.0989 4.26484 27.8813 4.36363C27.6679 4.46018 27.4503 4.43772 27.6984 4.36363Z" fill="white"/>
<path fill-rule="evenodd" clip-rule="evenodd" d="M30.9629 4.64443V4.92508C30.8019 4.8667 30.6365 4.81282 30.6016 4.92508C30.2795 4.95202 30.5886 4.56136 30.9629 4.64443Z" fill="white"/>
<path fill-rule="evenodd" clip-rule="evenodd" d="M11.7346 4.92602C11.5953 4.78233 11.8478 4.85642 11.9174 4.92602C12.0393 5.05175 11.7956 5.13482 11.7346 5.01807C11.7215 4.99113 11.7564 4.94847 11.7346 4.92602Z" fill="white"/>
<path fill-rule="evenodd" clip-rule="evenodd" d="M26.0672 5.30139C25.5709 5.58653 26.6201 5.04544 26.0672 5.30139V5.30139Z" fill="white"/>
<path fill-rule="evenodd" clip-rule="evenodd" d="M4.66094 5.48498C4.16467 5.77012 5.21381 5.22903 4.66094 5.48498V5.48498Z" fill="white"/>
<path fill-rule="evenodd" clip-rule="evenodd" d="M19.8963 5.95381C20.3012 5.59458 19.818 6.20527 19.7135 6.14016C19.5611 6.04362 19.8746 5.97177 19.8963 5.95381Z" fill="white"/>
<path fill-rule="evenodd" clip-rule="evenodd" d="M18.9934 6.70359C18.915 6.56438 18.7627 6.74175 18.4492 6.70359C18.6321 6.45437 18.9455 6.27251 19.1762 6.04799C19.494 6.0188 19.4984 6.57337 18.9934 6.42294C19.2023 6.55989 19.2023 6.65868 18.9934 6.79788C18.7888 6.77992 18.8933 6.70359 18.9934 6.70359Z" fill="white"/>
<path fill-rule="evenodd" clip-rule="evenodd" d="M2.12311 6.61159C2.07522 6.22093 2.89799 6.69018 2.8501 6.89224C2.16229 7.0292 2.81527 6.47464 2.12311 6.61159Z" fill="white"/>
<path fill-rule="evenodd" clip-rule="evenodd" d="M22.9801 7.07635C22.954 7.07635 23.0498 6.92368 23.163 6.98205C23.163 6.98205 22.7407 7.57703 22.436 7.2627C22.3446 7.16616 22.732 7.20882 22.6188 7.2627C22.7233 7.21331 22.8104 7.08084 22.9801 7.07635Z" fill="white"/>
<path fill-rule="evenodd" clip-rule="evenodd" d="M32.9578 7.44983C32.4615 7.73496 33.5107 7.19387 32.9578 7.44983V7.44983Z" fill="white"/>
<path fill-rule="evenodd" clip-rule="evenodd" d="M37.493 7.54748C36.9967 7.83262 38.0458 7.29153 37.493 7.54748V7.54748Z" fill="white"/>
<path fill-rule="evenodd" clip-rule="evenodd" d="M22.8011 7.91751C22.4702 7.6189 23.5934 8.40472 22.8011 7.91751V7.91751Z" fill="white"/>
<path fill-rule="evenodd" clip-rule="evenodd" d="M13.9129 8.57483C13.4166 8.85996 14.4658 8.31887 13.9129 8.57483V8.57483Z" fill="white"/>
<path fill-rule="evenodd" clip-rule="evenodd" d="M27.6974 10.068C28.1023 9.70653 27.6191 10.3195 27.5146 10.2544C27.3666 10.1578 27.6757 10.086 27.6974 10.068Z" fill="white"/>
<path fill-rule="evenodd" clip-rule="evenodd" d="M14.8176 10.63C15.4618 10.4841 14.9264 10.9488 15.3617 10.9107C15.3051 11.1082 14.7305 10.8119 14.8176 10.63Z" fill="white"/>
<path fill-rule="evenodd" clip-rule="evenodd" d="M39.6707 13.8092C39.1744 14.0943 40.2236 13.5532 39.6707 13.8092V13.8092Z" fill="white"/>
<path fill-rule="evenodd" clip-rule="evenodd" d="M40.7586 13.8092C40.2623 14.0943 41.3115 13.5532 40.7586 13.8092V13.8092Z" fill="white"/>
<path fill-rule="evenodd" clip-rule="evenodd" d="M18.2663 16.43C18.0443 16.1942 18.5319 16.4569 18.6277 16.6163C18.6886 16.7196 18.4579 16.6298 18.2663 16.43Z" fill="white"/>
<path fill-rule="evenodd" clip-rule="evenodd" d="M11.9187 17.93C11.3571 17.8088 12.4411 17.8065 12.28 18.0243C12.1233 18.2017 12.1712 17.9233 11.9187 17.93Z" fill="white"/>
<path fill-rule="evenodd" clip-rule="evenodd" d="M1.94024 18.399C1.44397 18.6842 2.4931 18.1431 1.94024 18.399V18.399Z" fill="white"/>
<path fill-rule="evenodd" clip-rule="evenodd" d="M15.544 20.7305C16.1578 21.083 15.0652 21.3524 14.817 21.5724C14.4905 21.3681 15.7791 21.1997 15.544 20.7305Z" fill="white"/>
<path fill-rule="evenodd" clip-rule="evenodd" d="M29.6922 21.5738C29.1959 21.2886 30.2451 21.8297 29.6922 21.5738V21.5738Z" fill="white"/>
<path fill-rule="evenodd" clip-rule="evenodd" d="M18.2663 22.2288C18.6668 22.0716 17.6307 22.597 16.9951 22.5094C16.8428 22.4914 16.8253 22.5453 16.8123 22.6015C16.6512 22.3118 17.6481 22.3994 18.2619 22.2288H18.2663Z" fill="white"/>
<path fill-rule="evenodd" clip-rule="evenodd" d="M15.9057 22.8813C15.9187 22.8656 15.9666 22.6164 16.0885 22.695C16.2365 22.787 15.6488 23.1485 15.9057 22.8813Z" fill="white"/>
<path fill-rule="evenodd" clip-rule="evenodd" d="M1.03594 23.3561C0.539673 23.6412 1.58881 23.1001 1.03594 23.3561V23.3561Z" fill="white"/>
<path fill-rule="evenodd" clip-rule="evenodd" d="M4.66094 24.2897C4.16467 24.5748 5.21381 24.0337 4.66094 24.2897V24.2897Z" fill="white"/>
<path fill-rule="evenodd" clip-rule="evenodd" d="M26.2488 24.855C25.7526 24.5699 26.8017 25.111 26.2488 24.855V24.855Z" fill="white"/>
<path fill-rule="evenodd" clip-rule="evenodd" d="M1.21297 25.5935C0.882125 25.2948 2.00962 26.0784 1.21297 25.5935V25.5935Z" fill="white"/>
<path fill-rule="evenodd" clip-rule="evenodd" d="M23.5282 25.8789C23.3976 26.045 23.1974 25.8923 22.9841 25.8789C22.9188 26.0383 23.1277 26.0563 23.3454 26.0652C23.3149 26.1752 23.0145 26.1438 22.8012 26.1595C22.9188 26.2538 23.2191 26.2561 23.1625 26.4402C22.7925 26.411 22.8056 26.1865 22.4355 26.1595C22.6532 25.9799 23.0581 25.6499 23.5239 25.8789H23.5282Z" fill="white"/>
<path fill-rule="evenodd" clip-rule="evenodd" d="M8.47149 25.9761C7.97522 25.691 9.02435 26.2321 8.47149 25.9761V25.9761Z" fill="white"/>
<path fill-rule="evenodd" clip-rule="evenodd" d="M35.5008 28.5905C35.0045 28.8756 36.0537 28.3345 35.5008 28.5905V28.5905Z" fill="white"/>
<path fill-rule="evenodd" clip-rule="evenodd" d="M15.366 29.0631C14.8698 29.3482 15.9189 28.8072 15.366 29.0631V29.0631Z" fill="white"/>
<path fill-rule="evenodd" clip-rule="evenodd" d="M37.1326 29.436C37.1457 29.4203 37.1936 29.1711 37.3154 29.2497C37.4591 29.3417 36.8758 29.7032 37.1326 29.436Z" fill="white"/>
<path fill-rule="evenodd" clip-rule="evenodd" d="M26.4266 31.2155C25.9303 31.5006 26.9794 30.9595 26.4266 31.2155V31.2155Z" fill="white"/>
<path fill-rule="evenodd" clip-rule="evenodd" d="M19.536 31.8683C18.5957 32.2769 20.115 31.6977 19.536 31.8683V31.8683Z" fill="white"/>
<path fill-rule="evenodd" clip-rule="evenodd" d="M31.5076 34.0179C31.5207 34.0045 31.5686 33.753 31.6904 33.8316C31.8341 33.9259 31.2508 34.2851 31.5076 34.0179Z" fill="white"/>
<path fill-rule="evenodd" clip-rule="evenodd" d="M9.37579 34.0162C8.87952 34.3014 9.92865 33.7603 9.37579 34.0162V34.0162Z" fill="white"/>
<path fill-rule="evenodd" clip-rule="evenodd" d="M10.2852 35.5155C10.3853 35.7221 9.93695 35.648 9.92389 35.7962C9.60175 35.8231 9.91083 35.4324 10.2852 35.5155Z" fill="white"/>
<path fill-rule="evenodd" clip-rule="evenodd" d="M23.3446 35.7031C23.941 35.9591 22.6002 35.9972 22.6176 36.2644C22.1692 36.0871 23.2314 35.9007 23.3446 35.7031Z" fill="white"/>
<path fill-rule="evenodd" clip-rule="evenodd" d="M14.2773 35.9859C14.3122 35.8804 14.4602 35.9343 14.4602 35.9859C14.9869 35.8535 14.6648 35.9141 14.643 36.1723C14.4471 36.1498 14.5211 35.9859 14.2817 35.9859H14.2773Z" fill="white"/>
<path fill-rule="evenodd" clip-rule="evenodd" d="M8.65253 37.9441C8.3478 37.596 9.67119 37.2862 10.1022 37.0078C10.5505 37.1852 9.27939 37.2638 9.558 37.6634" fill="white"/>
</g>
</g>
</svg>
