<svg width="24" height="24" viewBox="0 0 24 24" fill="none" xmlns="http://www.w3.org/2000/svg">
<g style="mix-blend-mode:multiply">
<path fill-rule="evenodd" clip-rule="evenodd" d="M8.02292 6.27072C8.02292 3.91207 9.93498 2 12.2936 2C14.6523 2 16.5644 3.91207 16.5644 6.27072V11.3747C16.5644 13.3553 15.2161 15.021 13.3874 15.5041V16.3326C13.7003 16.2675 14.0072 16.1731 14.3039 16.0502C14.9248 15.793 15.4889 15.4161 15.964 14.941C16.4392 14.4658 16.8161 13.9017 17.0733 13.2809C17.2213 12.9235 17.328 12.5513 17.3919 12.1716C17.47 11.7071 17.8446 11.3227 18.3156 11.3227C18.7866 11.3227 19.1739 11.706 19.1152 12.1733C19.0394 12.777 18.8829 13.3691 18.6491 13.9336C18.3062 14.7614 17.8037 15.5135 17.1701 16.1471C16.5366 16.7806 15.7844 17.2832 14.9567 17.626C14.4518 17.8352 13.9249 17.9824 13.3874 18.0654V19.9162H15.5227V21.9995H13.3874H11.3041H9.16872V19.9162H11.3041V18.0654C10.7665 17.9824 10.2396 17.8352 9.73477 17.626C8.907 17.2832 8.15487 16.7806 7.52132 16.1471C6.88777 15.5135 6.38521 14.7614 6.04233 13.9336C5.80851 13.3691 5.65208 12.777 5.57622 12.1733C5.51749 11.706 5.90482 11.3227 6.37583 11.3227C6.84684 11.3227 7.22144 11.7071 7.29958 12.1716C7.36345 12.5513 7.47014 12.9235 7.61818 13.2809C7.87534 13.9017 8.25226 14.4658 8.72742 14.941C9.20258 15.4161 9.76668 15.793 10.3875 16.0502C10.6842 16.1731 10.9911 16.2675 11.3041 16.3326V15.5302C9.42258 15.0839 8.02292 13.3928 8.02292 11.3747V6.27072Z" fill="#94C0E8"/>
</g>
<g style="mix-blend-mode:multiply">
<path d="M18.2926 11.3008C18.7636 11.3008 19.151 11.6841 19.0922 12.1514C19.0164 12.7551 18.8599 13.3472 18.6261 13.9117C18.2832 14.7395 17.7807 15.4916 17.1471 16.1252C16.5136 16.7587 15.7615 17.2613 14.9337 17.6042C14.1059 17.947 13.2187 18.1235 12.3227 18.1235C11.4268 18.1235 10.5396 17.947 9.71179 17.6042C8.88401 17.2613 8.13188 16.7587 7.49833 16.1252C6.86478 15.4916 6.36222 14.7395 6.01935 13.9117C5.78553 13.3472 5.62909 12.7551 5.55323 12.1514C5.49451 11.6841 5.88183 11.3008 6.35284 11.3008C6.82385 11.3008 7.19845 11.6852 7.27659 12.1497C7.34047 12.5294 7.44715 12.9016 7.5952 13.259C7.85235 13.8798 8.22927 14.4439 8.70443 14.9191C9.17959 15.3942 9.74369 15.7712 10.3645 16.0283C10.9854 16.2855 11.6508 16.4178 12.3227 16.4178C12.9947 16.4178 13.6601 16.2855 14.2809 16.0283C14.9018 15.7712 15.4659 15.3942 15.941 14.9191C16.4162 14.4439 16.7931 13.8798 17.0503 13.259C17.1983 12.9016 17.305 12.5294 17.3689 12.1497C17.447 11.6852 17.8216 11.3008 18.2926 11.3008Z" fill="#94C0E8"/>
</g>
<g style="mix-blend-mode:hard-light">
<rect x="8.02148" y="2" width="8.54144" height="13.6455" rx="4.27072" fill="#112D5C"/>
</g>
<g style="mix-blend-mode:color-burn">
<path fill-rule="evenodd" clip-rule="evenodd" d="M13.3886 13.1484H11.3053V19.9191H9.16992V22.0024H11.3053H13.3886H15.5239V19.9191H13.3886V13.1484Z" fill="#36BBF8"/>
</g>
<g opacity="0.6">
<mask id="mask0_7322_253665" style="mask-type:luminance" maskUnits="userSpaceOnUse" x="5" y="1" width="15" height="22">
<g style="mix-blend-mode:multiply">
<path fill-rule="evenodd" clip-rule="evenodd" d="M7.5753 5.98437C7.5753 3.50772 9.58303 1.5 12.0597 1.5C14.5363 1.5 16.5441 3.50772 16.5441 5.98438V11.3438C16.5441 13.4234 15.1284 15.1725 13.2081 15.6797V16.5496C13.5367 16.4813 13.859 16.3822 14.1705 16.2531C14.8224 15.9831 15.4148 15.5873 15.9137 15.0884C16.4126 14.5894 16.8084 13.9971 17.0784 13.3452C17.2339 12.9699 17.3459 12.5791 17.413 12.1804C17.495 11.6927 17.8883 11.2891 18.3829 11.2891C18.8775 11.2891 19.2842 11.6915 19.2225 12.1822C19.1429 12.8161 18.9786 13.4379 18.7331 14.0306C18.3731 14.8998 17.8454 15.6896 17.1801 16.3548C16.5149 17.0201 15.7251 17.5478 14.8559 17.9078C14.3258 18.1274 13.7726 18.2819 13.2081 18.3691V20.3125H15.4503V22.5H13.2081H11.0206H8.77843V20.3125H11.0206V18.3691C10.4562 18.2819 9.90288 18.1274 9.3728 17.9078C8.50361 17.5478 7.71385 17.0201 7.04861 16.3548C6.38337 15.6896 5.85566 14.8998 5.49564 14.0306C5.25012 13.4379 5.08586 12.8161 5.0062 12.1822C4.94454 11.6915 5.35124 11.2891 5.84581 11.2891C6.34039 11.2891 6.73373 11.6927 6.81577 12.1804C6.88285 12.5791 6.99487 12.9699 7.15032 13.3452C7.42034 13.9971 7.81612 14.5894 8.31505 15.0884C8.81398 15.5873 9.4063 15.9831 10.0582 16.2531C10.3698 16.3822 10.692 16.4813 11.0206 16.5496V15.7071C9.04499 15.2384 7.5753 13.4627 7.5753 11.3438V5.98437Z" fill="white"/>
</g>
</mask>
<g mask="url(#mask0_7322_253665)">
<path fill-rule="evenodd" clip-rule="evenodd" d="M13.3452 1.52137C13.2832 1.48941 13.4297 1.44438 13.4607 1.46036C13.5226 1.49232 13.3762 1.53735 13.3452 1.52137Z" fill="white"/>
<path fill-rule="evenodd" clip-rule="evenodd" d="M18.8413 1.70105C18.7793 1.6691 18.9258 1.62407 18.9596 1.64005C19.0215 1.672 18.8751 1.71703 18.8413 1.70105Z" fill="white"/>
<path fill-rule="evenodd" clip-rule="evenodd" d="M13.6967 2.12293C13.6348 2.09097 13.7812 2.04594 13.815 2.06192C13.877 2.09388 13.7305 2.13891 13.6967 2.12293Z" fill="white"/>
<path fill-rule="evenodd" clip-rule="evenodd" d="M10.4219 2.30872C10.4445 2.24045 10.5402 2.27531 10.5374 2.30872C10.5149 2.37699 10.4191 2.34213 10.4219 2.30872Z" fill="white"/>
<path fill-rule="evenodd" clip-rule="evenodd" d="M11.5913 2.30652C11.5293 2.27457 11.6758 2.22954 11.7068 2.24552C11.7687 2.27747 11.6223 2.3225 11.5913 2.30652Z" fill="white"/>
<path fill-rule="evenodd" clip-rule="evenodd" d="M18.726 2.36902C18.6641 2.33707 18.8105 2.29204 18.8443 2.30802C18.9063 2.33997 18.7598 2.385 18.726 2.36902Z" fill="white"/>
<path fill-rule="evenodd" clip-rule="evenodd" d="M17.2046 2.6073C17.1426 2.57535 17.2891 2.53032 17.3229 2.5463C17.3848 2.57825 17.2384 2.62328 17.2046 2.6073Z" fill="white"/>
<path fill-rule="evenodd" clip-rule="evenodd" d="M13.1128 2.7284C13.0508 2.69644 13.1973 2.65141 13.2311 2.66739C13.293 2.69935 13.1466 2.74438 13.1128 2.7284Z" fill="white"/>
<path fill-rule="evenodd" clip-rule="evenodd" d="M14.9844 2.73121C15.0069 2.66149 15.1027 2.6978 15.1027 2.73121C15.0801 2.79948 14.9844 2.76462 14.9844 2.73121Z" fill="white"/>
<path fill-rule="evenodd" clip-rule="evenodd" d="M15.4507 2.7284C15.3887 2.69644 15.5351 2.65141 15.5689 2.66739C15.6309 2.69935 15.4845 2.74438 15.4507 2.7284Z" fill="white"/>
<path fill-rule="evenodd" clip-rule="evenodd" d="M10.0698 2.79C10.0078 2.75805 10.1543 2.71302 10.1881 2.73045C10.25 2.7624 10.1036 2.80743 10.0698 2.79Z" fill="white"/>
<path fill-rule="evenodd" clip-rule="evenodd" d="M15.5678 2.90809C15.5059 2.87613 15.6523 2.8311 15.6861 2.84708C15.7453 2.87903 15.6016 2.92406 15.5678 2.90809Z" fill="white"/>
<path fill-rule="evenodd" clip-rule="evenodd" d="M18.1406 2.97279C18.1632 2.90452 18.2589 2.93938 18.2589 2.97279C18.2364 3.04106 18.1406 3.00619 18.1406 2.97279Z" fill="white"/>
<path fill-rule="evenodd" clip-rule="evenodd" d="M5.85742 3.08997C5.87995 3.0217 5.97571 3.05656 5.97571 3.08997C5.95318 3.15824 5.85742 3.12338 5.85742 3.08997Z" fill="white"/>
<path fill-rule="evenodd" clip-rule="evenodd" d="M18.1401 3.21668C18.0781 3.18472 18.2246 3.13969 18.2584 3.15567C18.3204 3.18763 18.1739 3.23266 18.1401 3.21668Z" fill="white"/>
<path fill-rule="evenodd" clip-rule="evenodd" d="M17.7925 3.27527C17.7305 3.24332 17.8769 3.19829 17.9107 3.21427C17.9727 3.24622 17.8262 3.29125 17.7925 3.27527Z" fill="white"/>
<path fill-rule="evenodd" clip-rule="evenodd" d="M8.19922 3.45716C8.22175 3.38889 8.31751 3.42375 8.31751 3.45716C8.29498 3.52688 8.19922 3.49057 8.19922 3.45716Z" fill="white"/>
<path fill-rule="evenodd" clip-rule="evenodd" d="M7.02878 3.51746C6.96682 3.4855 7.11327 3.44048 7.14707 3.45645C7.20903 3.48841 7.06258 3.53344 7.02878 3.51746Z" fill="white"/>
<path fill-rule="evenodd" clip-rule="evenodd" d="M8.19922 3.63356C8.22175 3.56383 8.31751 3.60015 8.31751 3.63356C8.29498 3.70183 8.19922 3.66697 8.19922 3.63356Z" fill="white"/>
<path fill-rule="evenodd" clip-rule="evenodd" d="M11.476 3.63855C11.4141 3.6066 11.5605 3.56157 11.5943 3.57755C11.6535 3.6095 11.5098 3.65453 11.476 3.63855Z" fill="white"/>
<path fill-rule="evenodd" clip-rule="evenodd" d="M5.97605 3.75574C5.91409 3.72379 6.06054 3.67876 6.09433 3.69473C6.1563 3.72669 6.00984 3.77172 5.97605 3.75574Z" fill="white"/>
<path fill-rule="evenodd" clip-rule="evenodd" d="M13.1128 3.75574C13.0508 3.72379 13.1973 3.67876 13.2311 3.69473C13.293 3.72669 13.1466 3.77172 13.1128 3.75574Z" fill="white"/>
<path fill-rule="evenodd" clip-rule="evenodd" d="M8.1987 3.81824C8.13674 3.78629 8.28319 3.74126 8.31699 3.75723C8.37895 3.78919 8.2325 3.83422 8.1987 3.81824Z" fill="white"/>
<path fill-rule="evenodd" clip-rule="evenodd" d="M6.4448 3.94324C6.38284 3.91129 6.52929 3.86626 6.56308 3.88223C6.62505 3.91419 6.47859 3.95922 6.4448 3.94324Z" fill="white"/>
<path fill-rule="evenodd" clip-rule="evenodd" d="M15.0991 4.00094C15.0371 3.96898 15.1836 3.92395 15.2146 3.94138C15.2765 3.97334 15.1301 4.01837 15.0991 4.00094Z" fill="white"/>
<path fill-rule="evenodd" clip-rule="evenodd" d="M18.9604 4.06434C18.8985 4.03238 19.0449 3.98735 19.0787 4.00333C19.1407 4.03528 18.9942 4.08031 18.9604 4.06434Z" fill="white"/>
<path fill-rule="evenodd" clip-rule="evenodd" d="M12.291 4.17982C12.3135 4.11155 12.4093 4.14641 12.4093 4.17982C12.3868 4.24809 12.291 4.21323 12.291 4.17982Z" fill="white"/>
<path fill-rule="evenodd" clip-rule="evenodd" d="M7.26316 4.42371C7.20119 4.39175 7.34765 4.34673 7.38144 4.3627C7.44341 4.39466 7.29695 4.43969 7.26316 4.42371Z" fill="white"/>
<path fill-rule="evenodd" clip-rule="evenodd" d="M14.3979 4.42371C14.336 4.39175 14.4824 4.34673 14.5162 4.3627C14.5754 4.39466 14.4317 4.43969 14.3979 4.42371Z" fill="white"/>
<path fill-rule="evenodd" clip-rule="evenodd" d="M16.8536 4.42591C16.8761 4.35764 16.9719 4.3925 16.969 4.42591C16.9465 4.49418 16.8508 4.45932 16.8536 4.42591Z" fill="white"/>
<path fill-rule="evenodd" clip-rule="evenodd" d="M11.1206 4.48531C11.0586 4.45336 11.2051 4.40833 11.2389 4.42576C11.3008 4.45772 11.1544 4.50274 11.1206 4.48531Z" fill="white"/>
<path fill-rule="evenodd" clip-rule="evenodd" d="M18.1401 4.5448C18.0781 4.51285 18.2246 4.46782 18.2584 4.4838C18.3204 4.51575 18.1739 4.56078 18.1401 4.5448Z" fill="white"/>
<path fill-rule="evenodd" clip-rule="evenodd" d="M17.9077 4.60641C17.8457 4.57445 17.9922 4.52942 18.026 4.54685C18.0851 4.57881 17.9415 4.62384 17.9077 4.60641Z" fill="white"/>
<path fill-rule="evenodd" clip-rule="evenodd" d="M6.79492 4.78529C6.81745 4.71702 6.91321 4.75188 6.91321 4.78529C6.89068 4.85356 6.79492 4.81869 6.79492 4.78529Z" fill="white"/>
<path fill-rule="evenodd" clip-rule="evenodd" d="M7.49754 4.84949C7.43558 4.81754 7.58204 4.77251 7.61302 4.78848C7.67498 4.82044 7.52853 4.86547 7.49754 4.84949Z" fill="white"/>
<path fill-rule="evenodd" clip-rule="evenodd" d="M12.9936 4.97059C12.9317 4.93863 13.0781 4.8936 13.1119 4.90958C13.1739 4.94153 13.0274 4.98656 12.9936 4.97059Z" fill="white"/>
<path fill-rule="evenodd" clip-rule="evenodd" d="M18.1401 4.97059C18.0781 4.93863 18.2246 4.8936 18.2584 4.90958C18.3204 4.94153 18.1739 4.98656 18.1401 4.97059Z" fill="white"/>
<path fill-rule="evenodd" clip-rule="evenodd" d="M10.5385 5.02918C10.4766 4.99722 10.623 4.95219 10.6568 4.96817C10.7188 5.00013 10.5723 5.04516 10.5385 5.02918Z" fill="white"/>
<path fill-rule="evenodd" clip-rule="evenodd" d="M14.5151 5.09168C14.4532 5.05972 14.5996 5.01469 14.6306 5.03067C14.6926 5.06263 14.5461 5.10766 14.5151 5.09168Z" fill="white"/>
<path fill-rule="evenodd" clip-rule="evenodd" d="M7.49615 5.21497C7.51869 5.1467 7.61444 5.18156 7.61163 5.21497C7.5891 5.28324 7.49334 5.24838 7.49615 5.21497Z" fill="white"/>
<path fill-rule="evenodd" clip-rule="evenodd" d="M9.83544 5.27137C9.77347 5.23941 9.91993 5.19438 9.95091 5.21036C10.0129 5.24232 9.86642 5.28735 9.83544 5.27137Z" fill="white"/>
<path fill-rule="evenodd" clip-rule="evenodd" d="M13.4624 5.27137C13.4004 5.23941 13.5469 5.19438 13.5807 5.21036C13.6426 5.24232 13.4962 5.28735 13.4624 5.27137Z" fill="white"/>
<path fill-rule="evenodd" clip-rule="evenodd" d="M13.6967 5.27137C13.6348 5.23941 13.7812 5.19438 13.815 5.21036C13.877 5.24232 13.7305 5.28735 13.6967 5.27137Z" fill="white"/>
<path fill-rule="evenodd" clip-rule="evenodd" d="M13.9311 5.27137C13.8692 5.23941 14.0156 5.19438 14.0466 5.21036C14.1086 5.24232 13.9621 5.28735 13.9311 5.27137Z" fill="white"/>
<path fill-rule="evenodd" clip-rule="evenodd" d="M14.2827 5.32996C14.2207 5.298 14.3672 5.25298 14.401 5.26895C14.4629 5.30091 14.3165 5.34594 14.2827 5.32996Z" fill="white"/>
<path fill-rule="evenodd" clip-rule="evenodd" d="M7.49754 5.39547C7.43558 5.36351 7.58204 5.31849 7.61302 5.33592C7.67498 5.36787 7.52853 5.4129 7.49754 5.39547Z" fill="white"/>
<path fill-rule="evenodd" clip-rule="evenodd" d="M19.1948 5.39547C19.1328 5.36351 19.2793 5.31849 19.3103 5.33592C19.3722 5.36787 19.2258 5.4129 19.1948 5.39547Z" fill="white"/>
<path fill-rule="evenodd" clip-rule="evenodd" d="M18.6089 5.45105C18.5469 5.4191 18.6934 5.37407 18.7243 5.39005C18.7863 5.422 18.6399 5.46703 18.6089 5.45105Z" fill="white"/>
<path fill-rule="evenodd" clip-rule="evenodd" d="M15.9199 5.51575C15.9425 5.44748 16.0382 5.48235 16.0382 5.51575C16.0157 5.58402 15.9199 5.54916 15.9199 5.51575Z" fill="white"/>
<path fill-rule="evenodd" clip-rule="evenodd" d="M5.62448 5.57215C5.56252 5.54019 5.70898 5.49516 5.74277 5.51114C5.80192 5.5431 5.65828 5.58813 5.62448 5.57215Z" fill="white"/>
<path fill-rule="evenodd" clip-rule="evenodd" d="M9.13425 5.57215C9.07229 5.54019 9.21874 5.49516 9.25254 5.51114C9.31168 5.5431 9.16805 5.58813 9.13425 5.57215Z" fill="white"/>
<path fill-rule="evenodd" clip-rule="evenodd" d="M18.4936 5.57215C18.4317 5.54019 18.5781 5.49516 18.6119 5.51114C18.6711 5.5431 18.5274 5.58813 18.4936 5.57215Z" fill="white"/>
<path fill-rule="evenodd" clip-rule="evenodd" d="M7.49754 5.63465C7.43558 5.60269 7.58204 5.55766 7.61302 5.57364C7.67498 5.6056 7.52853 5.65063 7.49754 5.63465Z" fill="white"/>
<path fill-rule="evenodd" clip-rule="evenodd" d="M14.0464 5.63465C13.9844 5.60269 14.1309 5.55766 14.1646 5.57364C14.2266 5.6056 14.0802 5.65063 14.0464 5.63465Z" fill="white"/>
<path fill-rule="evenodd" clip-rule="evenodd" d="M9.25145 5.69625C9.18949 5.6643 9.33594 5.61927 9.36692 5.6367C9.42888 5.66865 9.28243 5.71368 9.25145 5.69625Z" fill="white"/>
<path fill-rule="evenodd" clip-rule="evenodd" d="M5.74169 5.75965C5.67972 5.72769 5.82618 5.68266 5.85716 5.69864C5.91912 5.7306 5.77267 5.77563 5.74169 5.75965Z" fill="white"/>
<path fill-rule="evenodd" clip-rule="evenodd" d="M11.7085 5.75965C11.6465 5.72769 11.793 5.68266 11.8268 5.69864C11.8887 5.7306 11.7423 5.77563 11.7085 5.75965Z" fill="white"/>
<path fill-rule="evenodd" clip-rule="evenodd" d="M6.67773 5.81654C6.70027 5.74827 6.79602 5.78313 6.79602 5.81654C6.77349 5.88481 6.67773 5.84994 6.67773 5.81654Z" fill="white"/>
<path fill-rule="evenodd" clip-rule="evenodd" d="M18.7266 5.87513C18.7491 5.80686 18.8449 5.84172 18.8449 5.87513C18.8223 5.94485 18.7266 5.90854 18.7266 5.87513Z" fill="white"/>
<path fill-rule="evenodd" clip-rule="evenodd" d="M11.3569 5.93934C11.2949 5.90738 11.4414 5.86235 11.4752 5.87833C11.5372 5.91028 11.3907 5.95531 11.3569 5.93934Z" fill="white"/>
<path fill-rule="evenodd" clip-rule="evenodd" d="M18.4936 5.93934C18.4317 5.90738 18.5781 5.86235 18.6119 5.87833C18.6711 5.91028 18.5274 5.95531 18.4936 5.93934Z" fill="white"/>
<path fill-rule="evenodd" clip-rule="evenodd" d="M5.27292 5.99793C5.21096 5.96597 5.35741 5.92094 5.39121 5.93692C5.45317 5.96888 5.30672 6.01391 5.27292 5.99793Z" fill="white"/>
<path fill-rule="evenodd" clip-rule="evenodd" d="M15.9194 5.99793C15.8574 5.96597 16.0039 5.92094 16.0377 5.93692C16.0997 5.96888 15.9532 6.01391 15.9194 5.99793Z" fill="white"/>
<path fill-rule="evenodd" clip-rule="evenodd" d="M10.3042 6.06043C10.2422 6.02847 10.3887 5.98344 10.4225 5.99942C10.4816 6.03138 10.338 6.07641 10.3042 6.06043Z" fill="white"/>
<path fill-rule="evenodd" clip-rule="evenodd" d="M5.74157 6.17769C5.45801 6.38105 6.13462 6.03099 5.74157 6.17769V6.17769Z" fill="white"/>
<path fill-rule="evenodd" clip-rule="evenodd" d="M9.48386 6.24402C9.4219 6.21207 9.56835 6.16704 9.60215 6.18302C9.66411 6.21497 9.51766 6.26 9.48386 6.24402Z" fill="white"/>
<path fill-rule="evenodd" clip-rule="evenodd" d="M11.3569 6.30172C11.2949 6.26976 11.4414 6.22474 11.4752 6.24217C11.5372 6.27412 11.3907 6.31915 11.3569 6.30172Z" fill="white"/>
<path fill-rule="evenodd" clip-rule="evenodd" d="M12.4096 6.30172C12.3477 6.26976 12.4941 6.22474 12.5279 6.24217C12.5899 6.27412 12.4434 6.31915 12.4096 6.30172Z" fill="white"/>
<path fill-rule="evenodd" clip-rule="evenodd" d="M17.2046 6.30172C17.1426 6.26976 17.2891 6.22474 17.3229 6.24217C17.3848 6.27412 17.2384 6.31915 17.2046 6.30172Z" fill="white"/>
<path fill-rule="evenodd" clip-rule="evenodd" d="M11.0054 6.4823C10.9434 6.45035 11.0898 6.40532 11.1208 6.4213C11.1828 6.45325 11.0363 6.49828 11.0054 6.4823Z" fill="white"/>
<path fill-rule="evenodd" clip-rule="evenodd" d="M10.4214 6.5448C10.3594 6.51285 10.5059 6.46782 10.5368 6.4838C10.5988 6.51575 10.4524 6.56078 10.4214 6.5448Z" fill="white"/>
<path fill-rule="evenodd" clip-rule="evenodd" d="M16.3862 6.5448C16.3242 6.51285 16.4707 6.46782 16.5045 6.4838C16.5665 6.51575 16.42 6.56078 16.3862 6.5448Z" fill="white"/>
<path fill-rule="evenodd" clip-rule="evenodd" d="M10.7729 6.60641C10.711 6.57445 10.8574 6.52942 10.8912 6.54685C10.9532 6.57881 10.8067 6.62384 10.7729 6.60641Z" fill="white"/>
<path fill-rule="evenodd" clip-rule="evenodd" d="M11.9414 6.66481C11.9639 6.59508 12.0597 6.6314 12.0597 6.66481C12.0372 6.73308 11.9414 6.69822 11.9414 6.66481Z" fill="white"/>
<path fill-rule="evenodd" clip-rule="evenodd" d="M8.1987 6.78699C8.13674 6.75504 8.28319 6.71001 8.31699 6.72598C8.37895 6.75794 8.2325 6.80297 8.1987 6.78699Z" fill="white"/>
<path fill-rule="evenodd" clip-rule="evenodd" d="M15.9197 6.72656C15.5631 6.92992 16.352 6.90959 15.9197 6.72656V6.72656Z" fill="white"/>
<path fill-rule="evenodd" clip-rule="evenodd" d="M17.5561 6.78699C17.4942 6.75504 17.6406 6.71001 17.6744 6.72598C17.7364 6.75794 17.5899 6.80297 17.5561 6.78699Z" fill="white"/>
<path fill-rule="evenodd" clip-rule="evenodd" d="M9.36667 6.84559C9.30471 6.81363 9.45116 6.7686 9.48496 6.78458C9.54692 6.81653 9.40047 6.86156 9.36667 6.84559Z" fill="white"/>
<path fill-rule="evenodd" clip-rule="evenodd" d="M17.2046 6.84559C17.1426 6.81363 17.2891 6.7686 17.3229 6.78458C17.3848 6.81653 17.2384 6.86156 17.2046 6.84559Z" fill="white"/>
<path fill-rule="evenodd" clip-rule="evenodd" d="M10.5385 6.90809C10.4766 6.87613 10.623 6.8311 10.6568 6.84708C10.7188 6.87903 10.5723 6.92406 10.5385 6.90809Z" fill="white"/>
<path fill-rule="evenodd" clip-rule="evenodd" d="M13.4624 6.96668C13.4004 6.93472 13.5469 6.88969 13.5807 6.90567C13.6426 6.93763 13.4962 6.98266 13.4624 6.96668Z" fill="white"/>
<path fill-rule="evenodd" clip-rule="evenodd" d="M9.01901 7.02828C8.95705 6.99633 9.10351 6.9513 9.1373 6.96873C9.19926 7.00069 9.05281 7.04571 9.01901 7.02828Z" fill="white"/>
<path fill-rule="evenodd" clip-rule="evenodd" d="M16.7397 7.14637C16.6778 7.11441 16.8242 7.06938 16.858 7.08536C16.9172 7.11732 16.7735 7.16235 16.7397 7.14637Z" fill="white"/>
<path fill-rule="evenodd" clip-rule="evenodd" d="M18.3764 7.20797C18.3145 7.17602 18.4609 7.13099 18.4947 7.14842C18.5567 7.18037 18.4102 7.2254 18.3764 7.20797Z" fill="white"/>
<path fill-rule="evenodd" clip-rule="evenodd" d="M19.1948 7.26746C19.1328 7.23551 19.2793 7.19048 19.3103 7.20645C19.3722 7.23841 19.2258 7.28344 19.1948 7.26746Z" fill="white"/>
<path fill-rule="evenodd" clip-rule="evenodd" d="M11.476 7.39246C11.4141 7.36051 11.5605 7.31548 11.5943 7.33145C11.6535 7.36341 11.5098 7.40844 11.476 7.39246Z" fill="white"/>
<path fill-rule="evenodd" clip-rule="evenodd" d="M6.4448 7.50875C6.38284 7.4768 6.52929 7.43177 6.56308 7.4492C6.62505 7.48115 6.47859 7.52618 6.4448 7.50875Z" fill="white"/>
<path fill-rule="evenodd" clip-rule="evenodd" d="M9.72019 7.50875C9.65823 7.4768 9.80468 7.43177 9.83848 7.4492C9.89762 7.48115 9.75398 7.52618 9.72019 7.50875Z" fill="white"/>
<path fill-rule="evenodd" clip-rule="evenodd" d="M17.0874 7.63375C17.0254 7.6018 17.1719 7.55677 17.2057 7.5742C17.2676 7.60615 17.1212 7.65118 17.0874 7.63375Z" fill="white"/>
<path fill-rule="evenodd" clip-rule="evenodd" d="M12.8764 7.69324C12.8145 7.66128 12.9609 7.61626 12.9947 7.63224C13.0567 7.66419 12.9102 7.70922 12.8764 7.69324Z" fill="white"/>
<path fill-rule="evenodd" clip-rule="evenodd" d="M16.0366 7.69324C15.9746 7.66128 16.1211 7.61626 16.1549 7.63224C16.2168 7.66419 16.0704 7.70922 16.0366 7.69324Z" fill="white"/>
<path fill-rule="evenodd" clip-rule="evenodd" d="M17.7925 7.81434C17.7305 7.78238 17.8769 7.73735 17.9107 7.75333C17.9727 7.78528 17.8262 7.83032 17.7925 7.81434Z" fill="white"/>
<path fill-rule="evenodd" clip-rule="evenodd" d="M5.62448 7.87293C5.56252 7.84097 5.70898 7.79594 5.74277 7.81192C5.80192 7.84388 5.65828 7.88891 5.62448 7.87293Z" fill="white"/>
<path fill-rule="evenodd" clip-rule="evenodd" d="M11.3569 7.99403C11.2949 7.96207 11.4414 7.91704 11.4752 7.93302C11.5372 7.96497 11.3907 8.01 11.3569 7.99403Z" fill="white"/>
<path fill-rule="evenodd" clip-rule="evenodd" d="M5.50925 8.05652C5.44729 8.02457 5.59374 7.97954 5.62754 7.99552C5.6895 8.02747 5.54305 8.0725 5.50925 8.05652Z" fill="white"/>
<path fill-rule="evenodd" clip-rule="evenodd" d="M5.62448 8.17371C5.56252 8.14176 5.70898 8.09673 5.74277 8.1127C5.80192 8.14466 5.65828 8.18969 5.62448 8.17371Z" fill="white"/>
<path fill-rule="evenodd" clip-rule="evenodd" d="M5.97594 8.47848C5.69239 8.68183 6.36899 8.33177 5.97594 8.47848V8.47848Z" fill="white"/>
<path fill-rule="evenodd" clip-rule="evenodd" d="M11.476 8.4784C11.4141 8.44644 11.5605 8.40141 11.5943 8.41739C11.6535 8.44935 11.5098 8.49438 11.476 8.4784Z" fill="white"/>
<path fill-rule="evenodd" clip-rule="evenodd" d="M16.271 8.4784C16.209 8.44644 16.3555 8.40141 16.3865 8.41739C16.4484 8.44935 16.302 8.49438 16.271 8.4784Z" fill="white"/>
<path fill-rule="evenodd" clip-rule="evenodd" d="M5.0405 8.6034C4.97854 8.57144 5.12499 8.52641 5.15879 8.54239C5.21793 8.57435 5.0743 8.61937 5.0405 8.6034Z" fill="white"/>
<path fill-rule="evenodd" clip-rule="evenodd" d="M17.7925 8.6034C17.7305 8.57144 17.8769 8.52641 17.9107 8.54239C17.9727 8.57435 17.8262 8.61937 17.7925 8.6034Z" fill="white"/>
<path fill-rule="evenodd" clip-rule="evenodd" d="M4.80469 8.84471C4.80749 8.78516 4.94787 8.79823 5.03771 8.78516C5.0349 8.84326 4.89453 8.83164 4.80469 8.84471Z" fill="white"/>
<path fill-rule="evenodd" clip-rule="evenodd" d="M11.7085 8.84078C11.6465 8.80883 11.793 8.7638 11.8268 8.78123C11.8887 8.81318 11.7423 8.85821 11.7085 8.84078Z" fill="white"/>
<path fill-rule="evenodd" clip-rule="evenodd" d="M9.13425 9.02438C9.07229 8.99242 9.21874 8.94739 9.25254 8.96482C9.31168 8.99678 9.16805 9.04181 9.13425 9.02438Z" fill="white"/>
<path fill-rule="evenodd" clip-rule="evenodd" d="M18.8418 9.02357C18.8643 8.9553 18.9601 8.99016 18.9601 9.02357C18.9376 9.09184 18.8418 9.05698 18.8418 9.02357Z" fill="white"/>
<path fill-rule="evenodd" clip-rule="evenodd" d="M10.7729 9.14547C10.711 9.11352 10.8574 9.06849 10.8912 9.08592C10.9532 9.11787 10.8067 9.1629 10.7729 9.14547Z" fill="white"/>
<path fill-rule="evenodd" clip-rule="evenodd" d="M13.3438 9.20716C13.3663 9.13889 13.4621 9.17375 13.4593 9.20716C13.4368 9.27688 13.341 9.24057 13.3438 9.20716Z" fill="white"/>
<path fill-rule="evenodd" clip-rule="evenodd" d="M14.2827 9.56824C14.2207 9.53629 14.3672 9.49126 14.401 9.50723C14.4629 9.53919 14.3165 9.58422 14.2827 9.56824Z" fill="white"/>
<path fill-rule="evenodd" clip-rule="evenodd" d="M9.13425 9.63074C9.07229 9.59879 9.21874 9.55376 9.25254 9.56973C9.31168 9.60169 9.16805 9.64672 9.13425 9.63074Z" fill="white"/>
<path fill-rule="evenodd" clip-rule="evenodd" d="M12.4102 9.81061C12.4607 9.72345 12.514 9.81787 12.6432 9.81061C12.6151 9.88614 12.4102 9.87162 12.4102 9.81061Z" fill="white"/>
<path fill-rule="evenodd" clip-rule="evenodd" d="M12.9936 9.81043C12.9317 9.77848 13.0781 9.73344 13.1119 9.74942C13.1739 9.78138 13.0274 9.82641 12.9936 9.81043Z" fill="white"/>
<path fill-rule="evenodd" clip-rule="evenodd" d="M13.6967 9.93453C13.6348 9.90258 13.7812 9.85755 13.815 9.87498C13.877 9.90693 13.7305 9.95196 13.6967 9.93453Z" fill="white"/>
<path fill-rule="evenodd" clip-rule="evenodd" d="M14.5151 10.1112C14.4532 10.0793 14.5996 10.0342 14.6306 10.0502C14.6926 10.0822 14.5461 10.1272 14.5151 10.1112Z" fill="white"/>
<path fill-rule="evenodd" clip-rule="evenodd" d="M18.6089 10.1737C18.5469 10.1418 18.6934 10.0967 18.7243 10.1127C18.7863 10.1447 18.6399 10.1897 18.6089 10.1737Z" fill="white"/>
<path fill-rule="evenodd" clip-rule="evenodd" d="M6.56003 10.2353C6.49807 10.2034 6.64452 10.1583 6.67832 10.1758C6.74028 10.2077 6.59383 10.2527 6.56003 10.2353Z" fill="white"/>
<path fill-rule="evenodd" clip-rule="evenodd" d="M14.8667 10.4784C14.8047 10.4464 14.9512 10.4014 14.985 10.4174C15.0469 10.4493 14.9005 10.4944 14.8667 10.4784Z" fill="white"/>
<path fill-rule="evenodd" clip-rule="evenodd" d="M5.74225 10.5392C5.76478 10.4709 5.86054 10.5058 5.85772 10.5392C5.83519 10.6075 5.73943 10.5726 5.74225 10.5392Z" fill="white"/>
<path fill-rule="evenodd" clip-rule="evenodd" d="M8.1987 10.6572C8.13674 10.6252 8.28319 10.5802 8.31699 10.5976C8.37895 10.6296 8.2325 10.6746 8.1987 10.6572Z" fill="white"/>
<path fill-rule="evenodd" clip-rule="evenodd" d="M10.7734 10.6607C10.8015 10.5852 11.0065 10.5997 11.0065 10.6607C10.9026 10.6985 10.7959 10.7333 10.7734 10.6607Z" fill="white"/>
<path fill-rule="evenodd" clip-rule="evenodd" d="M16.2696 10.6603C16.2921 10.592 16.3879 10.6269 16.3851 10.6603C16.3625 10.7286 16.2668 10.6937 16.2696 10.6603Z" fill="white"/>
<path fill-rule="evenodd" clip-rule="evenodd" d="M9.72019 10.7831C9.65823 10.7511 9.80468 10.7061 9.83848 10.7221C9.89762 10.754 9.75398 10.7991 9.72019 10.7831Z" fill="white"/>
<path fill-rule="evenodd" clip-rule="evenodd" d="M8.55078 11.0822C8.57331 11.0139 8.66907 11.0488 8.66907 11.0822C8.64654 11.1504 8.55078 11.1156 8.55078 11.0822Z" fill="white"/>
<path fill-rule="evenodd" clip-rule="evenodd" d="M9.13281 11.442C9.16089 11.3664 9.36583 11.381 9.36583 11.442C9.26196 11.4797 9.15808 11.5146 9.13281 11.442Z" fill="white"/>
<path fill-rule="evenodd" clip-rule="evenodd" d="M8.55026 11.5634C8.4883 11.5315 8.63476 11.4865 8.66855 11.5039C8.7277 11.5358 8.58406 11.5809 8.55026 11.5634Z" fill="white"/>
<path fill-rule="evenodd" clip-rule="evenodd" d="M15.687 11.6268C15.625 11.5949 15.7715 11.5499 15.8025 11.5658C15.8644 11.5978 15.718 11.6428 15.687 11.6268Z" fill="white"/>
<path fill-rule="evenodd" clip-rule="evenodd" d="M8.55026 11.747C8.4883 11.7151 8.63476 11.67 8.66855 11.6875C8.7277 11.7194 8.58406 11.7645 8.55026 11.747Z" fill="white"/>
<path fill-rule="evenodd" clip-rule="evenodd" d="M5.625 11.8634C5.64753 11.7951 5.74329 11.83 5.74329 11.8634C5.72076 11.9317 5.625 11.8968 5.625 11.8634Z" fill="white"/>
<path fill-rule="evenodd" clip-rule="evenodd" d="M9.25145 11.9315C9.18949 11.8996 9.33594 11.8545 9.36692 11.8705C9.42888 11.9025 9.28243 11.9475 9.25145 11.9315Z" fill="white"/>
<path fill-rule="evenodd" clip-rule="evenodd" d="M9.83544 11.9315C9.77347 11.8996 9.91993 11.8545 9.95091 11.8705C10.0129 11.9025 9.86642 11.9475 9.83544 11.9315Z" fill="white"/>
<path fill-rule="evenodd" clip-rule="evenodd" d="M9.60352 12.0509C9.62605 11.9826 9.7218 12.0175 9.7218 12.0509C9.69927 12.1192 9.60352 12.0843 9.60352 12.0509Z" fill="white"/>
<path fill-rule="evenodd" clip-rule="evenodd" d="M18.0249 12.0517C17.9629 12.0198 18.1094 11.9747 18.1404 11.9922C18.2023 12.0241 18.0559 12.0692 18.0249 12.0517Z" fill="white"/>
<path fill-rule="evenodd" clip-rule="evenodd" d="M7.02878 12.1073C6.96682 12.0754 7.11327 12.0303 7.14707 12.0463C7.20903 12.0783 7.06258 12.1233 7.02878 12.1073Z" fill="white"/>
<path fill-rule="evenodd" clip-rule="evenodd" d="M16.1518 12.1073C16.0899 12.0754 16.2363 12.0303 16.2701 12.0463C16.3293 12.0783 16.1856 12.1233 16.1518 12.1073Z" fill="white"/>
<path fill-rule="evenodd" clip-rule="evenodd" d="M17.0874 12.1073C17.0254 12.0754 17.1719 12.0303 17.2057 12.0463C17.2676 12.0783 17.1212 12.1233 17.0874 12.1073Z" fill="white"/>
<path fill-rule="evenodd" clip-rule="evenodd" d="M6.32567 12.3534C6.26371 12.3214 6.41016 12.2764 6.44114 12.2924C6.5031 12.3243 6.35665 12.3694 6.32567 12.3534Z" fill="white"/>
<path fill-rule="evenodd" clip-rule="evenodd" d="M15.3335 12.3534C15.2715 12.3214 15.418 12.2764 15.4518 12.2924C15.5137 12.3243 15.3673 12.3694 15.3335 12.3534Z" fill="white"/>
<path fill-rule="evenodd" clip-rule="evenodd" d="M10.4214 12.412C10.3594 12.38 10.5059 12.335 10.5368 12.351C10.5988 12.3829 10.4524 12.428 10.4214 12.412Z" fill="white"/>
<path fill-rule="evenodd" clip-rule="evenodd" d="M10.0698 12.4775C10.0078 12.4455 10.1543 12.4005 10.1881 12.4179C10.25 12.4499 10.1036 12.4949 10.0698 12.4775Z" fill="white"/>
<path fill-rule="evenodd" clip-rule="evenodd" d="M10.3042 12.7783C10.2422 12.7463 10.3887 12.7013 10.4225 12.7187C10.4816 12.7507 10.338 12.7957 10.3042 12.7783Z" fill="white"/>
<path fill-rule="evenodd" clip-rule="evenodd" d="M8.55026 12.9541C8.4883 12.9221 8.63476 12.8771 8.66855 12.8945C8.7277 12.9265 8.58406 12.9715 8.55026 12.9541Z" fill="white"/>
<path fill-rule="evenodd" clip-rule="evenodd" d="M10.1855 13.0781H10.4186V13.1987H10.1855V13.0781Z" fill="white"/>
<path fill-rule="evenodd" clip-rule="evenodd" d="M12.7612 13.1425C12.6993 13.1105 12.8457 13.0655 12.8767 13.0815C12.9386 13.1134 12.7922 13.1584 12.7612 13.1425Z" fill="white"/>
<path fill-rule="evenodd" clip-rule="evenodd" d="M16.7402 13.1993C16.7628 13.1311 16.8585 13.1659 16.8585 13.1993C16.836 13.2676 16.7402 13.2328 16.7402 13.1993Z" fill="white"/>
<path fill-rule="evenodd" clip-rule="evenodd" d="M7.02878 13.2557C6.96682 13.2238 7.11327 13.1788 7.14707 13.1947C7.20903 13.2267 7.06258 13.2717 7.02878 13.2557Z" fill="white"/>
<path fill-rule="evenodd" clip-rule="evenodd" d="M8.89987 13.3221C8.83791 13.2902 8.98437 13.2452 9.01816 13.2611C9.08012 13.2931 8.93367 13.3381 8.89987 13.3221Z" fill="white"/>
<path fill-rule="evenodd" clip-rule="evenodd" d="M18.4936 13.3221C18.4317 13.2902 18.5781 13.2452 18.6119 13.2611C18.6711 13.2931 18.5274 13.3381 18.4936 13.3221Z" fill="white"/>
<path fill-rule="evenodd" clip-rule="evenodd" d="M19.1948 13.4432C19.1328 13.4113 19.2793 13.3663 19.3103 13.3822C19.3722 13.4142 19.2258 13.4592 19.1948 13.4432Z" fill="white"/>
<path fill-rule="evenodd" clip-rule="evenodd" d="M11.2397 13.5634C11.1778 13.5315 11.3242 13.4865 11.358 13.5039C11.42 13.5358 11.2735 13.5809 11.2397 13.5634Z" fill="white"/>
<path fill-rule="evenodd" clip-rule="evenodd" d="M16.8536 13.5626C16.8761 13.4944 16.9719 13.5292 16.969 13.5626C16.9465 13.6309 16.8508 13.596 16.8536 13.5626Z" fill="white"/>
<path fill-rule="evenodd" clip-rule="evenodd" d="M11.476 13.744C11.4141 13.7121 11.5605 13.667 11.5943 13.683C11.6535 13.715 11.5098 13.76 11.476 13.744Z" fill="white"/>
<path fill-rule="evenodd" clip-rule="evenodd" d="M18.8413 13.744C18.7793 13.7121 18.9258 13.667 18.9596 13.683C19.0215 13.715 18.8751 13.76 18.8413 13.744Z" fill="white"/>
<path fill-rule="evenodd" clip-rule="evenodd" d="M13.1128 14.1698C13.0508 14.1379 13.1973 14.0928 13.2311 14.1088C13.293 14.1408 13.1466 14.1858 13.1128 14.1698Z" fill="white"/>
<path fill-rule="evenodd" clip-rule="evenodd" d="M7.73047 14.2931C7.753 14.2248 7.84876 14.2597 7.84876 14.2931C7.82623 14.3614 7.73047 14.3265 7.73047 14.2931Z" fill="white"/>
<path fill-rule="evenodd" clip-rule="evenodd" d="M11.476 14.4736C11.4141 14.4416 11.5605 14.3966 11.5943 14.414C11.6535 14.446 11.5098 14.491 11.476 14.4736Z" fill="white"/>
<path fill-rule="evenodd" clip-rule="evenodd" d="M17.2046 14.4736C17.1426 14.4416 17.2891 14.3966 17.3229 14.414C17.3848 14.446 17.2384 14.491 17.2046 14.4736Z" fill="white"/>
<path fill-rule="evenodd" clip-rule="evenodd" d="M18.4936 14.5292C18.4317 14.4972 18.5781 14.4522 18.6119 14.4682C18.6711 14.5001 18.5274 14.5452 18.4936 14.5292Z" fill="white"/>
<path fill-rule="evenodd" clip-rule="evenodd" d="M16.855 14.6503C16.793 14.6183 16.9395 14.5733 16.9704 14.5893C17.0324 14.6212 16.8859 14.6663 16.855 14.6503Z" fill="white"/>
<path fill-rule="evenodd" clip-rule="evenodd" d="M7.96628 14.7128C7.90432 14.6808 8.05077 14.6358 8.08457 14.6518C8.14371 14.6837 8.00008 14.7288 7.96628 14.7128Z" fill="white"/>
<path fill-rule="evenodd" clip-rule="evenodd" d="M9.25145 14.7128C9.18949 14.6808 9.33594 14.6358 9.36692 14.6518C9.42888 14.6837 9.28243 14.7288 9.25145 14.7128Z" fill="white"/>
<path fill-rule="evenodd" clip-rule="evenodd" d="M11.0054 14.7128C10.9434 14.6808 11.0898 14.6358 11.1208 14.6518C11.1828 14.6837 11.0363 14.7288 11.0054 14.7128Z" fill="white"/>
<path fill-rule="evenodd" clip-rule="evenodd" d="M13.3452 14.7744C13.2832 14.7424 13.4297 14.6974 13.4607 14.7148C13.5226 14.7468 13.3762 14.7918 13.3452 14.7744Z" fill="white"/>
<path fill-rule="evenodd" clip-rule="evenodd" d="M16.6217 15.0742C16.9137 15.0989 16.6273 15.3095 16.3887 15.2558C16.4308 15.1759 16.5936 15.1599 16.6217 15.0742Z" fill="white"/>
<path fill-rule="evenodd" clip-rule="evenodd" d="M13.6967 15.1963C13.6348 15.1643 13.7812 15.1193 13.815 15.1367C13.877 15.1687 13.7305 15.2137 13.6967 15.1963Z" fill="white"/>
<path fill-rule="evenodd" clip-rule="evenodd" d="M18.2573 15.2557C18.1953 15.2238 18.3418 15.1788 18.3756 15.1947C18.4375 15.2267 18.2911 15.2717 18.2573 15.2557Z" fill="white"/>
<path fill-rule="evenodd" clip-rule="evenodd" d="M5.27292 15.3221C5.21096 15.2902 5.35741 15.2452 5.39121 15.2611C5.45317 15.2931 5.30672 15.3381 5.27292 15.3221Z" fill="white"/>
<path fill-rule="evenodd" clip-rule="evenodd" d="M4.92136 15.3798C4.8594 15.3479 5.00585 15.3029 5.03965 15.3203C5.10161 15.3522 4.95516 15.3973 4.92136 15.3798Z" fill="white"/>
<path fill-rule="evenodd" clip-rule="evenodd" d="M17.5547 15.5001C17.5772 15.4319 17.673 15.4667 17.673 15.5001C17.6504 15.5684 17.5547 15.5335 17.5547 15.5001Z" fill="white"/>
<path fill-rule="evenodd" clip-rule="evenodd" d="M9.72019 15.5604C9.65823 15.5285 9.80468 15.4834 9.83848 15.4994C9.89762 15.5314 9.75398 15.5764 9.72019 15.5604Z" fill="white"/>
<path fill-rule="evenodd" clip-rule="evenodd" d="M14.5151 15.6845C14.4532 15.6526 14.5996 15.6075 14.6306 15.625C14.6926 15.6569 14.5461 15.702 14.5151 15.6845Z" fill="white"/>
<path fill-rule="evenodd" clip-rule="evenodd" d="M10.5385 15.8017C10.4766 15.7698 10.623 15.7247 10.6568 15.7422C10.7188 15.7741 10.5723 15.8192 10.5385 15.8017Z" fill="white"/>
<path fill-rule="evenodd" clip-rule="evenodd" d="M7.61276 15.8651C7.5508 15.8332 7.69726 15.7881 7.73105 15.8041C7.79301 15.8361 7.64656 15.8811 7.61276 15.8651Z" fill="white"/>
<path fill-rule="evenodd" clip-rule="evenodd" d="M9.95261 16.0448C9.89065 16.0128 10.0371 15.9678 10.0709 15.9838C10.1329 16.0158 9.98641 16.0608 9.95261 16.0448Z" fill="white"/>
<path fill-rule="evenodd" clip-rule="evenodd" d="M15.2182 16.0448C15.1563 16.0128 15.3027 15.9678 15.3365 15.9838C15.3985 16.0158 15.252 16.0608 15.2182 16.0448Z" fill="white"/>
<path fill-rule="evenodd" clip-rule="evenodd" d="M8.19958 16.1649C8.26154 16.072 8.3235 16.162 8.31786 16.2259C8.2559 16.3189 8.19394 16.2288 8.19958 16.1649Z" fill="white"/>
<path fill-rule="evenodd" clip-rule="evenodd" d="M13.5776 16.2861C13.5156 16.2541 13.6621 16.2091 13.6959 16.2265C13.7579 16.2585 13.6114 16.3035 13.5776 16.2861Z" fill="white"/>
<path fill-rule="evenodd" clip-rule="evenodd" d="M9.603 16.3456C9.54104 16.3136 9.68749 16.2686 9.72129 16.2846C9.78325 16.3165 9.6368 16.3616 9.603 16.3456Z" fill="white"/>
<path fill-rule="evenodd" clip-rule="evenodd" d="M10.0698 16.4706C10.0078 16.4386 10.1543 16.3936 10.1881 16.4096C10.25 16.4415 10.1036 16.4866 10.0698 16.4706Z" fill="white"/>
<path fill-rule="evenodd" clip-rule="evenodd" d="M10.7729 16.7119C10.711 16.6799 10.8574 16.6349 10.8912 16.6523C10.9532 16.6843 10.8067 16.7293 10.7729 16.7119Z" fill="white"/>
<path fill-rule="evenodd" clip-rule="evenodd" d="M12.9936 16.8339C12.9317 16.8019 13.0781 16.7569 13.1119 16.7729C13.1739 16.8048 13.0274 16.8498 12.9936 16.8339Z" fill="white"/>
<path fill-rule="evenodd" clip-rule="evenodd" d="M8.55026 16.9511C8.4883 16.9191 8.63476 16.8741 8.66855 16.89C8.7277 16.922 8.58406 16.967 8.55026 16.9511Z" fill="white"/>
<path fill-rule="evenodd" clip-rule="evenodd" d="M12.7618 17.0743C12.7843 17.0061 12.8801 17.0409 12.8773 17.0743C12.8547 17.1441 12.759 17.1078 12.7618 17.0743Z" fill="white"/>
<path fill-rule="evenodd" clip-rule="evenodd" d="M11.476 17.1346C11.4141 17.1027 11.5605 17.0577 11.5943 17.0736C11.6535 17.1056 11.5098 17.1506 11.476 17.1346Z" fill="white"/>
<path fill-rule="evenodd" clip-rule="evenodd" d="M12.9936 17.1346C12.9317 17.1027 13.0781 17.0577 13.1119 17.0736C13.1739 17.1056 13.0274 17.1506 12.9936 17.1346Z" fill="white"/>
<path fill-rule="evenodd" clip-rule="evenodd" d="M17.7925 17.1346C17.7305 17.1027 17.8769 17.0577 17.9107 17.0736C17.9727 17.1056 17.8262 17.1506 17.7925 17.1346Z" fill="white"/>
<path fill-rule="evenodd" clip-rule="evenodd" d="M8.7832 17.1328H9.13414C9.16783 17.2301 9.02465 17.2374 9.01623 17.3144H8.7832V17.1328Z" fill="white"/>
<path fill-rule="evenodd" clip-rule="evenodd" d="M7.02878 17.2557C6.96682 17.2238 7.11327 17.1788 7.14707 17.1947C7.20903 17.2267 7.06258 17.2717 7.02878 17.2557Z" fill="white"/>
<path fill-rule="evenodd" clip-rule="evenodd" d="M13.8139 17.2557C13.752 17.2238 13.8984 17.1788 13.9322 17.1947C13.9914 17.2267 13.8477 17.2717 13.8139 17.2557Z" fill="white"/>
<path fill-rule="evenodd" clip-rule="evenodd" d="M5.74169 17.3173C5.67972 17.2854 5.82618 17.2404 5.85716 17.2578C5.91912 17.2897 5.77267 17.3348 5.74169 17.3173Z" fill="white"/>
<path fill-rule="evenodd" clip-rule="evenodd" d="M9.95261 17.3173C9.89065 17.2854 10.0371 17.2404 10.0709 17.2578C10.1329 17.2897 9.98641 17.3348 9.95261 17.3173Z" fill="white"/>
<path fill-rule="evenodd" clip-rule="evenodd" d="M8.1987 17.4354C8.13674 17.4035 8.28319 17.3584 8.31699 17.3744C8.37895 17.4064 8.2325 17.4514 8.1987 17.4354Z" fill="white"/>
<path fill-rule="evenodd" clip-rule="evenodd" d="M16.3862 17.5565C16.3242 17.5246 16.4707 17.4795 16.5045 17.4955C16.5665 17.5275 16.42 17.5725 16.3862 17.5565Z" fill="white"/>
<path fill-rule="evenodd" clip-rule="evenodd" d="M18.1401 17.6181C18.0781 17.5862 18.2246 17.5411 18.2584 17.5586C18.3204 17.5905 18.1739 17.6356 18.1401 17.6181Z" fill="white"/>
<path fill-rule="evenodd" clip-rule="evenodd" d="M5.74169 17.6815C5.67972 17.6496 5.82618 17.6045 5.85716 17.6205C5.91912 17.6525 5.77267 17.6975 5.74169 17.6815Z" fill="white"/>
<path fill-rule="evenodd" clip-rule="evenodd" d="M10.7729 17.7401C10.711 17.7082 10.8574 17.6631 10.8912 17.6791C10.9532 17.7111 10.8067 17.7561 10.7729 17.7401Z" fill="white"/>
<path fill-rule="evenodd" clip-rule="evenodd" d="M15.3335 17.7948C15.2715 17.7629 15.418 17.7178 15.4518 17.7338C15.5137 17.7658 15.3673 17.8108 15.3335 17.7948Z" fill="white"/>
<path fill-rule="evenodd" clip-rule="evenodd" d="M16.7397 17.7948C16.6778 17.7629 16.8242 17.7178 16.858 17.7338C16.9172 17.7658 16.7735 17.8108 16.7397 17.7948Z" fill="white"/>
<path fill-rule="evenodd" clip-rule="evenodd" d="M15.5678 17.8612C15.5059 17.8293 15.6523 17.7842 15.6861 17.8002C15.7453 17.8322 15.6016 17.8772 15.5678 17.8612Z" fill="white"/>
<path fill-rule="evenodd" clip-rule="evenodd" d="M8.1987 17.9228C8.13674 17.8909 8.28319 17.8458 8.31699 17.8633C8.37895 17.8952 8.2325 17.9402 8.1987 17.9228Z" fill="white"/>
<path fill-rule="evenodd" clip-rule="evenodd" d="M9.36667 18.1025C9.30471 18.0705 9.45116 18.0255 9.48496 18.0429C9.54692 18.0749 9.40047 18.1199 9.36667 18.1025Z" fill="white"/>
<path fill-rule="evenodd" clip-rule="evenodd" d="M6.32567 18.1659C6.26371 18.1339 6.41016 18.0889 6.44114 18.1049C6.5031 18.1368 6.35665 18.1819 6.32567 18.1659Z" fill="white"/>
<path fill-rule="evenodd" clip-rule="evenodd" d="M17.6733 18.1659C17.6114 18.1339 17.7578 18.0889 17.7916 18.1049C17.8536 18.1368 17.7071 18.1819 17.6733 18.1659Z" fill="white"/>
<path fill-rule="evenodd" clip-rule="evenodd" d="M10.4214 18.2236C10.3594 18.1916 10.5059 18.1466 10.5368 18.164C10.5988 18.196 10.4524 18.241 10.4214 18.2236Z" fill="white"/>
<path fill-rule="evenodd" clip-rule="evenodd" d="M17.0874 18.3417C17.0254 18.3097 17.1719 18.2647 17.2057 18.2807C17.2676 18.3126 17.1212 18.3577 17.0874 18.3417Z" fill="white"/>
<path fill-rule="evenodd" clip-rule="evenodd" d="M17.7925 18.4033C17.7305 18.3713 17.8769 18.3263 17.9107 18.3437C17.9727 18.3757 17.8262 18.4207 17.7925 18.4033Z" fill="white"/>
<path fill-rule="evenodd" clip-rule="evenodd" d="M15.9194 18.4667C15.8574 18.4347 16.0039 18.3897 16.0377 18.4057C16.0997 18.4376 15.9532 18.4827 15.9194 18.4667Z" fill="white"/>
<path fill-rule="evenodd" clip-rule="evenodd" d="M17.3237 18.4667C17.2617 18.4347 17.4082 18.3897 17.442 18.4057C17.5011 18.4376 17.3575 18.4827 17.3237 18.4667Z" fill="white"/>
<path fill-rule="evenodd" clip-rule="evenodd" d="M16.6206 18.5878C16.5586 18.5558 16.7051 18.5108 16.7389 18.5268C16.8008 18.5587 16.6544 18.6037 16.6206 18.5878Z" fill="white"/>
<path fill-rule="evenodd" clip-rule="evenodd" d="M17.5561 18.6464C17.4942 18.6144 17.6406 18.5694 17.6744 18.5854C17.7364 18.6173 17.5899 18.6623 17.5561 18.6464Z" fill="white"/>
<path fill-rule="evenodd" clip-rule="evenodd" d="M16.0366 18.705C15.9746 18.673 16.1211 18.628 16.1549 18.644C16.2168 18.6759 16.0704 18.7209 16.0366 18.705Z" fill="white"/>
<path fill-rule="evenodd" clip-rule="evenodd" d="M6.91356 18.7675C6.8516 18.7355 6.99805 18.6905 7.02903 18.7065C7.09099 18.7384 6.94454 18.7834 6.91356 18.7675Z" fill="white"/>
<path fill-rule="evenodd" clip-rule="evenodd" d="M10.4214 19.2518C10.3594 19.2199 10.5059 19.1749 10.5368 19.1908C10.5988 19.2228 10.4524 19.2678 10.4214 19.2518Z" fill="white"/>
<path fill-rule="evenodd" clip-rule="evenodd" d="M7.49754 19.3134C7.43558 19.2815 7.58204 19.2365 7.61302 19.2539C7.67498 19.2858 7.52853 19.3309 7.49754 19.3134Z" fill="white"/>
<path fill-rule="evenodd" clip-rule="evenodd" d="M9.48386 19.3134C9.4219 19.2815 9.56835 19.2365 9.60215 19.2539C9.66411 19.2858 9.51766 19.3309 9.48386 19.3134Z" fill="white"/>
<path fill-rule="evenodd" clip-rule="evenodd" d="M10.0698 19.3768C10.0078 19.3449 10.1543 19.2999 10.1881 19.3158C10.25 19.3478 10.1036 19.3928 10.0698 19.3768Z" fill="white"/>
<path fill-rule="evenodd" clip-rule="evenodd" d="M8.31445 19.4946C8.31726 19.4365 8.45763 19.4481 8.54747 19.4336C8.54467 19.4931 8.40429 19.4801 8.31445 19.4946Z" fill="white"/>
<path fill-rule="evenodd" clip-rule="evenodd" d="M18.6089 19.494C18.5469 19.4621 18.6934 19.417 18.7243 19.433C18.7863 19.465 18.6399 19.51 18.6089 19.494Z" fill="white"/>
<path fill-rule="evenodd" clip-rule="evenodd" d="M9.83544 19.5565C9.77347 19.5246 9.91993 19.4795 9.95091 19.4955C10.0129 19.5275 9.86642 19.5725 9.83544 19.5565Z" fill="white"/>
<path fill-rule="evenodd" clip-rule="evenodd" d="M10.4225 19.5567C10.4029 19.426 10.838 19.5291 11.0065 19.4957C11.2086 19.6003 10.8352 19.7339 11.3574 19.7383C11.1637 19.8588 11.3686 19.8152 11.3574 19.9808C11.262 19.9387 11.0374 19.8864 11.0065 19.9808C10.5825 19.9547 10.9784 19.5465 10.4225 19.7383C10.5039 19.6889 10.605 19.5727 10.4225 19.5567Z" fill="white"/>
<path fill-rule="evenodd" clip-rule="evenodd" d="M18.8413 19.7948C18.7793 19.7629 18.9258 19.7178 18.9596 19.7338C19.0215 19.7658 18.8751 19.8108 18.8413 19.7948Z" fill="white"/>
<path fill-rule="evenodd" clip-rule="evenodd" d="M7.61133 19.9181C7.63386 19.8498 7.72962 19.8847 7.72962 19.9181C7.70709 19.9864 7.61133 19.9515 7.61133 19.9181Z" fill="white"/>
<path fill-rule="evenodd" clip-rule="evenodd" d="M15.9194 20.0995C15.8574 20.0675 16.0039 20.0225 16.0377 20.0385C16.0997 20.0704 15.9532 20.1155 15.9194 20.0995Z" fill="white"/>
<path fill-rule="evenodd" clip-rule="evenodd" d="M7.49754 20.162C7.43558 20.13 7.58204 20.085 7.61302 20.101C7.67498 20.1329 7.52853 20.178 7.49754 20.162Z" fill="white"/>
<path fill-rule="evenodd" clip-rule="evenodd" d="M11.7085 20.3369C11.6465 20.3049 11.793 20.2599 11.8268 20.2773C11.8887 20.3093 11.7423 20.3543 11.7085 20.3369Z" fill="white"/>
<path fill-rule="evenodd" clip-rule="evenodd" d="M12.644 20.3369C12.5821 20.3049 12.7285 20.2599 12.7623 20.2773C12.8214 20.3093 12.6778 20.3543 12.644 20.3369Z" fill="white"/>
<path fill-rule="evenodd" clip-rule="evenodd" d="M17.5547 20.3408C17.5575 20.2813 17.6979 20.2943 17.7877 20.2812C17.7849 20.3394 17.6445 20.3277 17.5547 20.3408Z" fill="white"/>
<path fill-rule="evenodd" clip-rule="evenodd" d="M11.3569 20.5253C11.2949 20.4933 11.4414 20.4483 11.4752 20.4643C11.5372 20.4962 11.3907 20.5413 11.3569 20.5253Z" fill="white"/>
<path fill-rule="evenodd" clip-rule="evenodd" d="M15.2182 20.5253C15.1563 20.4933 15.3027 20.4483 15.3365 20.4643C15.3985 20.4962 15.252 20.5413 15.2182 20.5253Z" fill="white"/>
<path fill-rule="evenodd" clip-rule="evenodd" d="M6.91211 20.5859H7.14513V20.7065H6.91211V20.5859Z" fill="white"/>
<path fill-rule="evenodd" clip-rule="evenodd" d="M11.2397 20.6455C11.1778 20.6135 11.3242 20.5685 11.358 20.5859C11.42 20.6179 11.2735 20.6629 11.2397 20.6455Z" fill="white"/>
<path fill-rule="evenodd" clip-rule="evenodd" d="M13.4629 20.7072C13.4854 20.6389 13.5812 20.6738 13.5812 20.7072C13.5586 20.7769 13.4629 20.7406 13.4629 20.7072Z" fill="white"/>
<path fill-rule="evenodd" clip-rule="evenodd" d="M10.4214 20.7636C10.3594 20.7316 10.5059 20.6866 10.5368 20.7025C10.5988 20.7345 10.4524 20.7795 10.4214 20.7636Z" fill="white"/>
<path fill-rule="evenodd" clip-rule="evenodd" d="M6.91248 20.829C6.97444 20.736 7.03359 20.8261 7.02795 20.89C6.96599 20.983 6.90685 20.8929 6.91248 20.829Z" fill="white"/>
<path fill-rule="evenodd" clip-rule="evenodd" d="M11.2397 20.8252C11.1778 20.7932 11.3242 20.7482 11.358 20.7656C11.42 20.7976 11.2735 20.8426 11.2397 20.8252Z" fill="white"/>
<path fill-rule="evenodd" clip-rule="evenodd" d="M10.7729 21.0097C10.711 20.9777 10.8574 20.9327 10.8912 20.9486C10.9532 20.9806 10.8067 21.0256 10.7729 21.0097Z" fill="white"/>
<path fill-rule="evenodd" clip-rule="evenodd" d="M7.49754 21.2509C7.43558 21.219 7.58204 21.174 7.61302 21.1914C7.67498 21.2233 7.52853 21.2684 7.49754 21.2509Z" fill="white"/>
<path fill-rule="evenodd" clip-rule="evenodd" d="M10.187 21.2509C10.125 21.219 10.2715 21.174 10.3053 21.1914C10.3672 21.2233 10.2208 21.2684 10.187 21.2509Z" fill="white"/>
<path fill-rule="evenodd" clip-rule="evenodd" d="M14.5151 21.2509C14.4532 21.219 14.5996 21.174 14.6306 21.1914C14.6926 21.2233 14.5461 21.2684 14.5151 21.2509Z" fill="white"/>
<path fill-rule="evenodd" clip-rule="evenodd" d="M8.1987 21.3729C8.13674 21.341 8.28319 21.2959 8.31699 21.3119C8.37895 21.3439 8.2325 21.3889 8.1987 21.3729Z" fill="white"/>
<path fill-rule="evenodd" clip-rule="evenodd" d="M9.72019 21.3729C9.65823 21.341 9.80468 21.2959 9.83848 21.3119C9.89762 21.3439 9.75398 21.3889 9.72019 21.3729Z" fill="white"/>
<path fill-rule="evenodd" clip-rule="evenodd" d="M16.0366 21.4315C15.9746 21.3996 16.1211 21.3545 16.1549 21.3705C16.2168 21.4025 16.0704 21.4475 16.0366 21.4315Z" fill="white"/>
<path fill-rule="evenodd" clip-rule="evenodd" d="M15.8022 21.4901C15.7403 21.4582 15.8867 21.4131 15.9205 21.4291C15.9825 21.4611 15.836 21.5061 15.8022 21.4901Z" fill="white"/>
<path fill-rule="evenodd" clip-rule="evenodd" d="M17.9077 21.4901C17.8457 21.4582 17.9922 21.4131 18.026 21.4291C18.0851 21.4611 17.9415 21.5061 17.9077 21.4901Z" fill="white"/>
<path fill-rule="evenodd" clip-rule="evenodd" d="M18.2573 21.5556C18.1953 21.5237 18.3418 21.4786 18.3756 21.4961C18.4375 21.528 18.2911 21.5731 18.2573 21.5556Z" fill="white"/>
<path fill-rule="evenodd" clip-rule="evenodd" d="M8.43112 21.6112C8.36916 21.5793 8.51562 21.5342 8.54941 21.5502C8.61137 21.5822 8.46492 21.6272 8.43112 21.6112Z" fill="white"/>
<path fill-rule="evenodd" clip-rule="evenodd" d="M8.1987 21.6737C8.13674 21.6418 8.28319 21.5967 8.31699 21.6127C8.37895 21.6447 8.2325 21.6897 8.1987 21.6737Z" fill="white"/>
<path fill-rule="evenodd" clip-rule="evenodd" d="M16.1518 21.8564C16.0899 21.8245 16.2363 21.7794 16.2701 21.7969C16.3293 21.8288 16.1856 21.8738 16.1518 21.8564Z" fill="white"/>
<path fill-rule="evenodd" clip-rule="evenodd" d="M13.9311 21.9745C13.8692 21.9425 14.0156 21.8975 14.0466 21.9135C14.1086 21.9454 13.9621 21.9905 13.9311 21.9745Z" fill="white"/>
<path fill-rule="evenodd" clip-rule="evenodd" d="M13.5776 22.2206C13.5156 22.1886 13.6621 22.1436 13.6959 22.1596C13.7579 22.1915 13.6114 22.2366 13.5776 22.2206Z" fill="white"/>
<path fill-rule="evenodd" clip-rule="evenodd" d="M13.3452 22.2792C13.2832 22.2472 13.4297 22.2022 13.4607 22.2182C13.5226 22.2501 13.3762 22.2952 13.3452 22.2792Z" fill="white"/>
<path fill-rule="evenodd" clip-rule="evenodd" d="M14.9839 22.2792C14.9219 22.2472 15.0684 22.2022 15.1021 22.2182C15.1613 22.2501 15.0177 22.2952 14.9839 22.2792Z" fill="white"/>
<path fill-rule="evenodd" clip-rule="evenodd" d="M7.02734 22.2787C7.28283 22.2671 7.40074 22.3281 7.37828 22.4603H7.02734V22.2787Z" fill="white"/>
<path fill-rule="evenodd" clip-rule="evenodd" d="M12.0586 22.4008C12.0586 22.3413 12.2018 22.3529 12.2916 22.3398C12.2916 22.3994 12.1484 22.3878 12.0586 22.4008Z" fill="white"/>
<path fill-rule="evenodd" clip-rule="evenodd" d="M7.49754 22.458C7.43558 22.426 7.58204 22.381 7.61302 22.3984C7.67498 22.4304 7.52853 22.4754 7.49754 22.458Z" fill="white"/>
<path fill-rule="evenodd" clip-rule="evenodd" d="M11.5906 2.7897C11.2706 2.60522 11.9472 2.95529 11.5906 2.7897V2.7897Z" fill="white"/>
<path fill-rule="evenodd" clip-rule="evenodd" d="M5.50828 5.39431C5.42406 5.32023 5.38475 5.26067 5.50828 5.33475C5.629 5.40448 5.60093 5.4771 5.50828 5.39431Z" fill="white"/>
<path fill-rule="evenodd" clip-rule="evenodd" d="M10.8879 5.75635C10.7981 5.66339 10.9609 5.71132 11.0058 5.75635C11.0845 5.83769 10.9272 5.89144 10.8879 5.81591C10.8795 5.79847 10.902 5.77088 10.8879 5.75635Z" fill="white"/>
<path fill-rule="evenodd" clip-rule="evenodd" d="M6.32696 6.1201C6.00691 6.30458 6.68351 5.95451 6.32696 6.1201V6.1201Z" fill="white"/>
<path fill-rule="evenodd" clip-rule="evenodd" d="M16.1526 6.42529C16.4137 6.19288 16.102 6.58798 16.0346 6.54586C15.9364 6.4834 16.1385 6.43691 16.1526 6.42529Z" fill="white"/>
<path fill-rule="evenodd" clip-rule="evenodd" d="M15.5697 6.90534C15.5192 6.81528 15.4209 6.93003 15.2188 6.90534C15.3367 6.7441 15.5388 6.62645 15.6876 6.48119C15.8925 6.46231 15.8954 6.82109 15.5697 6.72377C15.7044 6.81237 15.7044 6.87629 15.5697 6.96635C15.4377 6.95472 15.5051 6.90534 15.5697 6.90534Z" fill="white"/>
<path fill-rule="evenodd" clip-rule="evenodd" d="M4.6888 6.84747C4.65792 6.59472 5.18853 6.89831 5.15765 7.02904C4.71407 7.11765 5.13519 6.75886 4.6888 6.84747Z" fill="white"/>
<path fill-rule="evenodd" clip-rule="evenodd" d="M18.1393 7.15164C18.1225 7.15164 18.1842 7.05287 18.2572 7.09064C18.2572 7.09064 17.9849 7.47557 17.7884 7.27221C17.7294 7.20975 17.9793 7.23735 17.9063 7.27221C17.9737 7.24025 18.0298 7.15455 18.1393 7.15164Z" fill="white"/>
<path fill-rule="evenodd" clip-rule="evenodd" d="M18.0249 7.69363C17.8115 7.50044 18.5358 8.00884 18.0249 7.69363V7.69363Z" fill="white"/>
<path fill-rule="evenodd" clip-rule="evenodd" d="M12.2918 8.1201C11.9718 8.30458 12.6484 7.95451 12.2918 8.1201V8.1201Z" fill="white"/>
<path fill-rule="evenodd" clip-rule="evenodd" d="M12.8769 9.4481C13.2924 9.35368 12.9471 9.65436 13.2278 9.62967C13.1913 9.75749 12.8207 9.56576 12.8769 9.4481Z" fill="white"/>
<path fill-rule="evenodd" clip-rule="evenodd" d="M15.0995 13.1976C14.9563 13.045 15.2707 13.215 15.3325 13.3181C15.3718 13.3849 15.223 13.3268 15.0995 13.1976Z" fill="white"/>
<path fill-rule="evenodd" clip-rule="evenodd" d="M11.0054 14.1705C10.6433 14.092 11.3423 14.0906 11.2384 14.2315C11.1374 14.3462 11.1683 14.1661 11.0054 14.1705Z" fill="white"/>
<path fill-rule="evenodd" clip-rule="evenodd" d="M13.345 15.9805C13.7409 16.2085 13.0362 16.3828 12.8762 16.5252C12.6656 16.393 13.4967 16.2841 13.345 15.9805Z" fill="white"/>
<path fill-rule="evenodd" clip-rule="evenodd" d="M15.0993 16.9527C15.3576 16.851 14.6894 17.1909 14.2795 17.1343C14.1812 17.1227 14.17 17.1575 14.1616 17.1938C14.0577 17.0064 14.7006 17.0631 15.0965 16.9527H15.0993Z" fill="white"/>
<path fill-rule="evenodd" clip-rule="evenodd" d="M13.5776 17.3726C13.586 17.3625 13.6169 17.2012 13.6955 17.2521C13.791 17.3116 13.412 17.5455 13.5776 17.3726Z" fill="white"/>
<path fill-rule="evenodd" clip-rule="evenodd" d="M6.32696 18.2842C6.00691 18.4686 6.68351 18.1186 6.32696 18.2842V18.2842Z" fill="white"/>
<path fill-rule="evenodd" clip-rule="evenodd" d="M18.4937 19.3122C18.4095 19.4197 18.2804 19.321 18.1428 19.3122C18.1007 19.4154 18.2355 19.427 18.3758 19.4328C18.3562 19.504 18.1625 19.4836 18.0249 19.4938C18.1007 19.5548 18.2944 19.5563 18.2579 19.6754C18.0193 19.6565 18.0277 19.5112 17.7891 19.4938C17.9294 19.3776 18.1905 19.1641 18.4909 19.3122H18.4937Z" fill="white"/>
<path fill-rule="evenodd" clip-rule="evenodd" d="M8.78399 19.3717C8.46394 19.1873 9.14054 19.5373 8.78399 19.3717V19.3717Z" fill="white"/>
<path fill-rule="evenodd" clip-rule="evenodd" d="M13.2293 21.374C12.9093 21.5585 13.5859 21.2084 13.2293 21.374V21.374Z" fill="white"/>
</g>
</g>
</svg>
