<svg width="48" height="48" viewBox="0 0 48 48" fill="none" xmlns="http://www.w3.org/2000/svg">
<g style="mix-blend-mode:multiply">
<path fill-rule="evenodd" clip-rule="evenodd" d="M16.0458 12.5414C16.0458 7.82413 19.87 4 24.5873 4C29.3046 4 33.1287 7.82413 33.1287 12.5414V22.7495C33.1287 26.7107 30.4322 30.0421 26.7747 31.0083V32.6651C27.4006 32.535 28.0144 32.3462 28.6079 32.1004C29.8495 31.5861 30.9777 30.8323 31.928 29.8819C32.8784 28.9316 33.6322 27.8034 34.1465 26.5618C34.4426 25.8469 34.656 25.1026 34.7837 24.3431C34.94 23.4142 35.6892 22.6453 36.6312 22.6453C37.5732 22.6453 38.3479 23.4119 38.2304 24.3466C38.0787 25.554 37.7658 26.7382 37.2982 27.8672C36.6125 29.5228 35.6073 31.027 34.3402 32.2941C33.0731 33.5612 31.5689 34.5663 29.9133 35.2521C28.9037 35.6703 27.8498 35.9647 26.7747 36.1308V39.8324H31.0454V43.9989H26.7747H22.6082H18.3374V39.8324H22.6082V36.1308C21.5331 35.9647 20.4792 35.6703 19.4695 35.2521C17.814 34.5663 16.3097 33.5612 15.0426 32.2941C13.7755 31.027 12.7704 29.5228 12.0847 27.8672C11.617 26.7382 11.3042 25.554 11.1524 24.3466C11.035 23.4119 11.8096 22.6453 12.7517 22.6453C13.6937 22.6453 14.4429 23.4142 14.5992 24.3431C14.7269 25.1026 14.9403 25.8469 15.2364 26.5618C15.7507 27.8034 16.5045 28.9316 17.4548 29.8819C18.4052 30.8323 19.5334 31.5861 20.775 32.1004C21.3685 32.3462 21.9823 32.535 22.6082 32.6651V31.0605C18.8452 30.1677 16.0458 26.7855 16.0458 22.7495V12.5414Z" fill="#94C0E8"/>
</g>
<g style="mix-blend-mode:multiply">
<path d="M36.5853 22.6016C37.5273 22.6016 38.3019 23.3681 38.1845 24.3028C38.0328 25.5102 37.7199 26.6945 37.2522 27.8235C36.5665 29.479 35.5614 30.9833 34.2943 32.2504C33.0272 33.5175 31.5229 34.5226 29.8674 35.2083C28.2118 35.8941 26.4374 36.247 24.6455 36.247C22.8535 36.247 21.0791 35.8941 19.4236 35.2083C17.768 34.5226 16.2638 33.5175 14.9967 32.2504C13.7296 30.9833 12.7244 29.479 12.0387 27.8235C11.5711 26.6945 11.2582 25.5102 11.1065 24.3028C10.989 23.3681 11.7637 22.6016 12.7057 22.6016C13.6477 22.6016 14.3969 23.3704 14.5532 24.2994C14.6809 25.0588 14.8943 25.8032 15.1904 26.518C15.7047 27.7596 16.4585 28.8878 17.4089 29.8382C18.3592 30.7885 19.4874 31.5423 20.729 32.0566C21.9707 32.571 23.3015 32.8357 24.6455 32.8357C25.9894 32.8357 27.3202 32.571 28.5619 32.0566C29.8035 31.5423 30.9317 30.7885 31.8821 29.8382C32.8324 28.8878 33.5862 27.7596 34.1005 26.518C34.3966 25.8032 34.61 25.0588 34.7378 24.2994C34.894 23.3704 35.6432 22.6016 36.5853 22.6016Z" fill="#94C0E8"/>
</g>
<g style="mix-blend-mode:hard-light">
<rect x="16.041" y="4" width="17.0829" height="27.2909" rx="8.54144" fill="#112D5C"/>
</g>
<g style="mix-blend-mode:color-burn">
<path fill-rule="evenodd" clip-rule="evenodd" d="M26.7771 26.293H22.6106V39.8343H18.3398V44.0008H22.6106H26.7771H31.0478V39.8343H26.7771V26.293Z" fill="#36BBF8"/>
</g>
<g opacity="0.6">
<mask id="mask0_6932_104475" style="mask-type:luminance" maskUnits="userSpaceOnUse" x="10" y="3" width="29" height="42">
<g style="mix-blend-mode:multiply">
<path fill-rule="evenodd" clip-rule="evenodd" d="M15.1506 11.9687C15.1506 7.01545 19.1661 3 24.1194 3C29.0727 3 33.0881 7.01545 33.0881 11.9688V22.6875C33.0881 26.8469 30.2567 30.3449 26.4162 31.3594V33.0992C27.0734 32.9626 27.7179 32.7643 28.3411 32.5062C29.6449 31.9662 30.8295 31.1746 31.8274 30.1768C32.8252 29.1789 33.6168 27.9943 34.1568 26.6905C34.4677 25.9399 34.6918 25.1583 34.8259 24.3609C34.99 23.3854 35.7767 22.5781 36.7658 22.5781C37.755 22.5781 38.5684 23.3831 38.4451 24.3645C38.2858 25.6323 37.9572 26.8758 37.4662 28.0613C36.7461 29.7996 35.6907 31.3792 34.3602 32.7096C33.0298 34.0401 31.4502 35.0955 29.7119 35.8156C28.6517 36.2547 27.5451 36.5639 26.4162 36.7383V40.625H30.9006V45H26.4162H22.0412H17.5569V40.625H22.0412V36.7383C20.9124 36.5639 19.8058 36.2547 18.7456 35.8156C17.0072 35.0955 15.4277 34.0401 14.0972 32.7096C12.7667 31.3791 11.7113 29.7996 10.9913 28.0613C10.5002 26.8758 10.1717 25.6323 10.0124 24.3645C9.88908 23.3831 10.7025 22.5781 11.6916 22.5781C12.6808 22.5781 13.4675 23.3854 13.6315 24.3609C13.7657 25.1583 13.9897 25.9399 14.3006 26.6905C14.8407 27.9943 15.6322 29.1789 16.6301 30.1768C17.628 31.1746 18.8126 31.9662 20.1164 32.5062C20.7395 32.7643 21.384 32.9626 22.0412 33.0992V31.4143C18.09 30.4769 15.1506 26.9254 15.1506 22.6875V11.9687Z" fill="white"/>
</g>
</mask>
<g mask="url(#mask0_6932_104475)">
<path fill-rule="evenodd" clip-rule="evenodd" d="M26.6904 3.04273C26.5665 2.97882 26.8594 2.88876 26.9213 2.92072C27.0453 2.98463 26.7524 3.07469 26.6904 3.04273Z" fill="white"/>
<path fill-rule="evenodd" clip-rule="evenodd" d="M37.6826 3.40211C37.5586 3.3382 37.8515 3.24814 37.9191 3.28009C38.0431 3.34401 37.7502 3.43407 37.6826 3.40211Z" fill="white"/>
<path fill-rule="evenodd" clip-rule="evenodd" d="M27.3935 4.24586C27.2696 4.18195 27.5625 4.09189 27.6301 4.12384C27.754 4.18776 27.4611 4.27782 27.3935 4.24586Z" fill="white"/>
<path fill-rule="evenodd" clip-rule="evenodd" d="M20.8439 4.61745C20.8889 4.48091 21.0804 4.55063 21.0748 4.61745C21.0298 4.75399 20.8382 4.68426 20.8439 4.61745Z" fill="white"/>
<path fill-rule="evenodd" clip-rule="evenodd" d="M23.1806 4.61305C23.0567 4.54913 23.3496 4.45908 23.4116 4.49103C23.5355 4.55494 23.2426 4.645 23.1806 4.61305Z" fill="white"/>
<path fill-rule="evenodd" clip-rule="evenodd" d="M37.454 4.73805C37.3301 4.67413 37.623 4.58408 37.6906 4.61603C37.8145 4.67994 37.5216 4.77 37.454 4.73805Z" fill="white"/>
<path fill-rule="evenodd" clip-rule="evenodd" d="M34.4111 5.21461C34.2872 5.1507 34.5801 5.06064 34.6477 5.09259C34.7716 5.15651 34.4787 5.24657 34.4111 5.21461Z" fill="white"/>
<path fill-rule="evenodd" clip-rule="evenodd" d="M26.2255 5.4568C26.1016 5.39288 26.3945 5.30283 26.4621 5.33478C26.586 5.39869 26.2931 5.48875 26.2255 5.4568Z" fill="white"/>
<path fill-rule="evenodd" clip-rule="evenodd" d="M29.9688 5.46243C30.0138 5.32298 30.2053 5.39561 30.2053 5.46243C30.1603 5.59897 29.9688 5.52925 29.9688 5.46243Z" fill="white"/>
<path fill-rule="evenodd" clip-rule="evenodd" d="M30.9013 5.4568C30.7774 5.39288 31.0703 5.30283 31.1379 5.33478C31.2618 5.39869 30.9689 5.48875 30.9013 5.4568Z" fill="white"/>
<path fill-rule="evenodd" clip-rule="evenodd" d="M20.1376 5.58001C20.0137 5.51609 20.3066 5.42603 20.3742 5.46089C20.4981 5.52481 20.2052 5.61487 20.1376 5.58001Z" fill="white"/>
<path fill-rule="evenodd" clip-rule="evenodd" d="M31.1357 5.81617C31.0118 5.75226 31.3047 5.6622 31.3723 5.69416C31.4906 5.75807 31.2033 5.84813 31.1357 5.81617Z" fill="white"/>
<path fill-rule="evenodd" clip-rule="evenodd" d="M36.2793 5.94557C36.3244 5.80903 36.5159 5.87875 36.5159 5.94557C36.4708 6.08211 36.2793 6.01239 36.2793 5.94557Z" fill="white"/>
<path fill-rule="evenodd" clip-rule="evenodd" d="M11.7148 6.17995C11.7599 6.04341 11.9514 6.11313 11.9514 6.17995C11.9064 6.31649 11.7148 6.24676 11.7148 6.17995Z" fill="white"/>
<path fill-rule="evenodd" clip-rule="evenodd" d="M36.2802 6.43336C36.1563 6.36945 36.4492 6.27939 36.5168 6.31134C36.6407 6.37526 36.3478 6.46532 36.2802 6.43336Z" fill="white"/>
<path fill-rule="evenodd" clip-rule="evenodd" d="M35.583 6.55055C35.459 6.48663 35.7519 6.39658 35.8195 6.42853C35.9434 6.49244 35.6505 6.5825 35.583 6.55055Z" fill="white"/>
<path fill-rule="evenodd" clip-rule="evenodd" d="M16.3984 6.91432C16.4435 6.77778 16.635 6.8475 16.635 6.91432C16.59 7.05377 16.3984 6.98114 16.3984 6.91432Z" fill="white"/>
<path fill-rule="evenodd" clip-rule="evenodd" d="M14.0556 7.03492C13.9317 6.97101 14.2246 6.88095 14.2922 6.91291C14.4161 6.97682 14.1232 7.06688 14.0556 7.03492Z" fill="white"/>
<path fill-rule="evenodd" clip-rule="evenodd" d="M16.3984 7.26712C16.4435 7.12767 16.635 7.2003 16.635 7.26712C16.59 7.40366 16.3984 7.33393 16.3984 7.26712Z" fill="white"/>
<path fill-rule="evenodd" clip-rule="evenodd" d="M22.9501 7.27711C22.8262 7.2132 23.1191 7.12314 23.1867 7.15509C23.305 7.21901 23.0177 7.30907 22.9501 7.27711Z" fill="white"/>
<path fill-rule="evenodd" clip-rule="evenodd" d="M11.9521 7.51148C11.8282 7.44757 12.1211 7.35751 12.1887 7.38947C12.3126 7.45338 12.0197 7.54344 11.9521 7.51148Z" fill="white"/>
<path fill-rule="evenodd" clip-rule="evenodd" d="M26.2255 7.51148C26.1016 7.44757 26.3945 7.35751 26.4621 7.38947C26.586 7.45338 26.2931 7.54344 26.2255 7.51148Z" fill="white"/>
<path fill-rule="evenodd" clip-rule="evenodd" d="M16.3974 7.63648C16.2735 7.57257 16.5664 7.48251 16.634 7.51447C16.7579 7.57838 16.465 7.66844 16.3974 7.63648Z" fill="white"/>
<path fill-rule="evenodd" clip-rule="evenodd" d="M12.8876 7.88648C12.7637 7.82257 13.0566 7.73251 13.1242 7.76447C13.2481 7.82838 12.9552 7.91844 12.8876 7.88648Z" fill="white"/>
<path fill-rule="evenodd" clip-rule="evenodd" d="M30.2002 8.00188C30.0762 7.93797 30.3692 7.84791 30.4311 7.88277C30.555 7.94668 30.2621 8.03674 30.2002 8.00188Z" fill="white"/>
<path fill-rule="evenodd" clip-rule="evenodd" d="M37.9208 8.12867C37.7969 8.06476 38.0898 7.9747 38.1574 8.00666C38.2813 8.07057 37.9884 8.16063 37.9208 8.12867Z" fill="white"/>
<path fill-rule="evenodd" clip-rule="evenodd" d="M24.582 8.35963C24.6271 8.22309 24.8186 8.29282 24.8186 8.35963C24.7735 8.49617 24.582 8.42645 24.582 8.35963Z" fill="white"/>
<path fill-rule="evenodd" clip-rule="evenodd" d="M14.5283 8.84742C14.4043 8.78351 14.6972 8.69345 14.7648 8.72541C14.8888 8.78932 14.5959 8.87938 14.5283 8.84742Z" fill="white"/>
<path fill-rule="evenodd" clip-rule="evenodd" d="M28.7958 8.84742C28.6719 8.78351 28.9648 8.69345 29.0324 8.72541C29.1507 8.78932 28.8634 8.87938 28.7958 8.84742Z" fill="white"/>
<path fill-rule="evenodd" clip-rule="evenodd" d="M33.7091 8.85182C33.7542 8.71528 33.9457 8.785 33.94 8.85182C33.895 8.98836 33.7035 8.91864 33.7091 8.85182Z" fill="white"/>
<path fill-rule="evenodd" clip-rule="evenodd" d="M22.2431 8.97063C22.1192 8.90671 22.4121 8.81666 22.4797 8.85152C22.6036 8.91543 22.3107 9.00549 22.2431 8.97063Z" fill="white"/>
<path fill-rule="evenodd" clip-rule="evenodd" d="M36.2802 9.08961C36.1563 9.0257 36.4492 8.93564 36.5168 8.96759C36.6407 9.03151 36.3478 9.12157 36.2802 9.08961Z" fill="white"/>
<path fill-rule="evenodd" clip-rule="evenodd" d="M35.8154 9.21282C35.6915 9.14891 35.9844 9.05885 36.052 9.09371C36.1702 9.15762 35.883 9.24768 35.8154 9.21282Z" fill="white"/>
<path fill-rule="evenodd" clip-rule="evenodd" d="M13.5898 9.57057C13.6349 9.43403 13.8264 9.50375 13.8264 9.57057C13.7814 9.70711 13.5898 9.63739 13.5898 9.57057Z" fill="white"/>
<path fill-rule="evenodd" clip-rule="evenodd" d="M14.9951 9.69898C14.8712 9.63507 15.1641 9.54501 15.226 9.57697C15.35 9.64088 15.0571 9.73094 14.9951 9.69898Z" fill="white"/>
<path fill-rule="evenodd" clip-rule="evenodd" d="M25.9872 9.94117C25.8633 9.87726 26.1562 9.7872 26.2238 9.81916C26.3477 9.88307 26.0548 9.97313 25.9872 9.94117Z" fill="white"/>
<path fill-rule="evenodd" clip-rule="evenodd" d="M36.2802 9.94117C36.1563 9.87726 36.4492 9.7872 36.5168 9.81916C36.6407 9.88307 36.3478 9.97313 36.2802 9.94117Z" fill="white"/>
<path fill-rule="evenodd" clip-rule="evenodd" d="M21.0751 10.0584C20.9512 9.99445 21.2441 9.90439 21.3117 9.93634C21.4356 10.0003 21.1427 10.0903 21.0751 10.0584Z" fill="white"/>
<path fill-rule="evenodd" clip-rule="evenodd" d="M29.0302 10.1834C28.9063 10.1194 29.1992 10.0294 29.2612 10.0613C29.3851 10.1253 29.0922 10.2153 29.0302 10.1834Z" fill="white"/>
<path fill-rule="evenodd" clip-rule="evenodd" d="M14.9943 10.4299C15.0393 10.2934 15.2308 10.3631 15.2252 10.4299C15.1801 10.5665 14.9886 10.4968 14.9943 10.4299Z" fill="white"/>
<path fill-rule="evenodd" clip-rule="evenodd" d="M19.6709 10.5427C19.5469 10.4788 19.8399 10.3888 19.9018 10.4207C20.0257 10.4846 19.7328 10.5747 19.6709 10.5427Z" fill="white"/>
<path fill-rule="evenodd" clip-rule="evenodd" d="M26.9247 10.5427C26.8008 10.4788 27.0937 10.3888 27.1613 10.4207C27.2852 10.4846 26.9923 10.5747 26.9247 10.5427Z" fill="white"/>
<path fill-rule="evenodd" clip-rule="evenodd" d="M27.3935 10.5427C27.2696 10.4788 27.5625 10.3888 27.6301 10.4207C27.754 10.4846 27.4611 10.5747 27.3935 10.5427Z" fill="white"/>
<path fill-rule="evenodd" clip-rule="evenodd" d="M27.8623 10.5427C27.7384 10.4788 28.0313 10.3888 28.0932 10.4207C28.2171 10.4846 27.9242 10.5747 27.8623 10.5427Z" fill="white"/>
<path fill-rule="evenodd" clip-rule="evenodd" d="M28.5654 10.6599C28.4415 10.596 28.7344 10.506 28.802 10.5379C28.9259 10.6018 28.633 10.6919 28.5654 10.6599Z" fill="white"/>
<path fill-rule="evenodd" clip-rule="evenodd" d="M14.9951 10.7909C14.8712 10.727 15.1641 10.637 15.226 10.6718C15.35 10.7357 15.0571 10.8258 14.9951 10.7909Z" fill="white"/>
<path fill-rule="evenodd" clip-rule="evenodd" d="M38.3916 10.7909C38.2677 10.727 38.5606 10.637 38.6225 10.6718C38.7464 10.7357 38.4535 10.8258 38.3916 10.7909Z" fill="white"/>
<path fill-rule="evenodd" clip-rule="evenodd" d="M37.2177 10.9021C37.0938 10.8382 37.3867 10.7481 37.4487 10.7801C37.5726 10.844 37.2797 10.9341 37.2177 10.9021Z" fill="white"/>
<path fill-rule="evenodd" clip-rule="evenodd" d="M31.8398 11.0315C31.8849 10.895 32.0764 10.9647 32.0764 11.0315C32.0314 11.168 31.8398 11.0983 31.8398 11.0315Z" fill="white"/>
<path fill-rule="evenodd" clip-rule="evenodd" d="M11.249 11.1443C11.125 11.0804 11.418 10.9903 11.4855 11.0223C11.6038 11.0862 11.3166 11.1763 11.249 11.1443Z" fill="white"/>
<path fill-rule="evenodd" clip-rule="evenodd" d="M18.2665 11.1443C18.1426 11.0804 18.4355 10.9903 18.5031 11.0223C18.6214 11.0862 18.3341 11.1763 18.2665 11.1443Z" fill="white"/>
<path fill-rule="evenodd" clip-rule="evenodd" d="M36.9872 11.1443C36.8633 11.0804 37.1562 10.9903 37.2238 11.0223C37.3421 11.0862 37.0548 11.1763 36.9872 11.1443Z" fill="white"/>
<path fill-rule="evenodd" clip-rule="evenodd" d="M14.9951 11.2693C14.8712 11.2054 15.1641 11.1153 15.226 11.1473C15.35 11.2112 15.0571 11.3013 14.9951 11.2693Z" fill="white"/>
<path fill-rule="evenodd" clip-rule="evenodd" d="M28.0927 11.2693C27.9688 11.2054 28.2617 11.1153 28.3293 11.1473C28.4532 11.2112 28.1603 11.3013 28.0927 11.2693Z" fill="white"/>
<path fill-rule="evenodd" clip-rule="evenodd" d="M18.5029 11.3925C18.379 11.3286 18.6719 11.2385 18.7338 11.2734C18.8578 11.3373 18.5649 11.4274 18.5029 11.3925Z" fill="white"/>
<path fill-rule="evenodd" clip-rule="evenodd" d="M11.4853 11.5193C11.3614 11.4554 11.6543 11.3653 11.7163 11.3973C11.8402 11.4612 11.5473 11.5513 11.4853 11.5193Z" fill="white"/>
<path fill-rule="evenodd" clip-rule="evenodd" d="M23.4169 11.5193C23.293 11.4554 23.5859 11.3653 23.6535 11.3973C23.7774 11.4612 23.4845 11.5513 23.4169 11.5193Z" fill="white"/>
<path fill-rule="evenodd" clip-rule="evenodd" d="M13.3535 11.6331C13.3986 11.4965 13.5901 11.5663 13.5901 11.6331C13.545 11.7696 13.3535 11.6999 13.3535 11.6331Z" fill="white"/>
<path fill-rule="evenodd" clip-rule="evenodd" d="M37.4531 11.7503C37.4982 11.6137 37.6897 11.6834 37.6897 11.7503C37.6446 11.8897 37.4531 11.8171 37.4531 11.7503Z" fill="white"/>
<path fill-rule="evenodd" clip-rule="evenodd" d="M22.7138 11.8787C22.5899 11.8148 22.8828 11.7247 22.9504 11.7567C23.0743 11.8206 22.7814 11.9106 22.7138 11.8787Z" fill="white"/>
<path fill-rule="evenodd" clip-rule="evenodd" d="M36.9872 11.8787C36.8633 11.8148 37.1562 11.7247 37.2238 11.7567C37.3421 11.8206 37.0548 11.9106 36.9872 11.8787Z" fill="white"/>
<path fill-rule="evenodd" clip-rule="evenodd" d="M10.5458 11.9959C10.4219 11.9319 10.7148 11.8419 10.7824 11.8738C10.9063 11.9378 10.6134 12.0278 10.5458 11.9959Z" fill="white"/>
<path fill-rule="evenodd" clip-rule="evenodd" d="M31.8388 11.9959C31.7149 11.9319 32.0078 11.8419 32.0754 11.8738C32.1993 11.9378 31.9064 12.0278 31.8388 11.9959Z" fill="white"/>
<path fill-rule="evenodd" clip-rule="evenodd" d="M20.6083 12.1209C20.4844 12.0569 20.7773 11.9669 20.8449 11.9988C20.9632 12.0628 20.6759 12.1528 20.6083 12.1209Z" fill="white"/>
<path fill-rule="evenodd" clip-rule="evenodd" d="M11.4851 12.3554C10.918 12.7621 12.2712 12.062 11.4851 12.3554V12.3554Z" fill="white"/>
<path fill-rule="evenodd" clip-rule="evenodd" d="M18.9697 12.488C18.8457 12.4241 19.1387 12.3341 19.2062 12.366C19.3302 12.4299 19.0373 12.52 18.9697 12.488Z" fill="white"/>
<path fill-rule="evenodd" clip-rule="evenodd" d="M22.7138 12.6034C22.5899 12.5395 22.8828 12.4495 22.9504 12.4843C23.0743 12.5482 22.7814 12.6383 22.7138 12.6034Z" fill="white"/>
<path fill-rule="evenodd" clip-rule="evenodd" d="M24.8193 12.6034C24.6954 12.5395 24.9883 12.4495 25.0559 12.4843C25.1798 12.5482 24.8869 12.6383 24.8193 12.6034Z" fill="white"/>
<path fill-rule="evenodd" clip-rule="evenodd" d="M34.4111 12.6034C34.2872 12.5395 34.5801 12.4495 34.6477 12.4843C34.7716 12.5482 34.4787 12.6383 34.4111 12.6034Z" fill="white"/>
<path fill-rule="evenodd" clip-rule="evenodd" d="M22.0127 12.9646C21.8887 12.9007 22.1817 12.8106 22.2436 12.8426C22.3675 12.9065 22.0746 12.9966 22.0127 12.9646Z" fill="white"/>
<path fill-rule="evenodd" clip-rule="evenodd" d="M20.8447 13.0896C20.7208 13.0257 21.0137 12.9356 21.0756 12.9676C21.1996 13.0315 20.9067 13.1216 20.8447 13.0896Z" fill="white"/>
<path fill-rule="evenodd" clip-rule="evenodd" d="M32.7724 13.0896C32.6485 13.0257 32.9414 12.9356 33.009 12.9676C33.1329 13.0315 32.84 13.1216 32.7724 13.0896Z" fill="white"/>
<path fill-rule="evenodd" clip-rule="evenodd" d="M21.5458 13.2128C21.4219 13.1489 21.7148 13.0588 21.7824 13.0937C21.9063 13.1576 21.6134 13.2477 21.5458 13.2128Z" fill="white"/>
<path fill-rule="evenodd" clip-rule="evenodd" d="M23.8809 13.3296C23.9259 13.1902 24.1174 13.2628 24.1174 13.3296C24.0724 13.4662 23.8809 13.3964 23.8809 13.3296Z" fill="white"/>
<path fill-rule="evenodd" clip-rule="evenodd" d="M16.3974 13.574C16.2735 13.5101 16.5664 13.42 16.634 13.452C16.7579 13.5159 16.465 13.6059 16.3974 13.574Z" fill="white"/>
<path fill-rule="evenodd" clip-rule="evenodd" d="M31.8374 13.4531C31.1243 13.8598 32.7021 13.8192 31.8374 13.4531V13.4531Z" fill="white"/>
<path fill-rule="evenodd" clip-rule="evenodd" d="M35.1122 13.574C34.9883 13.5101 35.2812 13.42 35.3488 13.452C35.4727 13.5159 35.1798 13.6059 35.1122 13.574Z" fill="white"/>
<path fill-rule="evenodd" clip-rule="evenodd" d="M18.7333 13.6912C18.6094 13.6273 18.9023 13.5372 18.9699 13.5692C19.0938 13.6331 18.8009 13.7231 18.7333 13.6912Z" fill="white"/>
<path fill-rule="evenodd" clip-rule="evenodd" d="M34.4111 13.6912C34.2872 13.6273 34.5801 13.5372 34.6477 13.5692C34.7716 13.6331 34.4787 13.7231 34.4111 13.6912Z" fill="white"/>
<path fill-rule="evenodd" clip-rule="evenodd" d="M21.0751 13.8162C20.9512 13.7523 21.2441 13.6622 21.3117 13.6942C21.4356 13.7581 21.1427 13.8481 21.0751 13.8162Z" fill="white"/>
<path fill-rule="evenodd" clip-rule="evenodd" d="M26.9247 13.9334C26.8008 13.8694 27.0937 13.7794 27.1613 13.8113C27.2852 13.8753 26.9923 13.9653 26.9247 13.9334Z" fill="white"/>
<path fill-rule="evenodd" clip-rule="evenodd" d="M18.0361 14.0566C17.9122 13.9927 18.2051 13.9026 18.2727 13.9375C18.3966 14.0014 18.1037 14.0914 18.0361 14.0566Z" fill="white"/>
<path fill-rule="evenodd" clip-rule="evenodd" d="M33.4794 14.2927C33.3555 14.2288 33.6484 14.1388 33.716 14.1707C33.8343 14.2346 33.547 14.3247 33.4794 14.2927Z" fill="white"/>
<path fill-rule="evenodd" clip-rule="evenodd" d="M36.7529 14.4159C36.629 14.352 36.9219 14.262 36.9895 14.2968C37.1134 14.3607 36.8205 14.4508 36.7529 14.4159Z" fill="white"/>
<path fill-rule="evenodd" clip-rule="evenodd" d="M38.3916 14.5349C38.2677 14.471 38.5606 14.381 38.6225 14.4129C38.7464 14.4768 38.4535 14.5669 38.3916 14.5349Z" fill="white"/>
<path fill-rule="evenodd" clip-rule="evenodd" d="M22.9501 14.7849C22.8262 14.721 23.1191 14.631 23.1867 14.6629C23.305 14.7268 23.0177 14.8169 22.9501 14.7849Z" fill="white"/>
<path fill-rule="evenodd" clip-rule="evenodd" d="M12.8876 15.0175C12.7637 14.9536 13.0566 14.8635 13.1242 14.8984C13.2481 14.9623 12.9552 15.0524 12.8876 15.0175Z" fill="white"/>
<path fill-rule="evenodd" clip-rule="evenodd" d="M19.4404 15.0175C19.3165 14.9536 19.6094 14.8635 19.677 14.8984C19.7952 14.9623 19.508 15.0524 19.4404 15.0175Z" fill="white"/>
<path fill-rule="evenodd" clip-rule="evenodd" d="M34.1747 15.2675C34.0508 15.2036 34.3437 15.1135 34.4113 15.1484C34.5353 15.2123 34.2423 15.3024 34.1747 15.2675Z" fill="white"/>
<path fill-rule="evenodd" clip-rule="evenodd" d="M25.7529 15.3865C25.629 15.3226 25.9219 15.2325 25.9895 15.2645C26.1134 15.3284 25.8205 15.4184 25.7529 15.3865Z" fill="white"/>
<path fill-rule="evenodd" clip-rule="evenodd" d="M32.0751 15.3865C31.9512 15.3226 32.2441 15.2325 32.3117 15.2645C32.4356 15.3284 32.1427 15.4184 32.0751 15.3865Z" fill="white"/>
<path fill-rule="evenodd" clip-rule="evenodd" d="M35.5849 15.6287C35.461 15.5648 35.7539 15.4747 35.8215 15.5067C35.9454 15.5706 35.6525 15.6606 35.5849 15.6287Z" fill="white"/>
<path fill-rule="evenodd" clip-rule="evenodd" d="M11.249 15.7459C11.125 15.6819 11.418 15.5919 11.4855 15.6238C11.6038 15.6878 11.3166 15.7778 11.249 15.7459Z" fill="white"/>
<path fill-rule="evenodd" clip-rule="evenodd" d="M22.7138 15.9881C22.5899 15.9241 22.8828 15.8341 22.9504 15.866C23.0743 15.9299 22.7814 16.02 22.7138 15.9881Z" fill="white"/>
<path fill-rule="evenodd" clip-rule="evenodd" d="M11.0185 16.113C10.8946 16.0491 11.1875 15.9591 11.2551 15.991C11.379 16.0549 11.0861 16.145 11.0185 16.113Z" fill="white"/>
<path fill-rule="evenodd" clip-rule="evenodd" d="M11.249 16.3474C11.125 16.2835 11.418 16.1935 11.4855 16.2254C11.6038 16.2893 11.3166 16.3794 11.249 16.3474Z" fill="white"/>
<path fill-rule="evenodd" clip-rule="evenodd" d="M11.9519 16.957C11.3848 17.3637 12.738 16.6635 11.9519 16.957V16.957Z" fill="white"/>
<path fill-rule="evenodd" clip-rule="evenodd" d="M22.9501 16.9568C22.8262 16.8929 23.1191 16.8028 23.1867 16.8348C23.305 16.8987 23.0177 16.9888 22.9501 16.9568Z" fill="white"/>
<path fill-rule="evenodd" clip-rule="evenodd" d="M32.54 16.9568C32.4161 16.8929 32.709 16.8028 32.771 16.8348C32.8949 16.8987 32.602 16.9888 32.54 16.9568Z" fill="white"/>
<path fill-rule="evenodd" clip-rule="evenodd" d="M10.081 17.2068C9.95708 17.1429 10.25 17.0528 10.3176 17.0848C10.4359 17.1487 10.1486 17.2387 10.081 17.2068Z" fill="white"/>
<path fill-rule="evenodd" clip-rule="evenodd" d="M35.5849 17.2068C35.461 17.1429 35.7539 17.0528 35.8215 17.0848C35.9454 17.1487 35.6525 17.2387 35.5849 17.2068Z" fill="white"/>
<path fill-rule="evenodd" clip-rule="evenodd" d="M9.60938 17.6894C9.61499 17.5703 9.89574 17.5965 10.0754 17.5703C10.0698 17.6865 9.78905 17.6633 9.60938 17.6894Z" fill="white"/>
<path fill-rule="evenodd" clip-rule="evenodd" d="M23.4169 17.6816C23.293 17.6177 23.5859 17.5276 23.6535 17.5625C23.7774 17.6264 23.4845 17.7164 23.4169 17.6816Z" fill="white"/>
<path fill-rule="evenodd" clip-rule="evenodd" d="M18.2685 18.0488C18.1446 17.9848 18.4375 17.8948 18.5051 17.9296C18.6234 17.9936 18.3361 18.0836 18.2685 18.0488Z" fill="white"/>
<path fill-rule="evenodd" clip-rule="evenodd" d="M37.6836 18.0471C37.7287 17.9106 37.9202 17.9803 37.9202 18.0471C37.8751 18.1837 37.6836 18.114 37.6836 18.0471Z" fill="white"/>
<path fill-rule="evenodd" clip-rule="evenodd" d="M21.5458 18.2909C21.4219 18.227 21.7148 18.137 21.7824 18.1718C21.9063 18.2357 21.6134 18.3258 21.5458 18.2909Z" fill="white"/>
<path fill-rule="evenodd" clip-rule="evenodd" d="M26.6896 18.4143C26.7346 18.2778 26.9262 18.3475 26.9205 18.4143C26.8755 18.5538 26.6839 18.4811 26.6896 18.4143Z" fill="white"/>
<path fill-rule="evenodd" clip-rule="evenodd" d="M28.5654 19.1365C28.4415 19.0726 28.7344 18.9825 28.802 19.0145C28.9259 19.0784 28.633 19.1684 28.5654 19.1365Z" fill="white"/>
<path fill-rule="evenodd" clip-rule="evenodd" d="M18.2685 19.2615C18.1446 19.1976 18.4375 19.1075 18.5051 19.1395C18.6234 19.2034 18.3361 19.2934 18.2685 19.2615Z" fill="white"/>
<path fill-rule="evenodd" clip-rule="evenodd" d="M24.8203 19.6212C24.9214 19.4469 25.0281 19.6357 25.2864 19.6212C25.2302 19.7723 24.8203 19.7432 24.8203 19.6212Z" fill="white"/>
<path fill-rule="evenodd" clip-rule="evenodd" d="M25.9872 19.6209C25.8633 19.557 26.1562 19.4669 26.2238 19.4988C26.3477 19.5628 26.0548 19.6528 25.9872 19.6209Z" fill="white"/>
<path fill-rule="evenodd" clip-rule="evenodd" d="M27.3935 19.8691C27.2696 19.8052 27.5625 19.7151 27.6301 19.75C27.754 19.8139 27.4611 19.9039 27.3935 19.8691Z" fill="white"/>
<path fill-rule="evenodd" clip-rule="evenodd" d="M29.0302 20.2224C28.9063 20.1585 29.1992 20.0685 29.2612 20.1004C29.3851 20.1643 29.0922 20.2544 29.0302 20.2224Z" fill="white"/>
<path fill-rule="evenodd" clip-rule="evenodd" d="M37.2177 20.3474C37.0938 20.2835 37.3867 20.1935 37.4487 20.2254C37.5726 20.2893 37.2797 20.3794 37.2177 20.3474Z" fill="white"/>
<path fill-rule="evenodd" clip-rule="evenodd" d="M13.1181 20.4706C12.9942 20.4067 13.2871 20.3167 13.3547 20.3515C13.4786 20.4154 13.1857 20.5055 13.1181 20.4706Z" fill="white"/>
<path fill-rule="evenodd" clip-rule="evenodd" d="M29.7333 20.9568C29.6094 20.8929 29.9023 20.8028 29.9699 20.8348C30.0938 20.8987 29.8009 20.9888 29.7333 20.9568Z" fill="white"/>
<path fill-rule="evenodd" clip-rule="evenodd" d="M11.4845 21.0784C11.5296 20.9418 11.7211 21.0116 11.7154 21.0784C11.6704 21.2149 11.4789 21.1452 11.4845 21.0784Z" fill="white"/>
<path fill-rule="evenodd" clip-rule="evenodd" d="M16.3974 21.3144C16.2735 21.2505 16.5664 21.1604 16.634 21.1953C16.7579 21.2592 16.465 21.3492 16.3974 21.3144Z" fill="white"/>
<path fill-rule="evenodd" clip-rule="evenodd" d="M21.5469 21.3214C21.603 21.1704 22.0129 21.1994 22.0129 21.3214C21.8052 21.397 21.5918 21.4667 21.5469 21.3214Z" fill="white"/>
<path fill-rule="evenodd" clip-rule="evenodd" d="M32.5392 21.3206C32.5842 21.184 32.7758 21.2538 32.7701 21.3206C32.7251 21.4571 32.5336 21.3874 32.5392 21.3206Z" fill="white"/>
<path fill-rule="evenodd" clip-rule="evenodd" d="M19.4404 21.5662C19.3165 21.5023 19.6094 21.4122 19.677 21.4442C19.7952 21.5081 19.508 21.5981 19.4404 21.5662Z" fill="white"/>
<path fill-rule="evenodd" clip-rule="evenodd" d="M17.1016 22.1643C17.1466 22.0278 17.3381 22.0975 17.3381 22.1643C17.2931 22.3009 17.1016 22.2311 17.1016 22.1643Z" fill="white"/>
<path fill-rule="evenodd" clip-rule="evenodd" d="M18.2676 22.8839C18.3237 22.7329 18.7336 22.7619 18.7336 22.8839C18.5259 22.9595 18.3181 23.0292 18.2676 22.8839Z" fill="white"/>
<path fill-rule="evenodd" clip-rule="evenodd" d="M17.0986 23.1269C16.9747 23.063 17.2676 22.9729 17.3352 23.0078C17.4534 23.0717 17.1662 23.1617 17.0986 23.1269Z" fill="white"/>
<path fill-rule="evenodd" clip-rule="evenodd" d="M31.372 23.2537C31.2481 23.1898 31.541 23.0997 31.603 23.1317C31.7269 23.1956 31.434 23.2856 31.372 23.2537Z" fill="white"/>
<path fill-rule="evenodd" clip-rule="evenodd" d="M17.0986 23.4941C16.9747 23.4302 17.2676 23.3401 17.3352 23.375C17.4534 23.4389 17.1662 23.5289 17.0986 23.4941Z" fill="white"/>
<path fill-rule="evenodd" clip-rule="evenodd" d="M11.248 23.7268C11.2931 23.5903 11.4846 23.66 11.4846 23.7268C11.4396 23.8634 11.248 23.7936 11.248 23.7268Z" fill="white"/>
<path fill-rule="evenodd" clip-rule="evenodd" d="M18.5029 23.8631C18.379 23.7991 18.6719 23.7091 18.7338 23.741C18.8578 23.8049 18.5649 23.895 18.5029 23.8631Z" fill="white"/>
<path fill-rule="evenodd" clip-rule="evenodd" d="M19.6709 23.8631C19.5469 23.7991 19.8399 23.7091 19.9018 23.741C20.0257 23.8049 19.7328 23.895 19.6709 23.8631Z" fill="white"/>
<path fill-rule="evenodd" clip-rule="evenodd" d="M19.2051 24.1018C19.2501 23.9653 19.4417 24.035 19.4417 24.1018C19.3966 24.2384 19.2051 24.1686 19.2051 24.1018Z" fill="white"/>
<path fill-rule="evenodd" clip-rule="evenodd" d="M36.0498 24.1034C35.9259 24.0395 36.2188 23.9495 36.2807 23.9843C36.4046 24.0482 36.1117 24.1383 36.0498 24.1034Z" fill="white"/>
<path fill-rule="evenodd" clip-rule="evenodd" d="M14.0556 24.2146C13.9317 24.1507 14.2246 24.0606 14.2922 24.0926C14.4161 24.1565 14.1232 24.2466 14.0556 24.2146Z" fill="white"/>
<path fill-rule="evenodd" clip-rule="evenodd" d="M32.3056 24.2146C32.1817 24.1507 32.4746 24.0606 32.5422 24.0926C32.6605 24.1565 32.3732 24.2466 32.3056 24.2146Z" fill="white"/>
<path fill-rule="evenodd" clip-rule="evenodd" d="M34.1747 24.2146C34.0508 24.1507 34.3437 24.0606 34.4113 24.0926C34.5353 24.1565 34.2423 24.2466 34.1747 24.2146Z" fill="white"/>
<path fill-rule="evenodd" clip-rule="evenodd" d="M12.6513 24.7068C12.5274 24.6429 12.8203 24.5528 12.8823 24.5848C13.0062 24.6487 12.7133 24.7388 12.6513 24.7068Z" fill="white"/>
<path fill-rule="evenodd" clip-rule="evenodd" d="M30.6669 24.7068C30.543 24.6429 30.8359 24.5528 30.9035 24.5848C31.0274 24.6487 30.7345 24.7388 30.6669 24.7068Z" fill="white"/>
<path fill-rule="evenodd" clip-rule="evenodd" d="M20.8447 24.824C20.7208 24.7601 21.0137 24.67 21.0756 24.702C21.1996 24.7659 20.9067 24.8559 20.8447 24.824Z" fill="white"/>
<path fill-rule="evenodd" clip-rule="evenodd" d="M20.1376 24.955C20.0137 24.8911 20.3066 24.801 20.3742 24.8359C20.4981 24.8998 20.2052 24.9899 20.1376 24.955Z" fill="white"/>
<path fill-rule="evenodd" clip-rule="evenodd" d="M20.6083 25.5566C20.4844 25.4927 20.7773 25.4026 20.8449 25.4375C20.9632 25.5014 20.6759 25.5914 20.6083 25.5566Z" fill="white"/>
<path fill-rule="evenodd" clip-rule="evenodd" d="M17.0986 25.9081C16.9747 25.8442 17.2676 25.7542 17.3352 25.789C17.4534 25.8529 17.1662 25.943 17.0986 25.9081Z" fill="white"/>
<path fill-rule="evenodd" clip-rule="evenodd" d="M20.3711 26.1562H20.8371V26.3974H20.3711V26.1562Z" fill="white"/>
<path fill-rule="evenodd" clip-rule="evenodd" d="M25.5224 26.2849C25.3985 26.221 25.6914 26.131 25.7534 26.1629C25.8773 26.2268 25.5844 26.3169 25.5224 26.2849Z" fill="white"/>
<path fill-rule="evenodd" clip-rule="evenodd" d="M33.4785 26.3987C33.5236 26.2622 33.7151 26.3319 33.7151 26.3987C33.67 26.5352 33.4785 26.4655 33.4785 26.3987Z" fill="white"/>
<path fill-rule="evenodd" clip-rule="evenodd" d="M14.0556 26.5115C13.9317 26.4476 14.2246 26.3575 14.2922 26.3895C14.4161 26.4534 14.1232 26.5434 14.0556 26.5115Z" fill="white"/>
<path fill-rule="evenodd" clip-rule="evenodd" d="M17.8017 26.6443C17.6778 26.5804 17.9707 26.4903 18.0383 26.5223C18.1622 26.5862 17.8693 26.6762 17.8017 26.6443Z" fill="white"/>
<path fill-rule="evenodd" clip-rule="evenodd" d="M36.9872 26.6443C36.8633 26.5804 37.1562 26.4903 37.2238 26.5223C37.3421 26.5862 37.0548 26.6762 36.9872 26.6443Z" fill="white"/>
<path fill-rule="evenodd" clip-rule="evenodd" d="M38.3916 26.8865C38.2677 26.8226 38.5606 26.7325 38.6225 26.7645C38.7464 26.8284 38.4535 26.9184 38.3916 26.8865Z" fill="white"/>
<path fill-rule="evenodd" clip-rule="evenodd" d="M22.4794 27.1269C22.3555 27.063 22.6484 26.9729 22.716 27.0078C22.8399 27.0717 22.547 27.1617 22.4794 27.1269Z" fill="white"/>
<path fill-rule="evenodd" clip-rule="evenodd" d="M33.7091 27.1253C33.7542 26.9887 33.9457 27.0584 33.94 27.1253C33.895 27.2618 33.7035 27.1921 33.7091 27.1253Z" fill="white"/>
<path fill-rule="evenodd" clip-rule="evenodd" d="M22.9501 27.4881C22.8262 27.4241 23.1191 27.3341 23.1867 27.366C23.305 27.4299 23.0177 27.52 22.9501 27.4881Z" fill="white"/>
<path fill-rule="evenodd" clip-rule="evenodd" d="M37.6826 27.4881C37.5586 27.4241 37.8515 27.3341 37.9191 27.366C38.0431 27.4299 37.7502 27.52 37.6826 27.4881Z" fill="white"/>
<path fill-rule="evenodd" clip-rule="evenodd" d="M26.2255 28.3396C26.1016 28.2757 26.3945 28.1856 26.4621 28.2176C26.586 28.2815 26.2931 28.3716 26.2255 28.3396Z" fill="white"/>
<path fill-rule="evenodd" clip-rule="evenodd" d="M15.4609 28.5862C15.506 28.4497 15.6975 28.5194 15.6975 28.5862C15.6525 28.7227 15.4609 28.653 15.4609 28.5862Z" fill="white"/>
<path fill-rule="evenodd" clip-rule="evenodd" d="M22.9501 28.9472C22.8262 28.8833 23.1191 28.7932 23.1867 28.8281C23.305 28.892 23.0177 28.9821 22.9501 28.9472Z" fill="white"/>
<path fill-rule="evenodd" clip-rule="evenodd" d="M34.4111 28.9472C34.2872 28.8833 34.5801 28.7932 34.6477 28.8281C34.7716 28.892 34.4787 28.9821 34.4111 28.9472Z" fill="white"/>
<path fill-rule="evenodd" clip-rule="evenodd" d="M36.9872 29.0584C36.8633 28.9945 37.1562 28.9044 37.2238 28.9363C37.3421 29.0003 37.0548 29.0903 36.9872 29.0584Z" fill="white"/>
<path fill-rule="evenodd" clip-rule="evenodd" d="M33.7099 29.3006C33.586 29.2366 33.8789 29.1466 33.9409 29.1785C34.0648 29.2424 33.7719 29.3325 33.7099 29.3006Z" fill="white"/>
<path fill-rule="evenodd" clip-rule="evenodd" d="M15.9306 29.4256C15.8067 29.3616 16.0996 29.2716 16.1672 29.3035C16.2855 29.3674 15.9982 29.4575 15.9306 29.4256Z" fill="white"/>
<path fill-rule="evenodd" clip-rule="evenodd" d="M18.5029 29.4256C18.379 29.3616 18.6719 29.2716 18.7338 29.3035C18.8578 29.3674 18.5649 29.4575 18.5029 29.4256Z" fill="white"/>
<path fill-rule="evenodd" clip-rule="evenodd" d="M22.0127 29.4256C21.8887 29.3616 22.1817 29.2716 22.2436 29.3035C22.3675 29.3674 22.0746 29.4575 22.0127 29.4256Z" fill="white"/>
<path fill-rule="evenodd" clip-rule="evenodd" d="M26.6904 29.5488C26.5665 29.4848 26.8594 29.3948 26.9213 29.4296C27.0453 29.4936 26.7524 29.5836 26.6904 29.5488Z" fill="white"/>
<path fill-rule="evenodd" clip-rule="evenodd" d="M33.2434 30.1484C33.8273 30.1978 33.2546 30.6191 32.7773 30.5116C32.8616 30.3518 33.1872 30.3198 33.2434 30.1484Z" fill="white"/>
<path fill-rule="evenodd" clip-rule="evenodd" d="M27.3935 30.3925C27.2696 30.3286 27.5625 30.2385 27.6301 30.2734C27.754 30.3373 27.4611 30.4274 27.3935 30.3925Z" fill="white"/>
<path fill-rule="evenodd" clip-rule="evenodd" d="M36.5146 30.5115C36.3907 30.4476 36.6836 30.3575 36.7512 30.3895C36.8751 30.4534 36.5822 30.5434 36.5146 30.5115Z" fill="white"/>
<path fill-rule="evenodd" clip-rule="evenodd" d="M10.5458 30.6443C10.4219 30.5804 10.7148 30.4903 10.7824 30.5223C10.9063 30.5862 10.6134 30.6762 10.5458 30.6443Z" fill="white"/>
<path fill-rule="evenodd" clip-rule="evenodd" d="M9.84467 30.7597C9.72075 30.6958 10.0137 30.6057 10.0812 30.6406C10.2052 30.7045 9.91226 30.7946 9.84467 30.7597Z" fill="white"/>
<path fill-rule="evenodd" clip-rule="evenodd" d="M35.1113 31.0003C35.1564 30.8637 35.3479 30.9334 35.3479 31.0003C35.3028 31.1368 35.1113 31.0671 35.1113 31.0003Z" fill="white"/>
<path fill-rule="evenodd" clip-rule="evenodd" d="M19.4404 31.1209C19.3165 31.057 19.6094 30.9669 19.677 30.9988C19.7952 31.0628 19.508 31.1528 19.4404 31.1209Z" fill="white"/>
<path fill-rule="evenodd" clip-rule="evenodd" d="M29.0302 31.3691C28.9063 31.3052 29.1992 31.2151 29.2612 31.25C29.3851 31.3139 29.0922 31.4039 29.0302 31.3691Z" fill="white"/>
<path fill-rule="evenodd" clip-rule="evenodd" d="M21.0751 31.6034C20.9512 31.5395 21.2441 31.4495 21.3117 31.4843C21.4356 31.5482 21.1427 31.6383 21.0751 31.6034Z" fill="white"/>
<path fill-rule="evenodd" clip-rule="evenodd" d="M15.2236 31.7302C15.0997 31.6663 15.3926 31.5763 15.4602 31.6082C15.5841 31.6721 15.2912 31.7622 15.2236 31.7302Z" fill="white"/>
<path fill-rule="evenodd" clip-rule="evenodd" d="M19.9072 32.0896C19.7832 32.0257 20.0762 31.9356 20.1437 31.9676C20.2677 32.0315 19.9748 32.1216 19.9072 32.0896Z" fill="white"/>
<path fill-rule="evenodd" clip-rule="evenodd" d="M30.4365 32.0896C30.3125 32.0257 30.6055 31.9356 30.673 31.9676C30.797 32.0315 30.5041 32.1216 30.4365 32.0896Z" fill="white"/>
<path fill-rule="evenodd" clip-rule="evenodd" d="M16.3972 32.3298C16.5211 32.1439 16.645 32.324 16.6338 32.4519C16.5099 32.6378 16.3859 32.4577 16.3972 32.3298Z" fill="white"/>
<path fill-rule="evenodd" clip-rule="evenodd" d="M27.1552 32.5722C27.0313 32.5083 27.3242 32.4182 27.3918 32.4531C27.5157 32.517 27.2228 32.6071 27.1552 32.5722Z" fill="white"/>
<path fill-rule="evenodd" clip-rule="evenodd" d="M19.206 32.6912C19.0821 32.6273 19.375 32.5372 19.4426 32.5692C19.5665 32.6331 19.2736 32.7231 19.206 32.6912Z" fill="white"/>
<path fill-rule="evenodd" clip-rule="evenodd" d="M20.1376 32.9412C20.0137 32.8773 20.3066 32.7872 20.3742 32.8192C20.4981 32.8831 20.2052 32.9731 20.1376 32.9412Z" fill="white"/>
<path fill-rule="evenodd" clip-rule="evenodd" d="M21.5458 33.4238C21.4219 33.3598 21.7148 33.2698 21.7824 33.3046C21.9063 33.3686 21.6134 33.4586 21.5458 33.4238Z" fill="white"/>
<path fill-rule="evenodd" clip-rule="evenodd" d="M25.9872 33.6677C25.8633 33.6038 26.1562 33.5138 26.2238 33.5457C26.3477 33.6096 26.0548 33.6997 25.9872 33.6677Z" fill="white"/>
<path fill-rule="evenodd" clip-rule="evenodd" d="M17.0986 33.9021C16.9747 33.8382 17.2676 33.7481 17.3352 33.7801C17.4534 33.844 17.1662 33.9341 17.0986 33.9021Z" fill="white"/>
<path fill-rule="evenodd" clip-rule="evenodd" d="M25.5216 34.1487C25.5667 34.0122 25.7582 34.0819 25.7526 34.1487C25.7075 34.2881 25.516 34.2155 25.5216 34.1487Z" fill="white"/>
<path fill-rule="evenodd" clip-rule="evenodd" d="M22.9501 34.2693C22.8262 34.2054 23.1191 34.1153 23.1867 34.1473C23.305 34.2112 23.0177 34.3012 22.9501 34.2693Z" fill="white"/>
<path fill-rule="evenodd" clip-rule="evenodd" d="M25.9872 34.2693C25.8633 34.2054 26.1562 34.1153 26.2238 34.1473C26.3477 34.2112 26.0548 34.3012 25.9872 34.2693Z" fill="white"/>
<path fill-rule="evenodd" clip-rule="evenodd" d="M35.5849 34.2693C35.461 34.2054 35.7539 34.1153 35.8215 34.1473C35.9454 34.2112 35.6525 34.3012 35.5849 34.2693Z" fill="white"/>
<path fill-rule="evenodd" clip-rule="evenodd" d="M17.5645 34.2656H18.2663C18.3337 34.4603 18.0473 34.4748 18.0305 34.6288H17.5645V34.2656Z" fill="white"/>
<path fill-rule="evenodd" clip-rule="evenodd" d="M14.0556 34.5115C13.9317 34.4476 14.2246 34.3575 14.2922 34.3895C14.4161 34.4534 14.1232 34.5434 14.0556 34.5115Z" fill="white"/>
<path fill-rule="evenodd" clip-rule="evenodd" d="M27.6279 34.5115C27.504 34.4476 27.7969 34.3575 27.8645 34.3895C27.9827 34.4534 27.6955 34.5434 27.6279 34.5115Z" fill="white"/>
<path fill-rule="evenodd" clip-rule="evenodd" d="M11.4834 34.6347C11.3594 34.5708 11.6524 34.4807 11.7143 34.5156C11.8382 34.5795 11.5453 34.6696 11.4834 34.6347Z" fill="white"/>
<path fill-rule="evenodd" clip-rule="evenodd" d="M19.9072 34.6347C19.7832 34.5708 20.0762 34.4807 20.1437 34.5156C20.2677 34.5795 19.9748 34.6696 19.9072 34.6347Z" fill="white"/>
<path fill-rule="evenodd" clip-rule="evenodd" d="M16.3974 34.8709C16.2735 34.807 16.5664 34.7169 16.634 34.7488C16.7579 34.8128 16.465 34.9028 16.3974 34.8709Z" fill="white"/>
<path fill-rule="evenodd" clip-rule="evenodd" d="M32.7724 35.1131C32.6485 35.0491 32.9414 34.9591 33.009 34.991C33.1329 35.0549 32.84 35.145 32.7724 35.1131Z" fill="white"/>
<path fill-rule="evenodd" clip-rule="evenodd" d="M36.2802 35.2363C36.1563 35.1723 36.4492 35.0823 36.5168 35.1171C36.6407 35.1811 36.3478 35.2711 36.2802 35.2363Z" fill="white"/>
<path fill-rule="evenodd" clip-rule="evenodd" d="M11.4834 35.363C11.3594 35.2991 11.6524 35.2091 11.7143 35.241C11.8382 35.3049 11.5453 35.395 11.4834 35.363Z" fill="white"/>
<path fill-rule="evenodd" clip-rule="evenodd" d="M21.5458 35.4802C21.4219 35.4163 21.7148 35.3263 21.7824 35.3582C21.9063 35.4221 21.6134 35.5122 21.5458 35.4802Z" fill="white"/>
<path fill-rule="evenodd" clip-rule="evenodd" d="M30.6669 35.5896C30.543 35.5257 30.8359 35.4356 30.9035 35.4676C31.0274 35.5315 30.7345 35.6216 30.6669 35.5896Z" fill="white"/>
<path fill-rule="evenodd" clip-rule="evenodd" d="M33.4794 35.5896C33.3555 35.5257 33.6484 35.4356 33.716 35.4676C33.8343 35.5315 33.547 35.6216 33.4794 35.5896Z" fill="white"/>
<path fill-rule="evenodd" clip-rule="evenodd" d="M31.1357 35.7224C31.0118 35.6585 31.3047 35.5685 31.3723 35.6004C31.4906 35.6643 31.2033 35.7544 31.1357 35.7224Z" fill="white"/>
<path fill-rule="evenodd" clip-rule="evenodd" d="M16.3974 35.8456C16.2735 35.7817 16.5664 35.6917 16.634 35.7265C16.7579 35.7904 16.465 35.8805 16.3974 35.8456Z" fill="white"/>
<path fill-rule="evenodd" clip-rule="evenodd" d="M18.7333 36.205C18.6094 36.1411 18.9023 36.051 18.9699 36.0859C19.0938 36.1498 18.8009 36.2399 18.7333 36.205Z" fill="white"/>
<path fill-rule="evenodd" clip-rule="evenodd" d="M12.6513 36.3318C12.5274 36.2679 12.8203 36.1778 12.8823 36.2098C13.0062 36.2737 12.7133 36.3638 12.6513 36.3318Z" fill="white"/>
<path fill-rule="evenodd" clip-rule="evenodd" d="M35.3486 36.3318C35.2247 36.2679 35.5176 36.1778 35.5852 36.2098C35.7091 36.2737 35.4162 36.3638 35.3486 36.3318Z" fill="white"/>
<path fill-rule="evenodd" clip-rule="evenodd" d="M20.8447 36.4472C20.7208 36.3833 21.0137 36.2932 21.0756 36.3281C21.1996 36.392 20.9067 36.4821 20.8447 36.4472Z" fill="white"/>
<path fill-rule="evenodd" clip-rule="evenodd" d="M34.1747 36.6834C34.0508 36.6195 34.3437 36.5294 34.4113 36.5613C34.5353 36.6253 34.2423 36.7153 34.1747 36.6834Z" fill="white"/>
<path fill-rule="evenodd" clip-rule="evenodd" d="M35.5849 36.8066C35.461 36.7427 35.7539 36.6526 35.8215 36.6875C35.9454 36.7514 35.6525 36.8414 35.5849 36.8066Z" fill="white"/>
<path fill-rule="evenodd" clip-rule="evenodd" d="M31.8388 36.9334C31.7149 36.8695 32.0078 36.7794 32.0754 36.8113C32.1993 36.8753 31.9064 36.9653 31.8388 36.9334Z" fill="white"/>
<path fill-rule="evenodd" clip-rule="evenodd" d="M34.6474 36.9334C34.5235 36.8695 34.8164 36.7794 34.884 36.8113C35.0023 36.8753 34.715 36.9653 34.6474 36.9334Z" fill="white"/>
<path fill-rule="evenodd" clip-rule="evenodd" d="M33.2431 37.1755C33.1192 37.1116 33.4121 37.0216 33.4797 37.0535C33.6036 37.1174 33.3107 37.2075 33.2431 37.1755Z" fill="white"/>
<path fill-rule="evenodd" clip-rule="evenodd" d="M35.1122 37.2927C34.9883 37.2288 35.2812 37.1388 35.3488 37.1707C35.4727 37.2346 35.1798 37.3247 35.1122 37.2927Z" fill="white"/>
<path fill-rule="evenodd" clip-rule="evenodd" d="M32.0751 37.4099C31.9512 37.346 32.2441 37.256 32.3117 37.2879C32.4356 37.3518 32.1427 37.4419 32.0751 37.4099Z" fill="white"/>
<path fill-rule="evenodd" clip-rule="evenodd" d="M13.8252 37.5349C13.7012 37.471 13.9942 37.381 14.0561 37.4129C14.18 37.4768 13.8871 37.5669 13.8252 37.5349Z" fill="white"/>
<path fill-rule="evenodd" clip-rule="evenodd" d="M20.8447 38.5037C20.7208 38.4398 21.0137 38.3497 21.0756 38.3817C21.1996 38.4456 20.9067 38.5356 20.8447 38.5037Z" fill="white"/>
<path fill-rule="evenodd" clip-rule="evenodd" d="M14.9951 38.6269C14.8712 38.563 15.1641 38.4729 15.226 38.5078C15.35 38.5717 15.0571 38.6617 14.9951 38.6269Z" fill="white"/>
<path fill-rule="evenodd" clip-rule="evenodd" d="M18.9697 38.6269C18.8457 38.563 19.1387 38.4729 19.2062 38.5078C19.3302 38.5717 19.0373 38.6617 18.9697 38.6269Z" fill="white"/>
<path fill-rule="evenodd" clip-rule="evenodd" d="M20.1376 38.7537C20.0137 38.6898 20.3066 38.5997 20.3742 38.6317C20.4981 38.6956 20.2052 38.7856 20.1376 38.7537Z" fill="white"/>
<path fill-rule="evenodd" clip-rule="evenodd" d="M16.627 38.9892C16.6326 38.873 16.9133 38.8962 17.093 38.8672C17.0874 38.9863 16.8066 38.9601 16.627 38.9892Z" fill="white"/>
<path fill-rule="evenodd" clip-rule="evenodd" d="M37.2177 38.988C37.0938 38.9241 37.3867 38.8341 37.4487 38.866C37.5726 38.9299 37.2797 39.02 37.2177 38.988Z" fill="white"/>
<path fill-rule="evenodd" clip-rule="evenodd" d="M19.6709 39.1131C19.5469 39.0491 19.8399 38.9591 19.9018 38.991C20.0257 39.0549 19.7328 39.145 19.6709 39.1131Z" fill="white"/>
<path fill-rule="evenodd" clip-rule="evenodd" d="M20.845 39.1134C20.8057 38.8519 21.6761 39.0582 22.013 38.9914C22.4172 39.2005 21.6704 39.4678 22.7148 39.4765C22.3274 39.7176 22.7373 39.6305 22.7148 39.9617C22.5239 39.8774 22.0747 39.7728 22.013 39.9617C21.1651 39.9094 21.9568 39.093 20.845 39.4765C21.0079 39.3777 21.21 39.1453 20.845 39.1134Z" fill="white"/>
<path fill-rule="evenodd" clip-rule="evenodd" d="M37.6826 39.5896C37.5586 39.5257 37.8515 39.4356 37.9191 39.4676C38.0431 39.5315 37.7502 39.6216 37.6826 39.5896Z" fill="white"/>
<path fill-rule="evenodd" clip-rule="evenodd" d="M15.2227 39.8362C15.2677 39.6997 15.4592 39.7694 15.4592 39.8362C15.4142 39.9727 15.2227 39.903 15.2227 39.8362Z" fill="white"/>
<path fill-rule="evenodd" clip-rule="evenodd" d="M31.8388 40.199C31.7149 40.1351 32.0078 40.045 32.0754 40.077C32.1993 40.1409 31.9064 40.2309 31.8388 40.199Z" fill="white"/>
<path fill-rule="evenodd" clip-rule="evenodd" d="M14.9951 40.324C14.8712 40.2601 15.1641 40.17 15.226 40.202C15.35 40.2659 15.0571 40.3559 14.9951 40.324Z" fill="white"/>
<path fill-rule="evenodd" clip-rule="evenodd" d="M23.4169 40.6738C23.293 40.6098 23.5859 40.5198 23.6535 40.5546C23.7774 40.6186 23.4845 40.7086 23.4169 40.6738Z" fill="white"/>
<path fill-rule="evenodd" clip-rule="evenodd" d="M25.2861 40.6738C25.1622 40.6098 25.4551 40.5198 25.5227 40.5546C25.6409 40.6186 25.3537 40.7086 25.2861 40.6738Z" fill="white"/>
<path fill-rule="evenodd" clip-rule="evenodd" d="M35.1113 40.6816C35.1169 40.5625 35.3977 40.5886 35.5774 40.5625C35.5718 40.6787 35.291 40.6555 35.1113 40.6816Z" fill="white"/>
<path fill-rule="evenodd" clip-rule="evenodd" d="M22.7158 41.0506C22.5918 40.9866 22.8847 40.8966 22.9523 40.9285C23.0763 40.9924 22.7834 41.0825 22.7158 41.0506Z" fill="white"/>
<path fill-rule="evenodd" clip-rule="evenodd" d="M30.4365 41.0506C30.3125 40.9866 30.6055 40.8966 30.673 40.9285C30.797 40.9924 30.5041 41.0825 30.4365 41.0506Z" fill="white"/>
<path fill-rule="evenodd" clip-rule="evenodd" d="M13.8262 41.1719H14.2922V41.413H13.8262V41.1719Z" fill="white"/>
<path fill-rule="evenodd" clip-rule="evenodd" d="M22.4794 41.2909C22.3555 41.227 22.6484 41.137 22.716 41.1718C22.8399 41.2357 22.547 41.3258 22.4794 41.2909Z" fill="white"/>
<path fill-rule="evenodd" clip-rule="evenodd" d="M26.9258 41.4143C26.9708 41.2778 27.1624 41.3475 27.1624 41.4143C27.1173 41.5538 26.9258 41.4811 26.9258 41.4143Z" fill="white"/>
<path fill-rule="evenodd" clip-rule="evenodd" d="M20.8447 41.5271C20.7208 41.4632 21.0137 41.3731 21.0756 41.4051C21.1996 41.469 20.9067 41.5591 20.8447 41.5271Z" fill="white"/>
<path fill-rule="evenodd" clip-rule="evenodd" d="M13.8269 41.658C13.9508 41.472 14.0691 41.6522 14.0579 41.78C13.9339 41.9659 13.8157 41.7858 13.8269 41.658Z" fill="white"/>
<path fill-rule="evenodd" clip-rule="evenodd" d="M22.4794 41.6503C22.3555 41.5864 22.6484 41.4963 22.716 41.5312C22.8399 41.5951 22.547 41.6852 22.4794 41.6503Z" fill="white"/>
<path fill-rule="evenodd" clip-rule="evenodd" d="M21.5458 42.0193C21.4219 41.9554 21.7148 41.8653 21.7824 41.8973C21.9063 41.9612 21.6134 42.0513 21.5458 42.0193Z" fill="white"/>
<path fill-rule="evenodd" clip-rule="evenodd" d="M14.9931 42.5019C14.8692 42.438 15.1621 42.3479 15.2241 42.3828C15.348 42.4467 15.0551 42.5367 14.9931 42.5019Z" fill="white"/>
<path fill-rule="evenodd" clip-rule="evenodd" d="M20.374 42.5019C20.25 42.438 20.543 42.3479 20.6105 42.3828C20.7345 42.4467 20.4416 42.5367 20.374 42.5019Z" fill="white"/>
<path fill-rule="evenodd" clip-rule="evenodd" d="M29.0322 42.5019C28.9083 42.438 29.2012 42.3479 29.2631 42.3828C29.3871 42.4467 29.0942 42.5367 29.0322 42.5019Z" fill="white"/>
<path fill-rule="evenodd" clip-rule="evenodd" d="M16.3974 42.7459C16.2735 42.682 16.5664 42.5919 16.634 42.6238C16.7579 42.6878 16.465 42.7778 16.3974 42.7459Z" fill="white"/>
<path fill-rule="evenodd" clip-rule="evenodd" d="M19.4404 42.7459C19.3165 42.682 19.6094 42.5919 19.677 42.6238C19.7952 42.6878 19.508 42.7778 19.4404 42.7459Z" fill="white"/>
<path fill-rule="evenodd" clip-rule="evenodd" d="M32.0751 42.8631C31.9512 42.7991 32.2441 42.7091 32.3117 42.741C32.4356 42.8049 32.1427 42.895 32.0751 42.8631Z" fill="white"/>
<path fill-rule="evenodd" clip-rule="evenodd" d="M31.6044 42.9802C31.4805 42.9163 31.7734 42.8263 31.841 42.8582C31.9649 42.9221 31.672 43.0122 31.6044 42.9802Z" fill="white"/>
<path fill-rule="evenodd" clip-rule="evenodd" d="M35.8154 42.9802C35.6915 42.9163 35.9844 42.8263 36.052 42.8582C36.1702 42.9221 35.883 43.0122 35.8154 42.9802Z" fill="white"/>
<path fill-rule="evenodd" clip-rule="evenodd" d="M36.5165 43.1113C36.3926 43.0473 36.6855 42.9573 36.7531 42.9921C36.877 43.0561 36.5841 43.1461 36.5165 43.1113Z" fill="white"/>
<path fill-rule="evenodd" clip-rule="evenodd" d="M16.8642 43.2224C16.7403 43.1585 17.0332 43.0685 17.1008 43.1004C17.2247 43.1643 16.9318 43.2544 16.8642 43.2224Z" fill="white"/>
<path fill-rule="evenodd" clip-rule="evenodd" d="M16.3974 43.3474C16.2735 43.2835 16.5664 43.1935 16.634 43.2254C16.7579 43.2893 16.465 43.3794 16.3974 43.3474Z" fill="white"/>
<path fill-rule="evenodd" clip-rule="evenodd" d="M32.3056 43.7128C32.1817 43.6489 32.4746 43.5588 32.5422 43.5937C32.6605 43.6576 32.3732 43.7477 32.3056 43.7128Z" fill="white"/>
<path fill-rule="evenodd" clip-rule="evenodd" d="M27.8623 43.949C27.7384 43.8851 28.0313 43.795 28.0932 43.827C28.2171 43.8909 27.9242 43.9809 27.8623 43.949Z" fill="white"/>
<path fill-rule="evenodd" clip-rule="evenodd" d="M27.1552 44.4412C27.0313 44.3773 27.3242 44.2872 27.3918 44.3192C27.5157 44.3831 27.2228 44.4731 27.1552 44.4412Z" fill="white"/>
<path fill-rule="evenodd" clip-rule="evenodd" d="M26.6904 44.5584C26.5665 44.4945 26.8594 44.4044 26.9213 44.4363C27.0453 44.5003 26.7524 44.5903 26.6904 44.5584Z" fill="white"/>
<path fill-rule="evenodd" clip-rule="evenodd" d="M29.9677 44.5584C29.8438 44.4945 30.1367 44.4044 30.2043 44.4363C30.3226 44.5003 30.0353 44.5903 29.9677 44.5584Z" fill="white"/>
<path fill-rule="evenodd" clip-rule="evenodd" d="M14.0547 44.5575C14.5657 44.5342 14.8015 44.6563 14.7566 44.9206H14.0547V44.5575Z" fill="white"/>
<path fill-rule="evenodd" clip-rule="evenodd" d="M24.1191 44.8017C24.1191 44.6826 24.4055 44.7058 24.5852 44.6797C24.5852 44.7988 24.2988 44.7756 24.1191 44.8017Z" fill="white"/>
<path fill-rule="evenodd" clip-rule="evenodd" d="M14.9951 44.9159C14.8712 44.852 15.1641 44.762 15.226 44.7968C15.35 44.8607 15.0571 44.9508 14.9951 44.9159Z" fill="white"/>
<path fill-rule="evenodd" clip-rule="evenodd" d="M23.1813 5.57939C22.5412 5.21044 23.8944 5.91058 23.1813 5.57939V5.57939Z" fill="white"/>
<path fill-rule="evenodd" clip-rule="evenodd" d="M11.0185 10.7886C10.8501 10.6405 10.7715 10.5213 11.0185 10.6695C11.26 10.809 11.2038 10.9542 11.0185 10.7886Z" fill="white"/>
<path fill-rule="evenodd" clip-rule="evenodd" d="M21.7759 11.5127C21.5962 11.3268 21.9219 11.4226 22.0117 11.5127C22.1689 11.6754 21.8545 11.7829 21.7759 11.6318C21.759 11.5969 21.8039 11.5418 21.7759 11.5127Z" fill="white"/>
<path fill-rule="evenodd" clip-rule="evenodd" d="M12.652 12.2402C12.0119 12.6092 13.3651 11.909 12.652 12.2402V12.2402Z" fill="white"/>
<path fill-rule="evenodd" clip-rule="evenodd" d="M32.3051 12.8506C32.8273 12.3858 32.2041 13.176 32.0693 13.0917C31.8728 12.9668 32.2771 12.8738 32.3051 12.8506Z" fill="white"/>
<path fill-rule="evenodd" clip-rule="evenodd" d="M31.1374 13.8107C31.0363 13.6306 30.8398 13.8601 30.4355 13.8107C30.6714 13.4882 31.0757 13.2529 31.3732 12.9624C31.7831 12.9246 31.7888 13.6422 31.1374 13.4475C31.4069 13.6247 31.4069 13.7526 31.1374 13.9327C30.8735 13.9094 31.0083 13.8107 31.1374 13.8107Z" fill="white"/>
<path fill-rule="evenodd" clip-rule="evenodd" d="M9.37955 13.6949C9.31778 13.1894 10.379 13.7966 10.3173 14.0581C9.43008 14.2353 10.2723 13.5177 9.37955 13.6949Z" fill="white"/>
<path fill-rule="evenodd" clip-rule="evenodd" d="M36.2806 14.3033C36.2469 14.3033 36.3704 14.1057 36.5164 14.1813C36.5164 14.1813 35.9718 14.9511 35.5787 14.5444C35.4608 14.4195 35.9606 14.4747 35.8146 14.5444C35.9493 14.4805 36.0616 14.3091 36.2806 14.3033Z" fill="white"/>
<path fill-rule="evenodd" clip-rule="evenodd" d="M36.0497 15.3873C35.623 15.0009 37.0717 16.0177 36.0497 15.3873V15.3873Z" fill="white"/>
<path fill-rule="evenodd" clip-rule="evenodd" d="M24.5836 16.2402C23.9435 16.6092 25.2967 15.909 24.5836 16.2402V16.2402Z" fill="white"/>
<path fill-rule="evenodd" clip-rule="evenodd" d="M25.7518 18.8962C26.5828 18.7074 25.8922 19.3087 26.4537 19.2593C26.3807 19.515 25.6395 19.1315 25.7518 18.8962Z" fill="white"/>
<path fill-rule="evenodd" clip-rule="evenodd" d="M30.199 26.3951C29.9126 26.0901 30.5415 26.43 30.665 26.6362C30.7436 26.7699 30.446 26.6537 30.199 26.3951Z" fill="white"/>
<path fill-rule="evenodd" clip-rule="evenodd" d="M22.0128 28.3409C21.2885 28.1841 22.6866 28.1812 22.4788 28.463C22.2767 28.6925 22.3385 28.3322 22.0128 28.3409Z" fill="white"/>
<path fill-rule="evenodd" clip-rule="evenodd" d="M26.6901 31.9609C27.4818 32.417 26.0725 32.7657 25.7524 33.0504C25.3313 32.786 26.9933 32.5681 26.6901 31.9609Z" fill="white"/>
<path fill-rule="evenodd" clip-rule="evenodd" d="M30.1986 33.9054C30.7152 33.7021 29.3788 34.3818 28.559 34.2685C28.3625 34.2453 28.34 34.315 28.3232 34.3877C28.1154 34.0129 29.4013 34.1262 30.193 33.9054H30.1986Z" fill="white"/>
<path fill-rule="evenodd" clip-rule="evenodd" d="M27.1552 34.7453C27.1721 34.7249 27.2338 34.4025 27.3911 34.5042C27.582 34.6233 26.824 35.091 27.1552 34.7453Z" fill="white"/>
<path fill-rule="evenodd" clip-rule="evenodd" d="M12.652 36.5683C12.0119 36.9373 13.3651 36.2371 12.652 36.5683V36.5683Z" fill="white"/>
<path fill-rule="evenodd" clip-rule="evenodd" d="M36.9875 38.6245C36.819 38.8395 36.5607 38.6419 36.2856 38.6245C36.2014 38.8308 36.4709 38.854 36.7517 38.8656C36.7124 39.008 36.3249 38.9673 36.0498 38.9876C36.2014 39.1096 36.5888 39.1125 36.5158 39.3508C36.0386 39.313 36.0554 39.0225 35.5781 38.9876C35.8589 38.7552 36.3811 38.3282 36.9819 38.6245H36.9875Z" fill="white"/>
<path fill-rule="evenodd" clip-rule="evenodd" d="M17.566 38.7435C16.9259 38.3745 18.2791 39.0746 17.566 38.7435V38.7435Z" fill="white"/>
<path fill-rule="evenodd" clip-rule="evenodd" d="M26.4586 42.748C25.8185 43.117 27.1717 42.4168 26.4586 42.748V42.748Z" fill="white"/>
</g>
</g>
</svg>
